<svg id="Warstwa_1" data-name="Warstwa 1" xmlns="http://www.w3.org/2000/svg" xmlns:xlink="http://www.w3.org/1999/xlink" viewBox="0 0 165 166.79"><defs><style>.cls-1,.cls-5{fill:none;}.cls-2{fill:#004087;}.cls-3{fill:#fff;}.cls-4{fill:url(#Gradient_bez_nazwy);}.cls-5{stroke:#c91619;stroke-width:1.17px;stroke-dasharray:5.32 3.09;}.cls-6{fill:#c91619;}</style><radialGradient id="Gradient_bez_nazwy" cx="217.34" cy="906.9" r="80.4" gradientTransform="matrix(0, 0.87, 1, 0, -824.4, -108.02)" gradientUnits="userSpaceOnUse"><stop offset="0" stop-color="#fff"/><stop offset="1" stop-color="#a8a8a8"/></radialGradient></defs><title>200_ml</title><rect class="cls-1" y="-1.11" width="165" height="190"/><path class="cls-2" d="M82.5,169.18a4.64,4.64,0,0,1-2-.48l-92.6-46.85a4.51,4.51,0,0,1-2-6,4.49,4.49,0,0,1,4-2.47,4.47,4.47,0,0,1,2,.49l90.6,45.77,90.56-45.82a4.5,4.5,0,0,1,4.07,8L84.53,168.7A4.62,4.62,0,0,1,82.5,169.18Z"/><path class="cls-3" d="M-10.09,115.33A2.58,2.58,0,0,1-9,115.6l91.5,46.28L174,115.6a2.47,2.47,0,0,1,1.13-.27,2.5,2.5,0,0,1,1.13,4.73L83.63,166.91a2.5,2.5,0,0,1-2.26,0l-92.59-46.85a2.5,2.5,0,0,1-1.1-3.36,2.51,2.51,0,0,1,2.23-1.37m0-4a6.46,6.46,0,0,0-5.8,3.57A6.51,6.51,0,0,0-13,123.63h0l92.59,46.85a6.54,6.54,0,0,0,5.88,0L178,123.63a6.5,6.5,0,0,0-5.87-11.6L82.5,157.4-7.16,112a6.48,6.48,0,0,0-2.93-.7Z"/><polygon class="cls-4" points="156.95 117.7 156.95 43.23 82.5 6 8.05 43.23 8.05 117.7 82.5 154.93 156.95 117.7"/><polygon class="cls-5" points="160.67 119.56 160.67 41.37 82.5 2.28 4.33 41.37 4.33 119.56 82.5 158.66 160.67 119.56"/><ellipse class="cls-6" cx="82.5" cy="2.28" rx="1.83" ry="1.59"/><ellipse class="cls-6" cx="160.67" cy="41.19" rx="1.83" ry="1.59"/><ellipse class="cls-6" cx="160.67" cy="119.87" rx="1.83" ry="1.59"/><ellipse class="cls-6" cx="82.5" cy="158.66" rx="1.83" ry="1.59"/><ellipse class="cls-6" cx="4.33" cy="119.87" rx="1.83" ry="1.59"/><ellipse class="cls-6" cx="4.33" cy="41.3" rx="1.83" ry="1.59"/><path class="cls-2" d="M58.66,75.34v-3l5.64-7.5c.42-.55.83-1.09,1.21-1.61a9.79,9.79,0,0,0,.93-1.55A4.11,4.11,0,0,0,66.8,60a1.81,1.81,0,0,0-.41-1.31,1.42,1.42,0,0,0-1.1-.43,1.82,1.82,0,0,0-1.23.38,2,2,0,0,0-.59,1,6,6,0,0,0-.16,1.41v1H58.6V61a7.4,7.4,0,0,1,.68-3.24,4.92,4.92,0,0,1,2.11-2.24,7.74,7.74,0,0,1,3.81-.77A7.07,7.07,0,0,1,70,56.14a5.05,5.05,0,0,1,1.61,4,5.83,5.83,0,0,1-.45,2.33,9.53,9.53,0,0,1-1.19,2c-.49.67-1,1.36-1.55,2.08l-4.3,5.56H71v3.21Z"/><path class="cls-2" d="M80.4,75.73A7.64,7.64,0,0,1,76.85,75a5,5,0,0,1-2.15-2,6.25,6.25,0,0,1-.73-3V60.65a7,7,0,0,1,.69-3.1,4.77,4.77,0,0,1,2.1-2.09,7.79,7.79,0,0,1,3.64-.78,7.52,7.52,0,0,1,3.61.78,4.68,4.68,0,0,1,2.09,2.06,6.76,6.76,0,0,1,.69,3.1v9.29a6.14,6.14,0,0,1-.73,3A5.05,5.05,0,0,1,83.91,75,7.61,7.61,0,0,1,80.4,75.73Zm0-3.75a1.22,1.22,0,0,0,1-.39,2,2,0,0,0,.38-.9,8.89,8.89,0,0,0,.07-.89v-9a7.77,7.77,0,0,0-.06-1,1.94,1.94,0,0,0-.36-1,1.47,1.47,0,0,0-2.06,0,1.85,1.85,0,0,0-.39,1,7.85,7.85,0,0,0,0,1v9a5.43,5.43,0,0,0,0,.9,2.05,2.05,0,0,0,.39.91A1.2,1.2,0,0,0,80.4,72Z"/><path class="cls-2" d="M96.38,75.73A7.6,7.6,0,0,1,92.84,75a5,5,0,0,1-2.16-2,6.37,6.37,0,0,1-.73-3V60.65a7,7,0,0,1,.65-3.13,4.86,4.86,0,0,1,2.11-2.1,7.76,7.76,0,0,1,3.64-.78,7.52,7.52,0,0,1,3.61.78,4.79,4.79,0,0,1,2.1,2.1,6.88,6.88,0,0,1,.68,3.1v9.29a6.14,6.14,0,0,1-.73,3,4.94,4.94,0,0,1-2.11,2A7.55,7.55,0,0,1,96.38,75.73Zm0-3.75a1.23,1.23,0,0,0,1-.39,1.89,1.89,0,0,0,.38-.91,8.66,8.66,0,0,0,.07-.89v-9a7.77,7.77,0,0,0-.06-1,1.94,1.94,0,0,0-.36-1,1.47,1.47,0,0,0-2.06,0,2,2,0,0,0-.37,1,7.77,7.77,0,0,0-.06,1v9a5.27,5.27,0,0,0,.09.89,2.05,2.05,0,0,0,.39.91A1.17,1.17,0,0,0,96.38,72Z"/><path class="cls-2" d="M66.2,105.56l.38-20.4h5.58L74.77,97l2.79-11.86h5.38l.4,20.38H79.65L79.22,92l-2.73,13.56H73.2L70.3,91.89,70,105.56Z"/><path class="cls-2" d="M86.4,105.56V85.16h5.2v17.35H97v3Z"/></svg>