<svg xmlns="http://www.w3.org/2000/svg" viewBox="0 0 165 214.89"><defs><style>.cls-1{fill:#004087;}</style></defs><title>200_ML_SAMO</title><g id="Warstwa_1" data-name="Warstwa 1"><path class="cls-1" d="M48,69.12v-4.6L56.75,52.9c.66-.86,1.28-1.69,1.87-2.5a14.85,14.85,0,0,0,1.44-2.46,6.35,6.35,0,0,0,.56-2.61,2.85,2.85,0,0,0-.63-2,2.25,2.25,0,0,0-1.71-.66,2.79,2.79,0,0,0-1.89.58,2.93,2.93,0,0,0-.92,1.56A8.67,8.67,0,0,0,55.22,47v1.56h-7.3V46.85a11.66,11.66,0,0,1,1-5,7.65,7.65,0,0,1,3.29-3.47,11.88,11.88,0,0,1,5.89-1.27c3.28,0,5.74.74,7.41,2.2a7.76,7.76,0,0,1,2.5,6.15,8.92,8.92,0,0,1-.7,3.55,15.25,15.25,0,0,1-1.84,3.17c-.77,1-1.59,2.1-2.46,3.22L56.39,64H67.06v5.11Z"/><path class="cls-1" d="M81.69,69.7a11.75,11.75,0,0,1-5.49-1.15,7.8,7.8,0,0,1-3.33-3.17,9.61,9.61,0,0,1-1.13-4.72V46.34a10.53,10.53,0,0,1,1.06-4.85,7.44,7.44,0,0,1,3.26-3.26,12,12,0,0,1,5.63-1.17,11.85,11.85,0,0,1,5.61,1.17,7.55,7.55,0,0,1,3.24,3.26,10.66,10.66,0,0,1,1,4.85V60.66a9.63,9.63,0,0,1-1.12,4.7,7.78,7.78,0,0,1-3.33,3.19A11.66,11.66,0,0,1,81.69,69.7Zm0-5.81a1.85,1.85,0,0,0,1.55-.6,2.88,2.88,0,0,0,.59-1.41,10.84,10.84,0,0,0,.11-1.38v-14a14.24,14.24,0,0,0-.09-1.5,3,3,0,0,0-.56-1.48,2.29,2.29,0,0,0-3.2,0A3,3,0,0,0,79.53,45a14.24,14.24,0,0,0-.09,1.5v14a8.34,8.34,0,0,0,.13,1.38,3.1,3.1,0,0,0,.61,1.41A1.81,1.81,0,0,0,81.69,63.89Z"/><path class="cls-1" d="M106.45,69.7A11.75,11.75,0,0,1,101,68.55a7.8,7.8,0,0,1-3.33-3.17,9.61,9.61,0,0,1-1.13-4.72V46.34a10.53,10.53,0,0,1,1.06-4.85,7.44,7.44,0,0,1,3.26-3.26,14.08,14.08,0,0,1,11.24,0,7.55,7.55,0,0,1,3.24,3.26,10.66,10.66,0,0,1,1,4.85V60.66a9.63,9.63,0,0,1-1.12,4.7,7.78,7.78,0,0,1-3.33,3.19A11.66,11.66,0,0,1,106.45,69.7Zm0-5.81a1.85,1.85,0,0,0,1.55-.6,2.88,2.88,0,0,0,.59-1.41,10.84,10.84,0,0,0,.11-1.38v-14a14.24,14.24,0,0,0-.09-1.5,3,3,0,0,0-.56-1.48,2.29,2.29,0,0,0-3.2,0,3,3,0,0,0-.56,1.48,14.24,14.24,0,0,0-.09,1.5v14a8.34,8.34,0,0,0,.13,1.38,3.1,3.1,0,0,0,.61,1.41A1.81,1.81,0,0,0,106.45,63.89Z"/><path class="cls-1" d="M59.7,115.92l.63-31.59H69l4,18.37L77.3,84.33h8.33l.63,31.59H80.54l-.67-21-4.24,21H70.55L66,94.74l-.54,21.18Z"/><path class="cls-1" d="M91,115.92V84.33h8.06V111.2h8.37v4.72Z"/></g></svg>