<svg xmlns="http://www.w3.org/2000/svg" xmlns:xlink="http://www.w3.org/1999/xlink" viewBox="0 0 165 214.89"><defs><style>.cls-1,.cls-5{fill:none;}.cls-2{fill:#004087;}.cls-3{fill:#fff;}.cls-4{fill:url(#Gradient_bez_nazwy_16);}.cls-5{stroke:#c91619;stroke-width:1.17px;stroke-dasharray:5.32 3.09;}.cls-6{fill:#c91619;}.cls-7{fill:#c90c0f;}</style><radialGradient id="Gradient_bez_nazwy_16" cx="-840.94" cy="-906.16" r="80.37" gradientTransform="translate(-824.12 809.29) rotate(90) scale(0.87 1)" gradientUnits="userSpaceOnUse"><stop offset="0" stop-color="#fff"/><stop offset="1" stop-color="#a8a8a8"/></radialGradient></defs><title>200_ML_BIG</title><g id="Warstwa_2" data-name="Warstwa 2"><rect class="cls-1" y="-1.11" width="165" height="190"/></g><g id="Warstwa_1" data-name="Warstwa 1"><path class="cls-2" d="M82.5,169.18a4.62,4.62,0,0,1-2-.48l-92.6-46.85a4.51,4.51,0,0,1-2-6,4.47,4.47,0,0,1,4-2.47,4.5,4.5,0,0,1,2,.49L82.5,159.64l90.56-45.82a4.5,4.5,0,0,1,4.07,8l-92.6,46.84A4.47,4.47,0,0,1,82.5,169.18Z"/><path class="cls-3" d="M-10.09,115.33A2.57,2.57,0,0,1-9,115.6L82.5,161.88,174,115.6a2.57,2.57,0,0,1,1.13-.27,2.5,2.5,0,0,1,1.13,4.73L83.63,166.91a2.5,2.5,0,0,1-2.26,0l-92.59-46.85a2.5,2.5,0,0,1-1.1-3.36,2.5,2.5,0,0,1,2.23-1.37m0-4a6.46,6.46,0,0,0-5.8,3.57A6.5,6.5,0,0,0-13,123.63l92.59,46.85a6.52,6.52,0,0,0,5.88,0L178,123.63a6.5,6.5,0,0,0-2.94-12.3,6.52,6.52,0,0,0-2.93.7L82.5,157.4-7.16,112a6.48,6.48,0,0,0-2.93-.7Z"/><polygon class="cls-4" points="156.95 117.7 156.95 43.23 82.5 6 8.05 43.23 8.05 117.7 82.5 154.93 156.95 117.7"/><polygon class="cls-5" points="160.67 119.56 160.67 41.37 82.5 2.28 4.33 41.37 4.33 119.56 82.5 158.66 160.67 119.56"/><ellipse class="cls-6" cx="82.5" cy="2.28" rx="1.83" ry="1.59"/><ellipse class="cls-6" cx="160.67" cy="41.19" rx="1.83" ry="1.59"/><ellipse class="cls-6" cx="160.67" cy="119.87" rx="1.83" ry="1.59"/><ellipse class="cls-6" cx="82.5" cy="158.66" rx="1.83" ry="1.59"/><ellipse class="cls-6" cx="4.33" cy="119.87" rx="1.83" ry="1.59"/><ellipse class="cls-6" cx="4.33" cy="41.3" rx="1.83" ry="1.59"/><path class="cls-2" d="M41.3,71v-5.5L51.73,51.63c.79-1,1.53-2,2.23-3a15.85,15.85,0,0,0,1.72-2.94,7.46,7.46,0,0,0,.68-3.12,3.36,3.36,0,0,0-.76-2.42,2.67,2.67,0,0,0-2-.79,3.37,3.37,0,0,0-2.26.69,3.5,3.5,0,0,0-1.1,1.87,10.46,10.46,0,0,0-.3,2.61v1.86H41.19v-2a14,14,0,0,1,1.23-6,9.2,9.2,0,0,1,3.93-4.15,14.29,14.29,0,0,1,7-1.51q5.87,0,8.85,2.63a9.28,9.28,0,0,1,3,7.34A10.62,10.62,0,0,1,64.4,47a18.39,18.39,0,0,1-2.21,3.8q-1.36,1.84-2.93,3.84l-8,10.3H64.05V71Z"/><path class="cls-2" d="M81.53,71.71A14,14,0,0,1,75,70.34a9.38,9.38,0,0,1-4-3.8,11.37,11.37,0,0,1-1.35-5.64V43.8A12.71,12.71,0,0,1,70.91,38a8.89,8.89,0,0,1,3.9-3.89,14.31,14.31,0,0,1,6.72-1.4,14.14,14.14,0,0,1,6.7,1.4A8.92,8.92,0,0,1,92.1,38a12.58,12.58,0,0,1,1.27,5.8V60.9A11.43,11.43,0,0,1,92,66.52a9.31,9.31,0,0,1-4,3.82A13.91,13.91,0,0,1,81.53,71.71Zm0-6.94a2.23,2.23,0,0,0,1.86-.72,3.41,3.41,0,0,0,.7-1.68,11.89,11.89,0,0,0,.13-1.65V44a17.39,17.39,0,0,0-.1-1.8,3.69,3.69,0,0,0-.68-1.77,2.21,2.21,0,0,0-1.91-.77,2.23,2.23,0,0,0-1.91.77A3.68,3.68,0,0,0,79,42.19a17.62,17.62,0,0,0-.11,1.8V60.72A9.92,9.92,0,0,0,79,62.37a3.54,3.54,0,0,0,.72,1.68A2.16,2.16,0,0,0,81.53,64.77Z"/><path class="cls-2" d="M111.12,71.71a14,14,0,0,1-6.56-1.37,9.32,9.32,0,0,1-4-3.8,11.37,11.37,0,0,1-1.35-5.64V43.8a12.7,12.7,0,0,1,1.26-5.8,9,9,0,0,1,3.9-3.89,14.33,14.33,0,0,1,6.73-1.4,14.17,14.17,0,0,1,6.7,1.4A8.92,8.92,0,0,1,121.69,38,12.7,12.7,0,0,1,123,43.8V60.9a11.42,11.42,0,0,1-1.34,5.62,9.36,9.36,0,0,1-4,3.82A13.93,13.93,0,0,1,111.12,71.71Zm0-6.94a2.2,2.2,0,0,0,1.85-.72,3.41,3.41,0,0,0,.7-1.68,12.07,12.07,0,0,0,.14-1.65V44a17.62,17.62,0,0,0-.11-1.8,3.58,3.58,0,0,0-.67-1.77,2.75,2.75,0,0,0-3.82,0,3.58,3.58,0,0,0-.67,1.77,15.16,15.16,0,0,0-.11,1.8V60.72a9.79,9.79,0,0,0,.16,1.65,3.65,3.65,0,0,0,.73,1.68A2.13,2.13,0,0,0,111.12,64.77Z"/><path class="cls-2" d="M55.25,126.94,56,89.19H66.34l4.78,22,5.17-22h9.95L87,126.94H80.16l-.81-25.12-5,25.12H68.22l-5.38-25.31-.65,25.31Z"/><path class="cls-2" d="M92.64,126.94V89.19h9.63V121.3h10v5.64Z"/><path class="cls-7" d="M10.8,129.15a12.77,12.77,0,0,1-6-1.31,8.89,8.89,0,0,1-3.95-4.27A16.93,16.93,0,0,1-.51,117l-.05-1.78,7.21-1.08-2.08-1.81a17.75,17.75,0,0,1-3.47-4,10.94,10.94,0,0,1-1.57-6,10,10,0,0,1,3.11-7.79,11.55,11.55,0,0,1,8-2.68A10.55,10.55,0,0,1,15.75,93a8.23,8.23,0,0,1,3.15,3,11.47,11.47,0,0,1,1.35,3.63,20.86,20.86,0,0,1,.38,3.33l.05,1.82-7.45.91,2.33,2.05a20.31,20.31,0,0,1,3.93,4.5A12.23,12.23,0,0,1,21.27,119a10.33,10.33,0,0,1-1.3,5.11,9.64,9.64,0,0,1-3.69,3.7A10.93,10.93,0,0,1,10.8,129.15Zm-1.14-12a8.82,8.82,0,0,0,.26,1.64,3.17,3.17,0,0,0,.3.79,1.64,1.64,0,0,0,0-.23A3.83,3.83,0,0,0,9.66,117.16Z"/><path class="cls-3" d="M10.6,93.88a8.5,8.5,0,0,1,4.17.88,6.17,6.17,0,0,1,2.4,2.29,9.74,9.74,0,0,1,1.12,3,19.41,19.41,0,0,1,.34,3l-6.15.76q0-1.44-.18-2.49a3.55,3.55,0,0,0-.58-1.64,1.6,1.6,0,0,0-1.36-.58A1.55,1.55,0,0,0,8.9,100a3.55,3.55,0,0,0-.46,1.68,4.76,4.76,0,0,0,.86,2.93,16.83,16.83,0,0,0,2.26,2.38l2.67,2.35a18,18,0,0,1,3.58,4.08A10.25,10.25,0,0,1,19.27,119a8.31,8.31,0,0,1-1,4.13,7.55,7.55,0,0,1-2.94,2.94,8.91,8.91,0,0,1-4.49,1.08,10.75,10.75,0,0,1-5.07-1.08,6.88,6.88,0,0,1-3.08-3.34,15.34,15.34,0,0,1-1.16-5.85L7.6,116A15.13,15.13,0,0,0,8,119.32a3.83,3.83,0,0,0,1,1.84,2.16,2.16,0,0,0,1.5.56A1.44,1.44,0,0,0,11.9,121a4,4,0,0,0,.34-1.6,5.78,5.78,0,0,0-1-3.38,15.3,15.3,0,0,0-2.6-2.77l-2.79-2.44a15.49,15.49,0,0,1-3.1-3.53,8.93,8.93,0,0,1-1.26-4.89A8,8,0,0,1,4,96.05a9.58,9.58,0,0,1,6.63-2.17m0-4a13.5,13.5,0,0,0-9.3,3.19c-1.72,1.54-3.77,4.4-3.77,9.28a12.93,12.93,0,0,0,1.89,7,19.24,19.24,0,0,0,2.7,3.35l-1.22.19-3.52.53L-2.5,117A18.79,18.79,0,0,0-1,124.41a10.81,10.81,0,0,0,4.83,5.19,14.7,14.7,0,0,0,7,1.55,13,13,0,0,0,6.47-1.6,11.69,11.69,0,0,0,4.45-4.46A12.31,12.31,0,0,0,23.27,119a14.28,14.28,0,0,0-2.09-7.79,22.34,22.34,0,0,0-3.31-4l1.25-.16,3.61-.44-.1-3.64a23.85,23.85,0,0,0-.41-3.65,13.67,13.67,0,0,0-1.59-4.25,10.12,10.12,0,0,0-3.91-3.79,12.47,12.47,0,0,0-6.12-1.38Z"/><polygon class="cls-7" points="159.28 135.6 159.28 120.7 152.39 99.25 163.37 99.25 164.85 104.19 166.18 99.25 176.91 99.25 170.15 120.69 170.15 135.6 159.28 135.6"/><path class="cls-3" d="M174.18,101.26l-6,19.13V133.6h-6.87V120.39l-6.15-19.13h6.75L165,111.48l2.75-10.22h6.47m5.46-4h-30l1.68,5.22L157.28,121V137.6h14.87V121L178,102.46l1.64-5.2Z"/></g></svg>