<svg id="Warstwa_1" data-name="Warstwa 1" xmlns="http://www.w3.org/2000/svg" xmlns:xlink="http://www.w3.org/1999/xlink" viewBox="0 0 165 166.79"><defs><style>.cls-1,.cls-5{fill:none;}.cls-2{fill:#004087;}.cls-3{fill:#fff;}.cls-4{fill:url(#Gradient_bez_nazwy);}.cls-5{stroke:#c91619;stroke-width:1.17px;stroke-dasharray:5.32 3.09;}.cls-6{fill:#c91619;}</style><radialGradient id="Gradient_bez_nazwy" cx="32.34" cy="1091.9" r="80.4" gradientTransform="matrix(0, 0.87, 1, 0, -1009.4, 52.93)" gradientUnits="userSpaceOnUse"><stop offset="0" stop-color="#fff"/><stop offset="1" stop-color="#a8a8a8"/></radialGradient></defs><title>30_mies</title><rect class="cls-1" y="-1.11" width="165" height="190"/><path class="cls-2" d="M82.5,169.18a4.64,4.64,0,0,1-2-.48l-92.6-46.85a4.51,4.51,0,0,1-2-6,4.49,4.49,0,0,1,4-2.47,4.47,4.47,0,0,1,2,.49l90.6,45.77,90.56-45.82a4.5,4.5,0,0,1,4.07,8L84.53,168.7A4.62,4.62,0,0,1,82.5,169.18Z"/><path class="cls-3" d="M-10.09,115.33A2.58,2.58,0,0,1-9,115.6l91.5,46.28L174,115.6a2.47,2.47,0,0,1,1.13-.27,2.5,2.5,0,0,1,1.13,4.73L83.63,166.91a2.5,2.5,0,0,1-2.26,0l-92.59-46.85a2.5,2.5,0,0,1-1.1-3.36,2.51,2.51,0,0,1,2.23-1.37m0-4a6.46,6.46,0,0,0-5.8,3.57A6.51,6.51,0,0,0-13,123.63h0l92.59,46.85a6.54,6.54,0,0,0,5.88,0L178,123.63a6.5,6.5,0,0,0-5.87-11.6L82.5,157.4-7.16,112a6.48,6.48,0,0,0-2.93-.7Z"/><polygon class="cls-4" points="156.95 117.7 156.95 43.23 82.5 6 8.05 43.23 8.05 117.7 82.5 154.93 156.95 117.7"/><polygon class="cls-5" points="160.67 119.56 160.67 41.37 82.5 2.28 4.33 41.37 4.33 119.56 82.5 158.66 160.67 119.56"/><ellipse class="cls-6" cx="82.5" cy="2.28" rx="1.83" ry="1.59"/><ellipse class="cls-6" cx="160.67" cy="41.19" rx="1.83" ry="1.59"/><ellipse class="cls-6" cx="160.67" cy="119.87" rx="1.83" ry="1.59"/><ellipse class="cls-6" cx="82.5" cy="158.66" rx="1.83" ry="1.59"/><ellipse class="cls-6" cx="4.33" cy="119.87" rx="1.83" ry="1.59"/><ellipse class="cls-6" cx="4.33" cy="41.3" rx="1.83" ry="1.59"/><path class="cls-2" d="M73.37,69.08a6.43,6.43,0,0,1-3.6-.87,4.65,4.65,0,0,1-1.86-2.41,10.54,10.54,0,0,1-.55-3.57v-.78h4.5v.78A9.26,9.26,0,0,0,72,64a1.72,1.72,0,0,0,.49,1,1.43,1.43,0,0,0,1,.31,1.23,1.23,0,0,0,.93-.33,1.78,1.78,0,0,0,.41-1,9.16,9.16,0,0,0,.11-1.61,5.57,5.57,0,0,0-.44-2.47A1.91,1.91,0,0,0,72.61,59h-.83v-3.1h.72a2.07,2.07,0,0,0,1.92-.79,4.73,4.73,0,0,0,.48-2.42,4.55,4.55,0,0,0-.33-1.94,1.29,1.29,0,0,0-1.26-.68,1.14,1.14,0,0,0-1.17.76,5.57,5.57,0,0,0-.28,1.94v1.13h-4.5V52.61a7.07,7.07,0,0,1,.71-3.33,4.85,4.85,0,0,1,2.05-2.06,6.74,6.74,0,0,1,3.19-.7,7.31,7.31,0,0,1,3.24.67,4.74,4.74,0,0,1,2.07,2,6.52,6.52,0,0,1,.73,3.24,6.11,6.11,0,0,1-.78,3.21,3.25,3.25,0,0,1-1.89,1.59,3.78,3.78,0,0,1,1.36.86,4,4,0,0,1,1,1.61,8,8,0,0,1,.35,2.57,9.86,9.86,0,0,1-.58,3.53,4.9,4.9,0,0,1-1.9,2.41A6.28,6.28,0,0,1,73.37,69.08Z"/><path class="cls-2" d="M87.6,69.08a6.26,6.26,0,0,1-3.29-.8,5.1,5.1,0,0,1-2-2.19,7.48,7.48,0,0,1-.67-3.26v-9.9a8.31,8.31,0,0,1,.63-3.35,4.94,4.94,0,0,1,2-2.25,6.35,6.35,0,0,1,3.37-.81,6.27,6.27,0,0,1,3.35.81,4.9,4.9,0,0,1,1.94,2.25,8.31,8.31,0,0,1,.63,3.35v9.9a7.42,7.42,0,0,1-.67,3.24,5,5,0,0,1-2,2.21A6.23,6.23,0,0,1,87.6,69.08Zm0-4a1,1,0,0,0,.93-.42,2.3,2.3,0,0,0,.35-1,8.78,8.78,0,0,0,.06-1V53c0-.3,0-.65,0-1a2.33,2.33,0,0,0-.34-1,1.26,1.26,0,0,0-1.91,0,2.33,2.33,0,0,0-.34,1c0,.39,0,.74,0,1v9.68a7.14,7.14,0,0,0,.08,1,2.18,2.18,0,0,0,.36,1A1,1,0,0,0,87.6,65.06Z"/><path class="cls-2" d="M48.08,91.52V80.64h3v.86a3.78,3.78,0,0,1,1.25-.83,3.85,3.85,0,0,1,1.33-.24,2,2,0,0,1,1.14.33,2,2,0,0,1,.73,1,3.74,3.74,0,0,1,1.34-1,3.79,3.79,0,0,1,1.42-.29,2,2,0,0,1,1.12.31,2.13,2.13,0,0,1,.73.9,3.45,3.45,0,0,1,.26,1.43v8.45h-3V83.39a1,1,0,0,0-.16-.65.57.57,0,0,0-.48-.2,1.37,1.37,0,0,0-.47.1,2.64,2.64,0,0,0-.55.29v8.59h-3V83.39a1,1,0,0,0-.17-.65.59.59,0,0,0-.49-.2,1.33,1.33,0,0,0-.48.1,2.85,2.85,0,0,0-.54.29v8.59Z"/><path class="cls-2" d="M62.26,78.79V76.66h3.09v2.13Zm0,12.73V80.64h3.07V91.52Z"/><path class="cls-2" d="M70.81,91.71a4.51,4.51,0,0,1-2-.42A3,3,0,0,1,67.48,90a3.89,3.89,0,0,1-.46-2v-4a3.88,3.88,0,0,1,.46-2,2.92,2.92,0,0,1,1.31-1.24,4.52,4.52,0,0,1,2-.42,4.47,4.47,0,0,1,2,.41A2.75,2.75,0,0,1,74,82.09a4.41,4.41,0,0,1,.41,2v2.19H70.06v2.09a2.2,2.2,0,0,0,.09.68.67.67,0,0,0,.27.37.65.65,0,0,0,.39.12.75.75,0,0,0,.4-.11.73.73,0,0,0,.29-.33,1.51,1.51,0,0,0,.1-.62V87.32h2.83v1.06a3.13,3.13,0,0,1-1,2.49A3.91,3.91,0,0,1,70.81,91.71Zm-.75-6.87H71.6v-1.1a1.75,1.75,0,0,0-.1-.67.62.62,0,0,0-.29-.34.79.79,0,0,0-.42-.1.6.6,0,0,0-.38.12.7.7,0,0,0-.26.38,2.6,2.6,0,0,0-.09.78Z"/><path class="cls-2" d="M79.46,91.71a4.18,4.18,0,0,1-2.39-.64A4.52,4.52,0,0,1,75.52,89l2.09-.92a3.77,3.77,0,0,0,.71,1.16,1.21,1.21,0,0,0,.89.42.83.83,0,0,0,.54-.15.52.52,0,0,0,.18-.42,1.16,1.16,0,0,0-.33-.79,13,13,0,0,0-1.18-1l-.79-.66a8.53,8.53,0,0,1-1.37-1.42,2.86,2.86,0,0,1-.5-1.71,2.69,2.69,0,0,1,.47-1.56,3.11,3.11,0,0,1,1.23-1.06,3.74,3.74,0,0,1,1.66-.37,3.45,3.45,0,0,1,2.24.73,3.89,3.89,0,0,1,1.26,2.07l-2,.91a3.24,3.24,0,0,0-.32-.72,2.11,2.11,0,0,0-.5-.6,1,1,0,0,0-.63-.24.68.68,0,0,0-.48.16.62.62,0,0,0-.18.46,1.18,1.18,0,0,0,.41.77,12.84,12.84,0,0,0,1.12,1l.77.68c.31.26.62.54.92.84a4.51,4.51,0,0,1,.75,1,2.67,2.67,0,0,1,.29,1.24,2.73,2.73,0,0,1-.47,1.61,2.91,2.91,0,0,1-1.24,1A3.86,3.86,0,0,1,79.46,91.71Z"/><path class="cls-2" d="M84.09,78.79V76.66h3.09v2.13Zm0,12.73V80.64h3.07V91.52Z"/><path class="cls-2" d="M92.64,91.71a4.51,4.51,0,0,1-2-.42A3,3,0,0,1,89.31,90a3.89,3.89,0,0,1-.46-2v-4a3.88,3.88,0,0,1,.46-2,2.94,2.94,0,0,1,1.3-1.24,4.6,4.6,0,0,1,2-.42,4.47,4.47,0,0,1,2,.41,2.75,2.75,0,0,1,1.2,1.23,4.41,4.41,0,0,1,.41,2v2.19H91.89v2.09A2.2,2.2,0,0,0,92,89a.71.71,0,0,0,.26.37.7.7,0,0,0,.4.12.77.77,0,0,0,.4-.11.73.73,0,0,0,.29-.33,1.51,1.51,0,0,0,.1-.62V87.32h2.83v1.06a3.1,3.1,0,0,1-1,2.49A3.88,3.88,0,0,1,92.64,91.71Zm1.41,4.52a9.05,9.05,0,0,1-1-.06,3.57,3.57,0,0,1-1-.28,1.8,1.8,0,0,1-.73-.61,1.84,1.84,0,0,1-.28-1.08,3,3,0,0,1,.2-1,4.58,4.58,0,0,1,.55-1,5.34,5.34,0,0,1,.72-.82H93.9c-.11.22-.22.45-.33.71a4.7,4.7,0,0,0-.25.78,3.11,3.11,0,0,0-.1.79,1,1,0,0,0,.37.88,1.47,1.47,0,0,0,.84.23h.3l.24,0-.3,1.48-.27,0ZM91.89,84.84h1.54v-1.1a1.75,1.75,0,0,0-.1-.67.62.62,0,0,0-.29-.34.82.82,0,0,0-.42-.1.65.65,0,0,0-.39.12.74.74,0,0,0-.25.38,2.6,2.6,0,0,0-.09.78Z"/><path class="cls-2" d="M101.47,91.71a4.34,4.34,0,0,1-2-.43A3.05,3.05,0,0,1,98.16,90a4,4,0,0,1-.45-2v-4a4,4,0,0,1,.45-2,3,3,0,0,1,1.29-1.24,4.47,4.47,0,0,1,2-.42,5,5,0,0,1,2,.36,2.65,2.65,0,0,1,1.25,1.08,3.51,3.51,0,0,1,.43,1.84v1.14h-3V83.63a2,2,0,0,0-.09-.67.65.65,0,0,0-.24-.33.8.8,0,0,0-.39-.09.57.57,0,0,0-.37.12.73.73,0,0,0-.23.4,2.93,2.93,0,0,0-.08.76v4.52a1.94,1.94,0,0,0,.18,1,.6.6,0,0,0,.52.26.7.7,0,0,0,.4-.1.61.61,0,0,0,.22-.34,2.15,2.15,0,0,0,.08-.63V87.08h3V88.4a3.47,3.47,0,0,1-.44,1.83,2.63,2.63,0,0,1-1.26,1.11A4.71,4.71,0,0,1,101.47,91.71Z"/><path class="cls-2" d="M107.05,94.69V92.56a5.18,5.18,0,0,0,1-.08,1.06,1.06,0,0,0,.58-.28.8.8,0,0,0,.2-.56,3.7,3.7,0,0,0-.11-.79c-.08-.3-.17-.65-.29-1l-2.56-9.17h2.88l1.38,6.29,1-6.29H114l-2.5,11.15a4,4,0,0,1-.77,1.76,2.8,2.8,0,0,1-1.29.88,5.47,5.47,0,0,1-1.73.26Z"/></svg>