<svg xmlns="http://www.w3.org/2000/svg" xmlns:xlink="http://www.w3.org/1999/xlink" viewBox="0 0 165 214.89"><defs><style>.cls-1,.cls-5{fill:none;}.cls-2{fill:#004087;}.cls-3{fill:#fff;}.cls-4{fill:url(#Gradient_bez_nazwy_16);}.cls-5{stroke:#c91619;stroke-width:1.17px;stroke-dasharray:5.32 3.09;}.cls-6{fill:#c91619;}.cls-7{fill:#c90c0f;}</style><radialGradient id="Gradient_bez_nazwy_16" cx="-1026.48" cy="-1091.17" r="80.37" gradientTransform="translate(-1009.23 969.63) rotate(90) scale(0.87 1)" gradientUnits="userSpaceOnUse"><stop offset="0" stop-color="#fff"/><stop offset="1" stop-color="#a8a8a8"/></radialGradient></defs><title>30_MIES_BIG</title><g id="Warstwa_2" data-name="Warstwa 2"><rect class="cls-1" y="-1.11" width="165" height="190"/></g><g id="Warstwa_1" data-name="Warstwa 1"><path class="cls-2" d="M82.5,169.18a4.55,4.55,0,0,1-2-.49l-91.61-46.85a4.49,4.49,0,0,1-2.24-2.63,4.45,4.45,0,0,1,.28-3.43,4.48,4.48,0,0,1,4-2.45,4.54,4.54,0,0,1,2,.49l89.58,45.81,73.62-37.25V38.8a4.5,4.5,0,0,1,9,0v86.35a4.47,4.47,0,0,1-2.47,4L84.53,168.69A4.5,4.5,0,0,1,82.5,169.18Z"/><path class="cls-3" d="M160.63,36.3a2.5,2.5,0,0,1,2.5,2.5v86.35a2.51,2.51,0,0,1-1.37,2.23L83.63,166.91a2.51,2.51,0,0,1-1.13.27,2.55,2.55,0,0,1-1.14-.27l-91.61-46.85a2.51,2.51,0,0,1-1.09-3.37,2.51,2.51,0,0,1,2.23-1.36,2.42,2.42,0,0,1,1.13.28l90.49,46.27,75.62-38.27V38.8a2.5,2.5,0,0,1,2.5-2.5m0-4a6.51,6.51,0,0,0-6.5,6.5v82.35L82.52,157.39-6.16,112a6.58,6.58,0,0,0-2.95-.71,6.48,6.48,0,0,0-5.79,3.54,6.48,6.48,0,0,0-.4,5,6.45,6.45,0,0,0,3.23,3.79l91.61,46.85a6.62,6.62,0,0,0,3,.71,6.48,6.48,0,0,0,2.93-.7L163.56,131a6.47,6.47,0,0,0,3.57-5.8V38.8a6.51,6.51,0,0,0-6.5-6.5Z"/><polygon class="cls-4" points="156.95 117.23 156.95 42.76 82.5 5.53 8.05 42.76 8.05 117.23 82.5 154.46 156.95 117.23"/><polyline class="cls-5" points="160.67 40.9 82.5 1.81 4.33 40.9 4.33 119.09 82.5 158.19 160.67 119.09"/><ellipse class="cls-6" cx="82.5" cy="1.81" rx="1.83" ry="1.59"/><ellipse class="cls-6" cx="160.67" cy="40.71" rx="1.83" ry="1.59"/><ellipse class="cls-6" cx="82.5" cy="158.19" rx="1.83" ry="1.59"/><ellipse class="cls-6" cx="4.33" cy="119.4" rx="1.83" ry="1.59"/><ellipse class="cls-6" cx="4.33" cy="40.83" rx="1.83" ry="1.59"/><path class="cls-2" d="M67.26,81a15.19,15.19,0,0,1-7.51-1.56,8.75,8.75,0,0,1-3.88-4.36,16.85,16.85,0,0,1-1.15-6.46V67.25h9.39v1.41a14.39,14.39,0,0,0,.28,3.17,3,3,0,0,0,1,1.78,3.29,3.29,0,0,0,2,.56,2.81,2.81,0,0,0,1.94-.59,3.06,3.06,0,0,0,.87-1.75,15.86,15.86,0,0,0,.22-2.92,8.7,8.7,0,0,0-.92-4.46c-.62-1-1.91-1.55-3.86-1.59H63.94v-5.6h1.52q3,0,4-1.41a7.55,7.55,0,0,0,1-4.39,7.08,7.08,0,0,0-.7-3.5,2.74,2.74,0,0,0-2.61-1.22A2.38,2.38,0,0,0,64.7,48.1a9,9,0,0,0-.59,3.51v2H54.72V51.27a11.37,11.37,0,0,1,1.49-6,9.45,9.45,0,0,1,4.27-3.73,16.1,16.1,0,0,1,6.67-1.26,16.82,16.82,0,0,1,6.75,1.22,9.48,9.48,0,0,1,4.33,3.58,10.65,10.65,0,0,1,1.52,5.87,9.9,9.9,0,0,1-1.64,5.8,6.65,6.65,0,0,1-3.93,2.87A8.23,8.23,0,0,1,77,61.16a7.14,7.14,0,0,1,2,2.9,12.58,12.58,0,0,1,.74,4.65,15.92,15.92,0,0,1-1.21,6.38,9.11,9.11,0,0,1-4,4.36A14.57,14.57,0,0,1,67.26,81Z"/><path class="cls-2" d="M97,81a14.74,14.74,0,0,1-6.87-1.44,9.86,9.86,0,0,1-4.16-4,11.92,11.92,0,0,1-1.4-5.9V51.85a13.26,13.26,0,0,1,1.32-6.06,9.28,9.28,0,0,1,4.08-4.07,14.85,14.85,0,0,1,7-1.46,14.69,14.69,0,0,1,7,1.46A9.31,9.31,0,0,1,108,45.79a13.26,13.26,0,0,1,1.32,6.06V69.73a12,12,0,0,1-1.41,5.88,9.73,9.73,0,0,1-4.16,4A14.56,14.56,0,0,1,97,81Zm0-7.26A2.31,2.31,0,0,0,98.9,73a3.66,3.66,0,0,0,.73-1.75,13.28,13.28,0,0,0,.14-1.73V52.05c0-.55,0-1.18-.11-1.88A3.74,3.74,0,0,0,99,48.32a2.89,2.89,0,0,0-4,0,3.73,3.73,0,0,0-.7,1.85,16.78,16.78,0,0,0-.12,1.88V69.54a10.91,10.91,0,0,0,.17,1.73A3.91,3.91,0,0,0,95.07,73,2.24,2.24,0,0,0,97,73.78Z"/><path class="cls-2" d="M21.48,115.39,22,91.71h6.48l3,13.77,3.24-13.77h6.24l.47,23.68H37.11L36.6,99.63l-3.17,15.76H29.62L26.24,99.51l-.4,15.88Z"/><path class="cls-2" d="M45,115.39V91.71h6v23.68Z"/><path class="cls-2" d="M55.1,115.39V91.71H67.38v3.56H61.14v5.88H65.9v3.63H61.14v7.07h6.31v3.54Z"/><path class="cls-2" d="M77.44,115.74a10.24,10.24,0,0,1-4.29-.79,5.5,5.5,0,0,1-2.6-2.44,10,10,0,0,1-1-4.28l5.17-.68a9.24,9.24,0,0,0,.32,2.46,2.6,2.6,0,0,0,.81,1.34,2,2,0,0,0,1.27.41,1.26,1.26,0,0,0,1.23-.55,2.52,2.52,0,0,0,.28-1.17,3.8,3.8,0,0,0-.81-2.47,11.83,11.83,0,0,0-2.19-2l-2.36-1.79a12.11,12.11,0,0,1-2.62-2.58,5.9,5.9,0,0,1-1.06-3.59A5.48,5.48,0,0,1,71.67,93a8.94,8.94,0,0,1,5.6-1.59A8.19,8.19,0,0,1,80.8,92a5,5,0,0,1,2,1.68,6.43,6.43,0,0,1,1,2.19,12.73,12.73,0,0,1,.28,2.21l-5.19.56a16.87,16.87,0,0,0-.16-1.83,2.29,2.29,0,0,0-.49-1.2,1.44,1.44,0,0,0-1.14-.42,1.33,1.33,0,0,0-1.23.61,2.28,2.28,0,0,0-.39,1.23,3.18,3.18,0,0,0,.72,2.15A14.06,14.06,0,0,0,78.08,101l2.26,1.72a14.24,14.24,0,0,1,3,3,6.76,6.76,0,0,1,1.23,4.12,5.47,5.47,0,0,1-.87,3A6.11,6.11,0,0,1,81.23,115,8.41,8.41,0,0,1,77.44,115.74Z"/><path class="cls-2" d="M87,115.39V91.71h6v23.68Z"/><path class="cls-2" d="M97.15,115.39V91.71h12.28v3.56h-6.24v5.88H108v3.63h-4.76v7.07h6.31v3.54Zm10.09,7.6c-.56,0-1.16,0-1.79-.1a6.58,6.58,0,0,1-1.76-.43,3.09,3.09,0,0,1-1.31-.95,2.59,2.59,0,0,1-.51-1.68,4,4,0,0,1,.37-1.59,7.27,7.27,0,0,1,1-1.58,8.07,8.07,0,0,1,1.28-1.27H107a12.15,12.15,0,0,0-.59,1.09,7.24,7.24,0,0,0-.46,1.22,4.74,4.74,0,0,0-.17,1.23,1.4,1.4,0,0,0,.66,1.35,3,3,0,0,0,1.5.37h.54a3.62,3.62,0,0,0,.44,0l-.54,2.31-.49.06A6,6,0,0,1,107.24,123Z"/><path class="cls-2" d="M120.06,115.74a10.38,10.38,0,0,1-4.91-1A5.53,5.53,0,0,1,112.6,112a10.81,10.81,0,0,1-.74-4.16V99.31a10.91,10.91,0,0,1,.74-4.22,5.47,5.47,0,0,1,2.55-2.74,13.26,13.26,0,0,1,9.65-.1,5.06,5.06,0,0,1,2.42,2.41,8.52,8.52,0,0,1,.71,3.57v2H122V97.91a9.77,9.77,0,0,0-.09-1.35,1.82,1.82,0,0,0-.48-1.07,1.89,1.89,0,0,0-1.39-.42,1.76,1.76,0,0,0-2,1.54A7.62,7.62,0,0,0,118,98v11.14a6.52,6.52,0,0,0,.15,1.45,1.91,1.91,0,0,0,.61,1,1.94,1.94,0,0,0,1.33.4,1.78,1.78,0,0,0,1.35-.43,2,2,0,0,0,.51-1.09,9,9,0,0,0,.1-1.38v-2.48h5.91v2a9,9,0,0,1-.7,3.61,5.2,5.2,0,0,1-2.39,2.52A10.25,10.25,0,0,1,120.06,115.74Z"/><path class="cls-2" d="M134.54,115.39v-9.68l-5.2-14h5.71l2.59,7.48L140,91.71h5.47l-5.1,14v9.68Z"/><polygon class="cls-7" points="-5.62 135.6 -5.62 120.7 -12.51 99.25 -1.53 99.25 -0.05 104.19 1.28 99.25 12.01 99.25 5.25 120.69 5.25 135.6 -5.62 135.6"/><path class="cls-3" d="M9.29,101.26l-6,19.13V133.6H-3.62V120.39l-6.15-19.13H-3L.06,111.48l2.75-10.22H9.29m5.45-4h-30l1.68,5.22,6,18.53V137.6H7.25V121l5.85-18.54,1.64-5.2Z"/><path class="cls-7" d="M165,53a13,13,0,0,1-6.78-1.56,9.1,9.1,0,0,1-3.87-4.67,17.94,17.94,0,0,1-1.05-6.43v-12a17.81,17.81,0,0,1,1.05-6.44,9,9,0,0,1,3.88-4.6A13.1,13.1,0,0,1,165,15.73a13.29,13.29,0,0,1,6.83,1.53,9.06,9.06,0,0,1,3.9,4.61,17.84,17.84,0,0,1,1.06,6.44v12a18.21,18.21,0,0,1-1.05,6.43,9.12,9.12,0,0,1-3.9,4.67A13.27,13.27,0,0,1,165,53Zm-.2-9.08h.44a1.2,1.2,0,0,0,.11-.35,8.36,8.36,0,0,0,.13-1.43V26.55a8.32,8.32,0,0,0-.13-1.45,1,1,0,0,0-.11-.33h-.4a1,1,0,0,0-.11.33,8.32,8.32,0,0,0-.13,1.45V42.13a9,9,0,0,0,.12,1.48A1.11,1.11,0,0,0,164.76,43.91Z"/><path class="cls-3" d="M165,17.73A11.52,11.52,0,0,1,170.77,19a7.08,7.08,0,0,1,3.06,3.62,15.78,15.78,0,0,1,.92,5.71v12a16,16,0,0,1-.92,5.71,7.17,7.17,0,0,1-3.06,3.68A11.3,11.3,0,0,1,165,51a11.12,11.12,0,0,1-5.75-1.27,7.23,7.23,0,0,1-3-3.68,16,16,0,0,1-.91-5.71v-12a15.79,15.79,0,0,1,.91-5.71,7.13,7.13,0,0,1,3-3.62A11.33,11.33,0,0,1,165,17.73m0,28.19a2.12,2.12,0,0,0,1.64-.56,2.86,2.86,0,0,0,.68-1.43,10.76,10.76,0,0,0,.16-1.8V26.55a10.62,10.62,0,0,0-.16-1.82,2.83,2.83,0,0,0-.68-1.41,2.12,2.12,0,0,0-1.64-.56,2,2,0,0,0-1.56.56,2.83,2.83,0,0,0-.68,1.41,10.62,10.62,0,0,0-.16,1.82V42.13a11.92,11.92,0,0,0,.14,1.8,2.82,2.82,0,0,0,.64,1.43,2.05,2.05,0,0,0,1.62.56m0-32.19a14.88,14.88,0,0,0-7.79,1.82,11,11,0,0,0-4.72,5.6,19.71,19.71,0,0,0-1.19,7.16v12a19.83,19.83,0,0,0,1.18,7.14,11.1,11.1,0,0,0,4.7,5.67,17.58,17.58,0,0,0,15.68,0,11.07,11.07,0,0,0,4.74-5.67,20,20,0,0,0,1.19-7.15v-12a19.77,19.77,0,0,0-1.2-7.16,10.92,10.92,0,0,0-4.75-5.61A15.12,15.12,0,0,0,165,13.73Z"/></g></svg>