<svg id="Warstwa_1" data-name="Warstwa 1" xmlns="http://www.w3.org/2000/svg" viewBox="0 0 270 115.83"><defs><style>.cls-1{fill:#ce1a1d;}.cls-2{fill:#174283;}</style></defs><title>dawkowanie_dzieci</title><path class="cls-1" d="M116.87,14.17a5.67,5.67,0,0,1-1.47-.54l.83-1.77a5.27,5.27,0,0,0,1.21.48,5,5,0,0,0,1.29.18,2.23,2.23,0,0,0,.76-.1.31.31,0,0,0,.22-.3c0-.15-.09-.26-.29-.33a6.34,6.34,0,0,0-1-.25,10.41,10.41,0,0,1-1.46-.38,2.43,2.43,0,0,1-1-.66,1.71,1.71,0,0,1-.44-1.24,2.1,2.1,0,0,1,.4-1.23,2.64,2.64,0,0,1,1.2-.87,5.07,5.07,0,0,1,1.93-.32,7.26,7.26,0,0,1,1.54.16,4.88,4.88,0,0,1,1.32.46l-.77,1.76A4.94,4.94,0,0,0,119,8.69c-.65,0-1,.15-1,.45,0,.15.09.25.29.33a6.47,6.47,0,0,0,1,.23,10.68,10.68,0,0,1,1.47.35,2.57,2.57,0,0,1,1,.66,1.7,1.7,0,0,1,.44,1.23,2.1,2.1,0,0,1-.4,1.23,2.64,2.64,0,0,1-1.2.87,5,5,0,0,1-1.93.33A8.64,8.64,0,0,1,116.87,14.17Z"/><path class="cls-1" d="M127.5,11.59V14.2h-2.56V11.56L122.09,7h2.69l1.55,2.49L127.89,7h2.47Z"/><path class="cls-1" d="M133.93,12.39h-.69V14.2h-2.56V7h3.65a4.67,4.67,0,0,1,1.83.33,2.76,2.76,0,0,1,1.21.95,2.49,2.49,0,0,1,.42,1.44,2.44,2.44,0,0,1-.37,1.35,2.64,2.64,0,0,1-1.06.91L138,14.2h-2.73Zm1-3.29a1.15,1.15,0,0,0-.78-.23h-.93v1.69h.93a1.15,1.15,0,0,0,.78-.22.78.78,0,0,0,.26-.62A.76.76,0,0,0,135,9.1Z"/><path class="cls-1" d="M140.53,13.88A3.77,3.77,0,0,1,139,12.54a3.49,3.49,0,0,1-.55-1.94A3.51,3.51,0,0,1,139,8.66a3.77,3.77,0,0,1,1.53-1.34,5.26,5.26,0,0,1,4.39,0,3.77,3.77,0,0,1,1.53,1.34A3.51,3.51,0,0,1,147,10.6a3.49,3.49,0,0,1-.55,1.94,3.77,3.77,0,0,1-1.53,1.34,5.16,5.16,0,0,1-4.39,0Zm3.06-1.7a1.61,1.61,0,0,0,.61-.63,1.91,1.91,0,0,0,.23-1,1.94,1.94,0,0,0-.23-.95,1.68,1.68,0,0,0-.61-.63,1.81,1.81,0,0,0-1.73,0,1.68,1.68,0,0,0-.61.63,1.93,1.93,0,0,0-.22.95,1.91,1.91,0,0,0,.22,1,1.61,1.61,0,0,0,.61.63,1.81,1.81,0,0,0,1.73,0Z"/><path class="cls-1" d="M153.41,7.33a2.76,2.76,0,0,1,1.21.95A2.49,2.49,0,0,1,155,9.72a2.49,2.49,0,0,1-.42,1.44,2.74,2.74,0,0,1-1.21.94,4.64,4.64,0,0,1-1.83.33h-1.09V14.2h-2.55V7h3.64A4.64,4.64,0,0,1,153.41,7.33Zm-1.21,3a.78.78,0,0,0,.26-.62.76.76,0,0,0-.26-.62,1.15,1.15,0,0,0-.78-.23h-.93v1.69h.93A1.15,1.15,0,0,0,152.2,10.34Z"/><path class="cls-1" d="M83.05,23.63h3.32a4.92,4.92,0,0,1,2.15.45,3.46,3.46,0,0,1,0,6.3,4.92,4.92,0,0,1-2.15.45H83.05ZM86.3,29.7a3.25,3.25,0,0,0,1.47-.31,2.2,2.2,0,0,0,1-.86,2.59,2.59,0,0,0,0-2.6,2.22,2.22,0,0,0-1-.87,3.38,3.38,0,0,0-1.47-.3H84.46V29.7Z"/><path class="cls-1" d="M97.89,29.7v1.13H91.42v-.89l4.47-5.18H91.5V23.63h6.25v.89L93.29,29.7Z"/><path class="cls-1" d="M99.18,23.63h1.41v7.2H99.18Z"/><path class="cls-1" d="M108.32,29.71v1.12h-5.69v-7.2h5.54v1.12H104v1.87h3.66v1.1H104v2Z"/><path class="cls-1" d="M111.32,30.45a3.56,3.56,0,0,1-1.45-1.32,3.5,3.5,0,0,1-.52-1.9,3.42,3.42,0,0,1,.53-1.9A3.65,3.65,0,0,1,111.33,24a4.58,4.58,0,0,1,2.08-.47,4.67,4.67,0,0,1,1.7.3,3.61,3.61,0,0,1,1.3.9l-.91.81a2.74,2.74,0,0,0-2-.84,3,3,0,0,0-1.39.32,2.41,2.41,0,0,0-1,.9,2.69,2.69,0,0,0,0,2.62,2.41,2.41,0,0,0,1,.9,3,3,0,0,0,1.39.32,2.71,2.71,0,0,0,2-.85l.91.82a3.43,3.43,0,0,1-1.31.89,4.78,4.78,0,0,1-3.78-.17Z"/><path class="cls-1" d="M117.76,23.63h1.41v7.2h-1.41Z"/><path class="cls-1" d="M129,23.94a2.43,2.43,0,0,1,1.12.88,2.4,2.4,0,0,1,.39,1.37,2.36,2.36,0,0,1-.39,1.36,2.39,2.39,0,0,1-1.12.89,4.33,4.33,0,0,1-1.72.31h-1.71v2.08H124.2v-7.2h3.12A4.33,4.33,0,0,1,129,23.94Zm-.39,3.31a1.41,1.41,0,0,0,0-2.12,2.2,2.2,0,0,0-1.39-.37h-1.65v2.86h1.65A2.2,2.2,0,0,0,128.65,27.25Z"/><path class="cls-1" d="M133.52,30.45a3.68,3.68,0,0,1-1.47-1.32,3.67,3.67,0,0,1,0-3.8A3.78,3.78,0,0,1,133.52,24a4.59,4.59,0,0,1,2.09-.47,4.65,4.65,0,0,1,2.09.47,3.68,3.68,0,0,1,1.46,1.33,3.67,3.67,0,0,1,0,3.8,3.59,3.59,0,0,1-1.46,1.32,4.53,4.53,0,0,1-2.09.48A4.47,4.47,0,0,1,133.52,30.45Zm3.45-1a2.45,2.45,0,0,0,.95-.91,2.59,2.59,0,0,0,0-2.6A2.45,2.45,0,0,0,137,25a2.9,2.9,0,0,0-1.36-.32,2.94,2.94,0,0,0-1.37.32,2.45,2.45,0,0,0-1,.91,2.59,2.59,0,0,0,0,2.6,2.45,2.45,0,0,0,1,.91,2.94,2.94,0,0,0,1.37.32A2.9,2.9,0,0,0,137,29.44Z"/><path class="cls-1" d="M152.26,23.63l-2.51,7.2h-1.5l-1.87-5.33-1.9,5.33H143l-2.51-7.2h1.46l1.88,5.47,2-5.47h1.3l1.92,5.5,1.94-5.5Z"/><path class="cls-1" d="M153.25,30.66a.78.78,0,0,1-.26-.61.8.8,0,0,1,.25-.62,1,1,0,0,1,1.27,0,.8.8,0,0,1,.25.62.78.78,0,0,1-.26.61.93.93,0,0,1-1.25,0Z"/><path class="cls-1" d="M164.15,29.7v1.13h-5.59v-.89l3-2.72a3.22,3.22,0,0,0,.69-.81,1.47,1.47,0,0,0,.18-.68.88.88,0,0,0-.36-.77,1.73,1.73,0,0,0-1.05-.27,2.16,2.16,0,0,0-1.77.75l-1-.72a2.94,2.94,0,0,1,1.2-.88,4.3,4.3,0,0,1,1.68-.31,3.2,3.2,0,0,1,2,.55,1.8,1.8,0,0,1,.74,1.51,2.44,2.44,0,0,1-.26,1.1,4.25,4.25,0,0,1-1,1.18l-2,1.83Z"/><path class="cls-1" d="M168.49,23.63h1.41V29.7h4v1.13h-5.37Z"/><path class="cls-1" d="M179.9,29.16h-3.79l-.75,1.67h-1.45l3.41-7.2h1.39l3.42,7.2h-1.48Zm-.47-1.05L178,25l-1.42,3.14Z"/><path class="cls-1" d="M184.63,24.76h-2.51V23.63h6.43v1.13H186v6.07h-1.41Z"/><path class="cls-2" d="M46.17,38.43a1.89,1.89,0,0,1,.53,1.44V42.5h-.65V39.93a1.29,1.29,0,0,0-1.43-1.44,1.67,1.67,0,0,0-1.22.43,1.59,1.59,0,0,0-.45,1.2V42.5h-.64V38h.61v.83a1.82,1.82,0,0,1,.73-.64,2.5,2.5,0,0,1,1.09-.23A2,2,0,0,1,46.17,38.43Z"/><path class="cls-2" d="M52.12,38.22A2.16,2.16,0,0,1,53,39a2.48,2.48,0,0,1,0,2.4,2.07,2.07,0,0,1-.85.81,2.45,2.45,0,0,1-1.22.29,2.24,2.24,0,0,1-1-.23,1.89,1.89,0,0,1-.77-.66v2.52h-.64V38h.61v.89a2.13,2.13,0,0,1,.77-.69,2.34,2.34,0,0,1,1.07-.24A2.59,2.59,0,0,1,52.12,38.22Zm-.35,3.56a1.57,1.57,0,0,0,.63-.62,1.79,1.79,0,0,0,.24-.93,1.72,1.72,0,0,0-.24-.91,1.59,1.59,0,0,0-.63-.63,1.88,1.88,0,0,0-.91-.22,1.83,1.83,0,0,0-.91.22,1.68,1.68,0,0,0-.64.63,1.81,1.81,0,0,0-.23.91,1.89,1.89,0,0,0,.23.93,1.66,1.66,0,0,0,.64.62,1.83,1.83,0,0,0,.91.22A1.88,1.88,0,0,0,51.77,41.78Z"/><path class="cls-2" d="M54.32,42.41a.45.45,0,0,1-.14-.34.42.42,0,0,1,.14-.33.48.48,0,0,1,.68,0,.43.43,0,0,1,.15.33.5.5,0,0,1-.83.34Z"/><path class="cls-2" d="M59.69,42.18a2.41,2.41,0,0,1-.9-1.06,4.34,4.34,0,0,1,0-3.27,2.41,2.41,0,0,1,.9-1.06,2.5,2.5,0,0,1,2.62,0,2.55,2.55,0,0,1,.9,1.06,4.22,4.22,0,0,1,0,3.27,2.55,2.55,0,0,1-.9,1.06,2.5,2.5,0,0,1-2.62,0ZM62,41.69a1.92,1.92,0,0,0,.66-.85,3.48,3.48,0,0,0,.24-1.36,3.43,3.43,0,0,0-.24-1.35,1.92,1.92,0,0,0-.66-.85A1.61,1.61,0,0,0,61,37a1.64,1.64,0,0,0-1,.29,1.92,1.92,0,0,0-.66.85,3.63,3.63,0,0,0-.23,1.35,3.68,3.68,0,0,0,.23,1.36,1.92,1.92,0,0,0,.66.85A1.64,1.64,0,0,0,61,42,1.61,1.61,0,0,0,62,41.69Z"/><path class="cls-2" d="M65.31,41.74a.45.45,0,0,1,.14.33.89.89,0,0,1,0,.22,2.43,2.43,0,0,1-.1.28l-.38,1.19h-.43l.31-1.25a.47.47,0,0,1-.2-.77A.5.5,0,0,1,65,41.6.46.46,0,0,1,65.31,41.74Z"/><path class="cls-2" d="M70.07,39.41a1.54,1.54,0,0,1,.63,1.32,1.71,1.71,0,0,1-.26.93,1.66,1.66,0,0,1-.77.65,3,3,0,0,1-1.27.24,3.88,3.88,0,0,1-1.29-.21,2.76,2.76,0,0,1-1-.56l.32-.49a2.48,2.48,0,0,0,.83.5,3.18,3.18,0,0,0,1.12.19,2,2,0,0,0,1.22-.33,1.09,1.09,0,0,0,.43-.9,1,1,0,0,0-.49-.94,3.12,3.12,0,0,0-1.63-.32H66.57l.32-3h3.48V37H67.46l-.21,1.92h.81A3.42,3.42,0,0,1,70.07,39.41Z"/><path class="cls-2" d="M81.69,38.42a1.93,1.93,0,0,1,.51,1.45V42.5h-.64V39.93a1.46,1.46,0,0,0-.36-1.07,1.34,1.34,0,0,0-1-.37,1.55,1.55,0,0,0-1.17.43,1.62,1.62,0,0,0-.43,1.2V42.5H78V39.93a1.46,1.46,0,0,0-.36-1.07,1.35,1.35,0,0,0-1-.37,1.58,1.58,0,0,0-1.17.43,1.66,1.66,0,0,0-.43,1.2V42.5h-.64V38h.61v.82a1.74,1.74,0,0,1,.71-.63,2.31,2.31,0,0,1,1-.23,2.13,2.13,0,0,1,1,.24,1.49,1.49,0,0,1,.66.72,1.84,1.84,0,0,1,.76-.7,2.41,2.41,0,0,1,1.13-.26A2,2,0,0,1,81.69,38.42Z"/><path class="cls-2" d="M84,36.11h.64V42.5H84Z"/><path class="cls-2" d="M88.93,42.38a2.38,2.38,0,0,1-.83-.4l.29-.48a2.56,2.56,0,0,0,.76.37,3.24,3.24,0,0,0,.94.14,2,2,0,0,0,1-.19.64.64,0,0,0,.31-.55.48.48,0,0,0-.17-.39,1.14,1.14,0,0,0-.44-.22,5,5,0,0,0-.7-.14,9.06,9.06,0,0,1-.93-.21,1.33,1.33,0,0,1-.6-.37,1,1,0,0,1-.25-.71,1.08,1.08,0,0,1,.5-.93,2.24,2.24,0,0,1,1.38-.37,3.71,3.71,0,0,1,.93.12,2.56,2.56,0,0,1,.76.31l-.28.49a2.48,2.48,0,0,0-1.41-.39,1.68,1.68,0,0,0-.93.21.6.6,0,0,0-.31.54.51.51,0,0,0,.18.41,1,1,0,0,0,.44.23,6.2,6.2,0,0,0,.72.15,8.78,8.78,0,0,1,.92.21,1.37,1.37,0,0,1,.59.35,1,1,0,0,1,.24.69,1.06,1.06,0,0,1-.52.94,2.52,2.52,0,0,1-1.44.35A3.79,3.79,0,0,1,88.93,42.38Z"/><path class="cls-2" d="M97.21,38,94.82,43a2.1,2.1,0,0,1-.67.91,1.6,1.6,0,0,1-.91.26,2,2,0,0,1-.65-.1,1.32,1.32,0,0,1-.51-.31l.3-.46a1.22,1.22,0,0,0,.87.35.92.92,0,0,0,.55-.17,1.5,1.5,0,0,0,.43-.59l.21-.44L92.31,38H93l1.8,3.85L96.57,38Z"/><path class="cls-2" d="M99.41,38.17a2.34,2.34,0,0,1,1.11-.24v.6h-.15a1.56,1.56,0,0,0-1.18.44,1.66,1.66,0,0,0-.43,1.23V42.5h-.64V38h.61v.89A1.47,1.47,0,0,1,99.41,38.17Z"/><path class="cls-2" d="M102.46,42.25a2.26,2.26,0,0,1-1.19-2,2.31,2.31,0,0,1,.32-1.19,2.19,2.19,0,0,1,.87-.81,2.56,2.56,0,0,1,1.24-.3,2.53,2.53,0,0,1,1.24.3,2.19,2.19,0,0,1,.87.81,2.3,2.3,0,0,1,.31,1.19,2.22,2.22,0,0,1-1.18,2,2.64,2.64,0,0,1-1.24.29A2.67,2.67,0,0,1,102.46,42.25Zm2.15-.47a1.57,1.57,0,0,0,.63-.62,2,2,0,0,0,0-1.85,1.51,1.51,0,0,0-.63-.62,2,2,0,0,0-1.82,0,1.51,1.51,0,0,0-.63.62,1.9,1.9,0,0,0,0,1.85,1.57,1.57,0,0,0,.63.62,2,2,0,0,0,1.82,0Z"/><path class="cls-2" d="M111.11,38.22A2.16,2.16,0,0,1,112,39a2.48,2.48,0,0,1,0,2.4,2,2,0,0,1-.84.81,2.47,2.47,0,0,1-1.22.29,2.25,2.25,0,0,1-1.05-.23,2,2,0,0,1-.77-.66v2.52h-.64V38h.62v.89a2,2,0,0,1,.76-.69,2.38,2.38,0,0,1,1.08-.24A2.57,2.57,0,0,1,111.11,38.22Zm-.35,3.56a1.66,1.66,0,0,0,.64-.62,1.89,1.89,0,0,0,.23-.93,1.81,1.81,0,0,0-.23-.91,1.68,1.68,0,0,0-.64-.63,1.86,1.86,0,0,0-.91-.22,1.83,1.83,0,0,0-.91.22,1.59,1.59,0,0,0-.63.63,1.72,1.72,0,0,0-.24.91,1.79,1.79,0,0,0,.24.93,1.57,1.57,0,0,0,.63.62,1.83,1.83,0,0,0,.91.22A1.86,1.86,0,0,0,110.76,41.78Z"/><path class="cls-2" d="M117.6,38,115.21,43a2.18,2.18,0,0,1-.67.91,1.61,1.61,0,0,1-.92.26,1.91,1.91,0,0,1-.64-.1,1.44,1.44,0,0,1-.52-.31l.3-.46a1.22,1.22,0,0,0,.87.35.93.93,0,0,0,.56-.17,1.5,1.5,0,0,0,.43-.59l.21-.44L112.7,38h.67l1.8,3.85L117,38Z"/><path class="cls-2" d="M125.3,37a2,2,0,0,1,0,3,3,3,0,0,1-1.91.55h-1.7v1.9H121v-6h2.38A3,3,0,0,1,125.3,37Zm-.48,2.62a1.32,1.32,0,0,0,.49-1.1,1.35,1.35,0,0,0-.49-1.13,2.34,2.34,0,0,0-1.45-.39h-1.68v3h1.68A2.28,2.28,0,0,0,124.82,39.64Z"/><path class="cls-2" d="M131.54,40.42h-4a1.61,1.61,0,0,0,.58,1.15,1.92,1.92,0,0,0,1.3.43,2.18,2.18,0,0,0,.82-.15,1.88,1.88,0,0,0,.64-.44l.36.39a1.94,1.94,0,0,1-.79.55,2.76,2.76,0,0,1-1.05.19,2.86,2.86,0,0,1-1.3-.29,2.2,2.2,0,0,1-.88-.83,2.25,2.25,0,0,1-.32-1.19,2.39,2.39,0,0,1,.3-1.19,2.18,2.18,0,0,1,.84-.81,2.51,2.51,0,0,1,2.38,0,2.06,2.06,0,0,1,.82.81,2.36,2.36,0,0,1,.3,1.19Zm-3.46-1.54a1.65,1.65,0,0,0-.53,1.09h3.39a1.65,1.65,0,0,0-.53-1.09,1.83,1.83,0,0,0-2.33,0Z"/><path class="cls-2" d="M133.58,42.25A2.35,2.35,0,0,1,132.7,39a2.29,2.29,0,0,1,.88-.81,2.79,2.79,0,0,1,2.37-.07,1.77,1.77,0,0,1,.76.67l-.48.31a1.46,1.46,0,0,0-.6-.5,1.71,1.71,0,0,0-.78-.17,1.88,1.88,0,0,0-.93.22,1.55,1.55,0,0,0-.65.62,2,2,0,0,0,0,1.85,1.62,1.62,0,0,0,.65.62,1.88,1.88,0,0,0,.93.22,1.85,1.85,0,0,0,.78-.16,1.46,1.46,0,0,0,.6-.5l.48.31a1.72,1.72,0,0,1-.77.66,2.42,2.42,0,0,1-1.09.23A2.62,2.62,0,0,1,133.58,42.25Z"/><path class="cls-2" d="M140.49,42.22a1.15,1.15,0,0,1-.45.24,1.77,1.77,0,0,1-.56.08,1.42,1.42,0,0,1-1-.34,1.27,1.27,0,0,1-.37-1V38.49h-.85V38h.85V37h.65v1h1.45v.52h-1.45v2.7a.85.85,0,0,0,.21.62.84.84,0,0,0,.61.21,1.32,1.32,0,0,0,.39-.06,1.09,1.09,0,0,0,.32-.17Z"/><path class="cls-2" d="M142.36,42.25a2.26,2.26,0,0,1-1.19-2,2.31,2.31,0,0,1,.32-1.19,2.19,2.19,0,0,1,.87-.81,2.6,2.6,0,0,1,1.25-.3,2.56,2.56,0,0,1,1.24.3,2.1,2.1,0,0,1,.86.81,2.31,2.31,0,0,1,.32,1.19,2.25,2.25,0,0,1-.32,1.19,2.15,2.15,0,0,1-.86.83,2.67,2.67,0,0,1-1.24.29A2.71,2.71,0,0,1,142.36,42.25Zm2.16-.47a1.57,1.57,0,0,0,.63-.62,2.05,2.05,0,0,0,0-1.85,1.51,1.51,0,0,0-.63-.62,2,2,0,0,0-1.83,0,1.51,1.51,0,0,0-.63.62,2,2,0,0,0,0,1.85,1.57,1.57,0,0,0,.63.62,2,2,0,0,0,1.83,0Z"/><path class="cls-2" d="M149.85,36.47h2.59a4,4,0,0,1,1.78.38,3,3,0,0,1,1.19,4.2,3,3,0,0,1-1.19,1.07,4,4,0,0,1-1.78.38h-2.59ZM152.4,42a3.18,3.18,0,0,0,1.46-.32,2.43,2.43,0,0,0,1-3.42,2.3,2.3,0,0,0-1-.88A3.17,3.17,0,0,0,152.4,37h-1.87V42Z"/><path class="cls-2" d="M158.5,38.17a2.34,2.34,0,0,1,1.11-.24v.6h-.15a1.58,1.58,0,0,0-1.18.44,1.66,1.66,0,0,0-.43,1.23V42.5h-.64V38h.62v.89A1.45,1.45,0,0,1,158.5,38.17Z"/><path class="cls-2" d="M160.84,36.85a.43.43,0,0,1-.14-.31.39.39,0,0,1,.14-.3.44.44,0,0,1,.33-.13.49.49,0,0,1,.34.12.41.41,0,0,1,.13.3.42.42,0,0,1-.13.32.49.49,0,0,1-.34.13A.49.49,0,0,1,160.84,36.85Zm0,1.12h.64V42.5h-.64Z"/><path class="cls-2" d="M163.29,36.11h.64V42.5h-.64Z"/><path class="cls-2" d="M165.73,36.11h.64V42.5h-.64Z"/><path class="cls-2" d="M170,35.25h.59l-3,8.11H167Z"/><path class="cls-2" d="M173,40.23l-1.12,1V42.5h-.65V36.11h.65v4.33L174.69,38h.8l-2,1.85,2.23,2.68h-.79Z"/><path class="cls-2" d="M181.07,38v4a2.26,2.26,0,0,1-.59,1.71,2.57,2.57,0,0,1-1.8.55,4.24,4.24,0,0,1-1.25-.18,2.7,2.7,0,0,1-1-.51l.33-.47a2.43,2.43,0,0,0,.84.46,3.24,3.24,0,0,0,1,.16,1.87,1.87,0,0,0,1.33-.4,1.65,1.65,0,0,0,.43-1.24v-.58a1.93,1.93,0,0,1-.79.65,2.5,2.5,0,0,1-1.07.23,2.71,2.71,0,0,1-1.22-.28,2.06,2.06,0,0,1-.86-.79,2.08,2.08,0,0,1-.32-1.14,2.13,2.13,0,0,1,.32-1.14,2,2,0,0,1,.85-.77,2.72,2.72,0,0,1,1.23-.28,2.42,2.42,0,0,1,1.09.24,1.91,1.91,0,0,1,.79.67V38Zm-1.51,3.6a1.49,1.49,0,0,0,.65-.59,1.61,1.61,0,0,0-.64-2.3,2.06,2.06,0,0,0-.94-.21,2.18,2.18,0,0,0-.93.2,1.53,1.53,0,0,0-.64.59,1.66,1.66,0,0,0,0,1.72,1.47,1.47,0,0,0,.64.59,2.06,2.06,0,0,0,.93.22A2,2,0,0,0,179.56,41.57Z"/><path class="cls-2" d="M192.61,38.42a1.93,1.93,0,0,1,.51,1.45V42.5h-.64V39.93a1.46,1.46,0,0,0-.36-1.07,1.34,1.34,0,0,0-1-.37,1.55,1.55,0,0,0-1.17.43,1.62,1.62,0,0,0-.43,1.2V42.5h-.64V39.93a1.46,1.46,0,0,0-.36-1.07,1.35,1.35,0,0,0-1-.37,1.58,1.58,0,0,0-1.17.43,1.66,1.66,0,0,0-.43,1.2V42.5h-.64V38h.62v.82a1.71,1.71,0,0,1,.7-.63,2.35,2.35,0,0,1,1.05-.23,2.09,2.09,0,0,1,1,.24,1.49,1.49,0,0,1,.66.72,1.84,1.84,0,0,1,.76-.7,2.44,2.44,0,0,1,1.13-.26A2,2,0,0,1,192.61,38.42Z"/><path class="cls-2" d="M194.6,42.41a.46.46,0,0,1-.15-.34.43.43,0,0,1,.15-.33.46.46,0,0,1,.34-.14.49.49,0,0,1,.34.14.43.43,0,0,1,.15.33.46.46,0,0,1-.15.34.48.48,0,0,1-.34.13A.45.45,0,0,1,194.6,42.41Z"/><path class="cls-2" d="M197.51,42.25a2.24,2.24,0,0,1-.88-.82,2.39,2.39,0,0,1,0-2.39,2.22,2.22,0,0,1,.88-.81,2.61,2.61,0,0,1,1.26-.3,2.57,2.57,0,0,1,1.1.23,1.8,1.8,0,0,1,.77.67l-.48.31a1.52,1.52,0,0,0-.6-.5,1.73,1.73,0,0,0-.79-.17,1.93,1.93,0,0,0-.93.22,1.53,1.53,0,0,0-.64.62,2,2,0,0,0,0,1.85,1.59,1.59,0,0,0,.64.62,1.93,1.93,0,0,0,.93.22,1.86,1.86,0,0,0,.79-.16,1.52,1.52,0,0,0,.6-.5l.48.31a1.77,1.77,0,0,1-.77.66,2.46,2.46,0,0,1-1.1.23A2.6,2.6,0,0,1,197.51,42.25Z"/><path class="cls-2" d="M201.62,42.41a.49.49,0,0,1-.14-.34.45.45,0,0,1,.14-.33.49.49,0,0,1,.34-.14.5.5,0,0,1,.35.14.45.45,0,0,1,.14.33.46.46,0,0,1-.49.47A.48.48,0,0,1,201.62,42.41Z"/><path class="cls-2" d="M205.69,35.25h.59l-3,8.11h-.59Z"/><path class="cls-2" d="M211.21,36.11V42.5h-.61v-.9a1.92,1.92,0,0,1-.77.7,2.37,2.37,0,0,1-1.07.24,2.47,2.47,0,0,1-1.22-.29,2.16,2.16,0,0,1-.85-.82,2.46,2.46,0,0,1,0-2.39,2.16,2.16,0,0,1,.85-.82,2.59,2.59,0,0,1,1.22-.29,2.37,2.37,0,0,1,1,.23,2,2,0,0,1,.77.67V36.11Zm-1.5,5.67a1.66,1.66,0,0,0,.64-.62,2,2,0,0,0,0-1.85,1.59,1.59,0,0,0-.64-.62,2,2,0,0,0-1.81,0,1.59,1.59,0,0,0-.64.62,2,2,0,0,0,0,1.85,1.66,1.66,0,0,0,.64.62,2,2,0,0,0,1.81,0Z"/><path class="cls-2" d="M213.72,42.25a2.26,2.26,0,0,1-1.19-2,2.31,2.31,0,0,1,.32-1.19,2.19,2.19,0,0,1,.87-.81,2.71,2.71,0,0,1,2.48,0,2.19,2.19,0,0,1,.87.81,2.3,2.3,0,0,1,.31,1.19,2.22,2.22,0,0,1-1.18,2,2.8,2.8,0,0,1-2.48,0Zm2.15-.47a1.57,1.57,0,0,0,.63-.62,2,2,0,0,0,0-1.85,1.51,1.51,0,0,0-.63-.62,2,2,0,0,0-1.82,0,1.59,1.59,0,0,0-.64.62,2,2,0,0,0,0,1.85,1.66,1.66,0,0,0,.64.62,2,2,0,0,0,1.82,0Z"/><path class="cls-2" d="M222.37,38.22a2.16,2.16,0,0,1,.85.82,2.46,2.46,0,0,1,0,2.39,2.16,2.16,0,0,1-.85.82,2.47,2.47,0,0,1-1.22.29,2.34,2.34,0,0,1-1.07-.24,1.92,1.92,0,0,1-.77-.7v.9h-.61V36.11h.64v2.72a2,2,0,0,1,.77-.67,2.37,2.37,0,0,1,1-.23A2.59,2.59,0,0,1,222.37,38.22ZM222,41.78a1.57,1.57,0,0,0,.63-.62,1.9,1.9,0,0,0,0-1.85,1.51,1.51,0,0,0-.63-.62,1.88,1.88,0,0,0-.91-.22,1.83,1.83,0,0,0-.91.22,1.59,1.59,0,0,0-.64.62,2,2,0,0,0,0,1.85,1.66,1.66,0,0,0,.64.62,1.83,1.83,0,0,0,.91.22A1.88,1.88,0,0,0,222,41.78Z"/><path class="cls-2" d="M229,40.42h-4a1.6,1.6,0,0,0,.57,1.15,2,2,0,0,0,1.31.43,2.16,2.16,0,0,0,.81-.15,1.92,1.92,0,0,0,.65-.44l.36.39a3.4,3.4,0,0,1-.35.31,4.78,4.78,0,0,0-.82.81,1.11,1.11,0,0,0-.22.6.46.46,0,0,0,.16.37.74.74,0,0,0,.44.13,1,1,0,0,0,.3-.05.73.73,0,0,0,.25-.12l.15.34a1.41,1.41,0,0,1-.77.21,1.1,1.1,0,0,1-.73-.23.78.78,0,0,1-.27-.62,1.44,1.44,0,0,1,.52-1,3.13,3.13,0,0,1-.5,0,2.83,2.83,0,0,1-1.3-.29,2.23,2.23,0,0,1-.89-.83,2.25,2.25,0,0,1-.32-1.19,2.4,2.4,0,0,1,.31-1.19,2.15,2.15,0,0,1,.83-.81,2.39,2.39,0,0,1,1.19-.3,2.34,2.34,0,0,1,1.19.3,2.09,2.09,0,0,1,.83.81,2.36,2.36,0,0,1,.3,1.19Zm-3.46-1.54A1.6,1.6,0,0,0,225,40h3.38a1.6,1.6,0,0,0-.53-1.09,1.81,1.81,0,0,0-2.32,0Z"/><path class="cls-2" d="M65.3,55.19v.55H60.09V55.3l4.21-5H60.15v-.55h5v.44l-4.2,5Z"/><path class="cls-2" d="M69.59,51.62a1.65,1.65,0,0,1,.49,1.31v2.81h-.61V55a1.44,1.44,0,0,1-.64.55,2.23,2.23,0,0,1-1,.2,2,2,0,0,1-1.27-.36,1.21,1.21,0,0,1,0-1.89,2.26,2.26,0,0,1,1.4-.35h1.51V52.9A1.13,1.13,0,0,0,69.1,52a1.5,1.5,0,0,0-1-.3,2.56,2.56,0,0,0-.87.14,2.08,2.08,0,0,0-.72.39l-.29-.46a2.75,2.75,0,0,1,.87-.45,3.79,3.79,0,0,1,1.07-.16A2.09,2.09,0,0,1,69.59,51.62Zm-.73,3.44a1.44,1.44,0,0,0,.58-.68v-.74h-1.5c-.81,0-1.22.27-1.22.81a.73.73,0,0,0,.32.62,1.52,1.52,0,0,0,.89.23A1.74,1.74,0,0,0,68.86,55.06Z"/><path class="cls-2" d="M71.84,49.35h.64v6.39h-.64Z"/><path class="cls-2" d="M78.43,53.66h-4A1.55,1.55,0,0,0,75,54.8a2,2,0,0,0,1.31.44,2.16,2.16,0,0,0,.81-.15,1.92,1.92,0,0,0,.65-.44l.36.39a2,2,0,0,1-.8.55,2.68,2.68,0,0,1-1,.19,2.71,2.71,0,0,1-1.3-.3,2.14,2.14,0,0,1-.89-.82,2.25,2.25,0,0,1-.32-1.19,2.37,2.37,0,0,1,.31-1.19,2.09,2.09,0,0,1,.83-.81,2.39,2.39,0,0,1,1.19-.3,2.34,2.34,0,0,1,1.19.3,2.09,2.09,0,0,1,.83.81,2.34,2.34,0,0,1,.3,1.19ZM75,52.12a1.6,1.6,0,0,0-.53,1.09h3.38a1.6,1.6,0,0,0-.53-1.09,1.81,1.81,0,0,0-2.32,0Z"/><path class="cls-2" d="M80.46,55.49a2.22,2.22,0,0,1-.87-.82,2.32,2.32,0,0,1-.32-1.2,2.28,2.28,0,0,1,.32-1.19,2.13,2.13,0,0,1,.87-.81,2.67,2.67,0,0,1,1.27-.3,2.57,2.57,0,0,1,1.1.23,1.85,1.85,0,0,1,.77.67l-.48.31a1.55,1.55,0,0,0-.6-.51,2.05,2.05,0,0,0-1.72.06,1.47,1.47,0,0,0-.64.62,1.9,1.9,0,0,0,0,1.85,1.53,1.53,0,0,0,.64.62,1.88,1.88,0,0,0,.93.22,2.06,2.06,0,0,0,.79-.16,1.52,1.52,0,0,0,.6-.5l.48.31a1.83,1.83,0,0,1-.77.66,2.49,2.49,0,0,1-1.1.23A2.79,2.79,0,0,1,80.46,55.49Z"/><path class="cls-2" d="M88,51.62a1.66,1.66,0,0,1,.5,1.31v2.81h-.62V55a1.39,1.39,0,0,1-.64.55,2.2,2.2,0,0,1-1,.2,2,2,0,0,1-1.27-.36,1.21,1.21,0,0,1,0-1.89,2.26,2.26,0,0,1,1.4-.35h1.51V52.9a1.13,1.13,0,0,0-.34-.89,1.5,1.5,0,0,0-1-.3,2.56,2.56,0,0,0-.87.14,2,2,0,0,0-.71.39l-.29-.46a2.75,2.75,0,0,1,.87-.45,3.74,3.74,0,0,1,1.07-.16A2.06,2.06,0,0,1,88,51.62Zm-.73,3.44a1.39,1.39,0,0,0,.58-.68v-.74H86.32q-1.23,0-1.23.81a.73.73,0,0,0,.32.62,1.52,1.52,0,0,0,.89.23A1.74,1.74,0,0,0,87.23,55.06Z"/><path class="cls-2" d="M92.75,55.62a2.38,2.38,0,0,1-.83-.4l.29-.48a2.56,2.56,0,0,0,.76.37,3.24,3.24,0,0,0,.94.14,1.83,1.83,0,0,0,1-.2.61.61,0,0,0,.32-.54.49.49,0,0,0-.18-.4,1.15,1.15,0,0,0-.43-.21,5.35,5.35,0,0,0-.7-.14,8.47,8.47,0,0,1-.93-.21,1.52,1.52,0,0,1-.61-.37,1,1,0,0,1-.25-.72,1.13,1.13,0,0,1,.5-.93A2.36,2.36,0,0,1,94,51.17a3.71,3.71,0,0,1,.93.12,3,3,0,0,1,.76.3l-.28.5A2.51,2.51,0,0,0,94,51.7a1.78,1.78,0,0,0-.93.2.63.63,0,0,0-.31.55.51.51,0,0,0,.18.41,1.08,1.08,0,0,0,.44.23,6.2,6.2,0,0,0,.72.15,8.78,8.78,0,0,1,.92.21,1.37,1.37,0,0,1,.59.35,1,1,0,0,1,.24.69,1.06,1.06,0,0,1-.52.94,2.53,2.53,0,0,1-1.45.35A3.77,3.77,0,0,1,92.75,55.62Z"/><path class="cls-2" d="M97,50.09a.43.43,0,0,1-.14-.31.39.39,0,0,1,.14-.3.45.45,0,0,1,.34-.13.48.48,0,0,1,.33.12.39.39,0,0,1,.14.3.43.43,0,0,1-.14.32.49.49,0,0,1-.33.13A.49.49,0,0,1,97,50.09Zm0,1.12h.64v4.53H97Z"/><path class="cls-2" d="M103.61,53.66h-4a1.62,1.62,0,0,0,.57,1.14,2,2,0,0,0,1.31.44,2.18,2.18,0,0,0,.82-.15,1.88,1.88,0,0,0,.64-.44l.36.39a4.48,4.48,0,0,1-.34.31,4.78,4.78,0,0,0-.82.81,1.05,1.05,0,0,0-.23.59.45.45,0,0,0,.17.38.71.71,0,0,0,.43.12,1.06,1.06,0,0,0,.31,0,.83.83,0,0,0,.25-.12l.14.34a1.47,1.47,0,0,1-.77.2,1.09,1.09,0,0,1-.72-.22.76.76,0,0,1-.28-.62,1.47,1.47,0,0,1,.52-1,3,3,0,0,1-.5,0,2.74,2.74,0,0,1-1.3-.3,2.11,2.11,0,0,1-.88-.82A2.17,2.17,0,0,1,99,53.47a2.36,2.36,0,0,1,.3-1.19,2,2,0,0,1,.84-.81,2.51,2.51,0,0,1,2.38,0,2.06,2.06,0,0,1,.82.81,2.34,2.34,0,0,1,.3,1.19Zm-3.46-1.54a1.6,1.6,0,0,0-.53,1.09H103a1.61,1.61,0,0,0-.54-1.09,1.81,1.81,0,0,0-2.32,0Z"/><path class="cls-2" d="M105.35,55a.44.44,0,0,1,.14.33.89.89,0,0,1,0,.22c0,.08-.06.17-.1.28L105,57h-.43l.31-1.25a.44.44,0,0,1-.33-.44.43.43,0,0,1,.13-.33.5.5,0,0,1,.35-.14A.46.46,0,0,1,105.35,55Z"/><path class="cls-2" d="M112.34,51.62a1.66,1.66,0,0,1,.5,1.31v2.81h-.62V55a1.44,1.44,0,0,1-.64.55,2.23,2.23,0,0,1-1,.2,2,2,0,0,1-1.27-.36,1.21,1.21,0,0,1,0-1.89,2.26,2.26,0,0,1,1.4-.35h1.51V52.9a1.13,1.13,0,0,0-.34-.89,1.5,1.5,0,0,0-1-.3,2.56,2.56,0,0,0-.87.14,2.08,2.08,0,0,0-.72.39l-.29-.46a3,3,0,0,1,.87-.45,3.79,3.79,0,0,1,1.07-.16A2.09,2.09,0,0,1,112.34,51.62Zm-.73,3.44a1.39,1.39,0,0,0,.58-.68v-.74H110.7q-1.23,0-1.23.81a.73.73,0,0,0,.32.62,1.52,1.52,0,0,0,.89.23A1.74,1.74,0,0,0,111.61,55.06Z"/><path class="cls-2" d="M118.26,51.46a2.14,2.14,0,0,1,.85.81,2.31,2.31,0,0,1,.31,1.2,2.28,2.28,0,0,1-.31,1.2,2.16,2.16,0,0,1-.85.82,2.59,2.59,0,0,1-1.22.29,2.34,2.34,0,0,1-1.07-.24,1.92,1.92,0,0,1-.77-.7v.9h-.61V49.35h.64v2.72a1.92,1.92,0,0,1,.77-.67,2.37,2.37,0,0,1,1-.23A2.59,2.59,0,0,1,118.26,51.46ZM117.91,55a1.63,1.63,0,0,0,.63-.62,1.81,1.81,0,0,0,.24-.93,1.78,1.78,0,0,0-.24-.92,1.51,1.51,0,0,0-.63-.62,1.88,1.88,0,0,0-.91-.22,1.83,1.83,0,0,0-.91.22,1.59,1.59,0,0,0-.64.62,1.87,1.87,0,0,0-.23.92,1.91,1.91,0,0,0,.23.93,1.73,1.73,0,0,0,.64.62,1.83,1.83,0,0,0,.91.22A1.88,1.88,0,0,0,117.91,55Z"/><path class="cls-2" d="M124.74,51.21l-2.38,5.07a2.27,2.27,0,0,1-.67.91,1.63,1.63,0,0,1-.92.26,1.91,1.91,0,0,1-.64-.1,1.44,1.44,0,0,1-.52-.31l.3-.46a1.22,1.22,0,0,0,.87.35.89.89,0,0,0,.56-.18,1.56,1.56,0,0,0,.43-.58l.21-.44-2.13-4.52h.67l1.79,3.85,1.8-3.85Z"/><path class="cls-2" d="M132.38,49.35v6.39h-.62v-.9a1.89,1.89,0,0,1-.76.7,2.38,2.38,0,0,1-1.08.24,2.55,2.55,0,0,1-1.21-.29,2.19,2.19,0,0,1-.86-.82,2.38,2.38,0,0,1-.3-1.2,2.4,2.4,0,0,1,.3-1.2,2.17,2.17,0,0,1,.86-.81,2.55,2.55,0,0,1,1.21-.29,2.38,2.38,0,0,1,1.05.23,2,2,0,0,1,.77.67V49.35ZM130.88,55a1.63,1.63,0,0,0,.63-.62,1.81,1.81,0,0,0,.23-.93,1.77,1.77,0,0,0-.23-.92,1.51,1.51,0,0,0-.63-.62,1.82,1.82,0,0,0-.9-.22,1.87,1.87,0,0,0-.92.22,1.57,1.57,0,0,0-.63.62,1.87,1.87,0,0,0-.23.92,1.91,1.91,0,0,0,.23.93,1.7,1.7,0,0,0,.63.62,1.87,1.87,0,0,0,.92.22A1.82,1.82,0,0,0,130.88,55Z"/><path class="cls-2" d="M137.54,55.23v.51h-3.88v-.41l3-3.61h-2.95v-.51h3.78v.4l-3,3.62Z"/><path class="cls-2" d="M138.8,50.09a.43.43,0,0,1-.14-.31.39.39,0,0,1,.14-.3.45.45,0,0,1,.34-.13.48.48,0,0,1,.33.12.39.39,0,0,1,.14.3.43.43,0,0,1-.14.32.49.49,0,0,1-.33.13A.49.49,0,0,1,138.8,50.09Zm0,1.12h.64v4.53h-.64Z"/><path class="cls-2" d="M145.4,53.66h-4A1.62,1.62,0,0,0,142,54.8a2,2,0,0,0,1.31.44,2.18,2.18,0,0,0,.82-.15,1.88,1.88,0,0,0,.64-.44l.36.39a1.94,1.94,0,0,1-.79.55,3,3,0,0,1-2.35-.11,2.11,2.11,0,0,1-.88-.82,2.17,2.17,0,0,1-.32-1.19,2.36,2.36,0,0,1,.3-1.19,2,2,0,0,1,.84-.81,2.51,2.51,0,0,1,2.38,0,2.06,2.06,0,0,1,.82.81,2.34,2.34,0,0,1,.3,1.19Zm-3.46-1.54a1.6,1.6,0,0,0-.53,1.09h3.38a1.56,1.56,0,0,0-.53-1.09,1.81,1.81,0,0,0-2.32,0Z"/><path class="cls-2" d="M147.44,55.49a2.18,2.18,0,0,1-1.19-2,2.27,2.27,0,0,1,.31-1.19,2.22,2.22,0,0,1,.88-.81,2.61,2.61,0,0,1,1.26-.3,2.65,2.65,0,0,1,1.11.23,1.83,1.83,0,0,1,.76.67l-.48.31a1.55,1.55,0,0,0-.6-.51,1.86,1.86,0,0,0-.79-.16,1.93,1.93,0,0,0-.93.22,1.53,1.53,0,0,0-.64.62,2,2,0,0,0,0,1.85,1.59,1.59,0,0,0,.64.62,1.93,1.93,0,0,0,.93.22,2,2,0,0,0,.79-.16,1.52,1.52,0,0,0,.6-.5l.48.31a1.77,1.77,0,0,1-.77.66,2.46,2.46,0,0,1-1.1.23A2.72,2.72,0,0,1,147.44,55.49Z"/><path class="cls-2" d="M151.82,50.09a.42.42,0,0,1-.13-.31.38.38,0,0,1,.13-.3.47.47,0,0,1,.34-.13.48.48,0,0,1,.33.12.39.39,0,0,1,.14.3.43.43,0,0,1-.14.32.49.49,0,0,1-.33.13A.51.51,0,0,1,151.82,50.09Zm0,1.12h.65v4.53h-.65Z"/><path class="cls-2" d="M160.32,51.46a2.14,2.14,0,0,1,.85.81,2.5,2.5,0,0,1,0,2.41,2,2,0,0,1-.85.81,2.41,2.41,0,0,1-1.21.29,2.25,2.25,0,0,1-1.05-.23,2,2,0,0,1-.77-.66v2.52h-.64v-6.2h.61v.89a2,2,0,0,1,.77-.69,2.38,2.38,0,0,1,1.08-.24A2.57,2.57,0,0,1,160.32,51.46ZM160,55a1.73,1.73,0,0,0,.64-.62,1.91,1.91,0,0,0,.23-.93,1.81,1.81,0,0,0-.23-.91,1.68,1.68,0,0,0-.64-.63,1.88,1.88,0,0,0-.91-.22,1.83,1.83,0,0,0-.91.22,1.68,1.68,0,0,0-.64.63,1.81,1.81,0,0,0-.23.91,1.91,1.91,0,0,0,.23.93,1.73,1.73,0,0,0,.64.62,1.83,1.83,0,0,0,.91.22A1.88,1.88,0,0,0,160,55Z"/><path class="cls-2" d="M163.5,55.48a2.15,2.15,0,0,1-.87-.82,2.25,2.25,0,0,1-.31-1.19,2.27,2.27,0,0,1,.31-1.19,2.13,2.13,0,0,1,.87-.81,2.6,2.6,0,0,1,1.25-.3,2.56,2.56,0,0,1,1.24.3,2,2,0,0,1,.86.81,2.28,2.28,0,0,1,.32,1.19,2.25,2.25,0,0,1-.32,1.19,2.06,2.06,0,0,1-.86.82,2.56,2.56,0,0,1-1.24.3A2.6,2.6,0,0,1,163.5,55.48Zm2.16-.46a1.63,1.63,0,0,0,.63-.62,1.91,1.91,0,0,0,.22-.93,1.87,1.87,0,0,0-.22-.92,1.51,1.51,0,0,0-.63-.62,2,2,0,0,0-1.83,0,1.57,1.57,0,0,0-.63.62,1.87,1.87,0,0,0-.23.92,1.91,1.91,0,0,0,.23.93,1.7,1.7,0,0,0,.63.62,2,2,0,0,0,1.83,0Z"/><path class="cls-2" d="M172.16,51.46a2.21,2.21,0,0,1,.85.81,2.5,2.5,0,0,1,0,2.41,2.14,2.14,0,0,1-.85.81,2.47,2.47,0,0,1-1.22.29,2.25,2.25,0,0,1-1.05-.23,1.93,1.93,0,0,1-.76-.66v2.52h-.65v-6.2h.62v.89a1.9,1.9,0,0,1,.77-.69,2.31,2.31,0,0,1,1.07-.24A2.61,2.61,0,0,1,172.16,51.46ZM171.8,55a1.66,1.66,0,0,0,.64-.62,1.81,1.81,0,0,0,.23-.93,1.71,1.71,0,0,0-.23-.91,1.62,1.62,0,0,0-.64-.63,1.82,1.82,0,0,0-.9-.22,1.87,1.87,0,0,0-.92.22,1.59,1.59,0,0,0-.63.63,1.71,1.71,0,0,0-.23.91,1.81,1.81,0,0,0,.23.93A1.63,1.63,0,0,0,170,55a1.87,1.87,0,0,0,.92.22A1.82,1.82,0,0,0,171.8,55Z"/><path class="cls-2" d="M174.62,50.09a.42.42,0,0,1-.13-.31.38.38,0,0,1,.13-.3.45.45,0,0,1,.34-.13.48.48,0,0,1,.33.12.39.39,0,0,1,.14.3.43.43,0,0,1-.14.32.49.49,0,0,1-.33.13A.49.49,0,0,1,174.62,50.09Zm0,1.12h.65v4.53h-.65Z"/><path class="cls-2" d="M176.2,53.27l2.2-1.57.29.38-2.19,1.56Zm.92-3.92h.64v6.39h-.64Z"/><path class="cls-2" d="M183.61,51.21l-2.39,5.07a2.1,2.1,0,0,1-.67.91,1.6,1.6,0,0,1-.91.26,2,2,0,0,1-.65-.1,1.32,1.32,0,0,1-.51-.31l.3-.46a1.22,1.22,0,0,0,.87.35.87.87,0,0,0,.55-.18,1.46,1.46,0,0,0,.43-.58l.21-.44-2.13-4.52h.67l1.8,3.85L183,51.21Z"/><path class="cls-2" d="M193.89,51.21l-1.8,4.53h-.61L190,52l-1.51,3.71h-.61l-1.79-4.53h.61l1.5,3.85,1.53-3.85h.56l1.52,3.85,1.51-3.85Z"/><path class="cls-2" d="M195.57,55.48a2.15,2.15,0,0,1-.87-.82,2.25,2.25,0,0,1-.32-1.19,2.28,2.28,0,0,1,.32-1.19,2.13,2.13,0,0,1,.87-.81,2.56,2.56,0,0,1,1.24-.3,2.6,2.6,0,0,1,1.25.3,2.1,2.1,0,0,1,.86.81,2.28,2.28,0,0,1,.32,1.19,2.25,2.25,0,0,1-.32,1.19,2.12,2.12,0,0,1-.86.82,2.6,2.6,0,0,1-1.25.3A2.56,2.56,0,0,1,195.57,55.48Zm2.16-.46a1.78,1.78,0,0,0,.63-.62,1.91,1.91,0,0,0,.22-.93,1.87,1.87,0,0,0-.22-.92,1.63,1.63,0,0,0-.63-.62,2,2,0,0,0-1.83,0,1.51,1.51,0,0,0-.63.62,1.77,1.77,0,0,0-.23.92,1.81,1.81,0,0,0,.23.93,1.63,1.63,0,0,0,.63.62,2,2,0,0,0,1.83,0Z"/><path class="cls-2" d="M204.9,49.35v6.39h-.61v-.9a1.92,1.92,0,0,1-.77.7,2.34,2.34,0,0,1-1.07.24,2.59,2.59,0,0,1-1.22-.29,2.16,2.16,0,0,1-.85-.82,2.28,2.28,0,0,1-.31-1.2,2.31,2.31,0,0,1,.31-1.2,2.14,2.14,0,0,1,.85-.81,2.59,2.59,0,0,1,1.22-.29,2.37,2.37,0,0,1,1,.23,2,2,0,0,1,.77.67V49.35ZM203.4,55a1.73,1.73,0,0,0,.64-.62,1.91,1.91,0,0,0,.23-.93,1.87,1.87,0,0,0-.23-.92,1.59,1.59,0,0,0-.64-.62,2,2,0,0,0-1.81,0,1.59,1.59,0,0,0-.64.62,1.87,1.87,0,0,0-.23.92,1.91,1.91,0,0,0,.23.93,1.73,1.73,0,0,0,.64.62,2,2,0,0,0,1.81,0Z"/><path class="cls-2" d="M209.8,51.62a1.66,1.66,0,0,1,.5,1.31v2.81h-.62V55a1.39,1.39,0,0,1-.64.55,2.2,2.2,0,0,1-1,.2,2.06,2.06,0,0,1-1.27-.36,1.21,1.21,0,0,1,0-1.89,2.26,2.26,0,0,1,1.4-.35h1.52V52.9a1.14,1.14,0,0,0-.35-.89,1.49,1.49,0,0,0-1-.3,2.56,2.56,0,0,0-.87.14,2.13,2.13,0,0,0-.71.39l-.29-.46a2.75,2.75,0,0,1,.87-.45,3.74,3.74,0,0,1,1.07-.16A2.06,2.06,0,0,1,209.8,51.62Zm-.73,3.44a1.46,1.46,0,0,0,.59-.68v-.74h-1.5c-.82,0-1.22.27-1.22.81a.72.72,0,0,0,.31.62,1.52,1.52,0,0,0,.89.23A1.72,1.72,0,0,0,209.07,55.06ZM209,57.41a.74.74,0,0,1-.27-.59c0-.54.43-1,1.28-1.31l.3.23c-.74.31-1.11.65-1.11,1a.42.42,0,0,0,.17.36.7.7,0,0,0,.42.12.85.85,0,0,0,.56-.16l.15.34a1.47,1.47,0,0,1-.77.2A1.12,1.12,0,0,1,209,57.41Z"/><path class="cls-2" d="M94.51,61.8a2.07,2.07,0,0,1,.85.81,2.28,2.28,0,0,1,.31,1.2A2.32,2.32,0,0,1,95.36,65a2,2,0,0,1-.84.81,2.59,2.59,0,0,1-1.22.29,2.38,2.38,0,0,1-1-.23,1.91,1.91,0,0,1-.77-.67v2.53h-.64V61.54h.62v.9a1.87,1.87,0,0,1,.76-.69,2.38,2.38,0,0,1,1.08-.24A2.57,2.57,0,0,1,94.51,61.8Zm-.35,3.56a1.68,1.68,0,0,0,.64-.63,1.85,1.85,0,0,0,.23-.92,1.87,1.87,0,0,0-.23-.92,1.73,1.73,0,0,0-.64-.62,1.86,1.86,0,0,0-.91-.23,1.84,1.84,0,0,0-.91.23,1.63,1.63,0,0,0-.63.62,1.78,1.78,0,0,0-.24.92,1.75,1.75,0,0,0,.24.92,1.59,1.59,0,0,0,.63.63,1.94,1.94,0,0,0,.91.22A2,2,0,0,0,94.16,65.36Z"/><path class="cls-2" d="M98.28,61.74a2.46,2.46,0,0,1,1.11-.23v.6h-.15a1.54,1.54,0,0,0-1.18.44,1.66,1.66,0,0,0-.43,1.23v2.31H97V61.54h.61v.89A1.62,1.62,0,0,1,98.28,61.74Z"/><path class="cls-2" d="M104,65.57v.51h-3.88v-.41l3-3.61h-3v-.52h3.77V62l-3,3.62Z"/><path class="cls-2" d="M109.27,61.54l-2.39,5.08a2.14,2.14,0,0,1-.67.9,1.54,1.54,0,0,1-.92.27,1.91,1.91,0,0,1-.64-.1,1.44,1.44,0,0,1-.52-.31l.3-.46a1.23,1.23,0,0,0,.87.35.87.87,0,0,0,.56-.18,1.46,1.46,0,0,0,.43-.58l.21-.44-2.13-4.53H105l1.8,3.86,1.79-3.86Z"/><path class="cls-2" d="M108.9,67.72a1.07,1.07,0,0,1-.44-.22l.23-.47a1.08,1.08,0,0,0,.74.24.81.81,0,0,0,.59-.22.93.93,0,0,0,.2-.64V61.54h.64v4.87a1.39,1.39,0,0,1-.36,1,1.37,1.37,0,0,1-1,.37A2.12,2.12,0,0,1,108.9,67.72Zm1.31-7.3a.41.41,0,0,1,0-.62.49.49,0,0,1,.34-.12.48.48,0,0,1,.33.12.39.39,0,0,1,.14.3.45.45,0,0,1-.14.32.49.49,0,0,1-.33.13A.49.49,0,0,1,110.21,60.42Z"/><path class="cls-2" d="M116.81,64h-4a1.62,1.62,0,0,0,.57,1.14,2,2,0,0,0,1.31.44,2.18,2.18,0,0,0,.82-.15,1.78,1.78,0,0,0,.64-.45l.36.4a4.48,4.48,0,0,1-.34.31,4.78,4.78,0,0,0-.82.81,1,1,0,0,0-.23.59.46.46,0,0,0,.17.38.71.71,0,0,0,.43.12,1.06,1.06,0,0,0,.31,0,.83.83,0,0,0,.25-.12l.14.34a1.47,1.47,0,0,1-.77.2,1,1,0,0,1-.72-.23.73.73,0,0,1-.28-.61,1.47,1.47,0,0,1,.52-1,3,3,0,0,1-.5,0,2.74,2.74,0,0,1-1.3-.3,2.21,2.21,0,0,1-1.2-2,2.36,2.36,0,0,1,.3-1.19,2.14,2.14,0,0,1,.84-.82,2.59,2.59,0,0,1,2.38,0,2.15,2.15,0,0,1,.82.82,2.34,2.34,0,0,1,.3,1.19Zm-3.46-1.55a1.62,1.62,0,0,0-.53,1.09h3.38a1.58,1.58,0,0,0-.53-1.09,1.85,1.85,0,0,0-2.32,0Z"/><path class="cls-2" d="M120.65,65.8a1.21,1.21,0,0,1-.45.24,2,2,0,0,1-.56.08,1.42,1.42,0,0,1-1-.34,1.3,1.3,0,0,1-.36-1V62.06h-.86v-.52h.86v-1h.64v1h1.45v.52h-1.45v2.71a.82.82,0,0,0,.21.61.84.84,0,0,0,.61.21,1.23,1.23,0,0,0,.39-.06.9.9,0,0,0,.32-.17Z"/><path class="cls-2" d="M124.92,62a1.7,1.7,0,0,1,.5,1.32v2.81h-.62v-.71a1.39,1.39,0,0,1-.64.55,2.35,2.35,0,0,1-1,.2,2,2,0,0,1-1.27-.36,1.21,1.21,0,0,1,0-1.89,2.26,2.26,0,0,1,1.4-.35h1.52v-.28a1.12,1.12,0,0,0-.35-.89,1.51,1.51,0,0,0-1-.31,2.57,2.57,0,0,0-.87.15,2.13,2.13,0,0,0-.71.39l-.29-.46a2.75,2.75,0,0,1,.87-.45,3.42,3.42,0,0,1,1.07-.16A2.11,2.11,0,0,1,124.92,62Zm-.73,3.45a1.51,1.51,0,0,0,.59-.68V64h-1.5c-.82,0-1.23.28-1.23.82a.73.73,0,0,0,.32.62,1.52,1.52,0,0,0,.89.23A1.74,1.74,0,0,0,124.19,65.4Zm-.08,2.35a.74.74,0,0,1-.27-.6c0-.53.43-1,1.28-1.31l.3.24c-.74.31-1.11.65-1.11,1a.43.43,0,0,0,.17.36.68.68,0,0,0,.42.12.87.87,0,0,0,.56-.16l.15.34a1.5,1.5,0,0,1-.77.2A1.12,1.12,0,0,1,124.11,67.75Z"/><path class="cls-2" d="M133.9,59.68v6.4h-.62v-.9a1.89,1.89,0,0,1-.76.7,2.38,2.38,0,0,1-1.08.24,2.55,2.55,0,0,1-1.21-.29,2.19,2.19,0,0,1-.86-.82,2.48,2.48,0,0,1,0-2.4,2.1,2.1,0,0,1,.86-.81,2.55,2.55,0,0,1,1.21-.29,2.38,2.38,0,0,1,1.05.23,1.82,1.82,0,0,1,.76.67V59.68Zm-1.5,5.68a1.59,1.59,0,0,0,.63-.63,1.75,1.75,0,0,0,.23-.92,1.77,1.77,0,0,0-.23-.92,1.59,1.59,0,0,0-.63-.63,1.94,1.94,0,0,0-.91-.22,2,2,0,0,0-.91.22,1.59,1.59,0,0,0-.63.63,1.77,1.77,0,0,0-.23.92,1.75,1.75,0,0,0,.23.92,1.59,1.59,0,0,0,.63.63,2,2,0,0,0,.91.22A1.94,1.94,0,0,0,132.4,65.36Z"/><path class="cls-2" d="M138.8,62a1.69,1.69,0,0,1,.49,1.32v2.81h-.61v-.71a1.44,1.44,0,0,1-.64.55,2.38,2.38,0,0,1-1,.2,2,2,0,0,1-1.27-.36,1.14,1.14,0,0,1-.48-1,1.16,1.16,0,0,1,.44-.93,2.3,2.3,0,0,1,1.41-.35h1.51v-.28a1.15,1.15,0,0,0-.34-.89,1.51,1.51,0,0,0-1-.31,2.57,2.57,0,0,0-.87.15,2.08,2.08,0,0,0-.72.39l-.29-.46a2.75,2.75,0,0,1,.87-.45,3.47,3.47,0,0,1,1.07-.16A2.14,2.14,0,0,1,138.8,62Zm-.73,3.45a1.49,1.49,0,0,0,.58-.68V64h-1.5c-.81,0-1.22.28-1.22.82a.71.71,0,0,0,.32.62,1.5,1.5,0,0,0,.89.23A1.74,1.74,0,0,0,138.07,65.4Z"/><path class="cls-2" d="M148.05,61.54l-1.81,4.54h-.61l-1.5-3.72-1.51,3.72H142l-1.79-4.54h.62l1.49,3.86,1.53-3.86h.56l1.52,3.86,1.52-3.86Z"/><path class="cls-2" d="M150.78,63.8l-1.12,1v1.29H149v-6.4h.64V64l2.85-2.48h.8l-2,1.86,2.23,2.68h-.79Z"/><path class="cls-2" d="M158.62,64h-4a1.62,1.62,0,0,0,.57,1.14,2,2,0,0,0,1.31.44,2.12,2.12,0,0,0,.81-.15A1.73,1.73,0,0,0,158,65l.36.4-.34.31a4.92,4.92,0,0,0-.83.81,1.08,1.08,0,0,0-.22.59.46.46,0,0,0,.17.38.69.69,0,0,0,.43.12,1,1,0,0,0,.3,0,.73.73,0,0,0,.25-.12l.15.34a1.5,1.5,0,0,1-.77.2,1.07,1.07,0,0,1-.73-.23.75.75,0,0,1-.27-.61,1.44,1.44,0,0,1,.52-1,3,3,0,0,1-.5,0,2.74,2.74,0,0,1-1.3-.3,2.16,2.16,0,0,1-1.2-2,2.36,2.36,0,0,1,.3-1.19,2.18,2.18,0,0,1,.83-.82,2.53,2.53,0,0,1,1.2-.29,2.43,2.43,0,0,1,1.18.29,2.11,2.11,0,0,1,.83.82,2.34,2.34,0,0,1,.3,1.19Zm-3.46-1.55a1.62,1.62,0,0,0-.53,1.09H158a1.62,1.62,0,0,0-.53-1.09,1.85,1.85,0,0,0-2.32,0Z"/><path class="cls-2" d="M162.32,59.68H163v6.4h-.64Z"/><path class="cls-2" d="M168.91,64h-4a1.62,1.62,0,0,0,.57,1.14,2,2,0,0,0,1.31.44,2.18,2.18,0,0,0,.82-.15,1.78,1.78,0,0,0,.64-.45l.36.4a2,2,0,0,1-.79.55,3,3,0,0,1-2.35-.11,2.21,2.21,0,0,1-1.2-2,2.36,2.36,0,0,1,.3-1.19,2.14,2.14,0,0,1,.84-.82,2.59,2.59,0,0,1,2.38,0,2.15,2.15,0,0,1,.82.82,2.34,2.34,0,0,1,.3,1.19Zm-3.46-1.55a1.67,1.67,0,0,0-.53,1.09h3.39a1.67,1.67,0,0,0-.53-1.09,1.76,1.76,0,0,0-1.17-.41A1.71,1.71,0,0,0,165.45,62.45Z"/><path class="cls-2" d="M172,63.8l-1.13,1v1.29h-.64v-6.4h.64V64l2.85-2.48h.8l-2,1.86,2.23,2.68h-.79Z"/><path class="cls-2" d="M180,61.54v4.54h-.62v-.83a1.67,1.67,0,0,1-.7.64,2.18,2.18,0,0,1-1,.23,2.06,2.06,0,0,1-1.48-.5,1.86,1.86,0,0,1-.54-1.45V61.54h.65v2.57a1.47,1.47,0,0,0,.37,1.09,1.43,1.43,0,0,0,1.06.37,1.51,1.51,0,0,0,1.62-1.65V61.54Z"/><path class="cls-1" d="M39.4,76.84h3.31a5.11,5.11,0,0,1,2.16.44,3.48,3.48,0,0,1,0,6.31,5,5,0,0,1-2.16.45H39.4Zm3.25,6.07a3.37,3.37,0,0,0,1.46-.31,2.23,2.23,0,0,0,1-.86,2.67,2.67,0,0,0,0-2.61,2.23,2.23,0,0,0-1-.86,3.37,3.37,0,0,0-1.46-.3H40.81v4.94Z"/><path class="cls-1" d="M49.79,83.66a3.68,3.68,0,0,1-1.46-1.33,3.65,3.65,0,0,1,0-3.79,3.68,3.68,0,0,1,1.46-1.33,4.79,4.79,0,0,1,4.18,0,3.76,3.76,0,0,1,1.47,1.32,3.69,3.69,0,0,1,0,3.81A3.76,3.76,0,0,1,54,83.66a4.79,4.79,0,0,1-4.18,0Zm3.46-1a2.42,2.42,0,0,0,1-.9,2.51,2.51,0,0,0,.35-1.3,2.54,2.54,0,0,0-.35-1.31,2.49,2.49,0,0,0-1-.9,2.83,2.83,0,0,0-1.37-.32,2.79,2.79,0,0,0-1.36.32,2.42,2.42,0,0,0-1,.9,2.45,2.45,0,0,0-.35,1.31,2.42,2.42,0,0,0,.35,1.3,2.36,2.36,0,0,0,1,.9,2.79,2.79,0,0,0,1.36.33A2.83,2.83,0,0,0,53.25,82.64Z"/><path class="cls-1" d="M62.42,84l-1.55-2.11h-2V84H57.46v-7.2h3.12a4.43,4.43,0,0,1,1.71.3,2.55,2.55,0,0,1,1.13.89,2.37,2.37,0,0,1,.39,1.37,2.34,2.34,0,0,1-.42,1.4,2.47,2.47,0,0,1-1.2.87L63.94,84Zm-.51-5.7a2.23,2.23,0,0,0-1.4-.37H58.87v2.87h1.64a2.23,2.23,0,0,0,1.4-.38,1.26,1.26,0,0,0,.48-1.06A1.25,1.25,0,0,0,61.91,78.34Z"/><path class="cls-1" d="M66.83,83.66a3.71,3.71,0,0,1-1.47-1.33,3.65,3.65,0,0,1,0-3.79,3.71,3.71,0,0,1,1.47-1.33,4.79,4.79,0,0,1,4.18,0,3.73,3.73,0,0,1,1.46,1.32,3.69,3.69,0,0,1,0,3.81A3.73,3.73,0,0,1,71,83.66a4.79,4.79,0,0,1-4.18,0Zm3.45-1a2.36,2.36,0,0,0,1-.9,2.42,2.42,0,0,0,.35-1.3,2.45,2.45,0,0,0-.35-1.31,2.42,2.42,0,0,0-1-.9,2.79,2.79,0,0,0-1.36-.32,2.83,2.83,0,0,0-1.37.32,2.49,2.49,0,0,0-1,.9,2.54,2.54,0,0,0-.35,1.31,2.51,2.51,0,0,0,.35,1.3,2.42,2.42,0,0,0,1,.9,2.83,2.83,0,0,0,1.37.33A2.79,2.79,0,0,0,70.28,82.64Z"/><path class="cls-1" d="M75.15,83.9a3.37,3.37,0,0,1-1.29-.62l.48-1a4,4,0,0,0,1.15.57,4.24,4.24,0,0,0,1.35.22,2.48,2.48,0,0,0,1.27-.26.78.78,0,0,0,.41-.68.68.68,0,0,0-.23-.51,1.83,1.83,0,0,0-.59-.31c-.24-.08-.56-.16-1-.26a12.37,12.37,0,0,1-1.4-.39A2.29,2.29,0,0,1,74.4,80,1.62,1.62,0,0,1,74,78.88a1.82,1.82,0,0,1,.34-1.08,2.26,2.26,0,0,1,1-.78,4.4,4.4,0,0,1,1.68-.29,5.78,5.78,0,0,1,1.37.17,4,4,0,0,1,1.15.47l-.44,1a4.05,4.05,0,0,0-1-.42,3.92,3.92,0,0,0-1-.15,2.26,2.26,0,0,0-1.24.27.83.83,0,0,0-.41.71.63.63,0,0,0,.24.51,1.56,1.56,0,0,0,.59.3c.24.08.56.16,1,.26a9.06,9.06,0,0,1,1.39.39,2.32,2.32,0,0,1,.92.61A1.53,1.53,0,0,1,79.91,82a1.87,1.87,0,0,1-.34,1.08,2.35,2.35,0,0,1-1,.77,4.42,4.42,0,0,1-1.69.29A6,6,0,0,1,75.15,83.9Zm2.39-9.06h1.59l-1.89,1.41H76.07Z"/><path class="cls-1" d="M81.31,76.84h1.4v6.07h4V84H81.31Z"/><path class="cls-1" d="M87.79,76.84H89.2V84H87.79Z"/><path class="cls-1" d="M94.24,76.84h1.4V84h-1.4Z"/><path class="cls-1" d="M107.64,84V79.26l-2.49,3.95h-.63L102,79.33V84h-1.34v-7.2h1.16l3,4.77,3-4.77H109V84Z"/><path class="cls-1" d="M110,80.91l3.73-2.69.58.7-3.74,2.7Zm1.17-4.07h1.41v6.07h4V84h-5.37Z"/><path class="cls-1" d="M119.07,83.66a3.64,3.64,0,0,1-1.47-1.33,3.65,3.65,0,0,1,0-3.79,3.64,3.64,0,0,1,1.47-1.33,4.77,4.77,0,0,1,4.17,0,3.69,3.69,0,0,1,1.47,1.32,3.69,3.69,0,0,1,0,3.81,3.69,3.69,0,0,1-1.47,1.32,4.77,4.77,0,0,1-4.17,0Zm3.45-1a2.42,2.42,0,0,0,1-.9,2.51,2.51,0,0,0,.35-1.3,2.54,2.54,0,0,0-.35-1.31,2.49,2.49,0,0,0-1-.9,2.83,2.83,0,0,0-1.37-.32,2.79,2.79,0,0,0-1.36.32,2.49,2.49,0,0,0-1,.9,2.54,2.54,0,0,0-.35,1.31,2.51,2.51,0,0,0,.35,1.3,2.42,2.42,0,0,0,1,.9,2.79,2.79,0,0,0,1.36.33A2.83,2.83,0,0,0,122.52,82.64Z"/><path class="cls-1" d="M126.73,76.84h3.32a5.1,5.1,0,0,1,2.15.44,3.48,3.48,0,0,1,0,6.31,5,5,0,0,1-2.15.45h-3.32ZM130,82.91a3.38,3.38,0,0,0,1.47-.31,2.26,2.26,0,0,0,1-.86,2.67,2.67,0,0,0,0-2.61,2.26,2.26,0,0,0-1-.86A3.38,3.38,0,0,0,130,78h-1.84v4.94Z"/><path class="cls-1" d="M141.57,82.91V84H135.1v-.9L139.56,78h-4.38V76.84h6.25v.89L137,82.91Z"/><path class="cls-1" d="M142.86,76.84h1.4V84h-1.4Z"/><path class="cls-1" d="M152,82.92V84h-5.69v-7.2h5.53V78h-4.12v1.87h3.66v1.1h-3.66v2Z"/><path class="cls-1" d="M159.46,82.91V84H153v-.9L157.45,78h-4.38V76.84h6.25v.89l-4.46,5.18Zm-3.78-7a.67.67,0,0,1-.22-.52.68.68,0,0,1,.22-.53.86.86,0,0,1,1.1,0,.68.68,0,0,1,.22.53.67.67,0,0,1-.22.52.83.83,0,0,1-1.1,0Z"/><path class="cls-1" d="M168.57,77.14a2.52,2.52,0,0,1,1.12.89,2.58,2.58,0,0,1,0,2.73,2.45,2.45,0,0,1-1.12.89,4.33,4.33,0,0,1-1.72.31h-1.71V84h-1.41v-7.2h3.12A4.52,4.52,0,0,1,168.57,77.14Zm-.38,3.32a1.28,1.28,0,0,0,.47-1.06,1.27,1.27,0,0,0-.47-1.06,2.25,2.25,0,0,0-1.4-.37h-1.65v2.86h1.65A2.31,2.31,0,0,0,168.19,80.46Z"/><path class="cls-1" d="M173.05,83.66a3.61,3.61,0,0,1-1.46-1.33,3.6,3.6,0,0,1,0-3.79,3.61,3.61,0,0,1,1.46-1.33,4.79,4.79,0,0,1,4.18,0,3.66,3.66,0,0,1,1.46,1.32,3.69,3.69,0,0,1,0,3.81,3.66,3.66,0,0,1-1.46,1.32,4.79,4.79,0,0,1-4.18,0Zm3.45-1a2.36,2.36,0,0,0,.95-.9,2.42,2.42,0,0,0,.35-1.3,2.45,2.45,0,0,0-.35-1.31,2.42,2.42,0,0,0-.95-.9,2.79,2.79,0,0,0-1.36-.32,2.83,2.83,0,0,0-1.37.32,2.49,2.49,0,0,0-1,.9,2.54,2.54,0,0,0-.35,1.31,2.51,2.51,0,0,0,.35,1.3,2.42,2.42,0,0,0,1,.9,2.83,2.83,0,0,0,1.37.33A2.79,2.79,0,0,0,176.5,82.64Z"/><path class="cls-1" d="M191.79,76.84,189.28,84h-1.49l-1.88-5.33L184,84H182.5L180,76.84h1.46l1.88,5.47,2-5.47h1.3l1.92,5.5,1.94-5.5Z"/><path class="cls-1" d="M192.78,83.87a.87.87,0,0,1,0-1.23,1,1,0,0,1,1.27,0,.87.87,0,0,1,0,1.23.93.93,0,0,1-1.25,0Z"/><path class="cls-1" d="M200.81,76.84V84H199.4V78h-1.6V76.84Z"/><path class="cls-1" d="M207.81,82.91V84h-5.59v-.9l3-2.71a3.22,3.22,0,0,0,.69-.81,1.48,1.48,0,0,0,.18-.69.91.91,0,0,0-.36-.77,1.73,1.73,0,0,0-1.05-.26,2.18,2.18,0,0,0-1.78.75l-1-.72a2.84,2.84,0,0,1,1.19-.88,4.39,4.39,0,0,1,1.69-.32,3.2,3.2,0,0,1,2,.56,1.79,1.79,0,0,1,.74,1.51,2.44,2.44,0,0,1-.26,1.1,4.41,4.41,0,0,1-1,1.17l-2,1.84Z"/><path class="cls-1" d="M212.15,76.84h1.41v6.07h4V84h-5.37Z"/><path class="cls-1" d="M223.55,82.37h-3.79L219,84h-1.46l3.42-7.2h1.38l3.42,7.2h-1.47Zm-.46-1.05-1.43-3.15-1.42,3.15Z"/><path class="cls-1" d="M228.28,78h-2.51V76.84h6.43V78h-2.51V84h-1.41Z"/><path class="cls-2" d="M54,89.68v6h-.65V90.23h-1.5v-.55Z"/><path class="cls-2" d="M59.19,92.62a1.54,1.54,0,0,1,.63,1.31,1.66,1.66,0,0,1-.26.94,1.72,1.72,0,0,1-.77.65,3,3,0,0,1-1.27.24,4,4,0,0,1-1.29-.21,2.64,2.64,0,0,1-1-.57l.32-.49a2.34,2.34,0,0,0,.83.51,3.42,3.42,0,0,0,1.12.19,1.91,1.91,0,0,0,1.22-.34,1.06,1.06,0,0,0,.43-.89,1,1,0,0,0-.48-.94A3.16,3.16,0,0,0,57,92.7H55.69l.32-3h3.48v.55h-2.9l-.22,1.92h.81A3.42,3.42,0,0,1,59.19,92.62Z"/><path class="cls-2" d="M70.81,91.63a1.93,1.93,0,0,1,.51,1.45v2.63h-.64V93.14a1.5,1.5,0,0,0-.36-1.08,1.38,1.38,0,0,0-1-.37,1.55,1.55,0,0,0-1.17.44,1.62,1.62,0,0,0-.43,1.2v2.38h-.64V93.14a1.5,1.5,0,0,0-.36-1.08,1.38,1.38,0,0,0-1-.37,1.54,1.54,0,0,0-1.16.44,1.62,1.62,0,0,0-.44,1.2v2.38h-.64V91.17h.62V92a1.64,1.64,0,0,1,.7-.63,2.35,2.35,0,0,1,1-.23,2.16,2.16,0,0,1,1,.24,1.48,1.48,0,0,1,.65.72,1.86,1.86,0,0,1,.76-.71,2.57,2.57,0,0,1,1.13-.25A1.94,1.94,0,0,1,70.81,91.63Z"/><path class="cls-2" d="M73.07,89.31h.65v6.4h-.65Z"/><path class="cls-2" d="M78.06,95.59a2.47,2.47,0,0,1-.83-.4l.29-.48a2.38,2.38,0,0,0,.75.36,3,3,0,0,0,.94.15,1.87,1.87,0,0,0,1-.2.61.61,0,0,0,.31-.55.51.51,0,0,0-.17-.39,1.29,1.29,0,0,0-.44-.21,4.84,4.84,0,0,0-.69-.14,7,7,0,0,1-.94-.22,1.36,1.36,0,0,1-.6-.36,1,1,0,0,1-.25-.72,1.08,1.08,0,0,1,.5-.93,2.31,2.31,0,0,1,1.38-.36,3.71,3.71,0,0,1,.93.12,2.56,2.56,0,0,1,.76.3l-.28.49a2.56,2.56,0,0,0-1.41-.38,1.72,1.72,0,0,0-.92.2.64.64,0,0,0-.32.55.51.51,0,0,0,.18.41,1.15,1.15,0,0,0,.44.23,6.69,6.69,0,0,0,.72.15,8.22,8.22,0,0,1,.92.21,1.23,1.23,0,0,1,.59.35,1,1,0,0,1,.24.69,1.07,1.07,0,0,1-.52.94,2.58,2.58,0,0,1-1.44.35A3.68,3.68,0,0,1,78.06,95.59Z"/><path class="cls-2" d="M86.33,91.17,84,96.25a2.22,2.22,0,0,1-.67.9,1.56,1.56,0,0,1-.92.27,1.87,1.87,0,0,1-.64-.1A1.36,1.36,0,0,1,81.2,97l.3-.46a1.22,1.22,0,0,0,.87.35.89.89,0,0,0,.56-.18,1.67,1.67,0,0,0,.43-.58l.21-.44-2.14-4.53h.68L83.9,95l1.8-3.86Z"/><path class="cls-2" d="M88.53,91.37a2.46,2.46,0,0,1,1.11-.23v.6h-.15a1.54,1.54,0,0,0-1.18.44,1.66,1.66,0,0,0-.43,1.23v2.31h-.64V91.17h.62v.89A1.54,1.54,0,0,1,88.53,91.37Z"/><path class="cls-2" d="M91.58,95.45a2.22,2.22,0,0,1-.87-.82,2.37,2.37,0,0,1,0-2.38,2.22,2.22,0,0,1,.87-.82,2.67,2.67,0,0,1,1.24-.29,2.71,2.71,0,0,1,1.25.29,2.19,2.19,0,0,1,.86.82,2.37,2.37,0,0,1,0,2.38,2.19,2.19,0,0,1-.86.82,2.6,2.6,0,0,1-1.25.3A2.56,2.56,0,0,1,91.58,95.45ZM93.74,95a1.66,1.66,0,0,0,.63-.63,1.84,1.84,0,0,0,.22-.92,1.87,1.87,0,0,0-.22-.92,1.66,1.66,0,0,0-.63-.63,2,2,0,0,0-1.83,0,1.59,1.59,0,0,0-.63.63,1.77,1.77,0,0,0-.23.92,1.75,1.75,0,0,0,.23.92,1.59,1.59,0,0,0,.63.63,2,2,0,0,0,1.83,0Z"/><path class="cls-2" d="M100.23,91.43a2.1,2.1,0,0,1,.86.81,2.38,2.38,0,0,1,.3,1.2,2.41,2.41,0,0,1-.3,1.21,2.14,2.14,0,0,1-.85.81,2.59,2.59,0,0,1-1.22.29,2.38,2.38,0,0,1-1-.23,1.91,1.91,0,0,1-.77-.67v2.53h-.64V91.17h.62v.9a1.94,1.94,0,0,1,.76-.69A2.38,2.38,0,0,1,99,91.14,2.55,2.55,0,0,1,100.23,91.43ZM99.88,95a1.62,1.62,0,0,0,.64-.63,1.85,1.85,0,0,0,.23-.92,1.87,1.87,0,0,0-.23-.92,1.66,1.66,0,0,0-.64-.62,1.92,1.92,0,0,0-1.82,0,1.63,1.63,0,0,0-.63.62,1.77,1.77,0,0,0-.23.92,1.75,1.75,0,0,0,.23.92,1.59,1.59,0,0,0,.63.63,2,2,0,0,0,1.82,0Z"/><path class="cls-2" d="M107,91.17v4.54h-.62v-.83a1.67,1.67,0,0,1-.7.64,2.18,2.18,0,0,1-1,.23,2.12,2.12,0,0,1-1.48-.5,1.86,1.86,0,0,1-.54-1.45V91.17h.65v2.57a1.47,1.47,0,0,0,.37,1.09,1.43,1.43,0,0,0,1.06.37,1.51,1.51,0,0,0,1.62-1.65V91.17Z"/><path class="cls-2" d="M111.51,95.56a8.9,8.9,0,0,1,0-4.43,6.14,6.14,0,0,1,.78-1.82h.61a6.68,6.68,0,0,0-.78,1.87,9.5,9.5,0,0,0,0,4.33,6.68,6.68,0,0,0,.78,1.87h-.61A6.37,6.37,0,0,1,111.51,95.56Z"/><path class="cls-2" d="M118.23,89.68v.44l-2.66,5.59h-.71l2.61-5.48h-3.26v1.13h-.64V89.68Z"/><path class="cls-2" d="M122.77,92.62a1.54,1.54,0,0,1,.63,1.31,1.75,1.75,0,0,1-.26.94,1.69,1.69,0,0,1-.78.65,3,3,0,0,1-1.27.24,4,4,0,0,1-1.29-.21,2.51,2.51,0,0,1-1-.57l.31-.49A2.3,2.3,0,0,0,120,95a3.31,3.31,0,0,0,1.11.19,1.89,1.89,0,0,0,1.22-.34,1.06,1.06,0,0,0,.43-.89,1,1,0,0,0-.48-.94,3.16,3.16,0,0,0-1.64-.32h-1.35l.33-3h3.47v.55h-2.9l-.22,1.92h.82A3.42,3.42,0,0,1,122.77,92.62Z"/><path class="cls-2" d="M125.44,95.39a2.51,2.51,0,0,1-.9-1.07,4.31,4.31,0,0,1,0-3.26,2.48,2.48,0,0,1,.9-1.06A2.41,2.41,0,0,1,129,91.06a4.19,4.19,0,0,1,0,3.26,2.38,2.38,0,0,1-.9,1.07,2.5,2.5,0,0,1-2.62,0Zm2.29-.49a1.86,1.86,0,0,0,.65-.86,3.92,3.92,0,0,0,0-2.7,1.83,1.83,0,0,0-.65-.85,1.65,1.65,0,0,0-1-.3,1.62,1.62,0,0,0-1,.3,1.85,1.85,0,0,0-.66.85,3.92,3.92,0,0,0,0,2.7,1.88,1.88,0,0,0,.66.86,1.68,1.68,0,0,0,1,.29A1.71,1.71,0,0,0,127.73,94.9Z"/><path class="cls-2" d="M140.39,91.63a1.93,1.93,0,0,1,.51,1.45v2.63h-.65V93.14a1.5,1.5,0,0,0-.35-1.08,1.38,1.38,0,0,0-1-.37,1.55,1.55,0,0,0-1.17.44,1.62,1.62,0,0,0-.43,1.2v2.38h-.64V93.14a1.5,1.5,0,0,0-.36-1.08,1.38,1.38,0,0,0-1-.37,1.58,1.58,0,0,0-1.17.44,1.62,1.62,0,0,0-.43,1.2v2.38H133V91.17h.61V92a1.67,1.67,0,0,1,.71-.63,2.31,2.31,0,0,1,1-.23,2.13,2.13,0,0,1,1,.24,1.49,1.49,0,0,1,.66.72,1.86,1.86,0,0,1,.76-.71,2.54,2.54,0,0,1,1.13-.25A2,2,0,0,1,140.39,91.63Z"/><path class="cls-2" d="M147.07,91.17v4a2.24,2.24,0,0,1-.6,1.71,2.52,2.52,0,0,1-1.79.55,4.36,4.36,0,0,1-1.26-.18,2.74,2.74,0,0,1-1-.52l.33-.46a2.36,2.36,0,0,0,.83.45,3.29,3.29,0,0,0,1,.17,1.9,1.9,0,0,0,1.34-.4,1.66,1.66,0,0,0,.42-1.25v-.57a2,2,0,0,1-.78.65,2.55,2.55,0,0,1-1.08.23,2.64,2.64,0,0,1-1.22-.29,2.09,2.09,0,0,1-.86-.78,2.12,2.12,0,0,1-.31-1.14,2.1,2.1,0,0,1,.31-1.14,2.14,2.14,0,0,1,.86-.77,2.58,2.58,0,0,1,1.22-.28,2.61,2.61,0,0,1,1.1.23,2,2,0,0,1,.79.67v-.87Zm-1.51,3.61a1.55,1.55,0,0,0,.65-.59,1.72,1.72,0,0,0,0-1.72,1.56,1.56,0,0,0-.64-.58,2.07,2.07,0,0,0-.94-.22,2,2,0,0,0-.93.21,1.55,1.55,0,0,0-.65.59,1.72,1.72,0,0,0,0,1.72,1.61,1.61,0,0,0,.65.59,2,2,0,0,0,.93.21A2.05,2.05,0,0,0,145.56,94.78Z"/><path class="cls-2" d="M154.5,92.77A1.53,1.53,0,0,1,155,94a1.64,1.64,0,0,1-.26.91,1.85,1.85,0,0,1-.78.64,3.19,3.19,0,0,1-1.26.23,4,4,0,0,1-1.31-.21,2.67,2.67,0,0,1-1-.57l.32-.49a2.3,2.3,0,0,0,.84.51,3.48,3.48,0,0,0,1.13.19,2,2,0,0,0,1.2-.32,1.06,1.06,0,0,0,.43-.89,1,1,0,0,0-.43-.88,2.08,2.08,0,0,0-1.29-.32h-.45v-.46l1.76-2.09h-3.25v-.55h4.08v.44L153,92.26A2.46,2.46,0,0,1,154.5,92.77Z"/><path class="cls-2" d="M160,91.37a2.46,2.46,0,0,1,1.11-.23v.6H161a1.54,1.54,0,0,0-1.18.44,1.66,1.66,0,0,0-.43,1.23v2.31h-.64V91.17h.61v.89A1.56,1.56,0,0,1,160,91.37Z"/><path class="cls-2" d="M165.48,91.58A1.69,1.69,0,0,1,166,92.9v2.81h-.61V95a1.44,1.44,0,0,1-.64.55,2.38,2.38,0,0,1-1,.2,2,2,0,0,1-1.27-.36,1.13,1.13,0,0,1-.47-1,1.15,1.15,0,0,1,.43-.93,2.3,2.3,0,0,1,1.41-.35h1.51v-.28A1.12,1.12,0,0,0,165,92a1.51,1.51,0,0,0-1-.31,2.57,2.57,0,0,0-.87.15,2.08,2.08,0,0,0-.72.39l-.29-.46a2.75,2.75,0,0,1,.87-.45,3.47,3.47,0,0,1,1.07-.16A2.16,2.16,0,0,1,165.48,91.58ZM164.75,95a1.49,1.49,0,0,0,.58-.68V93.6h-1.5c-.81,0-1.22.28-1.22.82a.73.73,0,0,0,.32.62,1.52,1.52,0,0,0,.89.23A1.74,1.74,0,0,0,164.75,95Z"/><path class="cls-2" d="M171.09,95.2v.51h-3.88V95.3l3-3.61h-3v-.52H171v.41l-3,3.62Z"/><path class="cls-2" d="M176.37,91.17,174,96.25a2.06,2.06,0,0,1-.67.9,1.53,1.53,0,0,1-.91.27,1.93,1.93,0,0,1-.65-.1,1.32,1.32,0,0,1-.51-.31l.29-.46a1.25,1.25,0,0,0,.87.35.87.87,0,0,0,.56-.18,1.46,1.46,0,0,0,.43-.58l.21-.44-2.13-4.53h.67l1.8,3.86,1.79-3.86Z"/><path class="cls-2" d="M183.51,91.64a1.89,1.89,0,0,1,.53,1.44v2.63h-.64V93.14A1.31,1.31,0,0,0,182,91.69a1.69,1.69,0,0,0-1.22.44,1.59,1.59,0,0,0-.45,1.2v2.38h-.64V91.17h.62V92a1.75,1.75,0,0,1,.73-.64,2.45,2.45,0,0,1,1.08-.23A2,2,0,0,1,183.51,91.64Z"/><path class="cls-2" d="M188.89,91.58a1.7,1.7,0,0,1,.5,1.32v2.81h-.62V95a1.39,1.39,0,0,1-.64.55,2.35,2.35,0,0,1-1,.2,2.06,2.06,0,0,1-1.27-.36,1.21,1.21,0,0,1,0-1.89,2.26,2.26,0,0,1,1.4-.35h1.52v-.28a1.12,1.12,0,0,0-.35-.89,1.48,1.48,0,0,0-1-.31,2.58,2.58,0,0,0-.88.15,2.13,2.13,0,0,0-.71.39l-.29-.46a2.75,2.75,0,0,1,.87-.45,3.42,3.42,0,0,1,1.07-.16A2.11,2.11,0,0,1,188.89,91.58ZM188.17,95a1.49,1.49,0,0,0,.58-.68V93.6h-1.5c-.82,0-1.22.28-1.22.82a.72.72,0,0,0,.31.62,1.52,1.52,0,0,0,.89.23A1.8,1.8,0,0,0,188.17,95Z"/><path class="cls-2" d="M197.87,89.31v6.4h-.62v-.9a1.89,1.89,0,0,1-.76.7,2.38,2.38,0,0,1-1.08.24,2.55,2.55,0,0,1-1.21-.29,2.19,2.19,0,0,1-.86-.82,2.55,2.55,0,0,1,0-2.4,2.1,2.1,0,0,1,.86-.81,2.55,2.55,0,0,1,1.21-.29,2.38,2.38,0,0,1,1.05.23,1.91,1.91,0,0,1,.77.67V89.31ZM196.37,95a1.59,1.59,0,0,0,.63-.63,1.75,1.75,0,0,0,.24-.92,1.78,1.78,0,0,0-.24-.92,1.59,1.59,0,0,0-.63-.63,2,2,0,0,0-1.81,0,1.62,1.62,0,0,0-.64.63,1.87,1.87,0,0,0-.23.92,1.85,1.85,0,0,0,.23.92,1.62,1.62,0,0,0,.64.63,2,2,0,0,0,1.81,0Z"/><path class="cls-2" d="M200.37,95.45a2.22,2.22,0,0,1-.87-.82,2.37,2.37,0,0,1,0-2.38,2.22,2.22,0,0,1,.87-.82,2.67,2.67,0,0,1,1.24-.29,2.71,2.71,0,0,1,1.25.29,2.19,2.19,0,0,1,.86.82,2.37,2.37,0,0,1,0,2.38,2.19,2.19,0,0,1-.86.82,2.6,2.6,0,0,1-1.25.3A2.56,2.56,0,0,1,200.37,95.45Zm2.16-.46a1.59,1.59,0,0,0,.63-.63,1.84,1.84,0,0,0,.22-.92,1.87,1.87,0,0,0-.22-.92,1.59,1.59,0,0,0-.63-.63,2,2,0,0,0-1.83,0,1.59,1.59,0,0,0-.63.63,1.77,1.77,0,0,0-.23.92,1.75,1.75,0,0,0,.23.92,1.59,1.59,0,0,0,.63.63,2,2,0,0,0,1.83,0Z"/><path class="cls-2" d="M209,91.43a2.1,2.1,0,0,1,.86.81,2.48,2.48,0,0,1,0,2.4,2.19,2.19,0,0,1-.86.82,2.55,2.55,0,0,1-1.21.29,2.31,2.31,0,0,1-1.07-.24,1.86,1.86,0,0,1-.77-.7v.9h-.62v-6.4H206V92a1.91,1.91,0,0,1,.77-.67,2.38,2.38,0,0,1,1.05-.23A2.55,2.55,0,0,1,209,91.43ZM208.67,95a1.62,1.62,0,0,0,.64-.63,1.85,1.85,0,0,0,.23-.92,1.87,1.87,0,0,0-.23-.92,1.62,1.62,0,0,0-.64-.63,1.94,1.94,0,0,0-.91-.22,2,2,0,0,0-.91.22,1.59,1.59,0,0,0-.63.63,1.77,1.77,0,0,0-.23.92,1.75,1.75,0,0,0,.23.92,1.59,1.59,0,0,0,.63.63,2,2,0,0,0,.91.22A1.94,1.94,0,0,0,208.67,95Z"/><path class="cls-2" d="M215.65,93.63h-4a1.59,1.59,0,0,0,.58,1.14,1.93,1.93,0,0,0,1.3.44,2.18,2.18,0,0,0,.82-.15,1.78,1.78,0,0,0,.64-.45l.36.4a4.48,4.48,0,0,1-.34.31,5.21,5.21,0,0,0-.82.8,1,1,0,0,0-.22.6.45.45,0,0,0,.16.38.71.71,0,0,0,.43.12,1.06,1.06,0,0,0,.31,0,.83.83,0,0,0,.25-.12l.14.34a1.45,1.45,0,0,1-.77.2,1,1,0,0,1-.72-.23.73.73,0,0,1-.28-.61,1.47,1.47,0,0,1,.52-1.05,3,3,0,0,1-.5,0,2.74,2.74,0,0,1-1.3-.3,2.18,2.18,0,0,1-.88-.82,2.28,2.28,0,0,1-.32-1.19,2.36,2.36,0,0,1,.3-1.19,2.21,2.21,0,0,1,.84-.82,2.59,2.59,0,0,1,2.38,0,2.15,2.15,0,0,1,.82.82,2.34,2.34,0,0,1,.3,1.19Zm-3.46-1.55a1.67,1.67,0,0,0-.53,1.09h3.39a1.67,1.67,0,0,0-.53-1.09,1.74,1.74,0,0,0-1.17-.41A1.71,1.71,0,0,0,212.19,92.08Z"/><path class="cls-2" d="M216.44,97.38a6.58,6.58,0,0,0,.79-1.87,9.14,9.14,0,0,0,0-4.33,6.7,6.7,0,0,0-.79-1.87h.62a6.14,6.14,0,0,1,.78,1.82,8.33,8.33,0,0,1,.28,2.22,8.75,8.75,0,0,1-.27,2.21,6.15,6.15,0,0,1-.79,1.82Z"/><path class="cls-2" d="M32.89,102.91v6h-.55l-4.08-4.9V109h-.67v-6h.55l4.09,4.9v-4.9Z"/><path class="cls-2" d="M37.93,104.82a1.69,1.69,0,0,1,.49,1.32V109h-.61v-.71a1.51,1.51,0,0,1-.64.55,2.38,2.38,0,0,1-1,.2,2,2,0,0,1-1.27-.36,1.21,1.21,0,0,1,0-1.89,2.2,2.2,0,0,1,1.4-.35h1.51v-.28a1.12,1.12,0,0,0-.34-.89,1.51,1.51,0,0,0-1-.31,2.57,2.57,0,0,0-.87.15,2.08,2.08,0,0,0-.72.39l-.29-.46a2.56,2.56,0,0,1,.87-.45,3.47,3.47,0,0,1,1.07-.16A2.14,2.14,0,0,1,37.93,104.82Zm-.73,3.45a1.46,1.46,0,0,0,.58-.69v-.74h-1.5c-.81,0-1.22.27-1.22.81a.75.75,0,0,0,.32.63,1.52,1.52,0,0,0,.89.23A1.74,1.74,0,0,0,37.2,108.27Z"/><path class="cls-2" d="M40.34,108.83a2.57,2.57,0,0,1-.83-.4l.29-.48a2.34,2.34,0,0,0,.76.36,2.93,2.93,0,0,0,.94.14,1.91,1.91,0,0,0,1-.19.62.62,0,0,0,.31-.55.51.51,0,0,0-.17-.39,1.13,1.13,0,0,0-.44-.21,6.7,6.7,0,0,0-.7-.15,9.06,9.06,0,0,1-.93-.21,1.31,1.31,0,0,1-.6-.36,1,1,0,0,1-.25-.72,1.1,1.1,0,0,1,.49-.93,2.36,2.36,0,0,1,1.39-.36,3.71,3.71,0,0,1,.93.12,2.32,2.32,0,0,1,.76.3l-.28.49a2.51,2.51,0,0,0-1.41-.39,1.68,1.68,0,0,0-.93.21.62.62,0,0,0-.31.54.53.53,0,0,0,.18.42,1.08,1.08,0,0,0,.44.23c.17,0,.41.1.72.15a9.15,9.15,0,0,1,.92.2,1.39,1.39,0,0,1,.59.36.93.93,0,0,1,.24.69,1.07,1.07,0,0,1-.52.94,2.61,2.61,0,0,1-1.45.35A3.77,3.77,0,0,1,40.34,108.83Z"/><path class="cls-2" d="M47.12,108.67a1.37,1.37,0,0,1-.45.24,2,2,0,0,1-.55.08,1.45,1.45,0,0,1-1-.35,1.28,1.28,0,0,1-.36-1v-2.74h-.85v-.52h.85v-1h.64v1h1.45v.52H45.36v2.71a.79.79,0,0,0,.22.61.82.82,0,0,0,.61.21,1.21,1.21,0,0,0,.38-.06,1.14,1.14,0,0,0,.33-.17Z"/><path class="cls-2" d="M52.45,106.87h-4A1.55,1.55,0,0,0,49,108a2,2,0,0,0,1.3.44,2,2,0,0,0,.82-.16,1.67,1.67,0,0,0,.64-.44l.37.4-.35.31a4.46,4.46,0,0,0-.82.8,1,1,0,0,0-.22.6.45.45,0,0,0,.16.38.74.74,0,0,0,.44.12,1,1,0,0,0,.3,0,.83.83,0,0,0,.25-.12l.14.33a1.36,1.36,0,0,1-.77.21,1.09,1.09,0,0,1-.72-.23.76.76,0,0,1-.27-.61,1.46,1.46,0,0,1,.51-1,4.57,4.57,0,0,1-.5,0,2.74,2.74,0,0,1-1.3-.3,2.18,2.18,0,0,1-.88-.82,2.41,2.41,0,0,1,0-2.38,2.18,2.18,0,0,1,.83-.82,2.59,2.59,0,0,1,2.38,0,2.18,2.18,0,0,1,.83.82,2.31,2.31,0,0,1,.29,1.19ZM49,105.32a1.56,1.56,0,0,0-.53,1.09h3.38a1.6,1.6,0,0,0-.53-1.09,1.68,1.68,0,0,0-1.17-.42A1.65,1.65,0,0,0,49,105.32Z"/><path class="cls-2" d="M57.44,104.67a2.1,2.1,0,0,1,.86.81,2.38,2.38,0,0,1,.3,1.2,2.41,2.41,0,0,1-.3,1.21,2.14,2.14,0,0,1-.85.81,2.59,2.59,0,0,1-1.22.29,2.38,2.38,0,0,1-1-.23,1.91,1.91,0,0,1-.77-.67v2.53h-.64v-6.21h.62v.9a1.94,1.94,0,0,1,.76-.69,2.38,2.38,0,0,1,1.08-.24A2.57,2.57,0,0,1,57.44,104.67Zm-.35,3.56a1.68,1.68,0,0,0,.64-.63,1.87,1.87,0,0,0,.23-.92,1.85,1.85,0,0,0-.23-.92,1.73,1.73,0,0,0-.64-.62,1.86,1.86,0,0,0-.91-.23,1.84,1.84,0,0,0-.91.23,1.63,1.63,0,0,0-.63.62,1.75,1.75,0,0,0-.24.92,1.78,1.78,0,0,0,.24.92,1.59,1.59,0,0,0,.63.63,1.94,1.94,0,0,0,.91.22A2,2,0,0,0,57.09,108.23Z"/><path class="cls-2" d="M63.78,104.87a1.93,1.93,0,0,1,.53,1.45V109h-.65v-2.57a1.46,1.46,0,0,0-.37-1.08,1.43,1.43,0,0,0-1.06-.37,1.69,1.69,0,0,0-1.22.44,1.59,1.59,0,0,0-.45,1.2V109h-.64v-4.54h.62v.84a1.63,1.63,0,0,1,.73-.64,2.45,2.45,0,0,1,1.08-.23A2,2,0,0,1,63.78,104.87Z"/><path class="cls-2" d="M66.05,103.29a.41.41,0,0,1-.14-.31.42.42,0,0,1,.14-.3.49.49,0,0,1,.33-.13.45.45,0,0,1,.34.13.38.38,0,0,1,.14.29.42.42,0,0,1-.14.32.45.45,0,0,1-.34.13A.44.44,0,0,1,66.05,103.29Zm0,1.12h.64V109h-.64Z"/><path class="cls-2" d="M72.65,106.87h-4a1.62,1.62,0,0,0,.57,1.14,2,2,0,0,0,1.31.44,2,2,0,0,0,.81-.16,1.71,1.71,0,0,0,.65-.44l.36.4a2.12,2.12,0,0,1-.79.55,3,3,0,0,1-1,.19,2.74,2.74,0,0,1-1.3-.3,2.16,2.16,0,0,1-1.2-2,2.36,2.36,0,0,1,.3-1.19,2.18,2.18,0,0,1,.83-.82,2.53,2.53,0,0,1,1.2-.29,2.47,2.47,0,0,1,1.19.29,2.15,2.15,0,0,1,.82.82,2.31,2.31,0,0,1,.3,1.19Zm-3.46-1.55a1.6,1.6,0,0,0-.53,1.09H72a1.6,1.6,0,0,0-.53-1.09,1.81,1.81,0,0,0-2.32,0Z"/><path class="cls-2" d="M77.68,102.91v6H77v-5.48h-1.5v-.56Z"/><path class="cls-2" d="M80.42,108.63a2.45,2.45,0,0,1-.9-1.07,4.31,4.31,0,0,1,0-3.26,2.45,2.45,0,0,1,.9-1.07,2.5,2.5,0,0,1,2.62,0,2.51,2.51,0,0,1,.9,1.07,4.19,4.19,0,0,1,0,3.26,2.51,2.51,0,0,1-.9,1.07,2.5,2.5,0,0,1-2.62,0Zm2.28-.49a1.88,1.88,0,0,0,.66-.86,3.92,3.92,0,0,0,0-2.7,1.88,1.88,0,0,0-.66-.86,1.68,1.68,0,0,0-1-.29,1.74,1.74,0,0,0-1,.29,1.86,1.86,0,0,0-.65.86,3.92,3.92,0,0,0,0,2.7,1.86,1.86,0,0,0,.65.86,1.74,1.74,0,0,0,1,.29A1.68,1.68,0,0,0,82.7,108.14Z"/><path class="cls-2" d="M95.36,104.87a1.89,1.89,0,0,1,.52,1.45V109h-.65v-2.57a1.5,1.5,0,0,0-.36-1.08,1.31,1.31,0,0,0-1-.37,1.58,1.58,0,0,0-1.17.44,1.66,1.66,0,0,0-.42,1.2V109h-.65v-2.57a1.5,1.5,0,0,0-.36-1.08,1.32,1.32,0,0,0-1-.37,1.56,1.56,0,0,0-1.16.44,1.62,1.62,0,0,0-.43,1.2V109H88v-4.54h.62v.83a1.69,1.69,0,0,1,.71-.64,2.31,2.31,0,0,1,1-.22,2.13,2.13,0,0,1,1,.24,1.57,1.57,0,0,1,.66.71,1.82,1.82,0,0,1,.75-.7,2.44,2.44,0,0,1,1.13-.25A1.94,1.94,0,0,1,95.36,104.87Z"/><path class="cls-2" d="M97.63,102.55h.64V109h-.64Z"/><path class="cls-2" d="M102.61,108.83a2.57,2.57,0,0,1-.83-.4l.29-.48a2.38,2.38,0,0,0,.75.36,3,3,0,0,0,1,.14,1.87,1.87,0,0,0,1-.19.61.61,0,0,0,.32-.55.48.48,0,0,0-.18-.39,1.08,1.08,0,0,0-.43-.21c-.18,0-.41-.1-.7-.15a8.47,8.47,0,0,1-.93-.21,1.4,1.4,0,0,1-.61-.36,1,1,0,0,1-.25-.72,1.11,1.11,0,0,1,.5-.93,2.34,2.34,0,0,1,1.39-.36,3.57,3.57,0,0,1,.92.12,2.38,2.38,0,0,1,.77.3l-.29.49a2.47,2.47,0,0,0-1.4-.39,1.68,1.68,0,0,0-.93.21.62.62,0,0,0-.31.54.56.56,0,0,0,.17.42,1.23,1.23,0,0,0,.44.23c.18,0,.42.1.73.15a8.3,8.3,0,0,1,.91.2,1.33,1.33,0,0,1,.59.36.9.9,0,0,1,.25.69,1.07,1.07,0,0,1-.52.94,2.61,2.61,0,0,1-1.45.35A3.68,3.68,0,0,1,102.61,108.83Z"/><path class="cls-2" d="M110.89,104.41l-2.39,5.08a2.2,2.2,0,0,1-.67.9,1.54,1.54,0,0,1-.92.27,2.2,2.2,0,0,1-.64-.1,1.6,1.6,0,0,1-.52-.31l.3-.46a1.21,1.21,0,0,0,.87.34.87.87,0,0,0,.56-.17,1.56,1.56,0,0,0,.43-.58l.21-.44L106,104.41h.67l1.8,3.85,1.79-3.85Z"/><path class="cls-2" d="M113.08,104.61a2.48,2.48,0,0,1,1.12-.23V105H114a1.59,1.59,0,0,0-1.18.44,1.74,1.74,0,0,0-.42,1.24V109h-.65v-4.54h.62v.89A1.59,1.59,0,0,1,113.08,104.61Z"/><path class="cls-2" d="M116.14,108.69a2.22,2.22,0,0,1-.87-.82,2.37,2.37,0,0,1,0-2.38,2.22,2.22,0,0,1,.87-.82,2.8,2.8,0,0,1,2.48,0,2.22,2.22,0,0,1,.87.82,2.44,2.44,0,0,1,0,2.38,2.22,2.22,0,0,1-.87.82,2.71,2.71,0,0,1-2.48,0Zm2.15-.46a1.59,1.59,0,0,0,.63-.63,1.87,1.87,0,0,0,.23-.92,1.85,1.85,0,0,0-.23-.92,1.59,1.59,0,0,0-.63-.63,2,2,0,0,0-1.82,0,1.68,1.68,0,0,0-.64.63,1.85,1.85,0,0,0-.23.92,1.87,1.87,0,0,0,.23.92,1.68,1.68,0,0,0,.64.63,2,2,0,0,0,1.82,0Z"/><path class="cls-2" d="M124.79,104.67a2.07,2.07,0,0,1,.85.81,2.28,2.28,0,0,1,.31,1.2,2.32,2.32,0,0,1-.31,1.21,2.07,2.07,0,0,1-.85.81,2.56,2.56,0,0,1-1.22.29,2.37,2.37,0,0,1-1-.23,1.85,1.85,0,0,1-.77-.67v2.53h-.64v-6.21h.61v.9a2,2,0,0,1,.77-.69,2.34,2.34,0,0,1,1.07-.24A2.59,2.59,0,0,1,124.79,104.67Zm-.35,3.56a1.59,1.59,0,0,0,.63-.63,1.78,1.78,0,0,0,.24-.92,1.75,1.75,0,0,0-.24-.92,1.63,1.63,0,0,0-.63-.62,1.89,1.89,0,0,0-.91-.23,1.84,1.84,0,0,0-.91.23,1.73,1.73,0,0,0-.64.62,1.85,1.85,0,0,0-.23.92,1.87,1.87,0,0,0,.23.92,1.68,1.68,0,0,0,.64.63,1.94,1.94,0,0,0,.91.22A2,2,0,0,0,124.44,108.23Z"/><path class="cls-2" d="M131.56,104.41V109H131v-.83a1.8,1.8,0,0,1-.7.64,2.25,2.25,0,0,1-1,.23,2.09,2.09,0,0,1-1.47-.5,1.86,1.86,0,0,1-.54-1.45v-2.63h.64V107a1.47,1.47,0,0,0,.38,1.09,1.45,1.45,0,0,0,1.06.37,1.59,1.59,0,0,0,1.18-.44,1.63,1.63,0,0,0,.44-1.21v-2.38Z"/><path class="cls-2" d="M136.06,108.79a8.63,8.63,0,0,1-.27-2.21,8.75,8.75,0,0,1,.27-2.21,6,6,0,0,1,.78-1.82h.62a6.7,6.7,0,0,0-.79,1.87,9.5,9.5,0,0,0,0,4.33,6.7,6.7,0,0,0,.79,1.87h-.62A6.32,6.32,0,0,1,136.06,108.79Z"/><path class="cls-2" d="M142,105.86a1.54,1.54,0,0,1,.63,1.31,1.77,1.77,0,0,1-.26.94,1.69,1.69,0,0,1-.78.65,3,3,0,0,1-1.26.24,4,4,0,0,1-1.3-.21,2.67,2.67,0,0,1-1-.57l.32-.49a2.19,2.19,0,0,0,.83.5,3.18,3.18,0,0,0,1.12.2,1.92,1.92,0,0,0,1.22-.34,1.09,1.09,0,0,0,.43-.89,1.05,1.05,0,0,0-.49-.94,3,3,0,0,0-1.64-.32h-1.35l.33-3h3.47v.56h-2.9l-.22,1.92H140A3.35,3.35,0,0,1,142,105.86Z"/><path class="cls-2" d="M144.65,108.63a2.43,2.43,0,0,1-.89-1.07,4.19,4.19,0,0,1,0-3.26,2.32,2.32,0,0,1,2.2-1.44,2.47,2.47,0,0,1,1.32.37,2.51,2.51,0,0,1,.9,1.07,4.31,4.31,0,0,1,0,3.26,2.51,2.51,0,0,1-.9,1.07A2.47,2.47,0,0,1,146,109,2.44,2.44,0,0,1,144.65,108.63Zm2.29-.49a2,2,0,0,0,.66-.86,4.08,4.08,0,0,0,0-2.7,2,2,0,0,0-.66-.86,1.78,1.78,0,0,0-1.95,0,2,2,0,0,0-.66.86,4.08,4.08,0,0,0,0,2.7,2,2,0,0,0,.66.86,1.78,1.78,0,0,0,1.95,0Z"/><path class="cls-2" d="M150.66,108.63a2.38,2.38,0,0,1-.9-1.07,4.31,4.31,0,0,1,0-3.26,2.38,2.38,0,0,1,.9-1.07,2.42,2.42,0,0,1,1.31-.37,2.44,2.44,0,0,1,1.31.37,2.51,2.51,0,0,1,.9,1.07,4.19,4.19,0,0,1,0,3.26,2.51,2.51,0,0,1-.9,1.07A2.44,2.44,0,0,1,152,109,2.42,2.42,0,0,1,150.66,108.63Zm2.28-.49a2,2,0,0,0,.66-.86,3.92,3.92,0,0,0,0-2.7,2,2,0,0,0-.66-.86,1.68,1.68,0,0,0-1-.29,1.71,1.71,0,0,0-1,.29,1.86,1.86,0,0,0-.65.86,3.92,3.92,0,0,0,0,2.7,1.86,1.86,0,0,0,.65.86,1.71,1.71,0,0,0,1,.29A1.68,1.68,0,0,0,152.94,108.14Z"/><path class="cls-2" d="M165.6,104.87a1.93,1.93,0,0,1,.51,1.45V109h-.64v-2.57a1.5,1.5,0,0,0-.36-1.08,1.32,1.32,0,0,0-1-.37,1.58,1.58,0,0,0-1.17.44,1.66,1.66,0,0,0-.42,1.2V109h-.65v-2.57a1.5,1.5,0,0,0-.36-1.08,1.33,1.33,0,0,0-1-.37,1.56,1.56,0,0,0-1.16.44,1.62,1.62,0,0,0-.43,1.2V109h-.65v-4.54h.62v.83a1.69,1.69,0,0,1,.71-.64,2.31,2.31,0,0,1,1-.22,2.13,2.13,0,0,1,1,.24,1.57,1.57,0,0,1,.66.71,1.82,1.82,0,0,1,.75-.7,2.44,2.44,0,0,1,1.13-.25A1.94,1.94,0,0,1,165.6,104.87Z"/><path class="cls-2" d="M172.28,104.41v4a2.26,2.26,0,0,1-.59,1.71,2.56,2.56,0,0,1-1.79.56,4,4,0,0,1-1.26-.19,2.43,2.43,0,0,1-1-.51l.32-.46a2.59,2.59,0,0,0,.84.45,3.29,3.29,0,0,0,1,.17,1.92,1.92,0,0,0,1.33-.4,1.63,1.63,0,0,0,.43-1.25v-.58a1.89,1.89,0,0,1-.79.66,2.5,2.5,0,0,1-1.07.22,2.61,2.61,0,0,1-1.22-.28,2.1,2.1,0,0,1-.86-.78,2.13,2.13,0,0,1-.32-1.14,2.08,2.08,0,0,1,.32-1.14,2.21,2.21,0,0,1,.85-.78,2.77,2.77,0,0,1,1.23-.27,2.64,2.64,0,0,1,1.1.23,2.06,2.06,0,0,1,.79.67v-.87Zm-1.5,3.61a1.68,1.68,0,0,0,.65-.59,1.72,1.72,0,0,0,0-1.72,1.61,1.61,0,0,0-.65-.59,2.19,2.19,0,0,0-1.87,0,1.52,1.52,0,0,0-.64.59,1.72,1.72,0,0,0,0,1.72,1.59,1.59,0,0,0,.64.59,2.19,2.19,0,0,0,1.87,0Z"/><path class="cls-2" d="M179.71,106a1.53,1.53,0,0,1,.53,1.2,1.61,1.61,0,0,1-.27.92,1.66,1.66,0,0,1-.78.63,3,3,0,0,1-1.26.24,4,4,0,0,1-1.3-.21,2.59,2.59,0,0,1-1-.57l.31-.49a2.28,2.28,0,0,0,.85.5,3.18,3.18,0,0,0,1.12.2,2,2,0,0,0,1.21-.32,1.09,1.09,0,0,0,.43-.9,1.07,1.07,0,0,0-.43-.88,2.17,2.17,0,0,0-1.29-.31h-.45v-.46l1.76-2.09h-3.25v-.56H180v.44l-1.8,2.15A2.36,2.36,0,0,1,179.71,106Z"/><path class="cls-2" d="M185.25,104.61a2.46,2.46,0,0,1,1.11-.23V105h-.16a1.59,1.59,0,0,0-1.18.44,1.74,1.74,0,0,0-.42,1.24V109H184v-4.54h.62v.89A1.56,1.56,0,0,1,185.25,104.61Z"/><path class="cls-2" d="M190.69,104.82a1.66,1.66,0,0,1,.5,1.32V109h-.62v-.71a1.42,1.42,0,0,1-.63.55,2.43,2.43,0,0,1-1,.2,2.06,2.06,0,0,1-1.27-.36,1.21,1.21,0,0,1,0-1.89,2.2,2.2,0,0,1,1.4-.35h1.52v-.28a1.12,1.12,0,0,0-.35-.89,1.48,1.48,0,0,0-1-.31,2.58,2.58,0,0,0-.88.15,2.13,2.13,0,0,0-.71.39l-.29-.46a2.56,2.56,0,0,1,.87-.45,3.42,3.42,0,0,1,1.07-.16A2.11,2.11,0,0,1,190.69,104.82Zm-.72,3.45a1.46,1.46,0,0,0,.58-.69v-.74h-1.5c-.82,0-1.22.27-1.22.81a.74.74,0,0,0,.31.63,1.54,1.54,0,0,0,.89.23A1.75,1.75,0,0,0,190,108.27Z"/><path class="cls-2" d="M196.31,108.44V109h-3.89v-.41l3-3.61h-3v-.52h3.77v.41l-3,3.62Z"/><path class="cls-2" d="M201.58,104.41l-2.38,5.08a2.2,2.2,0,0,1-.67.9,1.56,1.56,0,0,1-.92.27,2.2,2.2,0,0,1-.64-.1,1.6,1.6,0,0,1-.52-.31l.3-.46a1.21,1.21,0,0,0,.87.34.89.89,0,0,0,.56-.17,1.56,1.56,0,0,0,.43-.58l.21-.44-2.13-4.53h.67l1.79,3.85,1.8-3.85Z"/><path class="cls-2" d="M208.73,104.87a1.93,1.93,0,0,1,.53,1.45V109h-.65v-2.57a1.46,1.46,0,0,0-.37-1.08,1.43,1.43,0,0,0-1.06-.37,1.67,1.67,0,0,0-1.22.44,1.59,1.59,0,0,0-.45,1.2V109h-.64v-4.54h.61v.84a1.75,1.75,0,0,1,.73-.64,2.53,2.53,0,0,1,1.09-.23A2,2,0,0,1,208.73,104.87Z"/><path class="cls-2" d="M214.11,104.82a1.7,1.7,0,0,1,.5,1.32V109H214v-.71a1.51,1.51,0,0,1-.64.55,2.35,2.35,0,0,1-1,.2,2,2,0,0,1-1.27-.36,1.21,1.21,0,0,1,0-1.89,2.2,2.2,0,0,1,1.4-.35H214v-.28a1.12,1.12,0,0,0-.34-.89,1.51,1.51,0,0,0-1-.31,2.57,2.57,0,0,0-.87.15,2.08,2.08,0,0,0-.72.39l-.29-.46a2.71,2.71,0,0,1,.88-.45,3.36,3.36,0,0,1,1.06-.16A2.12,2.12,0,0,1,214.11,104.82Zm-.73,3.45a1.41,1.41,0,0,0,.58-.69v-.74h-1.49q-1.23,0-1.23.81a.75.75,0,0,0,.32.63,1.52,1.52,0,0,0,.89.23A1.74,1.74,0,0,0,213.38,108.27Z"/><path class="cls-2" d="M223.09,102.55V109h-.62v-.9a1.93,1.93,0,0,1-.77.7,2.31,2.31,0,0,1-1.07.24,2.61,2.61,0,0,1-1.22-.29,2.23,2.23,0,0,1-.85-.82,2.48,2.48,0,0,1,0-2.4,2.14,2.14,0,0,1,.85-.81,2.61,2.61,0,0,1,1.22-.29,2.41,2.41,0,0,1,1.05.23,1.88,1.88,0,0,1,.76.67v-2.73Zm-1.5,5.68a1.66,1.66,0,0,0,.63-.63,1.87,1.87,0,0,0,.23-.92,1.85,1.85,0,0,0-.23-.92,1.66,1.66,0,0,0-.63-.63,2,2,0,0,0-1.82,0,1.59,1.59,0,0,0-.63.63,1.75,1.75,0,0,0-.23.92,1.77,1.77,0,0,0,.23.92,1.59,1.59,0,0,0,.63.63,2,2,0,0,0,1.82,0Z"/><path class="cls-2" d="M225.59,108.69a2.22,2.22,0,0,1-.87-.82,2.37,2.37,0,0,1,0-2.38,2.22,2.22,0,0,1,.87-.82,2.8,2.8,0,0,1,2.48,0,2.22,2.22,0,0,1,.87.82,2.44,2.44,0,0,1,0,2.38,2.22,2.22,0,0,1-.87.82,2.71,2.71,0,0,1-2.48,0Zm2.15-.46a1.59,1.59,0,0,0,.63-.63,1.87,1.87,0,0,0,.23-.92,1.85,1.85,0,0,0-.23-.92,1.59,1.59,0,0,0-.63-.63,2,2,0,0,0-1.82,0,1.68,1.68,0,0,0-.64.63,1.85,1.85,0,0,0-.23.92,1.87,1.87,0,0,0,.23.92,1.68,1.68,0,0,0,.64.63,2,2,0,0,0,1.82,0Z"/><path class="cls-2" d="M234.24,104.67a2.07,2.07,0,0,1,.85.81,2.48,2.48,0,0,1,0,2.4,2.16,2.16,0,0,1-.85.82A2.57,2.57,0,0,1,233,109a2.38,2.38,0,0,1-1.08-.24,1.9,1.9,0,0,1-.76-.7v.9h-.62v-6.4h.64v2.73a1.91,1.91,0,0,1,.77-.67,2.38,2.38,0,0,1,1.05-.23A2.57,2.57,0,0,1,234.24,104.67Zm-.35,3.56a1.68,1.68,0,0,0,.64-.63,1.87,1.87,0,0,0,.23-.92,1.85,1.85,0,0,0-.23-.92,1.68,1.68,0,0,0-.64-.63,2,2,0,0,0-.91-.22,1.94,1.94,0,0,0-.91.22,1.68,1.68,0,0,0-.64.63,1.85,1.85,0,0,0-.23.92,1.87,1.87,0,0,0,.23.92,1.68,1.68,0,0,0,.64.63,1.94,1.94,0,0,0,.91.22A2,2,0,0,0,233.89,108.23Z"/><path class="cls-2" d="M240.87,106.87h-4a1.62,1.62,0,0,0,.57,1.14,2,2,0,0,0,1.31.44,2,2,0,0,0,.81-.16,1.71,1.71,0,0,0,.65-.44l.36.4-.34.31a4.59,4.59,0,0,0-.83.8,1.11,1.11,0,0,0-.22.6.46.46,0,0,0,.17.38.69.69,0,0,0,.43.12,1,1,0,0,0,.3,0,.73.73,0,0,0,.25-.12l.15.33a1.41,1.41,0,0,1-.77.21,1.12,1.12,0,0,1-.73-.23.76.76,0,0,1-.27-.61,1.44,1.44,0,0,1,.52-1,4.77,4.77,0,0,1-.5,0,2.74,2.74,0,0,1-1.3-.3,2.16,2.16,0,0,1-1.2-2,2.36,2.36,0,0,1,.3-1.19,2.18,2.18,0,0,1,.83-.82,2.53,2.53,0,0,1,1.2-.29,2.43,2.43,0,0,1,1.18.29,2.11,2.11,0,0,1,.83.82,2.31,2.31,0,0,1,.3,1.19Zm-3.46-1.55a1.6,1.6,0,0,0-.53,1.09h3.38a1.6,1.6,0,0,0-.53-1.09,1.81,1.81,0,0,0-2.32,0Z"/><path class="cls-2" d="M241.66,110.62a6.58,6.58,0,0,0,.79-1.87,9.5,9.5,0,0,0,0-4.33,6.58,6.58,0,0,0-.79-1.87h.62a6.29,6.29,0,0,1,.78,1.82,9.06,9.06,0,0,1,0,4.43,6.55,6.55,0,0,1-.79,1.82Z"/></svg>