<svg id="Warstwa_1" data-name="Warstwa 1" xmlns="http://www.w3.org/2000/svg" viewBox="0 0 270 75.95"><defs><style>.cls-1{fill:#ce1a1d;}.cls-2{fill:#174283;}</style></defs><title>dawkowanie_dorosli</title><path class="cls-1" d="M38.9,8.1H36.68V6.22h7V8.1H41.46v5.32H38.9Z"/><path class="cls-1" d="M49.5,12.16H46.62l-.51,1.26h-2.6l3.32-7.2h2.51l3.31,7.2H50Zm-.7-1.75L48.06,8.6l-.74,1.81Z"/><path class="cls-1" d="M60.17,10.34a1.71,1.71,0,0,1,.37,1.09,1.66,1.66,0,0,1-.83,1.47,4.54,4.54,0,0,1-2.38.52H53.06V6.22h4a4.18,4.18,0,0,1,2.29.51A1.61,1.61,0,0,1,59.91,9a1.81,1.81,0,0,1-.78.65A2.32,2.32,0,0,1,60.17,10.34ZM55.58,7.91V9h1.19c.55,0,.83-.18.83-.53s-.28-.54-.83-.54ZM58,11.15c0-.37-.28-.56-.85-.56H55.58v1.13h1.53C57.68,11.72,58,11.53,58,11.15Z"/><path class="cls-1" d="M61.43,6.22H64v5.31h3.42v1.89h-6Z"/><path class="cls-1" d="M74.42,11.59v1.83h-6.3V6.22h6.16V8.05H70.63v.84h3.2v1.75h-3.2v.95Z"/><path class="cls-1" d="M77.05,8.1H74.83V6.22h7V8.1H79.61v5.32H77.05Z"/><path class="cls-1" d="M85.57,11l-.57.61v1.78H82.49V6.22H85V8.83l2.49-2.61h2.78l-3,3.16,3.18,4h-3Z"/><path class="cls-1" d="M90.77,6.22h2.56v7.2H90.77Z"/><path class="cls-1" d="M97.81,6.22h3.73a5.43,5.43,0,0,1,2.24.43,3.44,3.44,0,0,1,0,6.33,5.43,5.43,0,0,1-2.24.44H97.81Zm3.63,5.3a1.86,1.86,0,0,0,1.31-.44,1.62,1.62,0,0,0,.5-1.26,1.59,1.59,0,0,0-.5-1.26,1.86,1.86,0,0,0-1.31-.45h-1.08v3.41Z"/><path class="cls-1" d="M108.53,13.1A3.77,3.77,0,0,1,107,11.76a3.51,3.51,0,0,1-.55-1.94A3.49,3.49,0,0,1,107,7.88a3.79,3.79,0,0,1,1.53-1.35,5.28,5.28,0,0,1,4.4,0,3.76,3.76,0,0,1,1.52,1.35,3.64,3.64,0,0,1,0,3.88,3.74,3.74,0,0,1-1.52,1.34,5.28,5.28,0,0,1-4.4,0Zm3.06-1.7a1.68,1.68,0,0,0,.61-.63,1.94,1.94,0,0,0,.23-.95,1.91,1.91,0,0,0-.23-1,1.55,1.55,0,0,0-.61-.63,1.67,1.67,0,0,0-.86-.22,1.64,1.64,0,0,0-.86.22,1.57,1.57,0,0,0-.62.63,1.91,1.91,0,0,0-.22,1,1.93,1.93,0,0,0,.22.95,1.7,1.7,0,0,0,.62.63,1.74,1.74,0,0,0,.86.22A1.77,1.77,0,0,0,111.59,11.4Z"/><path class="cls-1" d="M125.88,11.53v1.89h-7V11.93l3.47-3.83H119V6.22h6.68V7.71l-3.46,3.82ZM121.51,5.4a1.11,1.11,0,0,1-.34-.84,1.11,1.11,0,0,1,.34-.84,1.37,1.37,0,0,1,1.78,0,1.12,1.12,0,0,1,.35.84,1.12,1.12,0,0,1-.35.84,1.37,1.37,0,0,1-1.78,0Z"/><path class="cls-1" d="M127.53,12.69a3.25,3.25,0,0,1-1-2.51v-4h2.56V10.1a1.82,1.82,0,0,0,.29,1.16,1.06,1.06,0,0,0,.86.36,1,1,0,0,0,.86-.36,1.81,1.81,0,0,0,.3-1.16V6.22H134v4a3.25,3.25,0,0,1-1,2.51,4.6,4.6,0,0,1-5.44,0Z"/><path class="cls-1" d="M136.87,13.1a3.69,3.69,0,0,1-1.51-1.33,3.55,3.55,0,0,1-.55-1.95,3.5,3.5,0,0,1,.55-1.95,3.64,3.64,0,0,1,1.51-1.34A4.78,4.78,0,0,1,139,6.05a4.94,4.94,0,0,1,2,.37,3.71,3.71,0,0,1,1.42,1.07l-1.61,1.37A2.11,2.11,0,0,0,139.16,8a1.7,1.7,0,0,0-1.28.49,1.74,1.74,0,0,0-.49,1.31,1.68,1.68,0,0,0,1.77,1.8,2.09,2.09,0,0,0,1.66-.85l1.61,1.37A3.61,3.61,0,0,1,141,13.21a4.94,4.94,0,0,1-2,.37A4.78,4.78,0,0,1,136.87,13.1Z"/><path class="cls-1" d="M143.17,6.22h2.56v7.2h-2.56Z"/><path class="cls-1" d="M152.13,12.16h-2.88l-.51,1.26h-2.6l3.31-7.2H152l3.32,7.2h-2.64Zm-.71-1.75-.73-1.81L150,10.41Z"/><path class="cls-1" d="M158.94,6.22h2.55v5.31h3.42v1.89h-6Z"/><path class="cls-1" d="M166.53,12.69a3.25,3.25,0,0,1-1-2.51v-4h2.56V10.1a1.81,1.81,0,0,0,.3,1.16,1,1,0,0,0,.86.36,1.06,1.06,0,0,0,.86-.36,1.81,1.81,0,0,0,.3-1.16V6.22h2.51v4a3.22,3.22,0,0,1-1,2.51,4.59,4.59,0,0,1-5.43,0Z"/><path class="cls-1" d="M181.21,10.34a1.75,1.75,0,0,1-.45,2.56,4.57,4.57,0,0,1-2.38.52h-4.27V6.22h4a4.2,4.2,0,0,1,2.29.51A1.63,1.63,0,0,1,181,9a1.84,1.84,0,0,1-.79.65A2.27,2.27,0,0,1,181.21,10.34Zm-4.59-2.43V9h1.19c.56,0,.84-.18.84-.53s-.28-.54-.84-.54ZM179,11.15c0-.37-.28-.56-.84-.56h-1.54v1.13h1.54Q179,11.72,179,11.15Z"/><path class="cls-1" d="M186.72,13.38a4.82,4.82,0,0,1-1.47-.54l.83-1.77a5.27,5.27,0,0,0,1.21.48,5,5,0,0,0,1.29.18,1.94,1.94,0,0,0,.75-.1.3.3,0,0,0,.23-.29c0-.15-.1-.26-.3-.34a5.76,5.76,0,0,0-1-.25,11.37,11.37,0,0,1-1.46-.37,2.64,2.64,0,0,1-1-.66,1.78,1.78,0,0,1-.43-1.24,2.08,2.08,0,0,1,.4-1.24,2.64,2.64,0,0,1,1.2-.87,5.23,5.23,0,0,1,1.93-.32,7.1,7.1,0,0,1,1.53.16,4.84,4.84,0,0,1,1.33.47L191,8.44a4.85,4.85,0,0,0-2.11-.54c-.66,0-1,.15-1,.46,0,.14.1.25.3.32a6.16,6.16,0,0,0,1,.23,8.89,8.89,0,0,1,1.46.36,2.58,2.58,0,0,1,1,.65,1.7,1.7,0,0,1,.44,1.23,2,2,0,0,1-.41,1.23,2.64,2.64,0,0,1-1.19.88,5.27,5.27,0,0,1-1.93.32A8.64,8.64,0,0,1,186.72,13.38Z"/><path class="cls-1" d="M193.83,13.38a4.85,4.85,0,0,1-1.46-.54l.82-1.77a5.45,5.45,0,0,0,1.21.48,5,5,0,0,0,1.29.18,2,2,0,0,0,.76-.1.31.31,0,0,0,.23-.29c0-.15-.1-.26-.3-.34a6.34,6.34,0,0,0-1-.25,11,11,0,0,1-1.46-.37,2.64,2.64,0,0,1-1-.66,1.73,1.73,0,0,1-.43-1.24,2.08,2.08,0,0,1,.4-1.24,2.56,2.56,0,0,1,1.19-.87A5.29,5.29,0,0,1,196,6.05a7.1,7.1,0,0,1,1.53.16,4.88,4.88,0,0,1,1.32.47l-.76,1.76A4.89,4.89,0,0,0,196,7.9c-.66,0-1,.15-1,.46,0,.14.1.25.29.32a6.68,6.68,0,0,0,1,.23,9.43,9.43,0,0,1,1.46.36,2.55,2.55,0,0,1,1,.65,1.7,1.7,0,0,1,.44,1.23,2,2,0,0,1-.4,1.23,2.73,2.73,0,0,1-1.2.88,5.23,5.23,0,0,1-1.93.32A8.64,8.64,0,0,1,193.83,13.38Z"/><path class="cls-1" d="M205.12,12.16h-2.88l-.51,1.26h-2.6l3.32-7.2H205l3.31,7.2h-2.64Zm-.7-1.75-.74-1.81L203,10.41Z"/><path class="cls-1" d="M216.16,6.22v7.2h-2.1l-2.88-3.27v3.27h-2.49V6.22h2.1l2.88,3.27V6.22Z"/><path class="cls-1" d="M217.39,6.22H220v7.2h-2.56Z"/><path class="cls-1" d="M226.35,12.16h-2.88L223,13.42h-2.6l3.31-7.2h2.52l3.31,7.2h-2.64Zm-.71-1.75-.73-1.81-.74,1.81Z"/><path class="cls-2" d="M79.63,20.39v6H79V20.94h-1.5v-.55Z"/><path class="cls-2" d="M86.46,26.14a1.21,1.21,0,0,1-.45.24,2,2,0,0,1-.56.08,1.42,1.42,0,0,1-1-.34,1.3,1.3,0,0,1-.36-1V22.4H83.2v-.52h.86v-1h.64v1h1.45v.52H84.7v2.71a.82.82,0,0,0,.21.61.84.84,0,0,0,.61.21,1.23,1.23,0,0,0,.39-.06.9.9,0,0,0,.32-.17Z"/><path class="cls-2" d="M90.73,22.29a1.7,1.7,0,0,1,.5,1.32v2.81h-.62v-.71a1.39,1.39,0,0,1-.64.55,2.35,2.35,0,0,1-1,.2,2.06,2.06,0,0,1-1.27-.36,1.21,1.21,0,0,1,0-1.89,2.26,2.26,0,0,1,1.4-.35h1.51v-.28a1.12,1.12,0,0,0-.34-.89,1.51,1.51,0,0,0-1-.31,2.57,2.57,0,0,0-.87.15,2,2,0,0,0-.71.39l-.29-.46a2.75,2.75,0,0,1,.87-.45,3.42,3.42,0,0,1,1.07-.16A2.11,2.11,0,0,1,90.73,22.29ZM90,25.74a1.43,1.43,0,0,0,.58-.68v-.75H89.09c-.82,0-1.23.28-1.23.82a.73.73,0,0,0,.32.62,1.52,1.52,0,0,0,.89.23A1.74,1.74,0,0,0,90,25.74Z"/><path class="cls-2" d="M96.65,22.14a2.07,2.07,0,0,1,.85.81,2.48,2.48,0,0,1,0,2.4,2.16,2.16,0,0,1-.85.82,2.57,2.57,0,0,1-1.21.29,2.38,2.38,0,0,1-1.08-.24,1.83,1.83,0,0,1-.76-.7v.9H93V20h.64v2.73a1.91,1.91,0,0,1,.77-.67,2.38,2.38,0,0,1,1-.23A2.57,2.57,0,0,1,96.65,22.14ZM96.3,25.7a1.68,1.68,0,0,0,.64-.63,1.85,1.85,0,0,0,.23-.92,1.87,1.87,0,0,0-.23-.92,1.68,1.68,0,0,0-.64-.63,2,2,0,0,0-.91-.22,1.94,1.94,0,0,0-.91.22,1.59,1.59,0,0,0-.63.63,1.78,1.78,0,0,0-.24.92,1.75,1.75,0,0,0,.24.92,1.59,1.59,0,0,0,.63.63,1.94,1.94,0,0,0,.91.22A2,2,0,0,0,96.3,25.7Z"/><path class="cls-2" d="M99.13,20h.64v6.4h-.64Z"/><path class="cls-2" d="M105.72,24.34h-4a1.62,1.62,0,0,0,.57,1.14,2,2,0,0,0,1.31.44,2.12,2.12,0,0,0,.81-.15,1.73,1.73,0,0,0,.65-.45l.36.4a2,2,0,0,1-.79.55,3,3,0,0,1-2.35-.11,2.16,2.16,0,0,1-1.2-2,2.36,2.36,0,0,1,.3-1.19,2.18,2.18,0,0,1,.83-.82,2.53,2.53,0,0,1,1.2-.29,2.49,2.49,0,0,1,1.19.29,2.15,2.15,0,0,1,.82.82,2.34,2.34,0,0,1,.3,1.19Zm-3.46-1.55a1.62,1.62,0,0,0-.53,1.09h3.38a1.62,1.62,0,0,0-.53-1.09,1.85,1.85,0,0,0-2.32,0Z"/><path class="cls-2" d="M109.56,26.14a1.21,1.21,0,0,1-.45.24,2.1,2.1,0,0,1-.56.08,1.42,1.42,0,0,1-1-.34,1.27,1.27,0,0,1-.37-1V22.4h-.85v-.52h.85v-1h.65v1h1.45v.52H107.8v2.71a.82.82,0,0,0,.21.61.84.84,0,0,0,.61.21,1.27,1.27,0,0,0,.39-.06.9.9,0,0,0,.32-.17Z"/><path class="cls-2" d="M112.5,24.14l-1.13,1v1.29h-.64V20h.64v4.34l2.85-2.48h.8l-2,1.86,2.23,2.68h-.79Z"/><path class="cls-2" d="M119.28,22.29a1.7,1.7,0,0,1,.5,1.32v2.81h-.62v-.71a1.39,1.39,0,0,1-.64.55,2.35,2.35,0,0,1-1,.2,2,2,0,0,1-1.27-.36,1.16,1.16,0,0,1-.47-1,1.13,1.13,0,0,1,.44-.93,2.26,2.26,0,0,1,1.4-.35h1.51v-.28a1.12,1.12,0,0,0-.34-.89,1.51,1.51,0,0,0-1-.31,2.57,2.57,0,0,0-.87.15,2,2,0,0,0-.71.39l-.29-.46a2.75,2.75,0,0,1,.87-.45,3.38,3.38,0,0,1,1.07-.16A2.11,2.11,0,0,1,119.28,22.29Zm-.73,3.45a1.43,1.43,0,0,0,.58-.68v-.75h-1.49c-.82,0-1.23.28-1.23.82a.73.73,0,0,0,.32.62,1.52,1.52,0,0,0,.89.23A1.74,1.74,0,0,0,118.55,25.74Z"/><path class="cls-2" d="M127.16,23.48a1.67,1.67,0,0,1,.25,2.12,1.74,1.74,0,0,1-.78.64,3.12,3.12,0,0,1-1.26.23,4,4,0,0,1-1.3-.21,2.59,2.59,0,0,1-1-.57l.32-.49a2.3,2.3,0,0,0,.84.51,3.18,3.18,0,0,0,1.12.19,2,2,0,0,0,1.21-.32,1.09,1.09,0,0,0,.43-.89,1,1,0,0,0-.43-.88,2.1,2.1,0,0,0-1.29-.32h-.45V23l1.76-2.09h-3.25v-.55h4.08v.44L125.64,23A2.52,2.52,0,0,1,127.16,23.48Z"/><path class="cls-2" d="M132.69,22.08a2.46,2.46,0,0,1,1.11-.23v.6h-.16a1.55,1.55,0,0,0-1.18.44,1.7,1.7,0,0,0-.42,1.23v2.31h-.64V21.88H132v.89A1.56,1.56,0,0,1,132.69,22.08Z"/><path class="cls-2" d="M138.13,22.29a1.66,1.66,0,0,1,.5,1.32v2.81H138v-.71a1.36,1.36,0,0,1-.63.55,2.43,2.43,0,0,1-1,.2,2.06,2.06,0,0,1-1.27-.36,1.21,1.21,0,0,1,0-1.89,2.29,2.29,0,0,1,1.4-.35H138v-.28a1.12,1.12,0,0,0-.35-.89,1.48,1.48,0,0,0-1-.31,2.49,2.49,0,0,0-.87.15,2.08,2.08,0,0,0-.72.39l-.29-.46a2.75,2.75,0,0,1,.87-.45,3.47,3.47,0,0,1,1.07-.16A2.11,2.11,0,0,1,138.13,22.29Zm-.72,3.45a1.49,1.49,0,0,0,.58-.68v-.75h-1.5c-.82,0-1.22.28-1.22.82a.72.72,0,0,0,.31.62,1.54,1.54,0,0,0,.89.23A1.75,1.75,0,0,0,137.41,25.74Z"/><path class="cls-2" d="M143.75,25.91v.51h-3.88V26l3-3.61h-3v-.52h3.77v.41l-3,3.62Z"/><path class="cls-2" d="M149,21.88,146.64,27a2.14,2.14,0,0,1-.67.9,1.56,1.56,0,0,1-.92.27,1.91,1.91,0,0,1-.64-.1,1.44,1.44,0,0,1-.52-.31l.3-.46a1.22,1.22,0,0,0,.87.35.89.89,0,0,0,.56-.18,1.56,1.56,0,0,0,.43-.58l.21-.44-2.13-4.53h.67l1.79,3.86,1.8-3.86Z"/><path class="cls-2" d="M156.17,22.35a1.89,1.89,0,0,1,.53,1.44v2.63h-.65V23.85a1.29,1.29,0,0,0-1.43-1.45,1.69,1.69,0,0,0-1.22.44A1.59,1.59,0,0,0,153,24v2.38h-.64V21.88h.61v.84a1.82,1.82,0,0,1,.73-.64,2.53,2.53,0,0,1,1.09-.23A2,2,0,0,1,156.17,22.35Z"/><path class="cls-2" d="M161.55,22.29a1.7,1.7,0,0,1,.5,1.32v2.81h-.62v-.71a1.39,1.39,0,0,1-.64.55,2.35,2.35,0,0,1-1,.2,2,2,0,0,1-1.27-.36,1.21,1.21,0,0,1,0-1.89,2.26,2.26,0,0,1,1.4-.35h1.51v-.28a1.12,1.12,0,0,0-.34-.89,1.51,1.51,0,0,0-1-.31,2.57,2.57,0,0,0-.87.15,2,2,0,0,0-.71.39l-.29-.46a2.75,2.75,0,0,1,.87-.45,3.38,3.38,0,0,1,1.07-.16A2.11,2.11,0,0,1,161.55,22.29Zm-.73,3.45a1.43,1.43,0,0,0,.58-.68v-.75h-1.49c-.82,0-1.23.28-1.23.82a.73.73,0,0,0,.32.62,1.52,1.52,0,0,0,.89.23A1.74,1.74,0,0,0,160.82,25.74Z"/><path class="cls-2" d="M170.53,20v6.4h-.62v-.9a1.86,1.86,0,0,1-.77.7,2.31,2.31,0,0,1-1.07.24,2.61,2.61,0,0,1-1.22-.29,2.23,2.23,0,0,1-.85-.82,2.48,2.48,0,0,1,0-2.4,2.14,2.14,0,0,1,.85-.81,2.61,2.61,0,0,1,1.22-.29,2.38,2.38,0,0,1,1.05.23,1.88,1.88,0,0,1,.76.67V20ZM169,25.7a1.66,1.66,0,0,0,.63-.63,1.75,1.75,0,0,0,.23-.92,1.77,1.77,0,0,0-.23-.92,1.66,1.66,0,0,0-.63-.63,1.94,1.94,0,0,0-.91-.22,2,2,0,0,0-.91.22,1.59,1.59,0,0,0-.63.63,1.77,1.77,0,0,0-.23.92,1.75,1.75,0,0,0,.23.92,1.59,1.59,0,0,0,.63.63,2,2,0,0,0,.91.22A1.94,1.94,0,0,0,169,25.7Z"/><path class="cls-2" d="M173,26.16a2.22,2.22,0,0,1-.87-.82,2.37,2.37,0,0,1,0-2.38,2.22,2.22,0,0,1,.87-.82,2.67,2.67,0,0,1,1.24-.29,2.71,2.71,0,0,1,1.25.29,2.29,2.29,0,0,1,0,4,2.6,2.6,0,0,1-1.25.3A2.56,2.56,0,0,1,173,26.16Zm2.15-.46a1.59,1.59,0,0,0,.63-.63,1.75,1.75,0,0,0,.23-.92,1.77,1.77,0,0,0-.23-.92,1.59,1.59,0,0,0-.63-.63,2,2,0,0,0-1.82,0,1.59,1.59,0,0,0-.63.63,1.77,1.77,0,0,0-.23.92,1.75,1.75,0,0,0,.23.92,1.59,1.59,0,0,0,.63.63,2,2,0,0,0,1.82,0Z"/><path class="cls-2" d="M181.68,22.14a2.07,2.07,0,0,1,.85.81,2.48,2.48,0,0,1,0,2.4,2.16,2.16,0,0,1-.85.82,2.57,2.57,0,0,1-1.21.29,2.38,2.38,0,0,1-1.08-.24,1.83,1.83,0,0,1-.76-.7v.9H178V20h.64v2.73a1.91,1.91,0,0,1,.77-.67,2.38,2.38,0,0,1,1.05-.23A2.57,2.57,0,0,1,181.68,22.14Zm-.35,3.56a1.68,1.68,0,0,0,.64-.63,1.85,1.85,0,0,0,.23-.92,1.87,1.87,0,0,0-.23-.92,1.68,1.68,0,0,0-.64-.63,2,2,0,0,0-.91-.22,1.94,1.94,0,0,0-.91.22,1.68,1.68,0,0,0-.64.63,1.87,1.87,0,0,0-.23.92,1.85,1.85,0,0,0,.23.92,1.68,1.68,0,0,0,.64.63,1.94,1.94,0,0,0,.91.22A2,2,0,0,0,181.33,25.7Z"/><path class="cls-2" d="M188.31,24.34h-4a1.62,1.62,0,0,0,.57,1.14,2,2,0,0,0,1.31.44,2.12,2.12,0,0,0,.81-.15,1.73,1.73,0,0,0,.65-.45l.36.4a4.48,4.48,0,0,1-.34.31,4.43,4.43,0,0,0-.82.81,1,1,0,0,0-.23.59.46.46,0,0,0,.17.38.71.71,0,0,0,.43.12,1.1,1.1,0,0,0,.31,0,.83.83,0,0,0,.25-.12l.14.34a1.47,1.47,0,0,1-.77.2,1.08,1.08,0,0,1-.73-.23.75.75,0,0,1-.27-.61,1.44,1.44,0,0,1,.52-1,3,3,0,0,1-.5,0,2.74,2.74,0,0,1-1.3-.3,2.16,2.16,0,0,1-1.2-2A2.36,2.36,0,0,1,184,23a2.14,2.14,0,0,1,.84-.82,2.59,2.59,0,0,1,2.38,0A2.15,2.15,0,0,1,188,23a2.34,2.34,0,0,1,.3,1.19Zm-3.46-1.55a1.62,1.62,0,0,0-.53,1.09h3.38a1.62,1.62,0,0,0-.53-1.09,1.85,1.85,0,0,0-2.32,0Z"/><path class="cls-2" d="M19.34,34.18a2,2,0,0,1,0,3,3,3,0,0,1-1.91.55h-1.7v1.91h-.68v-6h2.38A3,3,0,0,1,19.34,34.18Zm-.48,2.62a1.51,1.51,0,0,0,0-2.23,2.34,2.34,0,0,0-1.45-.39H15.73v3h1.68A2.34,2.34,0,0,0,18.86,36.8Z"/><path class="cls-2" d="M22.14,39.4a2.22,2.22,0,0,1-.87-.82,2.37,2.37,0,0,1,0-2.38,2.22,2.22,0,0,1,.87-.82,2.8,2.8,0,0,1,2.48,0,2.22,2.22,0,0,1,.87.82,2.44,2.44,0,0,1,0,2.38,2.22,2.22,0,0,1-.87.82,2.71,2.71,0,0,1-2.48,0Zm2.15-.46a1.59,1.59,0,0,0,.63-.63,2,2,0,0,0,0-1.84,1.59,1.59,0,0,0-.63-.63,2,2,0,0,0-1.82,0,1.68,1.68,0,0,0-.64.63,2,2,0,0,0,0,1.84,1.68,1.68,0,0,0,.64.63,2,2,0,0,0,1.82,0Z"/><path class="cls-2" d="M36.49,35.12l-1.8,4.54h-.61l-1.5-3.72-1.51,3.72h-.61l-1.79-4.54h.61L30.78,39l1.53-3.85h.56L34.39,39l1.51-3.85Z"/><path class="cls-2" d="M41.47,35.12,39.09,40.2a2.3,2.3,0,0,1-.67.9,1.56,1.56,0,0,1-.92.27,1.91,1.91,0,0,1-.64-.1,1.6,1.6,0,0,1-.52-.31l.3-.46a1.21,1.21,0,0,0,.87.34.89.89,0,0,0,.56-.17,1.56,1.56,0,0,0,.43-.58l.21-.44-2.13-4.53h.67L39,39l1.8-3.85Z"/><path class="cls-2" d="M42.55,39.54a2.47,2.47,0,0,1-.83-.4l.29-.48a2.38,2.38,0,0,0,.75.36,3,3,0,0,0,.94.14,1.89,1.89,0,0,0,1-.19.61.61,0,0,0,.31-.55.48.48,0,0,0-.17-.39,1.06,1.06,0,0,0-.44-.21,6.42,6.42,0,0,0-.69-.15,9.34,9.34,0,0,1-.94-.21,1.42,1.42,0,0,1-.6-.36,1,1,0,0,1-.25-.72,1.11,1.11,0,0,1,.5-.93,2.32,2.32,0,0,1,1.39-.36,3.69,3.69,0,0,1,.92.12,2.32,2.32,0,0,1,.76.3l-.28.49a2.47,2.47,0,0,0-1.4-.39,1.68,1.68,0,0,0-.93.21.63.63,0,0,0-.32.54.53.53,0,0,0,.18.42,1.23,1.23,0,0,0,.44.23c.18,0,.42.1.73.15s.68.14.91.2a1.33,1.33,0,0,1,.59.36.94.94,0,0,1,.25.69,1.1,1.1,0,0,1-.52.94,2.61,2.61,0,0,1-1.45.35A3.68,3.68,0,0,1,42.55,39.54Z"/><path class="cls-2" d="M49.33,39.38a1.37,1.37,0,0,1-.45.24,2.1,2.1,0,0,1-.56.08,1.43,1.43,0,0,1-1-.35,1.24,1.24,0,0,1-.37-1V35.64h-.85v-.52h.85v-1h.65v1H49v.52H47.57v2.71a.82.82,0,0,0,.21.61.84.84,0,0,0,.61.21,1.27,1.27,0,0,0,.39-.06,1.09,1.09,0,0,0,.32-.17Z"/><path class="cls-2" d="M53.6,35.53a1.7,1.7,0,0,1,.5,1.32v2.81h-.62V39a1.51,1.51,0,0,1-.64.55,2.35,2.35,0,0,1-1,.2,2,2,0,0,1-1.27-.36,1.21,1.21,0,0,1,0-1.89,2.2,2.2,0,0,1,1.4-.35h1.51v-.28a1.12,1.12,0,0,0-.34-.89,1.51,1.51,0,0,0-1-.31,2.57,2.57,0,0,0-.87.15,2.08,2.08,0,0,0-.72.39l-.29-.46a2.71,2.71,0,0,1,.88-.45,3.36,3.36,0,0,1,1.06-.16A2.12,2.12,0,0,1,53.6,35.53ZM52.87,39a1.41,1.41,0,0,0,.58-.69v-.74H52q-1.23,0-1.23.81a.73.73,0,0,0,.32.63,1.52,1.52,0,0,0,.89.23A1.74,1.74,0,0,0,52.87,39Zm-.08,2.35a.74.74,0,0,1-.27-.6c0-.53.43-1,1.28-1.31l.3.24c-.74.31-1.11.65-1.11,1a.44.44,0,0,0,.16.36.71.71,0,0,0,.43.12.87.87,0,0,0,.56-.16l.15.33a1.41,1.41,0,0,1-.77.21A1.1,1.1,0,0,1,52.79,41.33Z"/><path class="cls-2" d="M59.52,35.38a2.07,2.07,0,0,1,.85.81,2.28,2.28,0,0,1,.31,1.2,2.32,2.32,0,0,1-.31,1.21,2.07,2.07,0,0,1-.85.81,2.56,2.56,0,0,1-1.22.29,2.37,2.37,0,0,1-1-.23,1.91,1.91,0,0,1-.77-.67v2.53h-.64V35.12h.61V36a2,2,0,0,1,.77-.69,2.37,2.37,0,0,1,1.07-.24A2.59,2.59,0,0,1,59.52,35.38Zm-.35,3.56a1.68,1.68,0,0,0,.64-.63,2,2,0,0,0,0-1.84,1.73,1.73,0,0,0-.64-.62,1.89,1.89,0,0,0-.91-.23,1.84,1.84,0,0,0-.91.23,1.73,1.73,0,0,0-.64.62,2,2,0,0,0,0,1.84,1.68,1.68,0,0,0,.64.63,1.94,1.94,0,0,0,.91.22A2,2,0,0,0,59.17,38.94Z"/><path class="cls-2" d="M62,34a.41.41,0,0,1-.14-.31.42.42,0,0,1,.14-.3.49.49,0,0,1,.33-.13.45.45,0,0,1,.34.13.37.37,0,0,1,.13.29.41.41,0,0,1-.13.32.45.45,0,0,1-.34.13A.44.44,0,0,1,62,34Zm0,1.12h.64v4.54H62Z"/><path class="cls-2" d="M68.59,37.58h-4a1.58,1.58,0,0,0,.57,1.14,2,2,0,0,0,1.31.44,2.16,2.16,0,0,0,.81-.15,2,2,0,0,0,.65-.45l.36.4a2.12,2.12,0,0,1-.79.55,3,3,0,0,1-1.05.19,2.71,2.71,0,0,1-1.3-.3,2.21,2.21,0,0,1-.89-.82A2.27,2.27,0,0,1,64,37.39a2.36,2.36,0,0,1,.3-1.19,2.18,2.18,0,0,1,.83-.82,2.51,2.51,0,0,1,1.2-.29,2.43,2.43,0,0,1,1.18.29,2.18,2.18,0,0,1,.83.82,2.31,2.31,0,0,1,.3,1.19ZM65.13,36a1.6,1.6,0,0,0-.53,1.09H68A1.6,1.6,0,0,0,67.45,36a1.81,1.81,0,0,0-2.32,0Z"/><path class="cls-2" d="M73.77,35.58A1.89,1.89,0,0,1,74.3,37v2.63h-.64V37.09A1.46,1.46,0,0,0,73.29,36a1.43,1.43,0,0,0-1.06-.37,1.67,1.67,0,0,0-1.22.44,1.59,1.59,0,0,0-.45,1.2v2.38h-.65V35.12h.62V36a1.75,1.75,0,0,1,.73-.64,2.45,2.45,0,0,1,1.08-.23A2,2,0,0,1,73.77,35.58Z"/><path class="cls-2" d="M76,34a.4.4,0,0,1-.13-.31.41.41,0,0,1,.13-.3.51.51,0,0,1,.34-.13.44.44,0,0,1,.33.13.35.35,0,0,1,.14.29.39.39,0,0,1-.14.32.44.44,0,0,1-.33.13A.47.47,0,0,1,76,34Zm0,1.12h.65v4.54h-.65Z"/><path class="cls-2" d="M82.79,35.12v4.54h-.62v-.83a1.77,1.77,0,0,1-.69.64,2.25,2.25,0,0,1-1,.23A2.09,2.09,0,0,1,79,39.2a1.86,1.86,0,0,1-.54-1.45V35.12h.64v2.57a1.3,1.3,0,0,0,1.43,1.46,1.6,1.6,0,0,0,1.19-.44,1.63,1.63,0,0,0,.44-1.21V35.12Z"/><path class="cls-2" d="M90.34,39.15v.51H86.46v-.41l3-3.61H86.51v-.52h3.77v.41l-3,3.62Z"/><path class="cls-2" d="M94.71,35.53a1.7,1.7,0,0,1,.5,1.32v2.81h-.62V39a1.51,1.51,0,0,1-.64.55,2.38,2.38,0,0,1-1,.2,2,2,0,0,1-1.27-.36,1.21,1.21,0,0,1,0-1.89,2.2,2.2,0,0,1,1.4-.35h1.51v-.28a1.12,1.12,0,0,0-.34-.89,1.51,1.51,0,0,0-1-.31,2.57,2.57,0,0,0-.87.15,2.08,2.08,0,0,0-.72.39l-.29-.46a2.76,2.76,0,0,1,.87-.45,3.47,3.47,0,0,1,1.07-.16A2.14,2.14,0,0,1,94.71,35.53ZM94,39a1.41,1.41,0,0,0,.58-.69v-.74H93.07q-1.23,0-1.23.81a.73.73,0,0,0,.32.63,1.52,1.52,0,0,0,.89.23A1.74,1.74,0,0,0,94,39Z"/><path class="cls-2" d="M101.31,33.26v6.4h-.62v-.9a2,2,0,0,1-.76.7,2.38,2.38,0,0,1-1.08.24,2.55,2.55,0,0,1-1.21-.29,2.19,2.19,0,0,1-.86-.82,2.55,2.55,0,0,1,0-2.4,2.1,2.1,0,0,1,.86-.81,2.55,2.55,0,0,1,1.21-.29,2.38,2.38,0,0,1,1.05.23,1.91,1.91,0,0,1,.77.67V33.26Zm-1.5,5.68a1.59,1.59,0,0,0,.63-.63,2,2,0,0,0,0-1.84,1.59,1.59,0,0,0-.63-.63,2,2,0,0,0-1.81,0,1.62,1.62,0,0,0-.64.63,2,2,0,0,0,0,1.84,1.62,1.62,0,0,0,.64.63,2,2,0,0,0,1.81,0Z"/><path class="cls-2" d="M103.81,39.4a2.22,2.22,0,0,1-.87-.82,2.37,2.37,0,0,1,0-2.38,2.22,2.22,0,0,1,.87-.82,2.82,2.82,0,0,1,2.49,0,2.13,2.13,0,0,1,.86.82,2.37,2.37,0,0,1,0,2.38,2.13,2.13,0,0,1-.86.82,2.73,2.73,0,0,1-2.49,0Zm2.16-.46a1.59,1.59,0,0,0,.63-.63,2,2,0,0,0,0-1.84,1.59,1.59,0,0,0-.63-.63,2,2,0,0,0-1.83,0,1.59,1.59,0,0,0-.63.63,2,2,0,0,0,0,1.84,1.59,1.59,0,0,0,.63.63,2,2,0,0,0,1.83,0Z"/><path class="cls-2" d="M115.79,35.12,114,39.66h-.61l-1.51-3.72-1.5,3.72h-.61L108,35.12h.61l1.5,3.85,1.53-3.85h.55L113.69,39l1.51-3.85Z"/><path class="cls-2" d="M119.87,35.53a1.69,1.69,0,0,1,.49,1.32v2.81h-.61V39a1.51,1.51,0,0,1-.64.55,2.38,2.38,0,0,1-1,.2,2,2,0,0,1-1.27-.36,1.14,1.14,0,0,1-.48-1,1.16,1.16,0,0,1,.44-.93,2.23,2.23,0,0,1,1.41-.35h1.51v-.28a1.12,1.12,0,0,0-.35-.89,1.46,1.46,0,0,0-1-.31,2.57,2.57,0,0,0-.87.15,2.08,2.08,0,0,0-.72.39l-.29-.46a2.56,2.56,0,0,1,.87-.45,3.47,3.47,0,0,1,1.07-.16A2.16,2.16,0,0,1,119.87,35.53ZM119.14,39a1.46,1.46,0,0,0,.58-.69v-.74h-1.5c-.81,0-1.22.27-1.22.81a.71.71,0,0,0,.32.63,1.5,1.5,0,0,0,.89.23A1.74,1.74,0,0,0,119.14,39Z"/><path class="cls-2" d="M122.11,33.26h.65v6.4h-.65Z"/><path class="cls-2" d="M127.66,35.53a1.69,1.69,0,0,1,.49,1.32v2.81h-.61V39a1.51,1.51,0,0,1-.64.55,2.38,2.38,0,0,1-1,.2,2,2,0,0,1-1.27-.36,1.14,1.14,0,0,1-.48-1,1.16,1.16,0,0,1,.44-.93A2.23,2.23,0,0,1,126,37.1h1.51v-.28a1.12,1.12,0,0,0-.35-.89,1.46,1.46,0,0,0-1-.31,2.57,2.57,0,0,0-.87.15,2.08,2.08,0,0,0-.72.39l-.29-.46a2.56,2.56,0,0,1,.87-.45,3.47,3.47,0,0,1,1.07-.16A2.16,2.16,0,0,1,127.66,35.53ZM126.93,39a1.46,1.46,0,0,0,.58-.69v-.74H126c-.81,0-1.22.27-1.22.81a.71.71,0,0,0,.32.63,1.5,1.5,0,0,0,.89.23A1.74,1.74,0,0,0,126.93,39Z"/><path class="cls-2" d="M128.63,41.3a1.21,1.21,0,0,1-.44-.22l.23-.47a1.08,1.08,0,0,0,.74.23.8.8,0,0,0,.59-.21A.93.93,0,0,0,130,40V35.12h.64V40a1.39,1.39,0,0,1-.36,1,1.37,1.37,0,0,1-1,.37A2.12,2.12,0,0,1,128.63,41.3Zm1.31-7.3a.43.43,0,0,1-.14-.32.42.42,0,0,1,.14-.3.49.49,0,0,1,.34-.13.49.49,0,0,1,.33.13.39.39,0,0,1,.14.3.45.45,0,0,1-.14.32.48.48,0,0,1-.33.12A.49.49,0,0,1,129.94,34Z"/><path class="cls-2" d="M135.49,35.53a1.7,1.7,0,0,1,.5,1.32v2.81h-.62V39a1.45,1.45,0,0,1-.64.55,2.35,2.35,0,0,1-1,.2,2.06,2.06,0,0,1-1.27-.36,1.21,1.21,0,0,1,0-1.89,2.2,2.2,0,0,1,1.4-.35h1.52v-.28a1.12,1.12,0,0,0-.35-.89,1.49,1.49,0,0,0-1-.31,2.57,2.57,0,0,0-.87.15,2.13,2.13,0,0,0-.71.39l-.29-.46a2.56,2.56,0,0,1,.87-.45,3.42,3.42,0,0,1,1.07-.16A2.11,2.11,0,0,1,135.49,35.53ZM134.76,39a1.48,1.48,0,0,0,.59-.69v-.74h-1.5q-1.23,0-1.23.81a.73.73,0,0,0,.32.63,1.52,1.52,0,0,0,.89.23A1.74,1.74,0,0,0,134.76,39Zm-.08,2.35a.74.74,0,0,1-.27-.6c0-.53.43-1,1.28-1.31l.3.24c-.74.31-1.11.65-1.11,1a.45.45,0,0,0,.17.36.7.7,0,0,0,.42.12A.85.85,0,0,0,136,41l.15.33a1.39,1.39,0,0,1-.77.21A1.12,1.12,0,0,1,134.68,41.33Z"/><path class="cls-2" d="M138.45,39.41a2.33,2.33,0,0,1-.87-3.21,2.22,2.22,0,0,1,.87-.82,2.76,2.76,0,0,1,1.27-.29,2.57,2.57,0,0,1,1.1.23,1.71,1.71,0,0,1,.76.67l-.48.31a1.38,1.38,0,0,0-.59-.51,1.93,1.93,0,0,0-.79-.17,2,2,0,0,0-.93.22,1.64,1.64,0,0,0-.65.63,2,2,0,0,0,0,1.85,1.69,1.69,0,0,0,.65.62,2,2,0,0,0,.93.22,1.93,1.93,0,0,0,.79-.17,1.36,1.36,0,0,0,.59-.5l.48.31a1.68,1.68,0,0,1-.77.67,2.56,2.56,0,0,1-1.09.23A2.76,2.76,0,0,1,138.45,39.41Z"/><path class="cls-2" d="M147,37.58h-4a1.58,1.58,0,0,0,.57,1.14,2,2,0,0,0,1.31.44,2.16,2.16,0,0,0,.81-.15,2,2,0,0,0,.65-.45l.36.4a2.08,2.08,0,0,1-.8.55,2.87,2.87,0,0,1-1,.19,2.71,2.71,0,0,1-1.3-.3,2.21,2.21,0,0,1-.89-.82,2.28,2.28,0,0,1-.32-1.19,2.37,2.37,0,0,1,.31-1.19,2.18,2.18,0,0,1,.83-.82,2.51,2.51,0,0,1,1.2-.29,2.43,2.43,0,0,1,1.18.29,2.18,2.18,0,0,1,.83.82,2.31,2.31,0,0,1,.3,1.19ZM143.54,36a1.6,1.6,0,0,0-.53,1.09h3.38a1.6,1.6,0,0,0-.53-1.09,1.81,1.81,0,0,0-2.32,0Z"/><path class="cls-2" d="M147.05,41.3a1.21,1.21,0,0,1-.44-.22l.23-.47a1.08,1.08,0,0,0,.74.23.76.76,0,0,0,.58-.21.88.88,0,0,0,.21-.64V35.12H149V40a1.39,1.39,0,0,1-.36,1,1.37,1.37,0,0,1-1,.37A2.12,2.12,0,0,1,147.05,41.3Zm1.31-7.3a.43.43,0,0,1-.14-.32.42.42,0,0,1,.14-.3.49.49,0,0,1,.33-.13.49.49,0,0,1,.34.13.39.39,0,0,1,.14.3A.45.45,0,0,1,149,34a.49.49,0,0,1-.34.12A.48.48,0,0,1,148.36,34Z"/><path class="cls-2" d="M153.89,39.4a2.22,2.22,0,0,1-.87-.82,2.37,2.37,0,0,1,0-2.38,2.22,2.22,0,0,1,.87-.82,2.67,2.67,0,0,1,1.24-.29,2.71,2.71,0,0,1,1.25.29,2.19,2.19,0,0,1,.86.82,2.44,2.44,0,0,1,0,2.38,2.19,2.19,0,0,1-.86.82,2.6,2.6,0,0,1-1.25.3A2.56,2.56,0,0,1,153.89,39.4Zm2.15-.46a1.68,1.68,0,0,0,.64-.63,2,2,0,0,0,0-1.84,1.68,1.68,0,0,0-.64-.63,1.91,1.91,0,0,0-.91-.22,1.94,1.94,0,0,0-.91.22,1.59,1.59,0,0,0-.63.63,2,2,0,0,0,0,1.84,1.59,1.59,0,0,0,.63.63,1.94,1.94,0,0,0,.91.22A1.91,1.91,0,0,0,156,38.94Z"/><path class="cls-2" d="M163.22,33.26v6.4h-.61v-.9a2,2,0,0,1-.77.7,2.37,2.37,0,0,1-1.07.24,2.59,2.59,0,0,1-1.22-.29,2.16,2.16,0,0,1-.85-.82,2.48,2.48,0,0,1,0-2.4,2.07,2.07,0,0,1,.85-.81,2.59,2.59,0,0,1,1.22-.29,2.37,2.37,0,0,1,1,.23,1.91,1.91,0,0,1,.77.67V33.26Zm-1.5,5.68a1.68,1.68,0,0,0,.64-.63,2,2,0,0,0,0-1.84,1.68,1.68,0,0,0-.64-.63,2,2,0,0,0-1.81,0,1.68,1.68,0,0,0-.64.63,2,2,0,0,0,0,1.84,1.68,1.68,0,0,0,.64.63,2,2,0,0,0,1.81,0Z"/><path class="cls-2" d="M168.69,35.38a2.07,2.07,0,0,1,.85.81,2.28,2.28,0,0,1,.31,1.2,2.32,2.32,0,0,1-.31,1.21,2,2,0,0,1-.84.81,2.59,2.59,0,0,1-1.22.29,2.38,2.38,0,0,1-1-.23,1.91,1.91,0,0,1-.77-.67v2.53H165V35.12h.62V36a1.87,1.87,0,0,1,.76-.69,2.38,2.38,0,0,1,1.08-.24A2.57,2.57,0,0,1,168.69,35.38Zm-.35,3.56a1.68,1.68,0,0,0,.64-.63,2,2,0,0,0,0-1.84,1.73,1.73,0,0,0-.64-.62,1.86,1.86,0,0,0-.91-.23,1.84,1.84,0,0,0-.91.23,1.73,1.73,0,0,0-.64.62,2,2,0,0,0,0,1.84,1.68,1.68,0,0,0,.64.63,1.94,1.94,0,0,0,.91.22A2,2,0,0,0,168.34,38.94Z"/><path class="cls-2" d="M171.87,39.4a2.36,2.36,0,0,1-.87-.82,2.44,2.44,0,0,1,0-2.38,2.36,2.36,0,0,1,.87-.82,2.71,2.71,0,0,1,1.25-.29,2.67,2.67,0,0,1,1.24.29,2.22,2.22,0,0,1,.87.82,2.44,2.44,0,0,1,0,2.38,2.22,2.22,0,0,1-.87.82,2.56,2.56,0,0,1-1.24.3A2.6,2.6,0,0,1,171.87,39.4Zm2.16-.46a1.59,1.59,0,0,0,.63-.63,2,2,0,0,0,0-1.84,1.59,1.59,0,0,0-.63-.63,1.94,1.94,0,0,0-.91-.22,1.91,1.91,0,0,0-.91.22,1.68,1.68,0,0,0-.64.63,2,2,0,0,0,0,1.84,1.68,1.68,0,0,0,.64.63,1.91,1.91,0,0,0,.91.22A1.94,1.94,0,0,0,174,38.94Z"/><path class="cls-2" d="M183.85,35.12l-1.8,4.54h-.61l-1.5-3.72-1.51,3.72h-.61L176,35.12h.62L178.14,39l1.53-3.85h.56L181.75,39l1.52-3.85Z"/><path class="cls-2" d="M184.82,34a.41.41,0,0,1-.14-.31.42.42,0,0,1,.14-.3.49.49,0,0,1,.33-.13.45.45,0,0,1,.34.13.37.37,0,0,1,.13.29.41.41,0,0,1-.13.32.45.45,0,0,1-.34.13A.44.44,0,0,1,184.82,34Zm0,1.12h.64v4.54h-.64Z"/><path class="cls-2" d="M191.42,37.58h-4a1.55,1.55,0,0,0,.57,1.14,2,2,0,0,0,1.31.44,2.16,2.16,0,0,0,.81-.15,2,2,0,0,0,.65-.45l.36.4a2.08,2.08,0,0,1-.8.55,2.87,2.87,0,0,1-1,.19,2.71,2.71,0,0,1-1.3-.3,2.21,2.21,0,0,1-.89-.82,2.28,2.28,0,0,1-.32-1.19,2.37,2.37,0,0,1,.31-1.19,2.18,2.18,0,0,1,.83-.82,2.51,2.51,0,0,1,1.2-.29,2.43,2.43,0,0,1,1.18.29,2.18,2.18,0,0,1,.83.82,2.31,2.31,0,0,1,.3,1.19ZM188,36a1.6,1.6,0,0,0-.53,1.09h3.38a1.6,1.6,0,0,0-.53-1.09A1.81,1.81,0,0,0,188,36Z"/><path class="cls-2" d="M197.1,33.26v6.4h-.62v-.9a1.93,1.93,0,0,1-.77.7,2.31,2.31,0,0,1-1.07.24,2.61,2.61,0,0,1-1.22-.29,2.23,2.23,0,0,1-.85-.82,2.48,2.48,0,0,1,0-2.4,2.14,2.14,0,0,1,.85-.81,2.61,2.61,0,0,1,1.22-.29,2.41,2.41,0,0,1,1.05.23,1.88,1.88,0,0,1,.76.67V33.26Zm-1.51,5.68a1.62,1.62,0,0,0,.64-.63,2,2,0,0,0,0-1.84,1.62,1.62,0,0,0-.64-.63,1.87,1.87,0,0,0-.9-.22,1.94,1.94,0,0,0-.91.22,1.59,1.59,0,0,0-.63.63,1.88,1.88,0,0,0,0,1.84,1.59,1.59,0,0,0,.63.63,1.94,1.94,0,0,0,.91.22A1.87,1.87,0,0,0,195.59,38.94Z"/><path class="cls-2" d="M202.26,39.15v.51h-3.89v-.41l3-3.61h-2.95v-.52h3.77v.41l-3,3.62Z"/><path class="cls-2" d="M203.52,34a.41.41,0,0,1-.14-.31.42.42,0,0,1,.14-.3.49.49,0,0,1,.33-.13.45.45,0,0,1,.34.13.37.37,0,0,1,.13.29.41.41,0,0,1-.13.32.45.45,0,0,1-.34.13A.44.44,0,0,1,203.52,34Zm0,1.12h.64v4.54h-.64Z"/><path class="cls-2" d="M210.11,37.38l-1.13,1v1.3h-.64v-6.4H209V37.6l2.85-2.48h.8l-2,1.86,2.23,2.68H212Z"/><path class="cls-2" d="M213.79,33.26h.65v6.4h-.65Z"/><path class="cls-2" d="M216.22,34a.4.4,0,0,1-.13-.31.41.41,0,0,1,.13-.3.49.49,0,0,1,.34-.13.44.44,0,0,1,.33.13.38.38,0,0,1,.14.29.42.42,0,0,1-.14.32.44.44,0,0,1-.33.13A.45.45,0,0,1,216.22,34Zm0,1.12h.64v4.54h-.64Z"/><path class="cls-2" d="M222.53,35.58a1.93,1.93,0,0,1,.53,1.45v2.63h-.64V37.09A1.46,1.46,0,0,0,222,36a1.41,1.41,0,0,0-1.06-.37,1.69,1.69,0,0,0-1.22.44,1.59,1.59,0,0,0-.45,1.2v2.38h-.64V35.12h.62V36a1.69,1.69,0,0,1,.73-.64,2.45,2.45,0,0,1,1.08-.23A2,2,0,0,1,222.53,35.58Z"/><path class="cls-2" d="M224.8,34a.41.41,0,0,1-.14-.31.42.42,0,0,1,.14-.3.49.49,0,0,1,.34-.13.44.44,0,0,1,.33.13.38.38,0,0,1,.14.29.42.42,0,0,1-.14.32.44.44,0,0,1-.33.13A.45.45,0,0,1,224.8,34Zm0,1.12h.64v4.54h-.64Z"/><path class="cls-2" d="M228,39.41a2.33,2.33,0,0,1-.87-3.21,2.22,2.22,0,0,1,.87-.82,2.73,2.73,0,0,1,1.27-.29,2.61,2.61,0,0,1,1.1.23,1.71,1.71,0,0,1,.76.67l-.48.31a1.38,1.38,0,0,0-.59-.51,1.93,1.93,0,0,0-.79-.17,2,2,0,0,0-.93.22,1.64,1.64,0,0,0-.65.63,2,2,0,0,0,0,1.85,1.69,1.69,0,0,0,.65.62,2,2,0,0,0,.93.22A1.93,1.93,0,0,0,230,39a1.36,1.36,0,0,0,.59-.5l.48.31a1.68,1.68,0,0,1-.77.67,2.56,2.56,0,0,1-1.09.23A2.73,2.73,0,0,1,228,39.41Z"/><path class="cls-2" d="M235.72,39.15v.51h-3.88v-.41l3-3.61h-3v-.52h3.78v.41l-3,3.62Z"/><path class="cls-2" d="M240.85,35.58a1.93,1.93,0,0,1,.53,1.45v2.63h-.64V37.09a1.46,1.46,0,0,0-.38-1.08,1.41,1.41,0,0,0-1.06-.37,1.69,1.69,0,0,0-1.22.44,1.59,1.59,0,0,0-.45,1.2v2.38H237V35.12h.62V36a1.69,1.69,0,0,1,.73-.64,2.45,2.45,0,0,1,1.08-.23A2,2,0,0,1,240.85,35.58Z"/><path class="cls-2" d="M247.28,37.58h-4a1.62,1.62,0,0,0,.57,1.14,2,2,0,0,0,1.31.44A2.18,2.18,0,0,0,246,39a1.91,1.91,0,0,0,.64-.45l.36.4a2,2,0,0,1-.79.55,3,3,0,0,1-1,.19,2.74,2.74,0,0,1-1.3-.3,2.21,2.21,0,0,1-1.2-2,2.36,2.36,0,0,1,.3-1.19,2.21,2.21,0,0,1,.84-.82,2.59,2.59,0,0,1,2.38,0,2.15,2.15,0,0,1,.82.82,2.31,2.31,0,0,1,.3,1.19ZM243.82,36a1.6,1.6,0,0,0-.53,1.09h3.39a1.61,1.61,0,0,0-.54-1.09,1.65,1.65,0,0,0-1.16-.42A1.67,1.67,0,0,0,243.82,36Z"/><path class="cls-2" d="M247.33,41.3a1.3,1.3,0,0,1-.44-.22l.23-.47a1.09,1.09,0,0,0,.74.23.79.79,0,0,0,.59-.21.93.93,0,0,0,.2-.64V35.12h.65V40a1.28,1.28,0,0,1-1.4,1.38A2.12,2.12,0,0,1,247.33,41.3Zm1.31-7.3a.42.42,0,0,1-.13-.32.41.41,0,0,1,.13-.3.51.51,0,0,1,.34-.13.49.49,0,0,1,.33.13.36.36,0,0,1,.14.3.41.41,0,0,1-.14.32.48.48,0,0,1-.33.12A.5.5,0,0,1,248.64,34Z"/><path class="cls-2" d="M251.51,38.89a.45.45,0,0,1,.14.33,1,1,0,0,1,0,.23,2.13,2.13,0,0,1-.09.27l-.38,1.19h-.44l.31-1.25a.49.49,0,0,1-.24-.15.48.48,0,0,1-.09-.29.45.45,0,0,1,.14-.33.47.47,0,0,1,.34-.13A.48.48,0,0,1,251.51,38.89Z"/><path class="cls-2" d="M17.34,45.92a1.9,1.9,0,0,1,.53,1.45V50h-.64V47.43a1.5,1.5,0,0,0-.37-1.08A1.45,1.45,0,0,0,15.79,46a1.68,1.68,0,0,0-1.22.43,1.65,1.65,0,0,0-.45,1.21V50h-.64V45.46h.62v.84a1.69,1.69,0,0,1,.73-.64,2.32,2.32,0,0,1,1.08-.23A2,2,0,0,1,17.34,45.92Z"/><path class="cls-2" d="M22.72,45.87a1.66,1.66,0,0,1,.5,1.32V50H22.6v-.7a1.42,1.42,0,0,1-.63.55,2.43,2.43,0,0,1-1,.2,2.06,2.06,0,0,1-1.27-.36,1.17,1.17,0,0,1-.47-1,1.13,1.13,0,0,1,.44-.93,2.22,2.22,0,0,1,1.4-.35h1.52v-.28a1.12,1.12,0,0,0-.35-.89,1.43,1.43,0,0,0-1-.31,2.74,2.74,0,0,0-.87.14,2.28,2.28,0,0,0-.72.4L19.35,46a2.4,2.4,0,0,1,.87-.45,3.42,3.42,0,0,1,1.07-.16A2.11,2.11,0,0,1,22.72,45.87ZM22,49.32a1.46,1.46,0,0,0,.58-.69v-.74h-1.5c-.82,0-1.22.27-1.22.81a.74.74,0,0,0,.31.63,1.54,1.54,0,0,0,.89.22A1.75,1.75,0,0,0,22,49.32Z"/><path class="cls-2" d="M25,43.6h.65V50H25Z"/><path class="cls-2" d="M31.56,47.92h-4a1.59,1.59,0,0,0,.58,1.14,1.94,1.94,0,0,0,1.3.43,2.18,2.18,0,0,0,.82-.15,1.67,1.67,0,0,0,.64-.44l.36.4a2,2,0,0,1-.79.55,3,3,0,0,1-1.05.19,2.74,2.74,0,0,1-1.3-.3,2.18,2.18,0,0,1-.88-.82,2.28,2.28,0,0,1-.32-1.19,2.36,2.36,0,0,1,.3-1.19,2.21,2.21,0,0,1,.84-.82,2.59,2.59,0,0,1,2.38,0,2.09,2.09,0,0,1,.82.82,2.31,2.31,0,0,1,.3,1.19Zm-3.45-1.55a1.61,1.61,0,0,0-.54,1.09H31a1.65,1.65,0,0,0-.53-1.09A1.68,1.68,0,0,0,29.26,46,1.65,1.65,0,0,0,28.11,46.37Z"/><path class="cls-2" d="M36.25,49.49V50H32.37v-.4l3-3.61H32.43v-.52H36.2v.41l-3,3.62ZM34,44.44a.41.41,0,0,1-.12-.3.4.4,0,0,1,.12-.29.45.45,0,0,1,.31-.12.43.43,0,0,1,.31.12.37.37,0,0,1,.13.29.38.38,0,0,1-.13.3.43.43,0,0,1-.31.12A.45.45,0,0,1,34,44.44Z"/><path class="cls-2" d="M41.53,45.46l-2.38,5.08a2.3,2.3,0,0,1-.67.9,1.56,1.56,0,0,1-.92.27,2.32,2.32,0,0,1-.65-.1,1.55,1.55,0,0,1-.51-.31l.3-.46a1.21,1.21,0,0,0,.87.34.89.89,0,0,0,.56-.17,1.63,1.63,0,0,0,.43-.59l.21-.43-2.14-4.53h.68l1.79,3.85,1.8-3.85Z"/><path class="cls-2" d="M48.18,49.49V50H44.3v-.4l3-3.61H44.35v-.52h3.77v.41l-3,3.62Z"/><path class="cls-2" d="M56.81,45.92a1.93,1.93,0,0,1,.51,1.45V50h-.64V47.43a1.5,1.5,0,0,0-.36-1.08,1.34,1.34,0,0,0-1-.37,1.55,1.55,0,0,0-1.17.43,1.64,1.64,0,0,0-.43,1.21V50h-.64V47.43a1.5,1.5,0,0,0-.36-1.08,1.35,1.35,0,0,0-1-.37,1.58,1.58,0,0,0-1.17.43,1.69,1.69,0,0,0-.43,1.21V50h-.64V45.46h.62v.83a1.61,1.61,0,0,1,.7-.64,2.35,2.35,0,0,1,1-.22,2.12,2.12,0,0,1,1,.24,1.47,1.47,0,0,1,.66.71,1.91,1.91,0,0,1,.76-.7,2.41,2.41,0,0,1,1.13-.25A1.94,1.94,0,0,1,56.81,45.92Z"/><path class="cls-2" d="M62.93,45.92a1.9,1.9,0,0,1,.53,1.45V50h-.64V47.43a1.46,1.46,0,0,0-.38-1.08A1.41,1.41,0,0,0,61.38,46a1.68,1.68,0,0,0-1.22.43,1.61,1.61,0,0,0-.45,1.21V50h-.64V45.46h.62v.84a1.69,1.69,0,0,1,.73-.64,2.32,2.32,0,0,1,1.08-.23A2,2,0,0,1,62.93,45.92Z"/><path class="cls-2" d="M65.2,44.34a.4.4,0,0,1-.13-.31.41.41,0,0,1,.13-.3.45.45,0,0,1,.34-.13.44.44,0,0,1,.33.13A.38.38,0,0,1,66,44a.42.42,0,0,1-.14.32.44.44,0,0,1-.33.13A.45.45,0,0,1,65.2,44.34Zm0,1.12h.64V50h-.64Z"/><path class="cls-2" d="M71.8,47.92h-4a1.62,1.62,0,0,0,.57,1.14,2,2,0,0,0,1.31.43,2.18,2.18,0,0,0,.82-.15,1.75,1.75,0,0,0,.64-.44l.36.4a2,2,0,0,1-.79.55,3,3,0,0,1-1,.19,2.74,2.74,0,0,1-1.3-.3,2.18,2.18,0,0,1-.88-.82,2.28,2.28,0,0,1-.32-1.19,2.36,2.36,0,0,1,.3-1.19,2.21,2.21,0,0,1,.84-.82,2.59,2.59,0,0,1,2.38,0,2.15,2.15,0,0,1,.82.82,2.31,2.31,0,0,1,.3,1.19Zm-3.46-1.55a1.65,1.65,0,0,0-.53,1.09H71.2a1.61,1.61,0,0,0-.54-1.09A1.65,1.65,0,0,0,69.5,46,1.69,1.69,0,0,0,68.34,46.37Z"/><path class="cls-2" d="M71.85,51.64a1.3,1.3,0,0,1-.44-.22l.23-.47a1.11,1.11,0,0,0,.74.23A.79.79,0,0,0,73,51a.94.94,0,0,0,.2-.64V45.46h.65v4.87a1.28,1.28,0,0,1-1.4,1.38A2.62,2.62,0,0,1,71.85,51.64Zm1.31-7.31A.4.4,0,0,1,73,44a.41.41,0,0,1,.13-.3.51.51,0,0,1,.34-.13.44.44,0,0,1,.33.13A.35.35,0,0,1,74,44a.39.39,0,0,1-.14.32.44.44,0,0,1-.33.13A.47.47,0,0,1,73.16,44.33Z"/><path class="cls-2" d="M75.78,49.88a2.57,2.57,0,0,1-.83-.4l.29-.48a2.62,2.62,0,0,0,.75.36,3,3,0,0,0,1,.14,1.87,1.87,0,0,0,1-.19.61.61,0,0,0,.31-.55.46.46,0,0,0-.17-.39,1.24,1.24,0,0,0-.43-.22l-.7-.14A8.47,8.47,0,0,1,76,47.8a1.4,1.4,0,0,1-.61-.36,1,1,0,0,1-.25-.72,1.11,1.11,0,0,1,.5-.93A2.34,2.34,0,0,1,77,45.43a4.06,4.06,0,0,1,.92.11,2.63,2.63,0,0,1,.77.31l-.29.49A2.47,2.47,0,0,0,77,46a1.68,1.68,0,0,0-.93.21.62.62,0,0,0-.31.54.56.56,0,0,0,.17.42,1.07,1.07,0,0,0,.44.22c.18,0,.42.1.73.16a6.81,6.81,0,0,1,.91.2,1.33,1.33,0,0,1,.59.36.9.9,0,0,1,.25.69,1.07,1.07,0,0,1-.52.94,2.61,2.61,0,0,1-1.45.35A4,4,0,0,1,75.78,49.88Z"/><path class="cls-2" d="M83.41,49.49V50H79.53v-.4l3-3.61h-3v-.52h3.78v.41l-3,3.62Z"/><path class="cls-2" d="M88.69,45.46,86.3,50.54a2.12,2.12,0,0,1-.67.9,1.53,1.53,0,0,1-.91.27,2.27,2.27,0,0,1-.65-.1,1.45,1.45,0,0,1-.51-.31l.3-.46a1.21,1.21,0,0,0,.87.34.86.86,0,0,0,.55-.17,1.43,1.43,0,0,0,.43-.59l.21-.43-2.13-4.53h.67l1.8,3.85,1.79-3.85Z"/><path class="cls-2" d="M90.31,49.74a2.24,2.24,0,0,1-.88-.82,2.44,2.44,0,0,1,0-2.38,2.31,2.31,0,0,1,.88-.82,2.72,2.72,0,0,1,1.26-.29,2.48,2.48,0,0,1,1.11.23,1.8,1.8,0,0,1,.76.66l-.48.31a1.52,1.52,0,0,0-.6-.5,1.86,1.86,0,0,0-.79-.17,2.06,2.06,0,0,0-.93.22,1.62,1.62,0,0,0-.64.63,1.85,1.85,0,0,0-.23.92,1.82,1.82,0,0,0,.23.92,1.53,1.53,0,0,0,.64.62,1.93,1.93,0,0,0,.93.22,1.86,1.86,0,0,0,.79-.16,1.52,1.52,0,0,0,.6-.5l.48.31a1.8,1.8,0,0,1-.77.67,2.77,2.77,0,0,1-2.36-.07Zm1.75-6.05h.86l-1.46,1.07h-.64Z"/><path class="cls-2" d="M101.43,43.6V50h-.62V49.1a2,2,0,0,1-.76.7A2.38,2.38,0,0,1,99,50a2.47,2.47,0,0,1-1.21-.3,2.07,2.07,0,0,1-.85-.81,2.48,2.48,0,0,1,0-2.4,2.07,2.07,0,0,1,.85-.81A2.46,2.46,0,0,1,99,45.43a2.25,2.25,0,0,1,1,.23,2,2,0,0,1,.77.66V43.6Zm-1.5,5.67a1.59,1.59,0,0,0,.64-.62,1.87,1.87,0,0,0,.23-.92,1.85,1.85,0,0,0-.23-.92,1.68,1.68,0,0,0-.64-.63,2,2,0,0,0-1.81,0,1.68,1.68,0,0,0-.64.63,1.85,1.85,0,0,0-.23.92,1.87,1.87,0,0,0,.23.92,1.59,1.59,0,0,0,.64.62,2,2,0,0,0,1.81,0Z"/><path class="cls-2" d="M106.33,45.87a1.7,1.7,0,0,1,.5,1.32V50h-.62v-.7a1.45,1.45,0,0,1-.64.55,2.35,2.35,0,0,1-1,.2,2,2,0,0,1-1.27-.36,1.17,1.17,0,0,1-.47-1,1.1,1.1,0,0,1,.44-.93,2.2,2.2,0,0,1,1.4-.35h1.51v-.28a1.12,1.12,0,0,0-.34-.89,1.45,1.45,0,0,0-1-.31,2.83,2.83,0,0,0-.87.14,2.22,2.22,0,0,0-.71.4L103,46a2.4,2.4,0,0,1,.87-.45,3.38,3.38,0,0,1,1.07-.16A2.11,2.11,0,0,1,106.33,45.87Zm-.73,3.45a1.41,1.41,0,0,0,.58-.69v-.74h-1.49q-1.23,0-1.23.81a.75.75,0,0,0,.32.63,1.52,1.52,0,0,0,.89.22A1.74,1.74,0,0,0,105.6,49.32Z"/><path class="cls-2" d="M115.58,45.46,113.77,50h-.6l-1.51-3.71L110.16,50h-.61l-1.8-4.53h.62l1.5,3.85,1.53-3.85H112l1.52,3.85L115,45.46Z"/><path class="cls-2" d="M118.32,47.72l-1.13,1V50h-.64V43.6h.64v4.33L120,45.46h.8l-2,1.85L121,50h-.79Z"/><path class="cls-2" d="M126.15,47.92h-4a1.62,1.62,0,0,0,.57,1.14,2,2,0,0,0,1.31.43,2.18,2.18,0,0,0,.82-.15,1.75,1.75,0,0,0,.64-.44l.36.4-.34.31a4.46,4.46,0,0,0-.82.8,1,1,0,0,0-.22.6.45.45,0,0,0,.16.38.71.71,0,0,0,.43.12,1.06,1.06,0,0,0,.31,0,.83.83,0,0,0,.25-.12l.14.33a1.36,1.36,0,0,1-.77.21,1.09,1.09,0,0,1-.72-.23.74.74,0,0,1-.28-.61,1.51,1.51,0,0,1,.52-1.06,3.13,3.13,0,0,1-.5,0,2.74,2.74,0,0,1-1.3-.3,2.21,2.21,0,0,1-1.2-2,2.36,2.36,0,0,1,.3-1.19,2.21,2.21,0,0,1,.84-.82,2.59,2.59,0,0,1,2.38,0,2.15,2.15,0,0,1,.82.82,2.31,2.31,0,0,1,.3,1.19Zm-3.46-1.55a1.65,1.65,0,0,0-.53,1.09h3.39a1.65,1.65,0,0,0-.53-1.09,1.7,1.7,0,0,0-1.17-.42A1.67,1.67,0,0,0,122.69,46.37Z"/><path class="cls-2" d="M134.21,43.6V50h-.62V49.1a2,2,0,0,1-.77.7,2.31,2.31,0,0,1-1.07.24,2.51,2.51,0,0,1-1.22-.3,2.14,2.14,0,0,1-.85-.81,2.48,2.48,0,0,1,0-2.4,2.14,2.14,0,0,1,.85-.81,2.5,2.5,0,0,1,1.22-.29,2.25,2.25,0,0,1,1.05.23,1.93,1.93,0,0,1,.76.66V43.6Zm-1.5,5.67a1.57,1.57,0,0,0,.63-.62,1.77,1.77,0,0,0,.23-.92,1.75,1.75,0,0,0-.23-.92,1.66,1.66,0,0,0-.63-.63,2,2,0,0,0-1.82,0,1.59,1.59,0,0,0-.63.63,1.75,1.75,0,0,0-.23.92,1.77,1.77,0,0,0,.23.92,1.51,1.51,0,0,0,.63.62,2,2,0,0,0,1.82,0Z"/><path class="cls-2" d="M136.71,49.74a2.22,2.22,0,0,1-.87-.82,2.37,2.37,0,0,1,0-2.38,2.22,2.22,0,0,1,.87-.82,2.67,2.67,0,0,1,1.24-.29,2.71,2.71,0,0,1,1.25.29,2.29,2.29,0,0,1,0,4A2.6,2.6,0,0,1,138,50,2.56,2.56,0,0,1,136.71,49.74Zm2.15-.47a1.51,1.51,0,0,0,.63-.62,1.77,1.77,0,0,0,.23-.92,1.75,1.75,0,0,0-.23-.92,1.59,1.59,0,0,0-.63-.63,2,2,0,0,0-1.82,0,1.59,1.59,0,0,0-.63.63,1.75,1.75,0,0,0-.24.92,1.78,1.78,0,0,0,.24.92,1.51,1.51,0,0,0,.63.62,2,2,0,0,0,1.82,0Z"/><path class="cls-2" d="M145.4,44v6h-.65V44.51h-1.5V44Z"/><path class="cls-2" d="M152.23,49.72a1.37,1.37,0,0,1-.45.24,2.1,2.1,0,0,1-.56.08,1.43,1.43,0,0,1-1-.35,1.24,1.24,0,0,1-.37-1V46H149v-.52h.85v-1h.65v1h1.45V46h-1.45v2.7a.74.74,0,0,0,.82.83,1.27,1.27,0,0,0,.39-.06,1.09,1.09,0,0,0,.32-.17Z"/><path class="cls-2" d="M156.5,45.87a1.7,1.7,0,0,1,.5,1.32V50h-.62v-.7a1.45,1.45,0,0,1-.64.55,2.35,2.35,0,0,1-1,.2,2,2,0,0,1-1.27-.36,1.14,1.14,0,0,1-.47-1,1.1,1.1,0,0,1,.44-.93,2.2,2.2,0,0,1,1.4-.35h1.51v-.28a1.12,1.12,0,0,0-.34-.89,1.45,1.45,0,0,0-1-.31,2.83,2.83,0,0,0-.87.14,2.28,2.28,0,0,0-.72.4l-.29-.46a2.53,2.53,0,0,1,.88-.45,3.38,3.38,0,0,1,1.07-.16A2.11,2.11,0,0,1,156.5,45.87Zm-.73,3.45a1.41,1.41,0,0,0,.58-.69v-.74h-1.49q-1.23,0-1.23.81a.75.75,0,0,0,.32.63,1.52,1.52,0,0,0,.89.22A1.74,1.74,0,0,0,155.77,49.32Z"/><path class="cls-2" d="M162.42,45.72a2.07,2.07,0,0,1,.85.81,2.48,2.48,0,0,1,0,2.4,2.07,2.07,0,0,1-.85.81,2.47,2.47,0,0,1-1.21.3,2.38,2.38,0,0,1-1.08-.24,2.07,2.07,0,0,1-.77-.7V50h-.61V43.6h.64v2.72a2,2,0,0,1,.77-.66,2.25,2.25,0,0,1,1.05-.23A2.46,2.46,0,0,1,162.42,45.72Zm-.35,3.55a1.59,1.59,0,0,0,.64-.62,1.87,1.87,0,0,0,.23-.92,1.85,1.85,0,0,0-.23-.92,1.68,1.68,0,0,0-.64-.63,2,2,0,0,0-.91-.22,1.94,1.94,0,0,0-.91.22,1.68,1.68,0,0,0-.64.63,1.85,1.85,0,0,0-.23.92,1.87,1.87,0,0,0,.23.92,1.59,1.59,0,0,0,.64.62,1.83,1.83,0,0,0,.91.22A1.88,1.88,0,0,0,162.07,49.27Z"/><path class="cls-2" d="M164.9,43.6h.64V50h-.64Z"/><path class="cls-2" d="M171.49,47.92h-4a1.62,1.62,0,0,0,.57,1.14,2,2,0,0,0,1.31.43,2.16,2.16,0,0,0,.81-.15,1.71,1.71,0,0,0,.65-.44l.36.4a2.12,2.12,0,0,1-.79.55,3,3,0,0,1-1,.19,2.71,2.71,0,0,1-1.3-.3,2.21,2.21,0,0,1-.89-.82,2.28,2.28,0,0,1-.32-1.19,2.37,2.37,0,0,1,.31-1.19,2.18,2.18,0,0,1,.83-.82,2.51,2.51,0,0,1,1.2-.29,2.43,2.43,0,0,1,1.18.29,2.18,2.18,0,0,1,.83.82,2.31,2.31,0,0,1,.3,1.19ZM168,46.37a1.6,1.6,0,0,0-.53,1.09h3.38a1.6,1.6,0,0,0-.53-1.09,1.81,1.81,0,0,0-2.32,0Z"/><path class="cls-2" d="M175.33,49.72a1.61,1.61,0,0,1-.45.24,2.1,2.1,0,0,1-.56.08,1.43,1.43,0,0,1-1-.35,1.24,1.24,0,0,1-.37-1V46h-.85v-.52h.85v-1h.65v1H175V46h-1.45v2.7a.83.83,0,0,0,.21.62.82.82,0,0,0,.61.21,1.32,1.32,0,0,0,.39-.06,1.09,1.09,0,0,0,.32-.17Z"/><path class="cls-2" d="M178.26,47.72l-1.12,1V50h-.64V43.6h.64v4.33L180,45.46h.8l-2,1.85L181,50h-.79Z"/><path class="cls-2" d="M181.94,44.34a.41.41,0,0,1-.14-.31.42.42,0,0,1,.14-.3.44.44,0,0,1,.33-.13.45.45,0,0,1,.34.13.37.37,0,0,1,.13.29.41.41,0,0,1-.13.32.45.45,0,0,1-.34.13A.44.44,0,0,1,181.94,44.34Zm0,1.12h.64V50H182Z"/><path class="cls-2" d="M190.67,49.44V50h-4.45v-.44l2.64-2.45a3.28,3.28,0,0,0,.67-.81,1.41,1.41,0,0,0,.18-.68,1,1,0,0,0-.39-.83,1.74,1.74,0,0,0-1.1-.3,2.22,2.22,0,0,0-1.73.67l-.46-.38a2.43,2.43,0,0,1,.94-.63,3.6,3.6,0,0,1,1.31-.23,2.46,2.46,0,0,1,1.53.44,1.41,1.41,0,0,1,.57,1.19,1.93,1.93,0,0,1-.22.9,4,4,0,0,1-.82,1l-2.16,2Z"/><path class="cls-2" d="M195.58,45.66a2.46,2.46,0,0,1,1.11-.23V46h-.15a1.58,1.58,0,0,0-1.18.44,1.7,1.7,0,0,0-.43,1.24V50h-.64V45.46h.62v.89A1.54,1.54,0,0,1,195.58,45.66Z"/><path class="cls-2" d="M201,45.87a1.7,1.7,0,0,1,.5,1.32V50h-.62v-.7a1.51,1.51,0,0,1-.64.55,2.38,2.38,0,0,1-1,.2,2,2,0,0,1-1.27-.36,1.14,1.14,0,0,1-.47-1,1.1,1.1,0,0,1,.44-.93,2.2,2.2,0,0,1,1.4-.35h1.51v-.28a1.12,1.12,0,0,0-.34-.89,1.45,1.45,0,0,0-1-.31,2.83,2.83,0,0,0-.87.14,2.28,2.28,0,0,0-.72.4l-.29-.46a2.4,2.4,0,0,1,.87-.45,3.47,3.47,0,0,1,1.07-.16A2.14,2.14,0,0,1,201,45.87Zm-.73,3.45a1.46,1.46,0,0,0,.58-.69v-.74h-1.5c-.81,0-1.22.27-1.22.81a.75.75,0,0,0,.32.63,1.52,1.52,0,0,0,.89.22A1.74,1.74,0,0,0,200.3,49.32Z"/><path class="cls-2" d="M206.64,49.49V50h-3.88v-.4l3-3.61h-2.95v-.52h3.78v.41l-3,3.62Z"/><path class="cls-2" d="M211.92,45.46l-2.39,5.08a2.12,2.12,0,0,1-.67.9,1.53,1.53,0,0,1-.91.27,2.27,2.27,0,0,1-.65-.1,1.45,1.45,0,0,1-.51-.31l.29-.46a1.25,1.25,0,0,0,.88.34.86.86,0,0,0,.55-.17,1.43,1.43,0,0,0,.43-.59l.21-.43L207,45.46h.67l1.8,3.85,1.79-3.85Z"/><path class="cls-2" d="M219.06,45.92a1.9,1.9,0,0,1,.53,1.45V50H219V47.43a1.46,1.46,0,0,0-.38-1.08,1.41,1.41,0,0,0-1.06-.37,1.68,1.68,0,0,0-1.22.43,1.61,1.61,0,0,0-.45,1.21V50h-.64V45.46h.62v.84a1.69,1.69,0,0,1,.73-.64,2.32,2.32,0,0,1,1.08-.23A2,2,0,0,1,219.06,45.92Z"/><path class="cls-2" d="M224.44,45.87a1.7,1.7,0,0,1,.5,1.32V50h-.62v-.7a1.4,1.4,0,0,1-.64.55,2.35,2.35,0,0,1-1,.2,2.06,2.06,0,0,1-1.27-.36,1.17,1.17,0,0,1-.47-1,1.13,1.13,0,0,1,.44-.93,2.2,2.2,0,0,1,1.4-.35h1.52v-.28a1.12,1.12,0,0,0-.35-.89,1.43,1.43,0,0,0-1-.31,2.74,2.74,0,0,0-.87.14,2.28,2.28,0,0,0-.72.4l-.29-.46a2.4,2.4,0,0,1,.87-.45,3.42,3.42,0,0,1,1.07-.16A2.11,2.11,0,0,1,224.44,45.87Zm-.72,3.45a1.46,1.46,0,0,0,.58-.69v-.74h-1.5c-.82,0-1.22.27-1.22.81a.74.74,0,0,0,.31.63,1.54,1.54,0,0,0,.89.22A1.75,1.75,0,0,0,223.72,49.32Z"/><path class="cls-2" d="M233.42,43.6V50h-.62V49.1a2,2,0,0,1-.76.7A2.38,2.38,0,0,1,231,50a2.47,2.47,0,0,1-1.21-.3,2,2,0,0,1-.85-.81,2.48,2.48,0,0,1,0-2.4,2,2,0,0,1,.85-.81,2.46,2.46,0,0,1,1.21-.29,2.25,2.25,0,0,1,1,.23,2,2,0,0,1,.77.66V43.6Zm-1.5,5.67a1.51,1.51,0,0,0,.63-.62,1.78,1.78,0,0,0,.24-.92,1.75,1.75,0,0,0-.24-.92,1.59,1.59,0,0,0-.63-.63,2,2,0,0,0-1.81,0,1.62,1.62,0,0,0-.64.63,1.85,1.85,0,0,0-.23.92,1.87,1.87,0,0,0,.23.92,1.53,1.53,0,0,0,.64.62,2,2,0,0,0,1.81,0Z"/><path class="cls-2" d="M235.92,49.74a2.22,2.22,0,0,1-.87-.82,2.44,2.44,0,0,1,0-2.38,2.22,2.22,0,0,1,.87-.82,2.82,2.82,0,0,1,2.49,0,2.13,2.13,0,0,1,.86.82,2.37,2.37,0,0,1,0,2.38,2.13,2.13,0,0,1-.86.82,2.73,2.73,0,0,1-2.49,0Zm2.16-.47a1.51,1.51,0,0,0,.63-.62,1.87,1.87,0,0,0,.22-.92,1.84,1.84,0,0,0-.22-.92,1.59,1.59,0,0,0-.63-.63,2,2,0,0,0-1.83,0,1.66,1.66,0,0,0-.63.63,1.85,1.85,0,0,0-.23.92,1.87,1.87,0,0,0,.23.92,1.57,1.57,0,0,0,.63.62,2,2,0,0,0,1.83,0Z"/><path class="cls-2" d="M244.58,45.72a2.14,2.14,0,0,1,.85.81,2.48,2.48,0,0,1,0,2.4,2.14,2.14,0,0,1-.85.81,2.51,2.51,0,0,1-1.22.3,2.31,2.31,0,0,1-1.07-.24,2,2,0,0,1-.77-.7V50h-.62V43.6h.65v2.72a1.93,1.93,0,0,1,.76-.66,2.25,2.25,0,0,1,1.05-.23A2.5,2.5,0,0,1,244.58,45.72Zm-.36,3.55a1.53,1.53,0,0,0,.64-.62,1.77,1.77,0,0,0,.23-.92,1.75,1.75,0,0,0-.23-.92,1.62,1.62,0,0,0-.64-.63,1.94,1.94,0,0,0-.91-.22,2,2,0,0,0-.91.22,1.59,1.59,0,0,0-.63.63,1.75,1.75,0,0,0-.23.92,1.77,1.77,0,0,0,.23.92,1.51,1.51,0,0,0,.63.62,1.86,1.86,0,0,0,.91.22A1.83,1.83,0,0,0,244.22,49.27Z"/><path class="cls-2" d="M251.2,47.92h-4a1.59,1.59,0,0,0,.58,1.14,1.94,1.94,0,0,0,1.3.43,2.18,2.18,0,0,0,.82-.15,1.67,1.67,0,0,0,.64-.44l.36.4-.34.31a4.46,4.46,0,0,0-.82.8,1,1,0,0,0-.22.6.45.45,0,0,0,.16.38.71.71,0,0,0,.43.12,1.06,1.06,0,0,0,.31,0,.83.83,0,0,0,.25-.12l.14.33a1.36,1.36,0,0,1-.77.21,1.09,1.09,0,0,1-.72-.23.77.77,0,0,1-.28-.61,1.51,1.51,0,0,1,.52-1.06,3.13,3.13,0,0,1-.5,0,2.74,2.74,0,0,1-1.3-.3,2.18,2.18,0,0,1-.88-.82,2.28,2.28,0,0,1-.32-1.19,2.36,2.36,0,0,1,.3-1.19,2.21,2.21,0,0,1,.84-.82,2.59,2.59,0,0,1,2.38,0,2.15,2.15,0,0,1,.82.82,2.31,2.31,0,0,1,.3,1.19Zm-3.45-1.55a1.61,1.61,0,0,0-.54,1.09h3.39a1.65,1.65,0,0,0-.53-1.09A1.7,1.7,0,0,0,248.9,46,1.65,1.65,0,0,0,247.75,46.37Z"/><path class="cls-2" d="M252.25,49.9a.46.46,0,0,1-.14-.34.45.45,0,0,1,.14-.33.48.48,0,0,1,.34-.13.49.49,0,0,1,.35.13.45.45,0,0,1,.14.33.46.46,0,0,1-.14.34.5.5,0,0,1-.35.14A.49.49,0,0,1,252.25,49.9Z"/><path class="cls-2" d="M14.48,54.3l-2.14,6h-.71L9.77,55.19,7.9,60.33H7.21l-2.14-6h.68l1.84,5.19L9.48,54.3h.63L12,59.51l1.85-5.21Z"/><path class="cls-2" d="M21.75,56.06a2,2,0,0,1,.85.81,2.48,2.48,0,0,1,0,2.4,2.07,2.07,0,0,1-.84.82,2.59,2.59,0,0,1-1.22.29,2.38,2.38,0,0,1-1.05-.23,2,2,0,0,1-.77-.67V62h-.64V55.8h.62v.9a1.87,1.87,0,0,1,.76-.69,2.38,2.38,0,0,1,1.08-.24A2.46,2.46,0,0,1,21.75,56.06Zm-.35,3.55A1.59,1.59,0,0,0,22,59a1.87,1.87,0,0,0,.23-.92,1.85,1.85,0,0,0-.23-.92,1.59,1.59,0,0,0-.64-.62,1.86,1.86,0,0,0-.91-.23,1.84,1.84,0,0,0-.91.23,1.51,1.51,0,0,0-.63.62,1.75,1.75,0,0,0-.24.92A1.78,1.78,0,0,0,19,59a1.51,1.51,0,0,0,.63.62,1.83,1.83,0,0,0,.91.22A1.86,1.86,0,0,0,21.4,59.61Z"/><path class="cls-2" d="M25.52,56a2.34,2.34,0,0,1,1.11-.23v.59h-.15a1.58,1.58,0,0,0-1.18.44A1.69,1.69,0,0,0,24.87,58v2.31h-.64V55.8h.61v.89A1.52,1.52,0,0,1,25.52,56Z"/><path class="cls-2" d="M31.23,59.82v.51H27.35v-.4l3-3.61h-3V55.8h3.77v.41l-3,3.61Z"/><path class="cls-2" d="M36.51,55.8l-2.39,5.08a2.12,2.12,0,0,1-.67.9,1.53,1.53,0,0,1-.91.27,1.93,1.93,0,0,1-.65-.11,1.31,1.31,0,0,1-.52-.31l.3-.45a1.22,1.22,0,0,0,.87.34.93.93,0,0,0,.56-.17,1.5,1.5,0,0,0,.43-.59l.21-.44L31.61,55.8h.67l1.8,3.85,1.79-3.85Z"/><path class="cls-2" d="M41.09,56.06a2.14,2.14,0,0,1,.85.81,2.48,2.48,0,0,1,0,2.4,2.16,2.16,0,0,1-.85.82,2.56,2.56,0,0,1-1.22.29,2.45,2.45,0,0,1-1-.23,2,2,0,0,1-.76-.67V62h-.65V55.8H38v.9A1.9,1.9,0,0,1,38.8,56a2.31,2.31,0,0,1,1.07-.24A2.5,2.5,0,0,1,41.09,56.06Zm-.36,3.55a1.47,1.47,0,0,0,.64-.62,1.77,1.77,0,0,0,.23-.92,1.75,1.75,0,0,0-.23-.92,1.47,1.47,0,0,0-.64-.62,1.83,1.83,0,0,0-.9-.23,1.87,1.87,0,0,0-.92.23,1.57,1.57,0,0,0-.63.62,1.85,1.85,0,0,0-.23.92,1.87,1.87,0,0,0,.23.92,1.57,1.57,0,0,0,.63.62,1.87,1.87,0,0,0,.92.22A1.82,1.82,0,0,0,40.73,59.61Z"/><path class="cls-2" d="M46.66,56.21a1.64,1.64,0,0,1,.5,1.31v2.81h-.61v-.7a1.51,1.51,0,0,1-.64.55,2.38,2.38,0,0,1-1,.2A2,2,0,0,1,43.63,60a1.15,1.15,0,0,1-.47-.95,1.13,1.13,0,0,1,.44-.93,2.22,2.22,0,0,1,1.4-.36h1.52V57.5a1.12,1.12,0,0,0-.35-.89,1.43,1.43,0,0,0-1-.31,2.83,2.83,0,0,0-.87.14,2.28,2.28,0,0,0-.72.4l-.29-.46a2.4,2.4,0,0,1,.87-.45,3.47,3.47,0,0,1,1.07-.16A2.11,2.11,0,0,1,46.66,56.21Zm-.72,3.45a1.46,1.46,0,0,0,.58-.69v-.74H45c-.81,0-1.22.27-1.22.81a.73.73,0,0,0,.32.63,1.49,1.49,0,0,0,.88.22A1.84,1.84,0,0,0,45.94,59.66Z"/><path class="cls-2" d="M53.27,53.94v6.39h-.62v-.89a1.9,1.9,0,0,1-.77.69,2.2,2.2,0,0,1-1.07.25,2.51,2.51,0,0,1-1.22-.3,2.1,2.1,0,0,1-.85-.82,2.46,2.46,0,0,1,0-2.39,2.14,2.14,0,0,1,.85-.81,2.5,2.5,0,0,1,1.22-.29,2.28,2.28,0,0,1,1,.23,1.93,1.93,0,0,1,.76.66V53.94Zm-1.5,5.67A1.51,1.51,0,0,0,52.4,59a1.87,1.87,0,0,0,.23-.92,1.85,1.85,0,0,0-.23-.92,1.59,1.59,0,0,0-.63-.63,2,2,0,0,0-1.82,0,1.59,1.59,0,0,0-.63.63,1.75,1.75,0,0,0-.23.92,1.77,1.77,0,0,0,.23.92,1.51,1.51,0,0,0,.63.62,2,2,0,0,0,1.82,0Z"/><path class="cls-2" d="M56.83,58.06l-1.12,1v1.29h-.65V53.94h.65v4.33l2.84-2.47h.8l-2,1.85,2.23,2.68h-.79Z"/><path class="cls-2" d="M64.81,55.8v4.53H64.2v-.82a1.8,1.8,0,0,1-.7.64,2.25,2.25,0,0,1-1,.23,2.09,2.09,0,0,1-1.47-.5,1.86,1.86,0,0,1-.54-1.45V55.8h.64v2.57a1.47,1.47,0,0,0,.37,1.08,1.43,1.43,0,0,0,1.06.37,1.6,1.6,0,0,0,1.19-.43,1.63,1.63,0,0,0,.44-1.21V55.8Z"/><path class="cls-2" d="M70.76,58.06l-1.12,1v1.29H69V53.94h.65v4.33l2.84-2.47h.8l-2,1.85,2.23,2.68h-.79Z"/><path class="cls-2" d="M75.15,60.08a2.22,2.22,0,0,1-.87-.82,2.37,2.37,0,0,1,0-2.38,2.22,2.22,0,0,1,.87-.82,2.55,2.55,0,0,1,1.24-.29,2.52,2.52,0,0,1,1.24.29,2.22,2.22,0,0,1,.87.82,2.44,2.44,0,0,1,0,2.38,2.22,2.22,0,0,1-.87.82,2.53,2.53,0,0,1-1.24.3A2.56,2.56,0,0,1,75.15,60.08Zm2.15-.47a1.51,1.51,0,0,0,.63-.62,1.87,1.87,0,0,0,.23-.92,1.85,1.85,0,0,0-.23-.92,1.59,1.59,0,0,0-.63-.63,1.8,1.8,0,0,0-.91-.22,1.83,1.83,0,0,0-.91.22,1.59,1.59,0,0,0-.63.63,1.75,1.75,0,0,0-.23.92,1.77,1.77,0,0,0,.23.92,1.51,1.51,0,0,0,.63.62,1.83,1.83,0,0,0,.91.22A1.8,1.8,0,0,0,77.3,59.61Z"/><path class="cls-2" d="M84,56.26a1.9,1.9,0,0,1,.53,1.45v2.62h-.65V57.77a1.46,1.46,0,0,0-.37-1.08,1.43,1.43,0,0,0-1.06-.37,1.68,1.68,0,0,0-1.22.43A1.6,1.6,0,0,0,80.77,58v2.37h-.64V55.8h.62v.84a1.63,1.63,0,0,1,.73-.64,2.32,2.32,0,0,1,1.08-.23A2,2,0,0,1,84,56.26Z"/><path class="cls-2" d="M86.26,54.68a.4.4,0,0,1,0-.61.44.44,0,0,1,.33-.13.45.45,0,0,1,.34.13.38.38,0,0,1,.14.29.43.43,0,0,1-.14.32.45.45,0,0,1-.34.13A.44.44,0,0,1,86.26,54.68Zm0,1.12h.64v4.53h-.64Z"/><path class="cls-2" d="M92.86,58.26h-4a1.62,1.62,0,0,0,.57,1.14,2,2,0,0,0,1.31.43,2.12,2.12,0,0,0,.81-.15,1.83,1.83,0,0,0,.65-.44l.36.39a2,2,0,0,1-.79.56,3,3,0,0,1-1,.19,2.74,2.74,0,0,1-1.3-.3,2.16,2.16,0,0,1-1.2-2,2.36,2.36,0,0,1,.3-1.19,2.14,2.14,0,0,1,.84-.82,2.59,2.59,0,0,1,2.38,0,2.2,2.2,0,0,1,.82.81,2.38,2.38,0,0,1,.3,1.2ZM89.4,56.71a1.6,1.6,0,0,0-.53,1.09h3.38a1.56,1.56,0,0,0-.53-1.09,1.81,1.81,0,0,0-2.32,0Z"/><path class="cls-2" d="M94.9,60.08a2.18,2.18,0,0,1-.88-.82,2.44,2.44,0,0,1,0-2.38,2.24,2.24,0,0,1,.88-.82,2.6,2.6,0,0,1,1.26-.29,2.43,2.43,0,0,1,1.1.23,1.77,1.77,0,0,1,.77.66l-.48.31a1.52,1.52,0,0,0-.6-.5,1.86,1.86,0,0,0-.79-.17,1.93,1.93,0,0,0-.93.22,1.62,1.62,0,0,0-.64.63,1.85,1.85,0,0,0-.23.92,1.82,1.82,0,0,0,.23.92,1.53,1.53,0,0,0,.64.62,1.93,1.93,0,0,0,.93.22,1.86,1.86,0,0,0,.79-.16,1.52,1.52,0,0,0,.6-.5l.48.31a1.8,1.8,0,0,1-.77.67,2.77,2.77,0,0,1-2.36-.07Z"/><path class="cls-2" d="M102.66,59.82v.51H98.77v-.4l3-3.61h-3V55.8h3.77v.41l-3,3.61Z"/><path class="cls-2" d="M107.78,56.26a1.86,1.86,0,0,1,.53,1.45v2.62h-.64V57.77a1.46,1.46,0,0,0-.37-1.08,1.43,1.43,0,0,0-1.06-.37,1.67,1.67,0,0,0-1.22.43,1.6,1.6,0,0,0-.45,1.21v2.37h-.64V55.8h.61v.84a1.75,1.75,0,0,1,.73-.64,2.34,2.34,0,0,1,1.09-.23A2,2,0,0,1,107.78,56.26Z"/><path class="cls-2" d="M110.77,60.08a2.22,2.22,0,0,1-.87-.82,2.37,2.37,0,0,1,0-2.38,2.22,2.22,0,0,1,.87-.82,2.82,2.82,0,0,1,2.49,0,2.19,2.19,0,0,1,.86.82,2.37,2.37,0,0,1,0,2.38,2.19,2.19,0,0,1-.86.82,2.73,2.73,0,0,1-2.49,0Zm2.16-.47a1.51,1.51,0,0,0,.63-.62,1.87,1.87,0,0,0,.22-.92,1.84,1.84,0,0,0-.22-.92,1.59,1.59,0,0,0-.63-.63,2,2,0,0,0-1.83,0,1.59,1.59,0,0,0-.63.63,1.75,1.75,0,0,0-.23.92,1.77,1.77,0,0,0,.23.92,1.51,1.51,0,0,0,.63.62,2,2,0,0,0,1.83,0Z"/><path class="cls-2" d="M115.92,60.22a2.57,2.57,0,0,1-.83-.4l.29-.49a2.39,2.39,0,0,0,.75.37,3,3,0,0,0,1,.14,1.87,1.87,0,0,0,1-.19.61.61,0,0,0,.31-.55.45.45,0,0,0-.17-.39,1.09,1.09,0,0,0-.43-.22l-.7-.14a9.34,9.34,0,0,1-.94-.21,1.35,1.35,0,0,1-.6-.37,1,1,0,0,1-.25-.71,1.11,1.11,0,0,1,.5-.93,2.34,2.34,0,0,1,1.39-.36,4.13,4.13,0,0,1,.92.11,2.45,2.45,0,0,1,.76.31l-.28.49a2.47,2.47,0,0,0-1.4-.39,1.68,1.68,0,0,0-.93.21.62.62,0,0,0-.31.54.54.54,0,0,0,.17.42,1.21,1.21,0,0,0,.44.22c.18,0,.42.1.73.16a6.81,6.81,0,0,1,.91.2,1.41,1.41,0,0,1,.59.35.93.93,0,0,1,.25.69,1.1,1.1,0,0,1-.52,1,2.61,2.61,0,0,1-1.45.35A4,4,0,0,1,115.92,60.22ZM117.71,54h.86l-1.47,1.06h-.63Z"/><path class="cls-2" d="M120.9,60.08a2.18,2.18,0,0,1-.88-.82,2.44,2.44,0,0,1,0-2.38,2.24,2.24,0,0,1,.88-.82,2.6,2.6,0,0,1,1.26-.29,2.43,2.43,0,0,1,1.1.23,1.77,1.77,0,0,1,.77.66l-.48.31a1.52,1.52,0,0,0-.6-.5,1.86,1.86,0,0,0-.79-.17,1.93,1.93,0,0,0-.93.22,1.62,1.62,0,0,0-.64.63,1.85,1.85,0,0,0-.23.92,1.82,1.82,0,0,0,.23.92,1.53,1.53,0,0,0,.64.62,1.93,1.93,0,0,0,.93.22,1.86,1.86,0,0,0,.79-.16,1.52,1.52,0,0,0,.6-.5l.48.31a1.8,1.8,0,0,1-.77.67,2.77,2.77,0,0,1-2.36-.07Z"/><path class="cls-2" d="M125.28,54.68a.42.42,0,0,1-.13-.31.41.41,0,0,1,.13-.3.47.47,0,0,1,.34-.13.44.44,0,0,1,.33.13.38.38,0,0,1,.14.29.43.43,0,0,1-.14.32.44.44,0,0,1-.33.13A.47.47,0,0,1,125.28,54.68Zm0,1.12h.65v4.53h-.65Z"/><path class="cls-2" d="M134.46,53.94v6.39h-.62v-.89a1.87,1.87,0,0,1-.76.69,2.26,2.26,0,0,1-1.08.25,2.47,2.47,0,0,1-1.21-.3,2,2,0,0,1-.85-.82,2.46,2.46,0,0,1,0-2.39,2,2,0,0,1,.85-.81,2.46,2.46,0,0,1,1.21-.29,2.25,2.25,0,0,1,1.05.23,2,2,0,0,1,.77.66V53.94ZM133,59.61a1.51,1.51,0,0,0,.63-.62,1.78,1.78,0,0,0,.24-.92,1.75,1.75,0,0,0-.24-.92,1.59,1.59,0,0,0-.63-.63,2,2,0,0,0-1.81,0,1.62,1.62,0,0,0-.64.63,1.85,1.85,0,0,0-.23.92,1.87,1.87,0,0,0,.23.92,1.53,1.53,0,0,0,.64.62,2,2,0,0,0,1.81,0Z"/><path class="cls-2" d="M135.39,57.86l2.19-1.57.29.38-2.19,1.56Zm.91-3.92H137v6.39h-.65Z"/><path class="cls-2" d="M143.08,55.8v4.53h-.61v-.82a1.73,1.73,0,0,1-.7.64,2.25,2.25,0,0,1-1,.23,2.09,2.09,0,0,1-1.47-.5,1.86,1.86,0,0,1-.54-1.45V55.8h.64v2.57a1.43,1.43,0,0,0,.38,1.08,1.41,1.41,0,0,0,1.06.37,1.61,1.61,0,0,0,1.19-.43,1.63,1.63,0,0,0,.43-1.21V55.8Z"/><path class="cls-2" d="M148.25,59.82v.51h-3.88v-.4l3-3.61h-2.94V55.8h3.77v.41l-3,3.61Zm-2.25-5a.41.41,0,0,1-.12-.3.4.4,0,0,1,.12-.29.45.45,0,0,1,.31-.12.43.43,0,0,1,.31.12.37.37,0,0,1,.13.29.38.38,0,0,1-.13.3.43.43,0,0,1-.31.12A.45.45,0,0,1,146,54.78Z"/><path class="cls-2" d="M149.69,60.22a2.57,2.57,0,0,1-.83-.4l.29-.49a2.34,2.34,0,0,0,.76.37,2.93,2.93,0,0,0,.94.14,1.84,1.84,0,0,0,1-.19.61.61,0,0,0,.32-.55.46.46,0,0,0-.18-.39,1.09,1.09,0,0,0-.43-.22l-.7-.14a8.47,8.47,0,0,1-.93-.21,1.33,1.33,0,0,1-.61-.37,1,1,0,0,1-.25-.71,1.11,1.11,0,0,1,.5-.93,2.36,2.36,0,0,1,1.39-.36,4.22,4.22,0,0,1,.93.11,2.68,2.68,0,0,1,.76.31l-.28.49a2.53,2.53,0,0,0-1.41-.39,1.68,1.68,0,0,0-.93.21.62.62,0,0,0-.31.54.54.54,0,0,0,.18.42,1.09,1.09,0,0,0,.43.22c.18,0,.42.1.73.16a7,7,0,0,1,.92.2,1.47,1.47,0,0,1,.59.35,1,1,0,0,1,.24.69,1.08,1.08,0,0,1-.52,1,2.61,2.61,0,0,1-1.45.35A4.14,4.14,0,0,1,149.69,60.22Z"/><path class="cls-2" d="M157.32,59.82v.51h-3.88v-.4l3-3.61H153.5V55.8h3.77v.41l-3,3.61Z"/><path class="cls-2" d="M162.75,58.26h-4a1.55,1.55,0,0,0,.57,1.14,1.94,1.94,0,0,0,1.3.43,2.18,2.18,0,0,0,.82-.15,1.79,1.79,0,0,0,.64-.44l.37.39a2.07,2.07,0,0,1-.8.56,2.87,2.87,0,0,1-1,.19,2.78,2.78,0,0,1-1.31-.3,2.24,2.24,0,0,1-.88-.82,2.41,2.41,0,0,1,0-2.38,2.18,2.18,0,0,1,.83-.82,2.59,2.59,0,0,1,2.38,0,2.23,2.23,0,0,1,.83.81,2.38,2.38,0,0,1,.3,1.2Zm-3.46-1.55a1.6,1.6,0,0,0-.53,1.09h3.38a1.6,1.6,0,0,0-.53-1.09,1.68,1.68,0,0,0-1.17-.42A1.65,1.65,0,0,0,159.29,56.71Z"/><path class="cls-2" d="M168.49,55.8v4a2.22,2.22,0,0,1-.6,1.71,2.53,2.53,0,0,1-1.79.56,3.94,3.94,0,0,1-1.25-.19,2.55,2.55,0,0,1-1-.51l.33-.47a2.47,2.47,0,0,0,.83.46,3.29,3.29,0,0,0,1,.17,1.9,1.9,0,0,0,1.34-.41,1.63,1.63,0,0,0,.42-1.24v-.58a1.92,1.92,0,0,1-.78.66,2.51,2.51,0,0,1-1.08.22,2.64,2.64,0,0,1-1.22-.28,2.24,2.24,0,0,1-.86-.78,2.12,2.12,0,0,1-.31-1.14,2.07,2.07,0,0,1,.31-1.14,2.16,2.16,0,0,1,.86-.78,2.7,2.7,0,0,1,1.22-.27,2.46,2.46,0,0,1,1.1.23,1.91,1.91,0,0,1,.79.67V55.8ZM167,59.41a1.55,1.55,0,0,0,.65-.59,1.68,1.68,0,0,0,.23-.86,1.62,1.62,0,0,0-.23-.86,1.59,1.59,0,0,0-.64-.59,2.06,2.06,0,0,0-.94-.21,2,2,0,0,0-.93.21,1.59,1.59,0,0,0-.65.58,1.74,1.74,0,0,0,0,1.73,1.61,1.61,0,0,0,.65.59,2,2,0,0,0,.93.21A2.05,2.05,0,0,0,167,59.41Z"/><path class="cls-2" d="M171,60.08a2.22,2.22,0,0,1-.87-.82,2.37,2.37,0,0,1,0-2.38,2.22,2.22,0,0,1,.87-.82,2.55,2.55,0,0,1,1.24-.29,2.52,2.52,0,0,1,1.24.29,2.22,2.22,0,0,1,.87.82,2.44,2.44,0,0,1,0,2.38,2.22,2.22,0,0,1-.87.82,2.53,2.53,0,0,1-1.24.3A2.56,2.56,0,0,1,171,60.08Zm2.15-.47a1.51,1.51,0,0,0,.63-.62,1.87,1.87,0,0,0,.23-.92,1.85,1.85,0,0,0-.23-.92,1.59,1.59,0,0,0-.63-.63,2,2,0,0,0-1.82,0,1.59,1.59,0,0,0-.63.63,1.75,1.75,0,0,0-.24.92,1.78,1.78,0,0,0,.24.92,1.51,1.51,0,0,0,.63.62,2,2,0,0,0,1.82,0Z"/><path class="cls-2" d="M178.52,60.22a2.57,2.57,0,0,1-.83-.4l.29-.49a2.34,2.34,0,0,0,.76.37,2.93,2.93,0,0,0,.94.14,1.84,1.84,0,0,0,1-.19.61.61,0,0,0,.32-.55.46.46,0,0,0-.18-.39,1.09,1.09,0,0,0-.43-.22l-.7-.14a8.47,8.47,0,0,1-.93-.21,1.33,1.33,0,0,1-.61-.37,1,1,0,0,1-.25-.71,1.11,1.11,0,0,1,.5-.93,2.36,2.36,0,0,1,1.39-.36,4.22,4.22,0,0,1,.93.11,2.68,2.68,0,0,1,.76.31l-.28.49a2.53,2.53,0,0,0-1.41-.39,1.68,1.68,0,0,0-.93.21.62.62,0,0,0-.31.54.54.54,0,0,0,.18.42,1.09,1.09,0,0,0,.43.22c.18,0,.42.1.73.16a7,7,0,0,1,.92.2,1.47,1.47,0,0,1,.59.35,1,1,0,0,1,.24.69,1.08,1.08,0,0,1-.52,1,2.61,2.61,0,0,1-1.45.35A4.14,4.14,0,0,1,178.52,60.22Z"/><path class="cls-2" d="M185.3,60.06a1.2,1.2,0,0,1-.45.23,1.73,1.73,0,0,1-.56.09,1.44,1.44,0,0,1-1-.35,1.28,1.28,0,0,1-.36-1V56.32H182V55.8h.86v-1h.64v1H185v.52h-1.45V59a.85.85,0,0,0,.21.62.86.86,0,0,0,.62.21,1.21,1.21,0,0,0,.38-.06,1,1,0,0,0,.32-.17Z"/><path class="cls-2" d="M187.18,60.08a2.22,2.22,0,0,1-.87-.82,2.37,2.37,0,0,1,0-2.38,2.22,2.22,0,0,1,.87-.82,2.8,2.8,0,0,1,2.48,0,2.22,2.22,0,0,1,.87.82,2.44,2.44,0,0,1,0,2.38,2.22,2.22,0,0,1-.87.82,2.71,2.71,0,0,1-2.48,0Zm2.15-.47A1.51,1.51,0,0,0,190,59a1.87,1.87,0,0,0,.23-.92,1.85,1.85,0,0,0-.23-.92,1.59,1.59,0,0,0-.63-.63,2,2,0,0,0-1.82,0,1.68,1.68,0,0,0-.64.63,1.85,1.85,0,0,0-.23.92,1.87,1.87,0,0,0,.23.92,1.59,1.59,0,0,0,.64.62,2,2,0,0,0,1.82,0Z"/><path class="cls-2" d="M192.32,60.22a2.41,2.41,0,0,1-.82-.4l.29-.49a2.28,2.28,0,0,0,.75.37,2.93,2.93,0,0,0,.94.14,1.89,1.89,0,0,0,1-.19.61.61,0,0,0,.31-.55.48.48,0,0,0-.17-.39,1.14,1.14,0,0,0-.44-.22l-.7-.14q-.57-.1-.93-.21a1.25,1.25,0,0,1-.6-.37,1,1,0,0,1-.25-.71,1.08,1.08,0,0,1,.5-.93,2.31,2.31,0,0,1,1.38-.36,4.22,4.22,0,0,1,.93.11,2.56,2.56,0,0,1,.76.31l-.28.49a2.48,2.48,0,0,0-1.41-.39,1.68,1.68,0,0,0-.93.21.62.62,0,0,0-.31.54.54.54,0,0,0,.18.42,1.14,1.14,0,0,0,.44.22c.17,0,.41.1.72.16a7,7,0,0,1,.92.2,1.41,1.41,0,0,1,.59.35,1,1,0,0,1,.24.69,1.08,1.08,0,0,1-.52,1,2.6,2.6,0,0,1-1.44.35A4.15,4.15,0,0,1,192.32,60.22Z"/><path class="cls-2" d="M197.3,60.08a2.22,2.22,0,0,1-.87-.82,2.37,2.37,0,0,1,0-2.38,2.22,2.22,0,0,1,.87-.82,2.8,2.8,0,0,1,2.48,0,2.22,2.22,0,0,1,.87.82,2.44,2.44,0,0,1,0,2.38,2.22,2.22,0,0,1-.87.82,2.71,2.71,0,0,1-2.48,0Zm2.15-.47a1.51,1.51,0,0,0,.63-.62,1.87,1.87,0,0,0,.23-.92,1.85,1.85,0,0,0-.23-.92,1.59,1.59,0,0,0-.63-.63,2,2,0,0,0-1.82,0,1.59,1.59,0,0,0-.63.63,1.75,1.75,0,0,0-.24.92A1.78,1.78,0,0,0,197,59a1.51,1.51,0,0,0,.63.62,2,2,0,0,0,1.82,0Z"/><path class="cls-2" d="M209.28,55.8l-1.81,4.53h-.6l-1.51-3.71-1.5,3.71h-.61l-1.8-4.53h.62l1.5,3.85,1.53-3.85h.55l1.52,3.85,1.52-3.85Z"/><path class="cls-2" d="M213.35,56.21a1.67,1.67,0,0,1,.5,1.31v2.81h-.62v-.7a1.45,1.45,0,0,1-.64.55,2.35,2.35,0,0,1-1,.2,2,2,0,0,1-1.27-.37,1.15,1.15,0,0,1-.47-.95,1.13,1.13,0,0,1,.44-.93,2.2,2.2,0,0,1,1.4-.36h1.52V57.5a1.12,1.12,0,0,0-.35-.89,1.44,1.44,0,0,0-1-.31,2.83,2.83,0,0,0-.87.14,2.34,2.34,0,0,0-.71.4l-.29-.46a2.4,2.4,0,0,1,.87-.45,3.42,3.42,0,0,1,1.07-.16A2.11,2.11,0,0,1,213.35,56.21Zm-.72,3.45a1.46,1.46,0,0,0,.58-.69v-.74h-1.5c-.82,0-1.22.27-1.22.81a.75.75,0,0,0,.31.63,1.52,1.52,0,0,0,.89.22A1.87,1.87,0,0,0,212.63,59.66Z"/><path class="cls-2" d="M219.46,56.26a1.9,1.9,0,0,1,.53,1.45v2.62h-.64V57.77a1.46,1.46,0,0,0-.38-1.08,1.41,1.41,0,0,0-1.06-.37,1.68,1.68,0,0,0-1.22.43,1.6,1.6,0,0,0-.45,1.21v2.37h-.64V55.8h.62v.84A1.69,1.69,0,0,1,217,56a2.32,2.32,0,0,1,1.08-.23A2,2,0,0,1,219.46,56.26Z"/><path class="cls-2" d="M221.73,54.68a.4.4,0,0,1,0-.61.45.45,0,0,1,.34-.13.44.44,0,0,1,.33.13.38.38,0,0,1,.14.29.43.43,0,0,1-.14.32.44.44,0,0,1-.33.13A.45.45,0,0,1,221.73,54.68Zm0,1.12h.64v4.53h-.64Z"/><path class="cls-2" d="M227.28,56.21a1.67,1.67,0,0,1,.5,1.31v2.81h-.62v-.7a1.45,1.45,0,0,1-.64.55,2.35,2.35,0,0,1-1,.2,2,2,0,0,1-1.27-.37,1.15,1.15,0,0,1-.47-.95,1.13,1.13,0,0,1,.44-.93,2.2,2.2,0,0,1,1.4-.36h1.52V57.5a1.12,1.12,0,0,0-.35-.89,1.44,1.44,0,0,0-1-.31,2.83,2.83,0,0,0-.87.14,2.34,2.34,0,0,0-.71.4l-.29-.46a2.4,2.4,0,0,1,.87-.45,3.42,3.42,0,0,1,1.07-.16A2.11,2.11,0,0,1,227.28,56.21Zm-.72,3.45a1.46,1.46,0,0,0,.58-.69v-.74h-1.5q-1.23,0-1.23.81a.76.76,0,0,0,.32.63,1.52,1.52,0,0,0,.89.22A1.9,1.9,0,0,0,226.56,59.66Z"/><path class="cls-2" d="M236.26,53.94v6.39h-.62v-.89a1.94,1.94,0,0,1-.76.69,2.26,2.26,0,0,1-1.08.25,2.44,2.44,0,0,1-1.21-.3,2.06,2.06,0,0,1-.86-.82,2.53,2.53,0,0,1,0-2.39,2.1,2.1,0,0,1,.86-.81,2.43,2.43,0,0,1,1.21-.29,2.25,2.25,0,0,1,1,.23,2,2,0,0,1,.77.66V53.94Zm-1.5,5.67a1.51,1.51,0,0,0,.63-.62,1.77,1.77,0,0,0,.23-.92,1.75,1.75,0,0,0-.23-.92,1.59,1.59,0,0,0-.63-.63,1.82,1.82,0,0,0-.9-.22,1.87,1.87,0,0,0-.92.22,1.66,1.66,0,0,0-.63.63,1.85,1.85,0,0,0-.23.92,1.87,1.87,0,0,0,.23.92,1.57,1.57,0,0,0,.63.62,1.87,1.87,0,0,0,.92.22A1.82,1.82,0,0,0,234.76,59.61Z"/><path class="cls-2" d="M241.16,56.21a1.67,1.67,0,0,1,.5,1.31v2.81H241v-.7a1.51,1.51,0,0,1-.64.55,2.38,2.38,0,0,1-1,.2,2,2,0,0,1-1.27-.37,1.13,1.13,0,0,1-.47-.95,1.1,1.1,0,0,1,.44-.93,2.2,2.2,0,0,1,1.4-.36H241V57.5a1.12,1.12,0,0,0-.34-.89,1.45,1.45,0,0,0-1-.31,2.83,2.83,0,0,0-.87.14,2.28,2.28,0,0,0-.72.4l-.29-.46a2.4,2.4,0,0,1,.87-.45,3.47,3.47,0,0,1,1.07-.16A2.14,2.14,0,0,1,241.16,56.21Zm-.73,3.45A1.46,1.46,0,0,0,241,59v-.74h-1.5c-.81,0-1.22.27-1.22.81a.76.76,0,0,0,.32.63,1.52,1.52,0,0,0,.89.22A1.83,1.83,0,0,0,240.43,59.66Z"/><path class="cls-2" d="M250.41,55.8l-1.81,4.53H248l-1.5-3.71L245,60.33h-.6l-1.8-4.53h.62l1.49,3.85,1.54-3.85h.55l1.52,3.85,1.52-3.85Z"/><path class="cls-2" d="M253.15,58.06,252,59v1.29h-.64V53.94H252v4.33l2.85-2.47h.8l-2,1.85,2.23,2.68h-.79Z"/><path class="cls-2" d="M261,58.26h-4a1.62,1.62,0,0,0,.57,1.14,2,2,0,0,0,1.31.43,2.12,2.12,0,0,0,.81-.15,1.83,1.83,0,0,0,.65-.44l.36.39a4,4,0,0,1-.34.32,4.15,4.15,0,0,0-.82.8,1.05,1.05,0,0,0-.23.6.43.43,0,0,0,.17.37.65.65,0,0,0,.43.13,1.1,1.1,0,0,0,.31,0,.83.83,0,0,0,.25-.12l.14.33a1.39,1.39,0,0,1-.77.21,1.14,1.14,0,0,1-.73-.23.77.77,0,0,1-.27-.62,1.47,1.47,0,0,1,.52-1.05,3.13,3.13,0,0,1-.5.05,2.74,2.74,0,0,1-1.3-.3,2.16,2.16,0,0,1-1.2-2,2.36,2.36,0,0,1,.3-1.19,2.14,2.14,0,0,1,.84-.82,2.59,2.59,0,0,1,2.38,0,2.2,2.2,0,0,1,.82.81,2.38,2.38,0,0,1,.3,1.2Zm-3.46-1.55A1.6,1.6,0,0,0,257,57.8h3.38a1.6,1.6,0,0,0-.53-1.09,1.81,1.81,0,0,0-2.32,0Z"/><path class="cls-2" d="M58.12,64.28v6.39H57.5v-.89a1.94,1.94,0,0,1-.76.69,2.38,2.38,0,0,1-1.08.24,2.43,2.43,0,0,1-1.21-.29,2.12,2.12,0,0,1-.86-.82,2.53,2.53,0,0,1,0-2.39,2.19,2.19,0,0,1,.86-.82,2.54,2.54,0,0,1,1.21-.28,2.38,2.38,0,0,1,1.05.22,2,2,0,0,1,.76.67V64.28ZM56.62,70a1.51,1.51,0,0,0,.63-.62,2,2,0,0,0,0-1.85,1.57,1.57,0,0,0-.63-.62,1.82,1.82,0,0,0-.9-.22,1.87,1.87,0,0,0-.92.22,1.63,1.63,0,0,0-.63.62,2,2,0,0,0,0,1.85,1.57,1.57,0,0,0,.63.62,1.87,1.87,0,0,0,.92.22A1.82,1.82,0,0,0,56.62,70Z"/><path class="cls-2" d="M60.62,70.42a2.17,2.17,0,0,1-.87-.83,2.22,2.22,0,0,1-.32-1.18,2.25,2.25,0,0,1,.32-1.19,2.15,2.15,0,0,1,.87-.82,2.82,2.82,0,0,1,2.49,0,2.12,2.12,0,0,1,.86.82,2.25,2.25,0,0,1,.32,1.19A2.22,2.22,0,0,1,64,69.59a2.15,2.15,0,0,1-.86.83,2.82,2.82,0,0,1-2.49,0ZM62.78,70a1.63,1.63,0,0,0,.63-.62,2.05,2.05,0,0,0,0-1.85,1.7,1.7,0,0,0-.63-.62,2,2,0,0,0-1.83,0,1.57,1.57,0,0,0-.63.62,2,2,0,0,0,0,1.85A1.51,1.51,0,0,0,61,70a2,2,0,0,0,1.83,0Z"/><path class="cls-2" d="M69.27,66.39a2.19,2.19,0,0,1,.86.82,2.53,2.53,0,0,1,0,2.39,2.12,2.12,0,0,1-.86.82,2.43,2.43,0,0,1-1.21.29A2.38,2.38,0,0,1,67,70.47a1.94,1.94,0,0,1-.76-.69v.89H65.6V64.28h.64V67a2.07,2.07,0,0,1,.77-.67,2.38,2.38,0,0,1,1-.22A2.54,2.54,0,0,1,69.27,66.39ZM68.92,70a1.53,1.53,0,0,0,.64-.62,2,2,0,0,0,0-1.85,1.59,1.59,0,0,0-.64-.62,2,2,0,0,0-1.82,0,1.57,1.57,0,0,0-.63.62,2,2,0,0,0,0,1.85,1.51,1.51,0,0,0,.63.62,2,2,0,0,0,1.82,0Z"/><path class="cls-2" d="M72.46,70.42a2.17,2.17,0,0,1-.87-.83,2.13,2.13,0,0,1-.32-1.18,2.23,2.23,0,0,1,1.19-2,2.8,2.8,0,0,1,2.48,0,2.15,2.15,0,0,1,.87.82,2.25,2.25,0,0,1,.31,1.19,2.21,2.21,0,0,1-.31,1.18,2.17,2.17,0,0,1-.87.83,2.8,2.8,0,0,1-2.48,0ZM74.61,70a1.51,1.51,0,0,0,.63-.62,2,2,0,0,0,0-1.85,1.57,1.57,0,0,0-.63-.62,2,2,0,0,0-1.82,0,1.66,1.66,0,0,0-.64.62,2,2,0,0,0,0,1.85,1.59,1.59,0,0,0,.64.62,2,2,0,0,0,1.82,0Z"/><path class="cls-2" d="M84.44,66.14l-1.81,4.53H82L80.52,67,79,70.67h-.6l-1.8-4.53h.62L78.72,70l1.54-3.85h.55L82.33,70l1.52-3.85Z"/><path class="cls-2" d="M88.51,66.55a1.66,1.66,0,0,1,.5,1.31v2.81h-.62V70a1.52,1.52,0,0,1-.64.55,2.35,2.35,0,0,1-1,.19,2,2,0,0,1-1.27-.36,1.2,1.2,0,0,1,0-1.88,2.2,2.2,0,0,1,1.4-.36h1.51v-.27A1.12,1.12,0,0,0,88,67a1.45,1.45,0,0,0-1-.31,2.83,2.83,0,0,0-.87.14,2.29,2.29,0,0,0-.71.39l-.29-.45a2.58,2.58,0,0,1,.87-.46,3.69,3.69,0,0,1,1.07-.15A2.06,2.06,0,0,1,88.51,66.55ZM87.78,70a1.41,1.41,0,0,0,.58-.69v-.74H86.87q-1.23,0-1.23.81A.73.73,0,0,0,86,70a1.45,1.45,0,0,0,.89.23A1.83,1.83,0,0,0,87.78,70Zm-.08,2.34a.72.72,0,0,1-.27-.59c0-.54.43-1,1.28-1.31l.3.23c-.74.31-1.11.66-1.11,1a.43.43,0,0,0,.16.35.67.67,0,0,0,.43.13.87.87,0,0,0,.56-.17l.15.34a1.41,1.41,0,0,1-.77.21A1.1,1.1,0,0,1,87.7,72.34Z"/><path class="cls-2" d="M97,66.6A1.85,1.85,0,0,1,97.52,68v2.63h-.64V68.1a1.29,1.29,0,0,0-1.43-1.44,1.67,1.67,0,0,0-1.22.43,1.59,1.59,0,0,0-.45,1.2v2.38h-.65V66.14h.62V67a1.84,1.84,0,0,1,.73-.65,2.45,2.45,0,0,1,1.08-.22A2,2,0,0,1,97,66.6Z"/><path class="cls-2" d="M102.37,66.55a1.63,1.63,0,0,1,.5,1.31v2.81h-.61V70a1.58,1.58,0,0,1-.64.55,2.38,2.38,0,0,1-1,.19,2,2,0,0,1-1.27-.36,1.19,1.19,0,0,1,0-1.88,2.23,2.23,0,0,1,1.41-.36h1.51v-.27a1.12,1.12,0,0,0-.34-.89,1.45,1.45,0,0,0-1-.31,2.83,2.83,0,0,0-.87.14,2.47,2.47,0,0,0-.72.39L99,66.72a2.58,2.58,0,0,1,.87-.46,3.79,3.79,0,0,1,1.07-.15A2.06,2.06,0,0,1,102.37,66.55ZM101.65,70a1.46,1.46,0,0,0,.58-.69v-.74h-1.5c-.81,0-1.22.27-1.22.81a.73.73,0,0,0,.32.62,1.43,1.43,0,0,0,.89.23A1.83,1.83,0,0,0,101.65,70Z"/><path class="cls-2" d="M104.62,64.28h.65v6.39h-.65Z"/><path class="cls-2" d="M111.22,68.6h-4a1.55,1.55,0,0,0,.57,1.14,1.94,1.94,0,0,0,1.3.43,2.18,2.18,0,0,0,.82-.15,1.79,1.79,0,0,0,.64-.44l.37.39a2.1,2.1,0,0,1-.8.56,2.87,2.87,0,0,1-1,.18,2.71,2.71,0,0,1-1.3-.29,2.16,2.16,0,0,1-.89-.83,2.22,2.22,0,0,1-.32-1.18,2.25,2.25,0,0,1,.31-1.19,2.11,2.11,0,0,1,.83-.82,2.38,2.38,0,0,1,1.19-.29,2.33,2.33,0,0,1,1.19.29,2.15,2.15,0,0,1,.83.81,2.38,2.38,0,0,1,.3,1.2Zm-3.46-1.55a1.6,1.6,0,0,0-.53,1.09h3.38a1.6,1.6,0,0,0-.53-1.09,1.81,1.81,0,0,0-2.32,0Z"/><path class="cls-2" d="M115.91,70.16v.51H112v-.4l3-3.61h-3v-.52h3.77v.41l-3,3.61Zm-2.25-5a.39.39,0,0,1-.13-.3.37.37,0,0,1,.13-.29.41.41,0,0,1,.31-.12.41.41,0,0,1,.3.12.37.37,0,0,1,.13.29.39.39,0,0,1-.13.3.41.41,0,0,1-.3.12A.41.41,0,0,1,113.66,65.12Z"/><path class="cls-2" d="M121.18,66.14l-2.38,5.07a2.18,2.18,0,0,1-.67.91,1.56,1.56,0,0,1-.92.27,1.91,1.91,0,0,1-.64-.11,1.44,1.44,0,0,1-.52-.31l.3-.45a1.21,1.21,0,0,0,.87.34,1,1,0,0,0,.56-.17,1.61,1.61,0,0,0,.43-.59l.21-.44-2.13-4.52H117L118.75,70l1.8-3.85Z"/><path class="cls-2" d="M127.83,70.16v.51H124v-.4l3-3.61h-3v-.52h3.78v.41l-3,3.61Z"/><path class="cls-2" d="M136.46,66.6A1.9,1.9,0,0,1,137,68v2.63h-.64V68.1A1.46,1.46,0,0,0,136,67a1.32,1.32,0,0,0-1-.37,1.55,1.55,0,0,0-1.17.43,1.66,1.66,0,0,0-.43,1.2v2.38h-.64V68.1a1.46,1.46,0,0,0-.36-1.07,1.35,1.35,0,0,0-1-.37,1.54,1.54,0,0,0-1.16.43,1.62,1.62,0,0,0-.43,1.2v2.38h-.65V66.14h.62V67a1.67,1.67,0,0,1,.7-.64,2.38,2.38,0,0,1,1.05-.22,2.16,2.16,0,0,1,1,.24,1.5,1.5,0,0,1,.65.71,1.84,1.84,0,0,1,.76-.7,2.44,2.44,0,0,1,1.13-.25A1.94,1.94,0,0,1,136.46,66.6Z"/><path class="cls-2" d="M142.58,66.6a1.85,1.85,0,0,1,.53,1.44v2.63h-.64V68.1A1.46,1.46,0,0,0,142.1,67a1.43,1.43,0,0,0-1.06-.37,1.67,1.67,0,0,0-1.22.43,1.59,1.59,0,0,0-.45,1.2v2.38h-.65V66.14h.62V67a1.84,1.84,0,0,1,.73-.65,2.45,2.45,0,0,1,1.08-.22A2,2,0,0,1,142.58,66.6Z"/><path class="cls-2" d="M144.85,65a.42.42,0,0,1-.13-.31.38.38,0,0,1,.13-.3.47.47,0,0,1,.34-.13.52.52,0,0,1,.34.12.41.41,0,0,1,.13.3.42.42,0,0,1-.13.32.48.48,0,0,1-.34.13A.47.47,0,0,1,144.85,65Zm0,1.12h.65v4.53h-.65Z"/><path class="cls-2" d="M151.46,68.6h-4a1.55,1.55,0,0,0,.57,1.14,1.94,1.94,0,0,0,1.3.43,2.18,2.18,0,0,0,.82-.15,1.79,1.79,0,0,0,.64-.44l.37.39a2.18,2.18,0,0,1-.8.56,2.87,2.87,0,0,1-1,.18,2.78,2.78,0,0,1-1.31-.29,2.24,2.24,0,0,1-1.2-2,2.25,2.25,0,0,1,.31-1.19,2.11,2.11,0,0,1,.83-.82,2.59,2.59,0,0,1,2.38,0,2.15,2.15,0,0,1,.83.81,2.38,2.38,0,0,1,.3,1.2ZM148,67.05a1.6,1.6,0,0,0-.53,1.09h3.38a1.6,1.6,0,0,0-.53-1.09,1.68,1.68,0,0,0-1.17-.42A1.65,1.65,0,0,0,148,67.05Z"/><path class="cls-2" d="M151.51,72.31a1.07,1.07,0,0,1-.44-.22l.22-.46a1.18,1.18,0,0,0,.75.23.76.76,0,0,0,.58-.21.9.9,0,0,0,.21-.64V66.14h.64V71a1.4,1.4,0,0,1-.36,1,1.42,1.42,0,0,1-1,.37A2,2,0,0,1,151.51,72.31Zm1.31-7.3a.4.4,0,0,1,0-.61.44.44,0,0,1,.33-.13.45.45,0,0,1,.34.13.37.37,0,0,1,.13.29.42.42,0,0,1-.13.32.45.45,0,0,1-.34.13A.44.44,0,0,1,152.82,65Z"/><path class="cls-2" d="M155.43,70.56a2.57,2.57,0,0,1-.83-.4l.29-.49a2.56,2.56,0,0,0,.76.37,3.24,3.24,0,0,0,.94.14,1.91,1.91,0,0,0,1-.19.62.62,0,0,0,.31-.55.48.48,0,0,0-.17-.39,1.14,1.14,0,0,0-.44-.22c-.18,0-.41-.09-.7-.14a8.47,8.47,0,0,1-.93-.21,1.25,1.25,0,0,1-.6-.37,1,1,0,0,1-.25-.71,1.1,1.1,0,0,1,.49-.93,2.36,2.36,0,0,1,1.39-.36,3.69,3.69,0,0,1,.93.11,2.56,2.56,0,0,1,.76.31l-.28.49a2.51,2.51,0,0,0-1.41-.39,1.68,1.68,0,0,0-.93.21.62.62,0,0,0-.31.54.51.51,0,0,0,.18.41A1,1,0,0,0,156,68a6.2,6.2,0,0,0,.72.15,8.78,8.78,0,0,1,.92.21,1.47,1.47,0,0,1,.59.35,1,1,0,0,1,.24.69,1.09,1.09,0,0,1-.52,1,2.61,2.61,0,0,1-1.45.34A4.13,4.13,0,0,1,155.43,70.56Z"/><path class="cls-2" d="M163.06,70.16v.51h-3.88v-.4l3-3.61h-2.94v-.52H163v.41l-3,3.61Z"/><path class="cls-2" d="M168.34,66.14,166,71.21a2.27,2.27,0,0,1-.67.91,1.56,1.56,0,0,1-.92.27,1.91,1.91,0,0,1-.64-.11,1.36,1.36,0,0,1-.52-.31l.3-.45a1.21,1.21,0,0,0,.87.34,1,1,0,0,0,.56-.17,1.61,1.61,0,0,0,.43-.59l.21-.44-2.13-4.52h.67L165.91,70l1.8-3.85Z"/><path class="cls-2" d="M170,70.42a2.15,2.15,0,0,1-.87-.82,2.19,2.19,0,0,1-.32-1.19,2.23,2.23,0,0,1,1.19-2,2.9,2.9,0,0,1,2.37-.07,1.84,1.84,0,0,1,.76.67l-.48.31a1.43,1.43,0,0,0-.59-.5,1.93,1.93,0,0,0-.79-.17,1.88,1.88,0,0,0-.93.22,1.62,1.62,0,0,0-.65.62,1.89,1.89,0,0,0-.23.93,1.82,1.82,0,0,0,.23.92,1.55,1.55,0,0,0,.65.62,1.88,1.88,0,0,0,.93.22A1.92,1.92,0,0,0,172,70a1.43,1.43,0,0,0,.59-.5l.48.31a1.74,1.74,0,0,1-.77.67,2.56,2.56,0,0,1-1.09.22A2.62,2.62,0,0,1,170,70.42Zm1.76-6h.86l-1.47,1.06h-.64Z"/><path class="cls-2" d="M181.08,64.28v6.39h-.61v-.89a2,2,0,0,1-.77.69,2.34,2.34,0,0,1-1.07.24,2.47,2.47,0,0,1-1.22-.29,2.1,2.1,0,0,1-.85-.82,2.46,2.46,0,0,1,0-2.39,2.16,2.16,0,0,1,.85-.82,2.58,2.58,0,0,1,1.22-.28,2.36,2.36,0,0,1,1,.22,2,2,0,0,1,.77.67V64.28ZM179.58,70a1.59,1.59,0,0,0,.64-.62,2,2,0,0,0,0-1.85,1.66,1.66,0,0,0-.64-.62,2,2,0,0,0-1.81,0,1.66,1.66,0,0,0-.64.62,2,2,0,0,0,0,1.85,1.59,1.59,0,0,0,.64.62,2,2,0,0,0,1.81,0Z"/><path class="cls-2" d="M183.59,70.42a2.17,2.17,0,0,1-.87-.83,2.13,2.13,0,0,1-.32-1.18,2.23,2.23,0,0,1,1.19-2,2.8,2.8,0,0,1,2.48,0,2.15,2.15,0,0,1,.87.82,2.25,2.25,0,0,1,.31,1.19,2.21,2.21,0,0,1-.31,1.18,2.17,2.17,0,0,1-.87.83,2.8,2.8,0,0,1-2.48,0Zm2.15-.47a1.51,1.51,0,0,0,.63-.62,2,2,0,0,0,0-1.85,1.57,1.57,0,0,0-.63-.62,2,2,0,0,0-1.82,0,1.66,1.66,0,0,0-.64.62,2,2,0,0,0,0,1.85,1.59,1.59,0,0,0,.64.62,2,2,0,0,0,1.82,0Z"/><path class="cls-2" d="M192.28,64.64v6h-.66V65.19h-1.49v-.55Z"/><path class="cls-2" d="M194.63,69.91a.45.45,0,0,1,.14.33.89.89,0,0,1,0,.22,1.9,1.9,0,0,1-.1.28l-.38,1.19h-.43l.3-1.25a.46.46,0,0,1-.23-.16.48.48,0,0,1,0-.61.48.48,0,0,1,.35-.13A.45.45,0,0,1,194.63,69.91Z"/><path class="cls-2" d="M199.39,67.58A1.56,1.56,0,0,1,200,68.9a1.68,1.68,0,0,1-1,1.59,3.2,3.2,0,0,1-1.27.23,4,4,0,0,1-1.3-.21,2.8,2.8,0,0,1-1-.56l.32-.49a2.48,2.48,0,0,0,.83.5,3.18,3.18,0,0,0,1.12.2,2,2,0,0,0,1.22-.34,1.1,1.1,0,0,0,.43-.9,1.06,1.06,0,0,0-.49-.94,3.14,3.14,0,0,0-1.63-.31h-1.36l.33-3h3.47v.55h-2.9l-.22,1.92h.82A3.42,3.42,0,0,1,199.39,67.58Z"/><path class="cls-2" d="M208.06,66.14v4a2.22,2.22,0,0,1-.59,1.71,2.54,2.54,0,0,1-1.79.56,4.37,4.37,0,0,1-1.26-.19,2.58,2.58,0,0,1-1-.51l.32-.47a2.43,2.43,0,0,0,.84.46,3.28,3.28,0,0,0,1,.16,1.86,1.86,0,0,0,1.33-.4,1.6,1.6,0,0,0,.43-1.24v-.58a1.92,1.92,0,0,1-.78.66,2.74,2.74,0,0,1-1.08.22,2.61,2.61,0,0,1-1.22-.28,2.24,2.24,0,0,1-.86-.78,2.13,2.13,0,0,1-.31-1.15,2.06,2.06,0,0,1,.31-1.13,2.1,2.1,0,0,1,.86-.78,2.7,2.7,0,0,1,1.22-.27,2.46,2.46,0,0,1,1.1.23,1.91,1.91,0,0,1,.79.67v-.87Zm-1.5,3.61a1.61,1.61,0,0,0,.65-.59,1.69,1.69,0,0,0,.23-.87,1.56,1.56,0,0,0-.88-1.44,2,2,0,0,0-.94-.21,2,2,0,0,0-.92.21,1.52,1.52,0,0,0-.65.58,1.74,1.74,0,0,0,0,1.73,1.61,1.61,0,0,0,.65.59,2,2,0,0,0,.92.21A2.06,2.06,0,0,0,206.56,69.75Z"/><path class="cls-2" d="M209.59,70.58a.48.48,0,0,1-.14-.34.45.45,0,0,1,.14-.33.48.48,0,0,1,.34-.13.49.49,0,0,1,.35.13.45.45,0,0,1,.14.33.48.48,0,0,1-.14.34.49.49,0,0,1-.35.13A.48.48,0,0,1,209.59,70.58Z"/></svg>