<svg id="Warstwa_1" data-name="Warstwa 1" xmlns="http://www.w3.org/2000/svg" viewBox="0 0 468.03 264.29"><defs><style>.cls-1{fill:#174283;}.cls-2{fill:#cd181d;}</style></defs><title>napisy_na_3_strone</title><path class="cls-1" d="M42.63,42.6h4.45l-5.5,6.58,6,7.3H42.92l-4.69-6v6h-3.6V42.6h3.6v5.72Z"/><path class="cls-1" d="M58.76,47.05v9.43H55.43v-1a3.38,3.38,0,0,1-2.91,1.35,5,5,0,0,1,0-10A3.78,3.78,0,0,1,55.43,48v-.92Zm-7.53,4.69a2.16,2.16,0,0,0,2.16,2.18,2.16,2.16,0,0,0,0-4.31A2.16,2.16,0,0,0,51.23,51.74Z"/><path class="cls-1" d="M64.36,47.05v1.54a3.34,3.34,0,0,1,3.1-1.68c.17,0,.34,0,.65,0v3.18a2.7,2.7,0,0,0-1.42-.35c-1.56,0-2.33.9-2.33,2.67v4H61V47.05Z"/><path class="cls-1" d="M72.94,48a3.78,3.78,0,0,1,2.94-1.23,5,5,0,0,1,0,10,3.47,3.47,0,0,1-2.91-1.35v1H69.61V41.23h3.33Zm-.1,3.79A2.16,2.16,0,1,0,75,49.61,2.16,2.16,0,0,0,72.84,51.76Z"/><path class="cls-1" d="M93.49,51.76c0,3-2.35,5.08-5.73,5.08s-5.62-2.13-5.62-5.16c0-2.86,2.42-5,5.67-5S93.49,48.8,93.49,51.76Zm-7.83,0a2.16,2.16,0,1,0,2.15-2.15A2.17,2.17,0,0,0,85.66,51.72Z"/><path class="cls-1" d="M102.52,50.11a2.89,2.89,0,0,0-1.72-.58,2.27,2.27,0,1,0,0,4.54,2.62,2.62,0,0,0,1.72-.63v2.83a5.47,5.47,0,0,1-2.33.52,5,5,0,1,1,.09-10,4.59,4.59,0,0,1,2.24.52Z"/><path class="cls-1" d="M103.28,47.05h3.87l2.52,4.83,2.45-4.83h3.81l-7.57,14.16h-3.73l3.2-6Z"/><path class="cls-1" d="M123,49.49a4,4,0,0,0-1.81-.46c-.58,0-1,.29-1,.67s.25.54,1.5.81c1.85.37,2.75,1.27,2.75,2.79,0,2.14-1.77,3.54-4.5,3.54a7.23,7.23,0,0,1-3.77-1.09l1.21-2.35a5.18,5.18,0,0,0,2.66,1c.61,0,1-.31,1-.73s-.29-.62-1.41-.87c-2-.42-2.77-1.15-2.77-2.63,0-2.1,1.6-3.41,4.21-3.41a7.29,7.29,0,0,1,3,.6Z"/><path class="cls-1" d="M130.05,56.48h-3.33V49.82h-1.1V47.05h1.1V44.22h3.33v2.83h1.89v2.77h-1.89Z"/><path class="cls-1" d="M136.34,52.38c0,1.42.68,2.13,2,2.13a1.67,1.67,0,0,0,1.64-.9h3.2a3.79,3.79,0,0,1-.83,1.67,5.26,5.26,0,0,1-4,1.58c-3.27,0-5.4-2-5.4-5s2-5.06,5.25-5.06,5.14,2,5.14,5.27v.33Zm3.91-1.93a1.92,1.92,0,0,0-2-1.52,1.76,1.76,0,0,0-1.87,1.52Z"/><path class="cls-1" d="M148.79,43.43a1.88,1.88,0,1,1-3.75,0,1.88,1.88,0,0,1,3.75,0Zm-.21,13h-3.33V47.05h3.33Z"/><path class="cls-1" d="M154.18,47.05v1.19a3.46,3.46,0,0,1,3-1.39,3.51,3.51,0,0,1,2.72,1,3.13,3.13,0,0,1,.88,2.6v6h-3.33V51.72c0-1,0-1.15-.21-1.5a1.46,1.46,0,0,0-1.33-.73,1.94,1.94,0,0,0-1.4.62,2,2,0,0,0-.35,1.32v5h-3.33V47.05Z"/><path class="cls-1" d="M173.7,47.05v9.43h-3.33v-1a3.37,3.37,0,0,1-2.91,1.35,5,5,0,0,1,0-10A3.76,3.76,0,0,1,170.37,48v-.92Zm-7.53,4.69a2.17,2.17,0,0,0,2.16,2.18,2.16,2.16,0,1,0,0-4.31A2.17,2.17,0,0,0,166.17,51.74Z"/><path class="cls-1" d="M190,52.2a4.57,4.57,0,1,1-9.14-.09,4.57,4.57,0,0,1,9.14.09Zm-7.62-.05a3.05,3.05,0,1,0,3-3.14A3,3,0,0,0,182.41,52.15Z"/><path class="cls-1" d="M195.84,49.86a1.33,1.33,0,0,0-1.21-.85,1,1,0,0,0-1,1c0,.5.29.77,1.39,1.23a7,7,0,0,1,1.65.83,2.26,2.26,0,0,1,1,1.89,2.85,2.85,0,0,1-3,2.81,3.07,3.07,0,0,1-3-2.2l1.31-.54c.48,1,.94,1.39,1.73,1.39A1.36,1.36,0,0,0,196.07,54c0-.65-.32-1-1.4-1.42-2-.85-2.5-1.37-2.5-2.52a2.42,2.42,0,0,1,2.52-2.41,2.53,2.53,0,0,1,2.38,1.56Z"/><path class="cls-1" d="M201.4,44.58a1.07,1.07,0,1,1-2.13,0,1.07,1.07,0,0,1,2.13,0Zm-.34,11.9h-1.47V47.85h1.47Z"/><path class="cls-1" d="M212,56.48c-1,.73-1.48,1.29-1.48,1.83a.77.77,0,0,0,.79.77,2.27,2.27,0,0,0,1.07-.29l-.19,1.15a2.13,2.13,0,0,1-1.1.29,1.73,1.73,0,0,1-1.81-1.65c0-.72.51-1.41,1.56-2.1h-.32v-1.2a3.66,3.66,0,0,1-3,1.45c-2.4,0-4.17-1.93-4.17-4.6a4.19,4.19,0,0,1,4.13-4.49,3.66,3.66,0,0,1,3,1.43V47.85H212Zm-7.1-4.37c0,1.9,1.19,3.27,2.83,3.27a2.94,2.94,0,0,0,2.9-3.23A2.91,2.91,0,0,0,207.75,49,2.94,2.94,0,0,0,204.89,52.11Z"/><path class="cls-1" d="M222.9,56.3a5.11,5.11,0,0,1-.83,3.39,4.17,4.17,0,0,1-3.44,1.6,3.88,3.88,0,0,1-4.2-3.95h1.46a2.84,2.84,0,0,0,.41,1.45,2.78,2.78,0,0,0,2.36,1.15c1.81,0,2.76-1.17,2.76-3.39V55.28a3.94,3.94,0,0,1-3.06,1.43,4.24,4.24,0,0,1-4.1-4.51,4.27,4.27,0,0,1,4.19-4.56,3.67,3.67,0,0,1,3,1.43V47.85h1.48Zm-7.12-4.13a2.87,2.87,0,1,0,5.71,0,2.87,2.87,0,1,0-5.71,0Z"/><path class="cls-1" d="M233.83,47.85v8.63h-1.48v-1.2a3.66,3.66,0,0,1-3,1.45c-2.4,0-4.17-1.93-4.17-4.6a4.19,4.19,0,0,1,4.13-4.49,3.66,3.66,0,0,1,3,1.43V47.85Zm-7.1,4.26c0,1.9,1.19,3.27,2.83,3.27a2.94,2.94,0,0,0,2.9-3.23A2.91,2.91,0,0,0,229.59,49,2.94,2.94,0,0,0,226.73,52.11Z"/><path class="cls-1" d="M244.93,47.05v1.17A4,4,0,0,1,248,46.91a3.39,3.39,0,0,1,3.18,1.75,3.6,3.6,0,0,1,3.21-1.77A3.24,3.24,0,0,1,257,48.16a3.77,3.77,0,0,1,.52,2.2v6.12h-3.33V51.82a3.13,3.13,0,0,0-.18-1.5,1.28,1.28,0,0,0-1.21-.83,1.58,1.58,0,0,0-1.38.87,3.4,3.4,0,0,0-.22,1.46v4.66h-3.33V51.82a3.5,3.5,0,0,0-.15-1.5,1.42,1.42,0,0,0-1.29-.89,1.58,1.58,0,0,0-1.31.79,3.51,3.51,0,0,0-.23,1.6v4.66H241.6V47.05Z"/><path class="cls-1" d="M270.49,47.05v9.43h-3.33v-1a3.37,3.37,0,0,1-2.91,1.35,5,5,0,0,1,0-10A3.76,3.76,0,0,1,267.16,48v-.92ZM263,51.74a2.17,2.17,0,0,0,2.16,2.18,2.16,2.16,0,1,0,0-4.31A2.17,2.17,0,0,0,263,51.74Z"/><path class="cls-1" d="M276.1,50.45l3.49-3.4h4.56l-4.72,4.35,5,5.08h-4.68l-3.66-3.83v3.83h-3.33V41.23h3.33Z"/><path class="cls-1" d="M291.88,49.49a4.08,4.08,0,0,0-1.81-.46c-.59,0-1,.29-1,.67s.25.54,1.49.81c1.86.37,2.75,1.27,2.75,2.79,0,2.14-1.77,3.54-4.49,3.54A7.23,7.23,0,0,1,285,55.75l1.21-2.35a5.18,5.18,0,0,0,2.66,1c.6,0,1-.31,1-.73s-.29-.62-1.41-.87c-2-.42-2.77-1.15-2.77-2.63,0-2.1,1.6-3.41,4.2-3.41a7.3,7.3,0,0,1,3,.6Z"/><path class="cls-1" d="M293.84,47.05h3.87l2.52,4.83,2.45-4.83h3.81l-7.58,14.16h-3.72l3.2-6Z"/><path class="cls-1" d="M311,47.05v1.17A4,4,0,0,1,314,46.91a3.39,3.39,0,0,1,3.18,1.75,3.6,3.6,0,0,1,3.21-1.77,3.24,3.24,0,0,1,2.66,1.27,3.77,3.77,0,0,1,.52,2.2v6.12h-3.33V51.82a3.13,3.13,0,0,0-.18-1.5,1.28,1.28,0,0,0-1.21-.83,1.58,1.58,0,0,0-1.38.87,3.4,3.4,0,0,0-.22,1.46v4.66H314V51.82a3.5,3.5,0,0,0-.15-1.5,1.42,1.42,0,0,0-1.29-.89,1.58,1.58,0,0,0-1.31.79,3.51,3.51,0,0,0-.23,1.6v4.66h-3.33V47.05Z"/><path class="cls-1" d="M336.53,47.05v9.43H333.2v-1a3.37,3.37,0,0,1-2.91,1.35,5,5,0,0,1,0-10A3.76,3.76,0,0,1,333.2,48v-.92ZM329,51.74a2.17,2.17,0,0,0,2.16,2.18,2.16,2.16,0,1,0,0-4.31A2.17,2.17,0,0,0,329,51.74Z"/><path class="cls-1" d="M342.14,56.48h-3.33V41.23h3.33Z"/><path class="cls-1" d="M347.74,47.05v1.19a3.46,3.46,0,0,1,3-1.39,3.51,3.51,0,0,1,2.73,1,3.13,3.13,0,0,1,.88,2.6v6H351V51.72c0-1,0-1.15-.21-1.5a1.46,1.46,0,0,0-1.33-.73,1.91,1.91,0,0,0-1.4.62,2,2,0,0,0-.35,1.32v5h-3.33V47.05Z"/><path class="cls-1" d="M359.63,52.38c0,1.42.68,2.13,2,2.13a1.67,1.67,0,0,0,1.64-.9h3.2a3.79,3.79,0,0,1-.83,1.67,5.26,5.26,0,0,1-4,1.58c-3.27,0-5.4-2-5.4-5s2-5.06,5.25-5.06,5.14,2,5.14,5.27v.33Zm3.91-1.93a1.92,1.92,0,0,0-2-1.52,1.76,1.76,0,0,0-1.87,1.52Z"/><path class="cls-1" d="M380,49.49A4.08,4.08,0,0,0,378.2,49c-.59,0-1,.29-1,.67s.25.54,1.49.81c1.86.37,2.75,1.27,2.75,2.79,0,2.14-1.77,3.54-4.49,3.54a7.2,7.2,0,0,1-3.77-1.09l1.21-2.35a5.18,5.18,0,0,0,2.66,1c.6,0,1-.31,1-.73s-.29-.62-1.41-.87c-2-.42-2.77-1.15-2.77-2.63,0-2.1,1.6-3.41,4.2-3.41a7.3,7.3,0,0,1,3,.6Z"/><path class="cls-1" d="M387.07,56.48h-3.33V49.82h-1.11V47.05h1.11V44.22h3.33v2.83H389v2.77h-1.89Z"/><path class="cls-1" d="M393.37,52.38c0,1.42.69,2.13,2,2.13a1.68,1.68,0,0,0,1.65-.9h3.2a4,4,0,0,1-2.5,2.85c-1.08.5-1.41.83-1.41,1.42a.8.8,0,0,0,.81.83,2.16,2.16,0,0,0,1-.35l-.44,1.76a2.85,2.85,0,0,1-1.47.38,1.78,1.78,0,0,1-1.86-1.67,2.54,2.54,0,0,1,1.07-2,6.22,6.22,0,0,1-2.38-.38,4.74,4.74,0,0,1-3.1-4.62c0-3.12,2-5.08,5.25-5.08s5.14,2,5.14,5.27v.33Zm3.92-1.93a1.92,1.92,0,0,0-2-1.52,1.76,1.76,0,0,0-1.87,1.52Z"/><path class="cls-1" d="M411.11,53.71v2.77h-9.55L406,49.82h-3.85V47.05h9.39l-4.41,6.66Zm-2.52-10a1.9,1.9,0,1,1-1.89-1.89A1.9,1.9,0,0,1,408.59,43.7Z"/><path class="cls-1" d="M416.15,52.38c0,1.42.69,2.13,2,2.13a1.66,1.66,0,0,0,1.64-.9H423a4,4,0,0,1-.83,1.67,5.28,5.28,0,0,1-4,1.58c-3.27,0-5.39-2-5.39-5s2-5.06,5.24-5.06,5.14,2,5.14,5.27v.33Zm3.91-1.93a1.91,1.91,0,0,0-1.95-1.52,1.77,1.77,0,0,0-1.88,1.52Z"/><path class="cls-1" d="M428.39,47.05v1.19a3.49,3.49,0,0,1,3-1.39,3.53,3.53,0,0,1,2.73,1,3.16,3.16,0,0,1,.87,2.6v6h-3.33V51.72c0-1,0-1.15-.21-1.5a1.46,1.46,0,0,0-1.33-.73,1.9,1.9,0,0,0-1.39.62,2,2,0,0,0-.36,1.32v5h-3.33V47.05Z"/><path class="cls-1" d="M440.82,43.43A1.87,1.87,0,1,1,439,41.56,1.86,1.86,0,0,1,440.82,43.43Zm-.21,13h-3.33V47.05h3.33Z"/><path class="cls-1" d="M445.88,52.38c0,1.42.69,2.13,2,2.13a1.66,1.66,0,0,0,1.64-.9h3.21a4,4,0,0,1-.83,1.67,5.28,5.28,0,0,1-4,1.58c-3.27,0-5.39-2-5.39-5s2-5.06,5.24-5.06,5.15,2,5.15,5.27v.33Zm3.91-1.93a1.9,1.9,0,0,0-2-1.52A1.77,1.77,0,0,0,446,50.45Z"/><path class="cls-1" d="M37.57,89.46,40.27,83,43,89.46l2.58-5.85H47.2l-4.28,9.24-2.67-6.43-2.66,6.43-4.25-9.24H35Z"/><path class="cls-1" d="M57,89.46,59.68,83l2.68,6.51,2.58-5.85h1.67l-4.29,9.24-2.66-6.43L57,92.85l-4.24-9.24h1.66Z"/><path class="cls-1" d="M67,83.61h1.7l3.06,6.18,2.79-6.18h1.69L69.8,97.12H68.13l2.79-5.68Z"/><path class="cls-1" d="M85.85,77.08V92.25h-1.5V91.06a3.58,3.58,0,0,1-3,1.44c-2.37,0-4.14-1.94-4.14-4.58a4.19,4.19,0,0,1,4.12-4.49,3.73,3.73,0,0,1,3,1.41V77.08Zm-7.1,10.8a3,3,0,0,0,2.83,3.27c1.73,0,2.87-1.29,2.87-3.23a2.94,2.94,0,0,0-.87-2.35,3,3,0,0,0-2-.79A2.93,2.93,0,0,0,78.75,87.88Z"/><path class="cls-1" d="M96.38,90.88v1.37H87.43L93.7,85H88.6V83.61h8.05l-6.22,7.27Z"/><path class="cls-1" d="M100.07,80.35A1.06,1.06,0,1,1,99,79.28,1.07,1.07,0,0,1,100.07,80.35Zm-.33,11.9H98.26V83.61h1.48Z"/><path class="cls-1" d="M103.59,88.23a2.76,2.76,0,0,0,2.74,2.92c1.15,0,1.84-.48,2.67-1.81l1.25.7a4.28,4.28,0,0,1-4,2.46A4.19,4.19,0,0,1,102,88c0-2.68,1.7-4.55,4.18-4.55s4.12,1.81,4.12,4.55v.25ZM108.77,87a2.58,2.58,0,0,0-2.54-2.22A2.62,2.62,0,0,0,103.69,87Z"/><path class="cls-1" d="M114.08,92.25H112.6V77.08h1.48Z"/><path class="cls-1" d="M118.72,80.35a1.06,1.06,0,1,1-1.06-1.07A1.07,1.07,0,0,1,118.72,80.35Zm-.33,11.9h-1.48V83.61h1.48Z"/><path class="cls-1" d="M122.72,83.61v1a2.88,2.88,0,0,1,2.5-1.25,2.93,2.93,0,0,1,2.47,1.19,4.1,4.1,0,0,1,.48,2.31v5.35H126.7v-5.1a2.9,2.9,0,0,0-.3-1.68,1.74,1.74,0,0,0-1.54-.71c-1.5,0-2.14,1-2.14,3.18v4.31h-1.48V83.61Z"/><path class="cls-1" d="M132.82,80.35a1.07,1.07,0,1,1-1.06-1.07A1.07,1.07,0,0,1,132.82,80.35Zm-.34,11.9H131V83.61h1.47Z"/><path class="cls-1" d="M136.34,88.23a2.76,2.76,0,0,0,2.74,2.92c1.15,0,1.83-.48,2.67-1.81L143,90a4.28,4.28,0,0,1-4,2.46A4.19,4.19,0,0,1,134.78,88c0-2.68,1.7-4.55,4.18-4.55s4.12,1.81,4.12,4.55v.25ZM141.52,87A2.58,2.58,0,0,0,139,84.76,2.62,2.62,0,0,0,136.44,87Z"/><path class="cls-1" d="M158.63,77.08V92.25h-1.5V91.06a3.55,3.55,0,0,1-3,1.44c-2.38,0-4.14-1.94-4.14-4.58a4.18,4.18,0,0,1,4.12-4.49,3.72,3.72,0,0,1,3,1.41V77.08Zm-7.1,10.8a3,3,0,0,0,2.83,3.27c1.73,0,2.88-1.29,2.88-3.23a2.91,2.91,0,0,0-.88-2.35,3,3,0,0,0-2-.79A2.93,2.93,0,0,0,151.53,87.88Z"/><path class="cls-1" d="M162.94,83.61v.94c.77-.92,1.15-1.15,2-1.15a2.36,2.36,0,0,1,1.31.38l-.69,1.33a1.43,1.43,0,0,0-.87-.29,1.57,1.57,0,0,0-1.37.79,4.41,4.41,0,0,0-.34,2.08v4.56h-1.47V83.61Z"/><path class="cls-1" d="M175.85,88a4.57,4.57,0,1,1-4.56-4.53A4.5,4.5,0,0,1,175.85,88Zm-7.62,0a3.05,3.05,0,1,0,3-3.14A3,3,0,0,0,168.23,87.92Zm2.94-5.81-.92-.52,2.19-3,1.54.68Z"/><path class="cls-1" d="M186.2,92.06a5.07,5.07,0,0,1-.84,3.4,4.15,4.15,0,0,1-3.43,1.6,3.88,3.88,0,0,1-4.2-4h1.45a2.88,2.88,0,0,0,.42,1.46A2.77,2.77,0,0,0,182,95.71c1.81,0,2.77-1.17,2.77-3.4V91a3.92,3.92,0,0,1-3.06,1.44,4.56,4.56,0,0,1,.08-9.08,3.68,3.68,0,0,1,3,1.44V83.61h1.48Zm-7.12-4.12a2.89,2.89,0,0,0,2.81,3.19,3.21,3.21,0,1,0-2.81-3.19Z"/><path class="cls-1" d="M202.83,88a4.57,4.57,0,1,1-4.56-4.53A4.5,4.5,0,0,1,202.83,88Zm-7.62,0a3.05,3.05,0,1,0,3-3.14A3,3,0,0,0,195.21,87.92Z"/><path class="cls-1" d="M213.18,77.08V92.25h-1.5V91.06a3.58,3.58,0,0,1-3,1.44c-2.37,0-4.14-1.94-4.14-4.58a4.19,4.19,0,0,1,4.12-4.49,3.73,3.73,0,0,1,3,1.41V77.08Zm-7.1,10.8a3,3,0,0,0,2.83,3.27c1.73,0,2.87-1.29,2.87-3.23a2.94,2.94,0,0,0-.87-2.35,3,3,0,0,0-2-.79A2.93,2.93,0,0,0,206.08,87.88Z"/><path class="cls-1" d="M224.09,77.08V92.25h-1.5V91.06a3.58,3.58,0,0,1-3,1.44c-2.37,0-4.14-1.94-4.14-4.58a4.19,4.19,0,0,1,4.12-4.49,3.73,3.73,0,0,1,3,1.41V77.08ZM217,87.88a3,3,0,0,0,2.83,3.27c1.73,0,2.87-1.29,2.87-3.23a2.94,2.94,0,0,0-.87-2.35,3,3,0,0,0-2-.79A2.93,2.93,0,0,0,217,87.88Z"/><path class="cls-1" d="M227.92,88.23a2.77,2.77,0,0,0,2.75,2.92c1.14,0,1.83-.48,2.66-1.81l1.25.7a4.28,4.28,0,0,1-4,2.46A4.2,4.2,0,0,1,226.36,88c0-2.68,1.71-4.55,4.18-4.55s4.12,1.81,4.12,4.55v.25ZM233.1,87a2.58,2.58,0,0,0-2.54-2.22A2.61,2.61,0,0,0,228,87Z"/><path class="cls-1" d="M243.66,86.19a3.37,3.37,0,0,0-2.73-1.41,3.19,3.19,0,0,0,0,6.37,3.48,3.48,0,0,0,2.81-1.5v2a4.72,4.72,0,0,1-2.77.89,4.54,4.54,0,1,1,2.71-8.26Z"/><path class="cls-1" d="M247.47,77.08v7.55a3.17,3.17,0,0,1,4.95,0,3.85,3.85,0,0,1,.5,2.29v5.35h-1.47V87c0-1.59-.52-2.23-1.79-2.23a1.93,1.93,0,0,0-1.84,1,4.68,4.68,0,0,0-.35,2.14v4.31H246V77.08Z"/><path class="cls-1" d="M264.33,88a4.57,4.57,0,1,1-4.55-4.53A4.5,4.5,0,0,1,264.33,88Zm-7.61,0a3,3,0,1,0,3-3.14A3,3,0,0,0,256.72,87.92Z"/><path class="cls-1" d="M269.29,89.46,272,83l2.68,6.51,2.58-5.85h1.67l-4.29,9.24L272,86.42l-2.66,6.43-4.24-9.24h1.66Z"/><path class="cls-1" d="M279.26,83.61H281L284,89.79l2.79-6.18h1.68l-6.39,13.51h-1.66l2.79-5.68Z"/><path class="cls-1" d="M296.44,86.19a3.37,3.37,0,0,0-2.73-1.41,3.19,3.19,0,0,0,0,6.37,3.48,3.48,0,0,0,2.81-1.5v2a4.72,4.72,0,0,1-2.77.89,4.54,4.54,0,1,1,2.71-8.26Z"/><path class="cls-1" d="M300.25,77.08v7.55a3.17,3.17,0,0,1,4.95,0,3.85,3.85,0,0,1,.5,2.29v5.35h-1.48V87c0-1.59-.52-2.23-1.79-2.23a1.91,1.91,0,0,0-1.83,1,4.68,4.68,0,0,0-.35,2.14v4.31h-1.48V77.08Z"/><path class="cls-1" d="M317,79.2a1.88,1.88,0,1,1-1.88-1.87A1.86,1.86,0,0,1,317,79.2ZM316.8,97h-3.33V82.82h3.33Z"/><path class="cls-1" d="M322.4,88.17a1.7,1.7,0,1,0,3.39,0V82.82h3.33v6c0,2.49-1.75,3.83-5,3.83s-5-1.34-5-3.83v-6h3.33Z"/><path class="cls-1" d="M340.22,89.48v2.77h-9.55l4.45-6.66h-3.85V82.82h9.39l-4.42,6.66Zm-2.52-10a1.9,1.9,0,1,1-1.89-1.89A1.89,1.89,0,0,1,337.7,79.47Z"/><path class="cls-1" d="M347.45,97V82.82h3.33v1a3.4,3.4,0,0,1,2.91-1.35,4.85,4.85,0,0,1,4.77,5.06,4.8,4.8,0,0,1-4.75,5,3.73,3.73,0,0,1-2.93-1.23V97Zm3.22-9.44a2.16,2.16,0,1,0,2.15-2.15A2.18,2.18,0,0,0,350.67,87.53Z"/><path class="cls-1" d="M371.32,87.53c0,3-2.35,5.07-5.72,5.07S360,90.48,360,87.44c0-2.85,2.42-5,5.66-5S371.32,84.57,371.32,87.53Zm-7.82,0a2.16,2.16,0,1,0,2.14-2.14A2.17,2.17,0,0,0,363.5,87.48Z"/><path class="cls-1" d="M389,89.19v3.06H377.84l3.52-3.68A29,29,0,0,0,384.23,85a4.32,4.32,0,0,0,.86-2.4,1.72,1.72,0,0,0-1.6-1.79A1.54,1.54,0,0,0,382,82.55c0,.15,0,.29,0,.58h-4a5.73,5.73,0,0,1,.71-2.76,5,5,0,0,1,4.66-2.58c3.15,0,5.37,2.08,5.37,5A5.52,5.52,0,0,1,386.77,87l-2.33,2.16Z"/><path class="cls-1" d="M394.27,77v7a3.48,3.48,0,0,1,3-1.4,3.54,3.54,0,0,1,2.72,1,3.16,3.16,0,0,1,.88,2.61v6h-3.33V87.48c0-1,0-1.14-.21-1.49a1.46,1.46,0,0,0-1.33-.73,1.94,1.94,0,0,0-1.4.62,2,2,0,0,0-.35,1.31v5.06h-3.33V77Z"/><path class="cls-1" d="M43.17,123.73a4.57,4.57,0,1,1-4.56-4.54A4.5,4.5,0,0,1,43.17,123.73Zm-7.62,0a3.05,3.05,0,1,0,3-3.14A3,3,0,0,0,35.55,123.69Z"/><path class="cls-1" d="M53.51,112.85V128H52v-1.19a3.58,3.58,0,0,1-3,1.44c-2.37,0-4.14-1.94-4.14-4.58a4.19,4.19,0,0,1,4.12-4.5,3.75,3.75,0,0,1,3,1.42v-7.76Zm-7.09,10.8c0,1.89,1.18,3.27,2.83,3.27s2.87-1.29,2.87-3.23a2.94,2.94,0,0,0-.87-2.35,3,3,0,0,0-2-.79A2.93,2.93,0,0,0,46.42,123.65Z"/><path class="cls-1" d="M61.55,132.89V119.38H63v1.23a3.62,3.62,0,0,1,3-1.44,4.26,4.26,0,0,1,4.16,4.58,4.21,4.21,0,0,1-4.12,4.52,3.66,3.66,0,0,1-3-1.46v6.08Zm1.38-9.14a2.87,2.87,0,1,0,5.72,0,2.88,2.88,0,1,0-5.72,0Z"/><path class="cls-1" d="M81,123.73a4.57,4.57,0,1,1-4.56-4.54A4.5,4.5,0,0,1,81,123.73Zm-7.62,0a3.05,3.05,0,1,0,3-3.14A3,3,0,0,0,73.42,123.69Z"/><path class="cls-1" d="M91.38,112.85V128H89.89v-1.19a3.58,3.58,0,0,1-3,1.44c-2.37,0-4.14-1.94-4.14-4.58a4.19,4.19,0,0,1,4.12-4.5,3.75,3.75,0,0,1,3,1.42v-7.76Zm-7.09,10.8c0,1.89,1.18,3.27,2.83,3.27S90,125.63,90,123.69a2.94,2.94,0,0,0-.87-2.35,3,3,0,0,0-2-.79A2.93,2.93,0,0,0,84.29,123.65Z"/><path class="cls-1" d="M102.29,119.38V128h-1.47v-1.21a3.66,3.66,0,0,1-3,1.46c-2.39,0-4.16-1.94-4.16-4.6a4.19,4.19,0,0,1,4.12-4.5,3.69,3.69,0,0,1,3,1.44v-1.23Zm-7.09,4.27c0,1.89,1.18,3.27,2.83,3.27a3,3,0,0,0,2.89-3.23,2.91,2.91,0,0,0-2.87-3.16A2.94,2.94,0,0,0,95.2,123.65Z"/><path class="cls-1" d="M106.61,119.38v1a2.87,2.87,0,0,1,2.49-1.25,3,3,0,0,1,2.48,1.19,4.19,4.19,0,0,1,.48,2.31V128h-1.48v-5.1a3,3,0,0,0-.29-1.69,1.76,1.76,0,0,0-1.54-.7c-1.5,0-2.14,1-2.14,3.18V128h-1.48v-8.64Z"/><path class="cls-1" d="M116.7,116.11a1.06,1.06,0,1,1-1.06-1.06A1.07,1.07,0,0,1,116.7,116.11ZM116.37,128h-1.48v-8.64h1.48Z"/><path class="cls-1" d="M127.3,119.38V128h-1.48v-1.21a3.64,3.64,0,0,1-3,1.46c-2.39,0-4.16-1.94-4.16-4.6a4.19,4.19,0,0,1,4.12-4.5,3.67,3.67,0,0,1,3,1.44v-1.23Zm-7.1,4.27a2.89,2.89,0,1,0,5.73,0,2.88,2.88,0,1,0-5.73,0Z"/><path class="cls-1" d="M131.51,112.55a15.23,15.23,0,0,0,0,10.37l-.78.35a15.7,15.7,0,0,1,0-11.08Z"/><path class="cls-1" d="M133.17,113.83V113h6l-5.43,8.29-.7-.47,4.59-7Z"/><path class="cls-1" d="M139.93,122.92a15.23,15.23,0,0,0,0-10.37l.77-.36a15.55,15.55,0,0,1,0,11.08Z"/><path class="cls-1" d="M42.46,172.37h2.08L38,178.84l6.72,7.41H42.63l-5.69-6.37-.39.39v6H35V172.37h1.56v5.95Z"/><path class="cls-1" d="M53.91,177.61v8.64H52.43V185a3.64,3.64,0,0,1-3,1.46c-2.4,0-4.17-1.94-4.17-4.6a4.19,4.19,0,0,1,4.12-4.5,3.67,3.67,0,0,1,3,1.44v-1.23Zm-7.1,4.27a2.89,2.89,0,1,0,5.73,0,2.88,2.88,0,1,0-5.73,0Z"/><path class="cls-1" d="M58.22,177.61v.94c.77-.92,1.15-1.15,2-1.15a2.36,2.36,0,0,1,1.31.38l-.69,1.33a1.43,1.43,0,0,0-.87-.29,1.58,1.58,0,0,0-1.38.79,4.57,4.57,0,0,0-.33,2.08v4.56H56.74v-8.64Z"/><path class="cls-1" d="M64.51,178.84a3.74,3.74,0,0,1,3-1.42,4.19,4.19,0,0,1,4.12,4.5,4.26,4.26,0,0,1-4.16,4.58,3.65,3.65,0,0,1-3-1.44v1.19H63V171.07h1.48Zm-.11,3.1a2.88,2.88,0,1,0,2.9-3.16A2.9,2.9,0,0,0,64.4,181.94Z"/><path class="cls-1" d="M82.52,182A4.57,4.57,0,1,1,78,177.42,4.5,4.5,0,0,1,82.52,182Zm-7.62,0a3.05,3.05,0,1,0,3-3.14A3,3,0,0,0,74.9,181.92Z"/><path class="cls-1" d="M91.51,180.19a3.37,3.37,0,0,0-2.73-1.41,3.18,3.18,0,0,0,0,6.36,3.47,3.47,0,0,0,2.81-1.49v1.95a4.67,4.67,0,0,1-2.77.9,4.54,4.54,0,1,1,2.71-8.26Z"/><path class="cls-1" d="M92.6,177.61h1.7l3.06,6.18,2.79-6.18h1.69l-6.39,13.51H93.78l2.79-5.68Z"/><path class="cls-1" d="M106.75,179.63a1.33,1.33,0,0,0-1.21-.85,1,1,0,0,0-1,.95c0,.5.29.77,1.4,1.23a7.09,7.09,0,0,1,1.64.83,2.26,2.26,0,0,1,1,1.9,2.85,2.85,0,0,1-3,2.81,3.06,3.06,0,0,1-3-2.21l1.31-.54c.48,1,.93,1.39,1.72,1.39a1.35,1.35,0,0,0,1.42-1.37c0-.64-.31-1-1.39-1.41-2-.86-2.5-1.38-2.5-2.52a2.42,2.42,0,0,1,2.52-2.42A2.51,2.51,0,0,1,108,179Z"/><path class="cls-1" d="M112.1,186.25h-1.48V179h-.89v-1.37h.89v-3.12h1.48v3.12h1.54V179H112.1Z"/><path class="cls-1" d="M116.14,182.23a2.76,2.76,0,0,0,2.75,2.91c1.14,0,1.83-.47,2.66-1.81l1.25.71a4.28,4.28,0,0,1-4,2.46,4.2,4.2,0,0,1-4.25-4.52c0-2.68,1.71-4.56,4.18-4.56s4.12,1.81,4.12,4.56v.25Zm5.18-1.25a2.58,2.58,0,0,0-2.54-2.22,2.61,2.61,0,0,0-2.53,2.22Z"/><path class="cls-1" d="M127,174.34a1.07,1.07,0,1,1-1.06-1.06A1.06,1.06,0,0,1,127,174.34Zm-.34,11.91h-1.47v-8.64h1.47Z"/><path class="cls-1" d="M131,177.61v1a2.89,2.89,0,0,1,2.5-1.25,3,3,0,0,1,2.48,1.19,4.19,4.19,0,0,1,.48,2.31v5.35h-1.48v-5.1a3,3,0,0,0-.29-1.69,1.76,1.76,0,0,0-1.54-.7c-1.5,0-2.15,1-2.15,3.18v4.31h-1.47v-8.64Z"/><path class="cls-1" d="M147.33,177.61v8.64h-1.48V185a3.64,3.64,0,0,1-3,1.46c-2.39,0-4.16-1.94-4.16-4.6a4.19,4.19,0,0,1,4.12-4.5,3.69,3.69,0,0,1,3,1.44v-1.23Zm-7.1,4.27a3,3,0,0,0,2.83,3.26,2.93,2.93,0,0,0,2.89-3.22,2.9,2.9,0,0,0-2.87-3.16A2.94,2.94,0,0,0,140.23,181.88Z"/><path class="cls-1" d="M156.84,182.65a3.53,3.53,0,0,0,.27,1.62,1.87,1.87,0,0,0,1.69.87,1.84,1.84,0,0,0,1.66-.87,3.37,3.37,0,0,0,.28-1.62v-5h1.47v5.2a3.44,3.44,0,0,1-.79,2.61,3.74,3.74,0,0,1-5.26,0,3.4,3.4,0,0,1-.8-2.61v-5.2h1.48Z"/><path class="cls-1" d="M165.05,191.12V177.61h1.47v1.23a3.64,3.64,0,0,1,3-1.44,4.26,4.26,0,0,1,4.16,4.58,4.21,4.21,0,0,1-4.12,4.52,3.68,3.68,0,0,1-3-1.46v6.08Zm1.37-9.14a2.88,2.88,0,1,0,2.89-3.22A2.93,2.93,0,0,0,166.42,182Z"/><path class="cls-1" d="M178.77,176.49v1.58l-1.34,1v7.18H176v-6.5l-1.31,1v-1.58l1.31-1v-7.1h1.47v6.42Z"/><path class="cls-1" d="M179,177.61h1.7l3.06,6.18,2.79-6.18h1.69l-6.39,13.51H180.2l2.79-5.68Z"/><path class="cls-1" d="M191.32,177.61v1a2.89,2.89,0,0,1,2.5-1.25,2.93,2.93,0,0,1,2.47,1.19,4.1,4.1,0,0,1,.48,2.31v5.35H195.3v-5.1a2.94,2.94,0,0,0-.3-1.69,1.76,1.76,0,0,0-1.54-.7c-1.49,0-2.14,1-2.14,3.18v4.31h-1.48v-8.64Z"/><path class="cls-1" d="M201.08,177.61v1a2.89,2.89,0,0,1,2.5-1.25,3,3,0,0,1,2.48,1.19,4.19,4.19,0,0,1,.48,2.31v5.35h-1.48v-5.1a3,3,0,0,0-.29-1.69,1.76,1.76,0,0,0-1.54-.7c-1.5,0-2.15,1-2.15,3.18v4.31h-1.47v-8.64Z"/><path class="cls-1" d="M211.18,174.34a1.06,1.06,0,1,1-1.06-1.06A1.06,1.06,0,0,1,211.18,174.34Zm-.33,11.91h-1.48v-8.64h1.48Z"/><path class="cls-1" d="M221.78,177.61v8.64H220.3V185a3.64,3.64,0,0,1-3,1.46c-2.39,0-4.16-1.94-4.16-4.6a4.19,4.19,0,0,1,4.12-4.5,3.67,3.67,0,0,1,3,1.44v-1.23Zm-7.1,4.27a3,3,0,0,0,2.83,3.26,2.93,2.93,0,0,0,2.89-3.22,2.9,2.9,0,0,0-2.87-3.16A2.94,2.94,0,0,0,214.68,181.88Z"/><path class="cls-1" d="M232.79,183.46l2.71-6.52,2.68,6.52,2.58-5.85h1.67l-4.29,9.24-2.66-6.43-2.67,6.43-4.24-9.24h1.66Z"/><path class="cls-1" d="M242.77,177.61h1.7l3.06,6.18,2.79-6.18H252l-6.39,13.51H244l2.79-5.68Z"/><path class="cls-1" d="M261.67,171.07v15.18h-1.5v-1.19a3.58,3.58,0,0,1-3,1.44c-2.37,0-4.14-1.94-4.14-4.58a4.19,4.19,0,0,1,4.12-4.5,3.74,3.74,0,0,1,3,1.42v-7.77Zm-7.1,10.81a3,3,0,0,0,2.83,3.26c1.73,0,2.87-1.29,2.87-3.22a2.94,2.94,0,0,0-.87-2.35,3,3,0,0,0-2-.79A2.93,2.93,0,0,0,254.57,181.88Z"/><path class="cls-1" d="M272.2,184.87v1.38h-8.95l6.27-7.27h-5.1v-1.37h8.05l-6.22,7.26Z"/><path class="cls-1" d="M275.89,174.34a1.06,1.06,0,1,1-1.06-1.06A1.06,1.06,0,0,1,275.89,174.34Zm-.33,11.91h-1.48v-8.64h1.48Z"/><path class="cls-1" d="M279.41,182.23a2.75,2.75,0,0,0,2.74,2.91c1.15,0,1.84-.47,2.67-1.81l1.25.71a4.28,4.28,0,0,1-4,2.46,4.19,4.19,0,0,1-4.24-4.52c0-2.68,1.7-4.56,4.18-4.56s4.12,1.81,4.12,4.56v.25Zm5.18-1.25a2.58,2.58,0,0,0-2.54-2.22,2.62,2.62,0,0,0-2.54,2.22Z"/><path class="cls-1" d="M289.9,186.25h-1.48V171.07h1.48Z"/><path class="cls-1" d="M294.54,174.34a1.06,1.06,0,1,1-1.06-1.06A1.06,1.06,0,0,1,294.54,174.34Zm-.33,11.91h-1.48v-8.64h1.48Z"/><path class="cls-1" d="M298.54,177.61v1a2.89,2.89,0,0,1,2.5-1.25,2.93,2.93,0,0,1,2.47,1.19,4.1,4.1,0,0,1,.48,2.31v5.35h-1.47v-5.1a2.94,2.94,0,0,0-.3-1.69,1.76,1.76,0,0,0-1.54-.7c-1.49,0-2.14,1-2.14,3.18v4.31h-1.48v-8.64Z"/><path class="cls-1" d="M313.38,189.7a2,2,0,0,1-1.1.29,1.74,1.74,0,0,1-1.83-1.7c0-.67.31-1.15,1.21-1.94a3.74,3.74,0,0,1-1.09.15,4.19,4.19,0,0,1-4.3-4.52c0-2.68,1.7-4.56,4.18-4.56s4.12,1.81,4.12,4.56v.25h-6.74a2.75,2.75,0,0,0,2.74,2.91c1.15,0,1.83-.47,2.67-1.81l1.25.71a8.08,8.08,0,0,1-1.48,1.83,4.38,4.38,0,0,0-.94,1.06,2.4,2.4,0,0,0-.39,1.11.83.83,0,0,0,.81.81,2.28,2.28,0,0,0,1.08-.29ZM313,181a2.58,2.58,0,0,0-2.54-2.22,2.62,2.62,0,0,0-2.54,2.22Z"/><path class="cls-1" d="M37.65,213.5a3.77,3.77,0,0,1,2.94-1.22,4.8,4.8,0,0,1,4.74,5,4.85,4.85,0,0,1-4.76,5.06A3.5,3.5,0,0,1,37.65,221v1H34.32V206.76h3.33Zm-.1,3.79a2.16,2.16,0,1,0,2.16-2.14A2.17,2.17,0,0,0,37.55,217.29Z"/><path class="cls-1" d="M50.23,217.92c0,1.41.68,2.12,2,2.12a1.68,1.68,0,0,0,1.64-.89h3.2a3.75,3.75,0,0,1-.83,1.66,5.22,5.22,0,0,1-4,1.58c-3.27,0-5.4-2-5.4-5s2-5.06,5.25-5.06,5.14,2,5.14,5.26v.34ZM54.14,216a1.92,1.92,0,0,0-2-1.52A1.76,1.76,0,0,0,50.31,216Z"/><path class="cls-1" d="M68,219.25V222H58.41l4.45-6.66H59v-2.77H68.4L64,219.25Z"/><path class="cls-1" d="M84,219.25V222H74.46l4.46-6.66H75.07v-2.77h9.38L80,219.25Z"/><path class="cls-1" d="M90.87,217.56l2.37-5h2.08l2.37,5.12,2.38-5.12h3.7L98.84,222H96.59l-2.35-5.16L92,222H89.74l-4.85-9.43h3.73Z"/><path class="cls-1" d="M108.46,209a1.88,1.88,0,1,1-1.87-1.88A1.89,1.89,0,0,1,108.46,209ZM108.25,222h-3.33v-9.43h3.33Z"/><path class="cls-1" d="M113.52,217.92c0,1.41.69,2.12,2,2.12a1.67,1.67,0,0,0,1.64-.89h3.21a4,4,0,0,1-2.5,2.85c-1.08.5-1.42.83-1.42,1.41a.81.81,0,0,0,.82.83,2.19,2.19,0,0,0,1-.35l-.44,1.77a2.9,2.9,0,0,1-1.48.37,1.77,1.77,0,0,1-1.85-1.66,2.55,2.55,0,0,1,1.06-2,6.18,6.18,0,0,1-2.37-.37,4.74,4.74,0,0,1-3.1-4.62c0-3.12,2-5.08,5.24-5.08s5.14,2,5.14,5.26v.34Zm3.91-1.94a1.92,1.92,0,0,0-2-1.52A1.77,1.77,0,0,0,113.6,216Z"/><path class="cls-1" d="M125.76,216l3.5-3.39h4.55l-4.72,4.35,5,5.08h-4.69l-3.66-3.83V222h-3.33V206.76h3.33Z"/><path class="cls-1" d="M141.54,215a4,4,0,0,0-1.81-.45c-.58,0-1,.29-1,.66s.25.54,1.5.81c1.85.38,2.75,1.27,2.75,2.79,0,2.15-1.77,3.54-4.5,3.54a7.21,7.21,0,0,1-3.77-1.08l1.21-2.35a5.25,5.25,0,0,0,2.66.95c.61,0,1-.31,1-.72s-.29-.63-1.41-.88c-2-.41-2.77-1.14-2.77-2.62,0-2.1,1.6-3.41,4.21-3.41a7.14,7.14,0,0,1,3,.6Z"/><path class="cls-1" d="M153.47,219.25V222h-9.55l4.45-6.66h-3.85v-2.77h9.39l-4.42,6.66Z"/><path class="cls-1" d="M166.13,212.59V222H162.8v-1a3.42,3.42,0,0,1-2.92,1.35,4.85,4.85,0,0,1-4.76-5.06,4.8,4.8,0,0,1,4.74-5,3.77,3.77,0,0,1,2.94,1.22v-.91Zm-7.54,4.68a2.17,2.17,0,0,0,2.17,2.19,2.16,2.16,0,1,0-2.17-2.19Z"/><path class="cls-1" d="M171.73,212.59v1.19a4,4,0,0,1,5.74-.36,3.14,3.14,0,0,1,.88,2.6v6H175v-4.77c0-1,0-1.14-.21-1.5a1.48,1.48,0,0,0-1.33-.73,1.91,1.91,0,0,0-1.4.63,2,2,0,0,0-.35,1.31V222H168.4v-9.43Z"/><path class="cls-1" d="M184.16,209a1.88,1.88,0,1,1-1.87-1.88A1.89,1.89,0,0,1,184.16,209ZM184,222h-3.33v-9.43H184Z"/><path class="cls-1" d="M196.86,212.59V222h-3.33v-1a3.42,3.42,0,0,1-2.92,1.35,4.85,4.85,0,0,1-4.76-5.06,4.8,4.8,0,0,1,4.74-5,3.77,3.77,0,0,1,2.94,1.22v-.91Zm-7.54,4.68a2.17,2.17,0,0,0,2.17,2.19,2.16,2.16,0,1,0-2.17-2.19Z"/><path class="cls-1" d="M207.87,209a1.87,1.87,0,1,1-1.87-1.88A1.89,1.89,0,0,1,207.87,209Zm-.21,17.77h-3.33V212.59h3.33Z"/><path class="cls-1" d="M212.93,217.92c0,1.41.69,2.12,2,2.12a1.69,1.69,0,0,0,1.65-.89h3.2a4,4,0,0,1-.83,1.66,5.25,5.25,0,0,1-4,1.58c-3.27,0-5.39-2-5.39-5s2-5.06,5.25-5.06,5.14,2,5.14,5.26v.34Zm3.92-1.94a1.92,1.92,0,0,0-2-1.52A1.76,1.76,0,0,0,213,216Z"/><path class="cls-1" d="M225.49,209a1.88,1.88,0,1,1-1.88-1.88A1.9,1.9,0,0,1,225.49,209Zm-.21,17.77H222V212.59h3.33Z"/><path class="cls-1" d="M243.72,217.29c0,3-2.35,5.08-5.72,5.08s-5.62-2.12-5.62-5.16c0-2.85,2.41-5,5.66-5S243.72,214.34,243.72,217.29Zm-7.82,0a2.15,2.15,0,1,0,2.14-2.14A2.16,2.16,0,0,0,235.9,217.25Z"/><path class="cls-1" d="M249,213.5a3.77,3.77,0,0,1,2.93-1.22,4.8,4.8,0,0,1,4.75,5,4.85,4.85,0,0,1-4.77,5.06A3.49,3.49,0,0,1,249,221v1h-3.33V206.76H249Zm-.1,3.79a2.15,2.15,0,1,0,2.16-2.14A2.16,2.16,0,0,0,248.87,217.29Z"/><path class="cls-1" d="M262.19,209a1.87,1.87,0,1,1-1.87-1.88A1.89,1.89,0,0,1,262.19,209ZM262,226.74h-3.33V212.59H262Z"/><path class="cls-1" d="M267.38,217.92c0,1.41.68,2.12,2,2.12a1.68,1.68,0,0,0,1.64-.89h3.2a4,4,0,0,1-2.49,2.85c-1.09.5-1.42.83-1.42,1.41a.81.81,0,0,0,.81.83,2.16,2.16,0,0,0,1-.35l-.43,1.77a2.9,2.9,0,0,1-1.48.37,1.77,1.77,0,0,1-1.85-1.66,2.55,2.55,0,0,1,1.06-2,6.15,6.15,0,0,1-2.37-.37A4.74,4.74,0,0,1,264,217.4c0-3.12,2-5.08,5.25-5.08s5.14,2,5.14,5.26v.34Zm3.91-1.94a1.92,1.92,0,0,0-2-1.52,1.76,1.76,0,0,0-1.87,1.52Z"/><path class="cls-1" d="M280,222h-3.33v-6.66h-1.1v-2.77h1.1v-2.83H280v2.83h1.9v2.77H280Z"/><path class="cls-1" d="M294.31,217.29c0,3-2.35,5.08-5.72,5.08s-5.62-2.12-5.62-5.16c0-2.85,2.41-5,5.66-5S294.31,214.34,294.31,217.29Zm-7.82,0a2.16,2.16,0,1,0,2.14-2.14A2.17,2.17,0,0,0,286.49,217.25Z"/><path class="cls-1" d="M302.5,215a4.06,4.06,0,0,0-1.81-.45c-.59,0-1,.29-1,.66s.25.54,1.49.81c1.86.38,2.75,1.27,2.75,2.79,0,2.15-1.77,3.54-4.49,3.54a7.21,7.21,0,0,1-3.77-1.08l1.21-2.35a5.25,5.25,0,0,0,2.66.95c.6,0,1-.31,1-.72s-.29-.63-1.41-.88c-2-.41-2.77-1.14-2.77-2.62,0-2.1,1.6-3.41,4.2-3.41a7.15,7.15,0,0,1,3,.6Zm-2.44-3.82-1.54-1.15,2.62-3.21,2.13,1.52Z"/><path class="cls-1" d="M312.78,215.65a2.83,2.83,0,0,0-1.73-.58,2.27,2.27,0,1,0,0,4.53,2.61,2.61,0,0,0,1.73-.62v2.83a5.62,5.62,0,0,1-2.33.52,5,5,0,1,1,.08-10,4.52,4.52,0,0,1,2.25.52Z"/><path class="cls-1" d="M318.22,209a1.88,1.88,0,1,1-1.88-1.88A1.9,1.9,0,0,1,318.22,209ZM318,222h-3.33v-9.43H318Z"/><path class="cls-1" d="M324.44,220.25a2.16,2.16,0,1,1-2.16-2.15A2.16,2.16,0,0,1,324.44,220.25Z"/><rect class="cls-2" x="8.37" y="35.79" width="8.8" height="97.17"/><rect class="cls-2" x="8.37" y="170.72" width="8.8" height="58.02"/></svg>