<svg xmlns="http://www.w3.org/2000/svg" xmlns:xlink="http://www.w3.org/1999/xlink" viewBox="0 0 600 322"><defs><style>.cls-1{fill:url(#Gradient_bez_nazwy_16);}.cls-2{fill:url(#Gradient_bez_nazwy_16-2);}.cls-3{fill:url(#Gradient_bez_nazwy_16-3);}.cls-4{fill:url(#Gradient_bez_nazwy_16-4);}.cls-5,.cls-6{fill:none;}.cls-5{stroke:#fff;stroke-width:0.35px;}.cls-6{stroke:#c91517;stroke-width:1.17px;stroke-dasharray:5.32 3.09;}.cls-7{fill:#253786;}.cls-8{fill:#fff;}.cls-9{fill:#c91517;}</style><radialGradient id="Gradient_bez_nazwy_16" cx="166.61" cy="151.5" r="80.37" gradientTransform="translate(304.07 -73.1) rotate(90)" gradientUnits="userSpaceOnUse"><stop offset="0" stop-color="#fff"/><stop offset="1" stop-color="#a8a8a8"/></radialGradient><radialGradient id="Gradient_bez_nazwy_16-2" cx="166.61" cy="-4.28" r="80.37" xlink:href="#Gradient_bez_nazwy_16"/><radialGradient id="Gradient_bez_nazwy_16-3" cx="166.61" cy="-160.06" r="80.37" xlink:href="#Gradient_bez_nazwy_16"/><radialGradient id="Gradient_bez_nazwy_16-4" cx="302.01" cy="72.9" r="80.37" xlink:href="#Gradient_bez_nazwy_16"/></defs><title>plaster_sam</title><g id="Warstwa_2" data-name="Warstwa 2"><polygon class="cls-1" points="226.97 136.47 226.97 50.55 152.56 7.59 78.15 50.55 78.15 136.47 152.56 179.43 226.97 136.47"/><polygon class="cls-2" points="382.75 136.47 382.75 50.55 308.34 7.59 233.93 50.55 233.93 136.47 308.34 179.43 382.75 136.47"/><polygon class="cls-3" points="538.54 136.47 538.54 50.55 464.13 7.59 389.72 50.55 389.72 136.47 464.13 179.43 538.54 136.47"/><polygon class="cls-4" points="305.57 271.87 305.57 185.95 231.16 142.99 156.75 185.95 156.75 271.87 231.16 314.83 305.57 271.87"/></g><g id="Warstwa_1" data-name="Warstwa 1"><path class="cls-5" d="M433.09,96.53l3.45-2"/><polygon class="cls-6" points="230.08 138.73 230.08 48.29 151.76 3.07 73.43 48.29 73.43 138.73 151.76 183.96 230.08 138.73"/><polygon class="cls-6" points="386.79 138.73 386.79 48.29 308.46 3.07 230.13 48.29 230.13 138.73 308.46 183.96 386.79 138.73"/><polyline class="cls-6" points="152.35 183.42 152.35 273.86 230.68 319.08 309 273.86 309 183.42"/><polygon class="cls-6" points="543.49 138.73 543.49 48.29 465.16 3.07 386.83 48.29 386.83 138.73 465.16 183.96 543.49 138.73"/><rect class="cls-7" x="376.66" y="37.07" width="8.95" height="106.63" rx="2.5"/><path class="cls-8" d="M383.11,39.57V141.2h-3.95V39.57h3.95m0-5h-3.95a5,5,0,0,0-5,5V141.2a5,5,0,0,0,5,5h3.95a5,5,0,0,0,5-5V39.57a5,5,0,0,0-5-5Z"/><rect class="cls-7" x="387.28" y="37.07" width="8.95" height="106.63" rx="2.5"/><path class="cls-8" d="M393.73,39.57V141.2h-4V39.57h4m0-5h-4a5,5,0,0,0-5,5V141.2a5,5,0,0,0,5,5h4a5,5,0,0,0,5-5V39.57a5,5,0,0,0-5-5Z"/><polygon class="cls-7" points="289.96 280 306.12 183.94 313.03 183.97 328.29 280 289.96 280"/><path class="cls-8" d="M309.57,184.52l14.62,92H294.1l15.47-92m-6.9-1.16-15.47,92-1.38,8.16h46.57l-1.29-8.1-14.62-92-13.81-.06Z"/><path class="cls-7" d="M464,188.83a4.45,4.45,0,0,1-2.26-.61l-75.52-44.1L311.3,188.21a4.55,4.55,0,0,1-2.27.62,4.51,4.51,0,0,1-2.26-.61l-76.69-44.69L153.4,187.11a4.53,4.53,0,0,1-2.21.58,4.44,4.44,0,0,1-2.17-.56L70.1,143.41A4.47,4.47,0,0,1,72.28,135a4.43,4.43,0,0,1,2.16.56l76.72,42.5,76.74-43.61a4.38,4.38,0,0,1,2.21-.59,4.44,4.44,0,0,1,2.25.61L309,179.17l75-44.09a4.39,4.39,0,0,1,2.26-.62,4.51,4.51,0,0,1,2.26.61l77.78,45.42a4.47,4.47,0,0,1-2.25,8.34Z"/><path class="cls-8" d="M230.11,136.39a1.94,1.94,0,0,1,1,.27L309,182.07l76.22-44.84a2,2,0,0,1,1-.27,2,2,0,0,1,1,.27L465,182.65a2,2,0,1,1-2,3.41l-76.78-44.84L310,186.05a1.92,1.92,0,0,1-1,.28,2,2,0,0,1-1-.27L230.1,140.64l-77.94,44.29a1.86,1.86,0,0,1-1,.26,1.94,1.94,0,0,1-1-.25L71.32,141.23a2,2,0,0,1,1-3.7,2,2,0,0,1,1,.24l78,43.19,77.95-44.31a2,2,0,0,1,1-.26m0-5a7.06,7.06,0,0,0-3.45.91l-75.51,42.92L75.65,133.4a7,7,0,0,0-6.76,12.2l78.92,43.72a7,7,0,0,0,6.82,0l75.43-42.87,75.46,44a7,7,0,0,0,3.51,1,7,7,0,0,0,3.52-1L386.26,147l74.25,43.36a7,7,0,0,0,7-12l-77.79-45.42a7,7,0,0,0-7.05,0L309,176.27l-75.39-43.93a7,7,0,0,0-3.51-1Z"/><polygon class="cls-7" points="309.57 185.66 294.1 277.63 324.19 277.63 309.57 185.66"/><path class="cls-9" d="M72.12,164.78a18.19,18.19,0,0,1-11-3.93l-1.3-1,5-10.54,2,1.92c1.88,1.8,3.5,2.64,5.12,2.64.72,0,1.57-.19,1.57-1.06,0-.32,0-.72-3-1.72s-4.76-1.7-6.13-3c-1.93-1.76-2.9-4.35-2.9-7.68,0-7.4,4.79-12.57,11.65-12.57a20,20,0,0,1,10,2.81l1.58.91L79.83,142l-2-1.77a5.23,5.23,0,0,0-3.53-1.61c-.56,0-1.15.25-1.15.72.58.56.65.62,3.72,1.63,5.78,1.87,8.36,5.16,8.36,10.68,0,4.13-1.18,7.35-3.51,9.58A13.83,13.83,0,0,1,72.12,164.78Z"/><path class="cls-8" d="M73.1,129.89a18.14,18.14,0,0,1,9,2.54l-2.93,6.34a7.1,7.1,0,0,0-4.85-2.11,2.9,2.9,0,0,0-3.15,2.72,2.14,2.14,0,0,0,.68,1.55c.85.75,1.11.9,4.43,2,4.93,1.59,7,4.13,7,8.78,0,3.58-1,6.3-2.89,8.13a11.77,11.77,0,0,1-8.21,3,16.32,16.32,0,0,1-9.82-3.52l3.15-6.58c2.25,2.16,4.33,3.2,6.5,3.2s3.57-1.23,3.57-3.06-1-2.49-4.42-3.62c-3.15-1-4.38-1.59-5.4-2.53-1.49-1.37-2.25-3.43-2.25-6.21,0-6.29,3.91-10.57,9.65-10.57m0-4c-7.91,0-13.65,6.13-13.65,14.57,0,3.72,1.07,6.68,3.19,8.81l-.8,1.69-3.15,6.57-1.4,2.94,2.58,2a20.18,20.18,0,0,0,12.25,4.34,15.75,15.75,0,0,0,10.95-4.05c2.76-2.64,4.15-6.35,4.15-11,0-4.52-1.62-7.91-4.91-10.25l.46-1,2.93-6.34,1.53-3.32L84.07,129a22.08,22.08,0,0,0-11-3.07Z"/><path class="cls-9" d="M311.26,310.88l-3.87-6.63v6.63H296V275.54h13.44c3.81,0,6.42,1.07,8.49,3.46a12.76,12.76,0,0,1,2.91,8.22,11.72,11.72,0,0,1-3.21,8.39,8.85,8.85,0,0,1-1.89,1.41l9.65,13.86Zm-3.87-21.32a2.15,2.15,0,0,0,1.18-.32,2,2,0,0,0,.06-3.06,2.16,2.16,0,0,0-1.24-.37Z"/><path class="cls-8" d="M309.47,277.54c3.23,0,5.31.84,7,2.77a10.76,10.76,0,0,1,2.43,6.91,9.77,9.77,0,0,1-2.6,6.95,7,7,0,0,1-3.61,1.88l8.93,12.83H312.4l-7-12v12H298V277.54h11.44m-4.08,14h1.36a4.8,4.8,0,0,0,3.15-.85,4,4,0,0,0,0-6.11,4.86,4.86,0,0,0-3.15-.84h-1.36v7.8m4.08-18H294v39.34h15.36v-1.23l.72,1.23h19.13l-4.37-6.29-6.32-9.08.5-.46a13.76,13.76,0,0,0,3.82-9.83,14.77,14.77,0,0,0-3.39-9.51c-2.45-2.85-5.63-4.17-10-4.17Z"/><polygon class="cls-9" points="225.29 162.78 225.29 146.32 213.43 127.44 226.96 127.44 231.17 134.17 235.22 127.44 248.97 127.44 236.65 146.34 236.65 162.78 225.29 162.78"/><path class="cls-8" d="M245.28,129.44l-10.63,16.31v15H227.3v-15l-10.25-16.31h8.8l5.36,8.55,5.14-8.55h8.93m7.38-4H234.09l-1.17,1.94-1.78,3-1.9-3-1.18-1.88H209.81l3.85,6.13,9.64,15.33v17.88h15.35V146.93l10-15.31,4-6.18Z"/><path class="cls-9" d="M385.55,43.66c-10.58,0-18.56-8.61-18.56-20A20.39,20.39,0,0,1,373.25,9a18.41,18.41,0,0,1,12.43-4.75,17.52,17.52,0,0,1,13.88,6.31A20.47,20.47,0,0,1,404.36,24,20.44,20.44,0,0,1,398.1,38.9,17.89,17.89,0,0,1,385.55,43.66Zm.13-25.52c-2.71,0-5,2.61-5,5.69,0,3.33,2.2,5.93,5,5.93s5-2.62,5-5.83S388.43,18.14,385.68,18.14Z"/><path class="cls-8" d="M385.68,7.24a14.56,14.56,0,0,1,11.6,5.27A17.38,17.38,0,0,1,401.36,24a17.46,17.46,0,0,1-5.31,12.74,14.9,14.9,0,0,1-10.5,3.95c-8.93,0-15.56-7.24-15.56-17a17.29,17.29,0,0,1,5.31-12.45,15.29,15.29,0,0,1,10.38-3.95m0,25.52c4.42,0,8-3.95,8-8.83s-3.57-8.79-8-8.79-8,3.95-8,8.69c0,5,3.53,8.93,8,8.93m0-31.52A21.38,21.38,0,0,0,371.22,6.8,23.41,23.41,0,0,0,364,23.64c0,13.12,9.27,23,21.56,23a20.81,20.81,0,0,0,14.57-5.54A23.47,23.47,0,0,0,407.36,24a23.43,23.43,0,0,0-5.54-15.38,20.63,20.63,0,0,0-16.14-7.35Zm0,25.52c-1.1,0-2-1.31-2-2.93s1.07-2.69,2-2.69,2,1.14,2,2.79-1.05,2.83-2,2.83Z"/><path class="cls-9" d="M461.9,211.7V176.35h13.69c3.88,0,6.35,1,8.55,3.26a12.77,12.77,0,0,1,3.31,9.13,14.07,14.07,0,0,1-2.74,8.87c-2,2.46-4.86,3.65-8.87,3.65h-2.59V211.7Zm11.77-21c1.81,0,2.09-.42,2.09-1.9s-.44-1.94-2-1.94h-.47v3.84Z"/><path class="cls-8" d="M475.59,178.35c3.31,0,5.27.71,7.1,2.64a10.7,10.7,0,0,1,2.76,7.75,12.18,12.18,0,0,1-2.29,7.61c-1.58,2-3.92,2.91-7.32,2.91h-4.59V209.7H463.9V178.35h11.69m-4.34,14.38h2.42c2.81,0,4.09-1.22,4.09-3.9s-1.32-3.94-4-3.94h-2.47v7.84m4.34-18.38H459.9V213.7h15.35V203.26h.59c4.59,0,8.11-1.48,10.44-4.42a16,16,0,0,0,3.17-10.1,14.72,14.72,0,0,0-3.86-10.51c-2.58-2.72-5.57-3.88-10-3.88Z"/><circle class="cls-9" cx="230.53" cy="318.89" r="2.84"/><circle class="cls-9" cx="152.56" cy="274.38" r="2.84"/><circle class="cls-9" cx="73.75" cy="48.71" r="2.84"/><circle class="cls-9" cx="151.99" cy="2.78" r="2.84"/><circle class="cls-9" cx="229.96" cy="47.3" r="2.84"/><circle class="cls-9" cx="308.49" cy="2.78" r="2.84"/><circle class="cls-9" cx="465.84" cy="2.78" r="2.84"/><circle class="cls-9" cx="542.95" cy="47.58" r="2.84"/><circle class="cls-9" cx="542.95" cy="138.87" r="2.84"/></g></svg>