<svg id="Warstwa_1" data-name="Warstwa 1" xmlns="http://www.w3.org/2000/svg" viewBox="0 0 491.27 322.79"><defs><style>.cls-1{fill:#253786;}.cls-2{fill:#fff;}.cls-3{fill:#c91517;}</style></defs><title>plaster_sam_2</title><rect class="cls-1" x="319.76" y="46.63" width="8.95" height="106.63" rx="2.5"/><path class="cls-2" d="M326.21,49.13V150.76h-3.95V49.13h3.95m0-5h-3.95a5,5,0,0,0-5,5V150.76a5,5,0,0,0,5,5h3.95a5,5,0,0,0,5-5V49.13a5,5,0,0,0-5-5Z"/><rect class="cls-1" x="330.38" y="46.63" width="8.95" height="106.63" rx="2.5"/><path class="cls-2" d="M336.83,49.13V150.76h-3.95V49.13h3.95m0-5h-3.95a5,5,0,0,0-5,5V150.76a5,5,0,0,0,5,5h3.95a5,5,0,0,0,5-5V49.13a5,5,0,0,0-5-5Z"/><polygon class="cls-1" points="233.06 289.55 249.22 193.49 256.13 193.53 271.39 289.55 233.06 289.55"/><path class="cls-2" d="M252.67,194.07l14.62,92H237.2l15.47-92m-6.9-1.16-15.47,92-1.37,8.16h46.56l-1.28-8.1-14.62-92-13.82-.07Z"/><path class="cls-1" d="M407.13,198.38a4.51,4.51,0,0,1-2.26-.61l-75.52-44.1-75,44.09a4.46,4.46,0,0,1-4.52,0l-76.7-44.69L96.5,196.66a4.5,4.5,0,0,1-2.21.58,4.44,4.44,0,0,1-2.17-.56L13.21,153a4.47,4.47,0,0,1,2.17-8.39,4.43,4.43,0,0,1,2.16.56l76.72,42.5L171,144a4.44,4.44,0,0,1,4.46,0l76.66,44.67,75-44.09a4.53,4.53,0,0,1,2.27-.62,4.44,4.44,0,0,1,2.25.61L409.38,190a4.47,4.47,0,0,1-2.25,8.34Z"/><path class="cls-2" d="M173.21,145.94a1.94,1.94,0,0,1,1,.27l77.92,45.41,76.23-44.83a1.87,1.87,0,0,1,1-.28,2,2,0,0,1,1,.27l77.78,45.42a2,2,0,0,1,.71,2.7,2,2,0,0,1-1.7,1,2,2,0,0,1-1-.27l-76.78-44.84-76.22,44.84a2,2,0,0,1-1,.27,1.94,1.94,0,0,1-1-.27L173.2,150.19l-77.93,44.3a2,2,0,0,1-1,.25,2,2,0,0,1-1-.24L14.42,150.78a2,2,0,0,1,1-3.7,1.93,1.93,0,0,1,.95.25l78,43.18,78-44.31a2,2,0,0,1,1-.26m0-5a7,7,0,0,0-3.45.92L94.25,184.78,18.75,143A7,7,0,0,0,12,155.15l78.92,43.72a7,7,0,0,0,6.82,0L173.17,156l75.45,44a7,7,0,0,0,7,0l73.7-43.35,74.25,43.36a7,7,0,0,0,7-12l-77.79-45.43a7,7,0,0,0-7.05,0l-73.7,43.36-75.39-43.94a7,7,0,0,0-3.51-.95Z"/><polygon class="cls-1" points="252.67 195.21 237.2 287.19 267.29 287.19 252.67 195.21"/><path class="cls-3" d="M15.22,174.34a18.14,18.14,0,0,1-11-3.94l-1.29-1,5-10.54,2,1.91c1.88,1.8,3.51,2.64,5.12,2.64.72,0,1.58-.18,1.58-1.05,0-.33,0-.73-3-1.72s-4.76-1.7-6.13-3c-1.92-1.76-2.9-4.34-2.9-7.67,0-7.41,4.79-12.58,11.65-12.58a20,20,0,0,1,10,2.81l1.58.91-4.82,10.43-2-1.76a5.21,5.21,0,0,0-3.53-1.62c-.55,0-1.14.25-1.14.73.57.55.65.62,3.72,1.62,5.77,1.87,8.35,5.17,8.35,10.69,0,4.12-1.18,7.34-3.51,9.57A13.8,13.8,0,0,1,15.22,174.34Z"/><path class="cls-2" d="M16.2,139.44a18.25,18.25,0,0,1,9,2.54l-2.93,6.35a7.11,7.11,0,0,0-4.85-2.12,2.9,2.9,0,0,0-3.14,2.73,2.14,2.14,0,0,0,.68,1.55c.85.75,1.1.89,4.42,2,4.93,1.6,7,4.14,7,8.79,0,3.57-1,6.29-2.89,8.13a11.8,11.8,0,0,1-8.21,3,16.27,16.27,0,0,1-9.82-3.53l3.15-6.58c2.25,2.17,4.34,3.2,6.5,3.2s3.58-1.22,3.58-3.05-1-2.5-4.43-3.62c-3.14-1-4.38-1.6-5.4-2.54-1.48-1.36-2.25-3.43-2.25-6.2,0-6.3,3.91-10.58,9.65-10.58m0-4c-7.91,0-13.65,6.13-13.65,14.58,0,3.71,1.07,6.67,3.19,8.81l-.8,1.68-3.15,6.58L.39,170,3,172a20.11,20.11,0,0,0,12.24,4.35,15.82,15.82,0,0,0,11-4.05c2.75-2.65,4.14-6.35,4.14-11,0-4.52-1.61-7.91-4.91-10.26l.46-1,2.93-6.34,1.54-3.32-3.17-1.82a22.06,22.06,0,0,0-11-3.08Z"/><path class="cls-3" d="M254.36,320.43l-3.87-6.63v6.63H239.14V285.09h13.43c3.81,0,6.43,1.07,8.49,3.47a12.73,12.73,0,0,1,2.91,8.21,11.76,11.76,0,0,1-3.21,8.4,8.56,8.56,0,0,1-1.89,1.4l9.65,13.86Zm-3.87-21.32a2.35,2.35,0,0,0,1.18-.31,2.26,2.26,0,0,0,.73-1.56,2.23,2.23,0,0,0-.66-1.5,2.17,2.17,0,0,0-1.25-.37Z"/><path class="cls-2" d="M252.57,287.09c3.23,0,5.32.85,7,2.77a10.79,10.79,0,0,1,2.42,6.91,9.81,9.81,0,0,1-2.59,7,7,7,0,0,1-3.62,1.88l8.93,12.83h-9.18l-7-12v12h-7.35V287.09h11.43m-4.08,14.05h1.36a4.8,4.8,0,0,0,3.15-.85,4,4,0,0,0,0-6.1,4.8,4.8,0,0,0-3.15-.85h-1.36v7.8m4.08-18.05H237.14v39.34h15.35V321.2l.72,1.23h19.14L268,316.15l-6.32-9.09c.17-.14.33-.29.5-.45a13.8,13.8,0,0,0,3.82-9.84,14.79,14.79,0,0,0-3.39-9.51c-2.45-2.85-5.63-4.17-10-4.17Z"/><polygon class="cls-3" points="168.4 172.34 168.4 155.88 156.53 136.99 170.06 136.99 174.28 143.72 178.32 136.99 192.07 136.99 179.75 155.89 179.75 172.34 168.4 172.34"/><path class="cls-2" d="M188.38,139,177.75,155.3v15H170.4v-15L160.15,139H169l5.36,8.56,5.14-8.56h8.93m7.38-4H177.19L176,136.93l-1.79,3-1.9-3L171.17,135H152.91l3.85,6.13,9.64,15.33v17.89h15.35V156.49l10-15.31,4-6.19Z"/><path class="cls-3" d="M328.65,53.21c-10.58,0-18.56-8.6-18.56-20a20.37,20.37,0,0,1,6.26-14.64,18.37,18.37,0,0,1,12.43-4.76,17.49,17.49,0,0,1,13.88,6.31,20.44,20.44,0,0,1,4.81,13.42,20.44,20.44,0,0,1-6.27,14.92A17.89,17.89,0,0,1,328.65,53.21Zm.13-25.52c-2.71,0-5,2.61-5,5.7,0,3.32,2.2,5.92,5,5.92s5-2.61,5-5.83S331.53,27.69,328.78,27.69Z"/><path class="cls-2" d="M328.78,16.8a14.56,14.56,0,0,1,11.6,5.26,17.43,17.43,0,0,1,4.09,11.47,17.46,17.46,0,0,1-5.32,12.73,14.88,14.88,0,0,1-10.5,4c-8.93,0-15.56-7.24-15.56-17a17.27,17.27,0,0,1,5.31-12.45,15.29,15.29,0,0,1,10.38-3.95m0,25.51c4.42,0,8-3.94,8-8.83s-3.57-8.79-8-8.79-8,3.95-8,8.7c0,5,3.53,8.92,8,8.92m0-31.51a21.37,21.37,0,0,0-14.46,5.55,23.46,23.46,0,0,0-7.23,16.85c0,13.12,9.27,23,21.56,23a20.77,20.77,0,0,0,14.57-5.54,23.46,23.46,0,0,0,7.25-17.14,23.49,23.49,0,0,0-5.54-15.39,20.65,20.65,0,0,0-16.15-7.34Zm0,25.51c-1.1,0-2-1.31-2-2.92s1.08-2.7,2-2.7,2,1.15,2,2.79-1,2.83-2,2.83Z"/><path class="cls-3" d="M405,221.25V185.91h13.69c3.88,0,6.36.94,8.55,3.25a12.77,12.77,0,0,1,3.31,9.13,14.08,14.08,0,0,1-2.74,8.88c-1.95,2.45-4.86,3.65-8.86,3.65h-2.6v10.43Zm11.78-21c1.81,0,2.08-.43,2.08-1.9s-.44-1.95-2-1.95h-.47v3.85Z"/><path class="cls-2" d="M418.69,187.91c3.32,0,5.27.7,7.1,2.63a10.72,10.72,0,0,1,2.76,7.75,12.15,12.15,0,0,1-2.29,7.62c-1.57,2-3.91,2.91-7.31,2.91h-4.6v10.43H407V187.91h11.69m-4.34,14.38h2.43c2.8,0,4.08-1.22,4.08-3.9s-1.32-3.95-4-3.95h-2.47v7.85m4.34-18.38H403v39.34h15.35V212.82h.6c4.59,0,8.1-1.49,10.44-4.42a16.1,16.1,0,0,0,3.16-10.11,14.66,14.66,0,0,0-3.86-10.5c-2.58-2.72-5.57-3.88-10-3.88Z"/></svg>