<svg id="Warstwa_1" data-name="Warstwa 1" xmlns="http://www.w3.org/2000/svg" viewBox="0 0 165 201"><defs><style>.cls-1{fill:#fff;}.cls-2{fill:#004087;}.cls-3{fill:#c90c0f;}</style></defs><title>SMAK_2</title><polygon class="cls-1" points="-1.05 40.2 1.39 167.01 17.99 167.01 -1.05 40.2"/><polygon class="cls-2" points="-1.05 40.2 -1.05 167.01 15.55 167.01 -1.05 40.2"/><path class="cls-3" d="M1.74,183.25l-2-8.25v8.25H-11.44V146.9H-.53a21.69,21.69,0,0,1,6.25.81A8.81,8.81,0,0,1,10.5,151a10.81,10.81,0,0,1,1.71,6.42,19.87,19.87,0,0,1-.36,4,8.52,8.52,0,0,1-1.54,3.49,7.81,7.81,0,0,1-1.7,1.64l4.73,16.71Zm-2-22.61A2.49,2.49,0,0,0,1,160.42a.83.83,0,0,0,.37-.51,6.11,6.11,0,0,0,.23-1.82A3.92,3.92,0,0,0,1.15,156c-.08-.12-.46-.25-1.12-.25H-.29Z"/><path class="cls-1" d="M-.53,148.9a19.84,19.84,0,0,1,5.67.72,6.91,6.91,0,0,1,3.74,2.58,8.9,8.9,0,0,1,1.33,5.25A17.37,17.37,0,0,1,9.89,161a6.63,6.63,0,0,1-1.17,2.69,6.63,6.63,0,0,1-2.46,1.9l4.43,15.65H3.3L-.25,166.76h-2v14.49H-9.44V148.9H-.53m-1.76,13.74h2a4.36,4.36,0,0,0,2.36-.54,2.89,2.89,0,0,0,1.18-1.55,8,8,0,0,0,.33-2.46,6,6,0,0,0-.75-3.24A3.11,3.11,0,0,0,0,153.7H-2.29v8.94M-.53,144.9H-13.44v40.35H16l-1.44-5.09-3.65-12.91a10,10,0,0,0,1-1.14,10.56,10.56,0,0,0,1.9-4.3,21.65,21.65,0,0,0,.4-4.36,12.74,12.74,0,0,0-2.09-7.59,10.86,10.86,0,0,0-5.83-4.07,23.84,23.84,0,0,0-6.82-.89Z"/></svg>