<svg xmlns="http://www.w3.org/2000/svg" xmlns:xlink="http://www.w3.org/1999/xlink" viewBox="0 0 165 214.89"><defs><style>.cls-1,.cls-5{fill:none;}.cls-2{fill:#004087;}.cls-3{fill:#fff;}.cls-4{fill:url(#Gradient_bez_nazwy_16);}.cls-5{stroke:#c91619;stroke-width:1.17px;stroke-dasharray:5.32 3.09;}.cls-6{fill:#c91619;}.cls-7{fill:#c90c0f;}</style><radialGradient id="Gradient_bez_nazwy_16" cx="-1396.48" cy="-1461.59" r="80.37" gradientTransform="translate(-1379.09 1228.75) rotate(90) scale(0.82 1)" gradientUnits="userSpaceOnUse"><stop offset="0" stop-color="#fff"/><stop offset="1" stop-color="#a8a8a8"/></radialGradient></defs><title>SMAK_BIG</title><g id="Warstwa_2" data-name="Warstwa 2"><rect class="cls-1" y="-1.11" width="165" height="190"/></g><g id="Warstwa_1" data-name="Warstwa 1"><path class="cls-2" d="M-10.09,52.85a4.51,4.51,0,0,1-4-2.35,4.23,4.23,0,0,1-.29-3.34,4.4,4.4,0,0,1,2.29-2.59L80.51.27a4.63,4.63,0,0,1,4,0l65.14,31.17.94,10.18L82.5,9.05-8.1,52.4A4.59,4.59,0,0,1-10.09,52.85Z"/><path class="cls-3" d="M82.5,1.82a2.63,2.63,0,0,1,1.13.26l64.11,30.67.51,5.54L82.5,6.83-9,50.59a2.48,2.48,0,0,1-1.12.26,2.53,2.53,0,0,1-2.24-1.3,2.3,2.3,0,0,1,1.11-3.17L81.37,2.08a2.63,2.63,0,0,1,1.13-.26m0-4a6.72,6.72,0,0,0-2.86.65l-92.59,44.3a6.39,6.39,0,0,0-3.33,3.77,6.16,6.16,0,0,0,.43,4.9,6.5,6.5,0,0,0,5.76,3.41,6.57,6.57,0,0,0,2.85-.65L82.5,11.27l64,30.63,6.36,3-.65-7-.52-5.54-.21-2.26-2-1L85.35-1.53a6.68,6.68,0,0,0-2.85-.65Z"/><polygon class="cls-4" points="156.91 119.55 156.91 49.13 82.5 13.93 8.09 49.13 8.09 119.55 82.5 154.75 156.91 119.55"/><polygon class="cls-5" points="160.63 121.31 160.63 47.37 82.5 10.41 4.37 47.37 4.37 121.31 82.5 158.27 160.63 121.31"/><ellipse class="cls-6" cx="82.5" cy="10.41" rx="1.83" ry="1.5"/><ellipse class="cls-6" cx="160.63" cy="47.2" rx="1.83" ry="1.5"/><ellipse class="cls-6" cx="160.63" cy="121.6" rx="1.83" ry="1.5"/><ellipse class="cls-6" cx="82.5" cy="158.27" rx="1.83" ry="1.5"/><ellipse class="cls-6" cx="4.37" cy="121.6" rx="1.83" ry="1.5"/><ellipse class="cls-6" cx="4.37" cy="47.31" rx="1.83" ry="1.5"/><path class="cls-2" d="M16.48,77.79V59.5h4.8V67l3.64-7.47h4.69l-4,8.26,4.21,10H24.92L21.79,69.7l-.51.73v7.36Z"/><path class="cls-2" d="M30.63,77.79l4.1-18.29H40.2l4,18.29H39.82l-.72-3.86H35.91l-.75,3.86Zm5.71-6.28h2.3l-1.15-7.13Z"/><path class="cls-2" d="M46.23,77.79V59.5h6a15.22,15.22,0,0,1,3.81.41,4.65,4.65,0,0,1,2.5,1.45,4.43,4.43,0,0,1,.9,3,8.74,8.74,0,0,1-.21,2,3.41,3.41,0,0,1-.79,1.52,4.47,4.47,0,0,1-1.65,1.08l3,8.85H54.78l-2.39-8.2H51v8.2ZM51,67.27h1.34A3.45,3.45,0,0,0,54,67a1.74,1.74,0,0,0,.79-.88A3.83,3.83,0,0,0,55,64.69a3,3,0,0,0-.5-1.83,2.29,2.29,0,0,0-1.88-.65H51Z"/><path class="cls-2" d="M62.23,77.79,62.6,59.5h5.15l2.38,10.63L72.7,59.5h5L78,77.79H74.63l-.4-12.17L71.71,77.79h-3L66,65.53l-.32,12.26Z"/><path class="cls-2" d="M80.85,77.79V59.5h9.76v2.75h-5v4.54h3.78v2.8H85.65v5.47h5v2.73Z"/><path class="cls-2" d="M92.83,77.79V59.5h4.8V75.06h5v2.73Z"/><path class="cls-2" d="M110.57,78.06a8.62,8.62,0,0,1-3.86-.72,4.33,4.33,0,0,1-2-2.08,7.76,7.76,0,0,1-.61-3.23v-6.8a7.69,7.69,0,0,1,.61-3.23,4.3,4.3,0,0,1,2-2,8.78,8.78,0,0,1,3.86-.71,9,9,0,0,1,3.9.71,4.32,4.32,0,0,1,2,2,7.69,7.69,0,0,1,.62,3.23V72a7.75,7.75,0,0,1-.62,3.23,4.35,4.35,0,0,1-2,2.08A8.81,8.81,0,0,1,110.57,78.06Zm0-2.87a1.56,1.56,0,0,0,1.1-.32,1.48,1.48,0,0,0,.45-.81,4.88,4.88,0,0,0,.11-1V64.24a4.93,4.93,0,0,0-.11-1,1.49,1.49,0,0,0-.45-.8,1.61,1.61,0,0,0-1.1-.31,1.53,1.53,0,0,0-1,.31,1.49,1.49,0,0,0-.45.8,4.93,4.93,0,0,0-.11,1v8.81a4.87,4.87,0,0,0,.1,1,1.44,1.44,0,0,0,.42.81A1.53,1.53,0,0,0,110.57,75.19Z"/><path class="cls-2" d="M121.8,77.79,119.17,59.5h4.08l1.28,10.66,1.64-10.64h3.18l1.72,10.57,1.31-10.59h4l-2.6,18.29h-4.18l-1.85-11-1.74,11Z"/><path class="cls-2" d="M141.47,77.79V70.31L137.34,59.5h4.53l2.06,5.78,1.85-5.78h4.34l-4,10.81v7.48Z"/><path class="cls-2" d="M59,105.15a8.27,8.27,0,0,1-3.4-.61,4.26,4.26,0,0,1-2.07-1.88,7.55,7.55,0,0,1-.77-3.31l4.1-.52a7.29,7.29,0,0,0,.25,1.9,2.11,2.11,0,0,0,.64,1,1.64,1.64,0,0,0,1,.31c.5,0,.83-.14,1-.43a1.91,1.91,0,0,0,.23-.9,2.91,2.91,0,0,0-.65-1.91,9.45,9.45,0,0,0-1.74-1.57l-1.87-1.38a9.19,9.19,0,0,1-2.08-2,4.5,4.5,0,0,1-.85-2.77,4.2,4.2,0,0,1,1.64-3.56,7.23,7.23,0,0,1,4.45-1.23,6.68,6.68,0,0,1,2.8.5,3.91,3.91,0,0,1,1.61,1.3A5.1,5.1,0,0,1,64,89.83a8.91,8.91,0,0,1,.22,1.71L60.14,92A12.83,12.83,0,0,0,60,90.55a1.9,1.9,0,0,0-.39-.92,1.16,1.16,0,0,0-.91-.33,1.07,1.07,0,0,0-1,.48,1.67,1.67,0,0,0-.31.94A2.37,2.37,0,0,0,58,92.38a10,10,0,0,0,1.51,1.35l1.8,1.33a11.14,11.14,0,0,1,2.39,2.3,5.07,5.07,0,0,1,1,3.19,4.16,4.16,0,0,1-.69,2.33,4.81,4.81,0,0,1-2,1.66A6.9,6.9,0,0,1,59,105.15Z"/><path class="cls-2" d="M66.73,104.88l.37-18.29h5.15l2.38,10.64,2.58-10.64h5l.38,18.29h-3.4l-.41-12.17-2.51,12.17h-3L70.51,92.62l-.32,12.26Z"/><path class="cls-2" d="M84.63,104.88l4.1-18.29H94.2l4,18.29H93.82L93.1,101H89.91l-.75,3.86Zm5.71-6.28h2.3l-1.15-7.13Z"/><path class="cls-2" d="M100.23,104.88V86.59H105v7.48l3.65-7.48h4.69l-4,8.27,4.21,10h-4.88l-3.14-8.08-.51.72v7.36Z"/><path class="cls-7" d="M156.68,55.8l-3.55-14.49H152V55.8h-8.15V22.46h9.4a20.56,20.56,0,0,1,5.82.73,7.34,7.34,0,0,1,4,2.77,9.31,9.31,0,0,1,1.44,5.54,18.35,18.35,0,0,1-.33,3.66,7.23,7.23,0,0,1-1.27,2.89,6.8,6.8,0,0,1-2.26,1.86l4.5,15.89Zm-3.2-19.61a3.88,3.88,0,0,0,2.09-.46,2.33,2.33,0,0,0,1-1.29,7.33,7.33,0,0,0,.32-2.3,5.42,5.42,0,0,0-.68-3,2.66,2.66,0,0,0-2.38-.93H152v7.94Z"/><path class="cls-3" d="M153.24,23a19.77,19.77,0,0,1,5.67.71,6.88,6.88,0,0,1,3.74,2.58A8.89,8.89,0,0,1,164,31.5a18.1,18.1,0,0,1-.32,3.56,6.78,6.78,0,0,1-1.18,2.69,6.47,6.47,0,0,1-2.46,1.9l4.43,15.65h-7.38l-3.56-14.49h-2V55.3h-7.15V23h8.9m-1.75,13.73h2a4.36,4.36,0,0,0,2.36-.54A2.86,2.86,0,0,0,157,34.6a8,8,0,0,0,.34-2.46,5.91,5.91,0,0,0-.76-3.23,3.09,3.09,0,0,0-2.8-1.16h-2.31v8.94M153.24,22h-9.9V56.3h9.15V41.81h.25l3.37,13.73.18.76h9.5L165.43,55l-4.22-14.88a6.93,6.93,0,0,0,2.08-1.8,7.68,7.68,0,0,0,1.36-3.09A19.44,19.44,0,0,0,165,31.5a9.87,9.87,0,0,0-1.53-5.83,7.85,7.85,0,0,0-4.26-3,20.75,20.75,0,0,0-6-.76Zm-.75,6.79h1.31a2.22,2.22,0,0,1,2,.7,4.94,4.94,0,0,1,.6,2.69,7,7,0,0,1-.29,2.14,1.9,1.9,0,0,1-.77,1,3.5,3.5,0,0,1-1.82.38h-1V28.75Z"/></g></svg>