<svg id="Warstwa_1" data-name="Warstwa 1" xmlns="http://www.w3.org/2000/svg" xmlns:xlink="http://www.w3.org/1999/xlink" viewBox="0 0 165 166.79"><defs><style>.cls-1,.cls-5{fill:none;}.cls-2{fill:#004087;}.cls-3{fill:#fff;}.cls-4{fill:url(#Gradient_bez_nazwy);}.cls-5{stroke:#c91619;stroke-width:1.17px;stroke-dasharray:5.32 3.09;}.cls-6{fill:#c91619;}</style><radialGradient id="Gradient_bez_nazwy" cx="-337.66" cy="1461.9" r="80.4" gradientTransform="matrix(0, 0.87, 1, 0, -1379.4, 374.83)" gradientUnits="userSpaceOnUse"><stop offset="0" stop-color="#fff"/><stop offset="1" stop-color="#a8a8a8"/></radialGradient></defs><title>smak</title><rect class="cls-1" y="-1.11" width="165" height="190"/><path class="cls-2" d="M82.5,169.18a4.64,4.64,0,0,1-2-.48l-92.6-46.85a4.51,4.51,0,0,1-2-6,4.49,4.49,0,0,1,4-2.47,4.47,4.47,0,0,1,2,.49l90.6,45.77,90.56-45.82a4.5,4.5,0,0,1,4.07,8L84.53,168.7A4.62,4.62,0,0,1,82.5,169.18Z"/><path class="cls-3" d="M-10.09,115.33A2.58,2.58,0,0,1-9,115.6l91.5,46.28L174,115.6a2.47,2.47,0,0,1,1.13-.27,2.5,2.5,0,0,1,1.13,4.73L83.63,166.91a2.5,2.5,0,0,1-2.26,0l-92.59-46.85a2.5,2.5,0,0,1-1.1-3.36,2.51,2.51,0,0,1,2.23-1.37m0-4a6.46,6.46,0,0,0-5.8,3.57A6.51,6.51,0,0,0-13,123.63h0l92.59,46.85a6.54,6.54,0,0,0,5.88,0L178,123.63a6.5,6.5,0,0,0-5.87-11.6L82.5,157.4-7.16,112a6.48,6.48,0,0,0-2.93-.7Z"/><polygon class="cls-4" points="156.95 117.7 156.95 43.23 82.5 6 8.05 43.23 8.05 117.7 82.5 154.93 156.95 117.7"/><polygon class="cls-5" points="160.67 119.56 160.67 41.37 82.5 2.28 4.33 41.37 4.33 119.56 82.5 158.66 160.67 119.56"/><ellipse class="cls-6" cx="82.5" cy="2.28" rx="1.83" ry="1.59"/><ellipse class="cls-6" cx="160.67" cy="41.19" rx="1.83" ry="1.59"/><ellipse class="cls-6" cx="160.67" cy="119.87" rx="1.83" ry="1.59"/><ellipse class="cls-6" cx="82.5" cy="158.66" rx="1.83" ry="1.59"/><ellipse class="cls-6" cx="4.33" cy="119.87" rx="1.83" ry="1.59"/><ellipse class="cls-6" cx="4.33" cy="41.3" rx="1.83" ry="1.59"/><path class="cls-2" d="M33,80.46V64.77h3.46v6.42l2.64-6.42h3.39l-2.91,7.09,3,8.6H39.05l-2.27-6.93-.37.62v6.31Z"/><path class="cls-2" d="M43.18,80.46l3-15.69h4L53,80.46h-3.2l-.52-3.31H47l-.54,3.31Zm4.12-5.38H49L48.13,69Z"/><path class="cls-2" d="M54.45,80.46V64.77h4.32a9.68,9.68,0,0,1,2.75.35,3.33,3.33,0,0,1,1.81,1.25A4.33,4.33,0,0,1,64,68.92a8.88,8.88,0,0,1-.15,1.72A3.26,3.26,0,0,1,63.25,72a3,3,0,0,1-1.19.92l2.15,7.59H60.63l-1.72-7h-1v7Zm3.47-9h1A2.14,2.14,0,0,0,60,71.18a1.42,1.42,0,0,0,.57-.76,3.81,3.81,0,0,0,.16-1.19,2.9,2.9,0,0,0-.36-1.57A1.52,1.52,0,0,0,59,67.1H57.92Z"/><path class="cls-2" d="M66,80.46l.27-15.69H70l1.72,9.13,1.86-9.13h3.58l.28,15.69H75L74.69,70,72.87,80.46H70.68L68.75,70l-.24,10.51Z"/><path class="cls-2" d="M79.48,80.46V64.77h7v2.37H83V71h2.73v2.4H83v4.69h3.62v2.34Z"/><path class="cls-2" d="M88.14,80.46V64.77h3.47V78.12h3.6v2.34Z"/><path class="cls-2" d="M101,80.7a5.44,5.44,0,0,1-2.79-.62,3.52,3.52,0,0,1-1.47-1.79,7.63,7.63,0,0,1-.44-2.77V69.69a7.63,7.63,0,0,1,.44-2.77,3.47,3.47,0,0,1,1.47-1.75,5.45,5.45,0,0,1,2.79-.61,5.52,5.52,0,0,1,2.82.61,3.39,3.39,0,0,1,1.48,1.75,7.62,7.62,0,0,1,.45,2.77v5.83a7.62,7.62,0,0,1-.45,2.77,3.45,3.45,0,0,1-1.48,1.79A5.51,5.51,0,0,1,101,80.7Zm0-2.46a1,1,0,0,0,.8-.27,1.35,1.35,0,0,0,.33-.7,5.1,5.1,0,0,0,.07-.87V68.84a5,5,0,0,0-.07-.88,1.31,1.31,0,0,0-.33-.69A1,1,0,0,0,101,67a1,1,0,0,0-.75.27,1.31,1.31,0,0,0-.33.69,5,5,0,0,0-.08.88V76.4a5.1,5.1,0,0,0,.07.87,1.33,1.33,0,0,0,.31.7A1,1,0,0,0,101,78.24Z"/><path class="cls-2" d="M109.08,80.46l-1.9-15.69h2.95l.93,9.15,1.18-9.13h2.3l1.24,9.07,1-9.09h2.91l-1.88,15.69h-3L113.4,71l-1.26,9.47Z"/><path class="cls-2" d="M123.3,80.46V74.05l-3-9.28h3.27l1.49,5,1.34-5h3.14l-2.93,9.28v6.41Z"/><path class="cls-2" d="M63.69,103.94a5.21,5.21,0,0,1-2.46-.52,3.32,3.32,0,0,1-1.49-1.62A7.35,7.35,0,0,1,59.18,99l3-.45a6.45,6.45,0,0,0,.19,1.63,1.73,1.73,0,0,0,.46.89,1,1,0,0,0,.73.27.68.68,0,0,0,.7-.37,1.84,1.84,0,0,0,.17-.77,2.81,2.81,0,0,0-.47-1.64,7.38,7.38,0,0,0-1.26-1.35L61.31,96a7.15,7.15,0,0,1-1.5-1.71,4.32,4.32,0,0,1-.61-2.38,3.88,3.88,0,0,1,1.18-3,4.67,4.67,0,0,1,3.21-1,4.23,4.23,0,0,1,2,.42,3,3,0,0,1,1.16,1.12,4.55,4.55,0,0,1,.54,1.45,9.78,9.78,0,0,1,.17,1.46l-3,.37c0-.46,0-.87-.08-1.21a1.7,1.7,0,0,0-.28-.79.79.79,0,0,0-.66-.29.75.75,0,0,0-.71.41,1.66,1.66,0,0,0-.22.82A2.34,2.34,0,0,0,63,93a8.25,8.25,0,0,0,1.1,1.15l1.3,1.14a9,9,0,0,1,1.73,2A5,5,0,0,1,67.8,100a4,4,0,0,1-.51,2,3.66,3.66,0,0,1-1.42,1.42A4.32,4.32,0,0,1,63.69,103.94Z"/><path class="cls-2" d="M69.27,103.71,69.54,88h3.72L75,97.14,76.84,88h3.59l.27,15.69H78.24L78,93.27l-1.82,10.44H73.94L72,93.19l-.23,10.52Z"/><path class="cls-2" d="M82.21,103.71l3-15.69h4l2.92,15.69H88.86l-.53-3.31H86l-.55,3.31Zm4.13-5.38H88l-.83-6.13Z"/><path class="cls-2" d="M93.49,103.71V88H97v6.41L99.59,88H103l-2.91,7.09,3,8.6H99.59l-2.27-6.93L97,97.4v6.31Z"/></svg>