<svg id="Warstwa_1" data-name="Warstwa 1" xmlns="http://www.w3.org/2000/svg" xmlns:xlink="http://www.w3.org/1999/xlink" viewBox="0 0 200 200"><defs><style>.cls-1,.cls-3{fill:none;stroke:#ca1517;}.cls-1{stroke-width:1.17px;stroke-dasharray:5.32 3.09;}.cls-2{fill:url(#Gradient_bez_nazwy_16);}.cls-3{stroke-linecap:round;stroke-width:5px;}.cls-4{fill:#ca1517;}</style><radialGradient id="Gradient_bez_nazwy_16" cx="32.81" cy="-57.87" r="80.37" gradientTransform="translate(157.76 132.57) rotate(-90)" gradientUnits="userSpaceOnUse"><stop offset="0" stop-color="#fff"/><stop offset="1" stop-color="#a8a8a8"/></radialGradient></defs><title>strzalka</title><polygon class="cls-1" points="21.56 54.54 21.56 144.98 99.89 190.2 178.21 144.98 178.21 54.54 99.89 9.32 21.56 54.54"/><polygon class="cls-2" points="25.48 56.8 25.48 142.72 99.89 185.68 174.29 142.72 174.29 56.8 99.89 13.84 25.48 56.8"/><line class="cls-3" x1="154.39" y1="101.18" x2="66.19" y2="101.18"/><polygon class="cls-4" points="70.94 84.97 42.87 101.18 70.94 117.38 70.94 84.97"/><circle class="cls-4" cx="21.67" cy="54.77" r="2.84"/><circle class="cls-4" cx="178.3" cy="54.77" r="2.84"/><circle class="cls-4" cx="21.67" cy="144.38" r="2.84"/><circle class="cls-4" cx="178.3" cy="144.38" r="2.84"/><circle class="cls-4" cx="99.88" cy="9.32" r="2.84"/><circle class="cls-4" cx="99.88" cy="190.6" r="2.84"/></svg>