<svg id="Warstwa_1" data-name="Warstwa 1" xmlns="http://www.w3.org/2000/svg" viewBox="0 0 200 200"><defs><style>.cls-1{fill:#fff;}.cls-2{fill:#62a3d9;}.cls-3{fill:#04a54b;}</style></defs><title>tab_str_2_03</title><rect class="cls-1" y="102.88" width="200" height="97.12"/><rect class="cls-2" width="200" height="97.12"/><polygon class="cls-1" points="14.52 44.2 10.85 51.19 15.83 59.06 12.32 59.06 7.85 52.09 7.85 59.06 5.04 59.06 5.04 44.2 7.85 44.2 7.85 50.89 11.43 44.2 14.52 44.2"/><path class="cls-1" d="M18.58,49v1.42a3,3,0,0,1,2.48-1.63,2.43,2.43,0,0,1,2,1,4.49,4.49,0,0,1,.8,2.86v6.39h-2.4V52.94c0-1.35-.4-2-1.19-2-.56,0-1.12.56-1.67,1.66v6.48h-2.4V49Z"/><path class="cls-1" d="M32.76,55.94v2a4.69,4.69,0,0,1-3.4,1.32,4,4,0,0,1-3.21-1.42A5.65,5.65,0,0,1,25,54.06a6,6,0,0,1,1.13-3.77,3.49,3.49,0,0,1,5.77.07,6.66,6.66,0,0,1,1,4.18H27.42a3.39,3.39,0,0,0,.74,2.1,2.29,2.29,0,0,0,1.78.74,4.18,4.18,0,0,0,2.82-1.44m-5.28-3.06h3.31c-.14-1.46-.68-2.19-1.66-2.19s-1.54.73-1.65,2.19"/><path class="cls-1" d="M41.39,55.94v2A4.71,4.71,0,0,1,38,59.25a4,4,0,0,1-3.21-1.42,5.65,5.65,0,0,1-1.2-3.77,6,6,0,0,1,1.13-3.77,3.49,3.49,0,0,1,5.77.07,6.66,6.66,0,0,1,1.05,4.18H36.05a3.33,3.33,0,0,0,.74,2.1,2.27,2.27,0,0,0,1.78.74,4.18,4.18,0,0,0,2.82-1.44M36.1,52.88h3.31q-.19-2.19-1.65-2.19c-1,0-1.54.73-1.66,2.19"/><path class="cls-1" d="M52.93,44A5.64,5.64,0,0,1,57.6,46.3a8.45,8.45,0,0,1,1.78,5.34A8.32,8.32,0,0,1,57.57,57a5.92,5.92,0,0,1-9.3,0,8.31,8.31,0,0,1-1.81-5.36,8.46,8.46,0,0,1,1.79-5.35A5.66,5.66,0,0,1,52.93,44m0,12.16a3.13,3.13,0,0,0,2.58-1.25,5.2,5.2,0,0,0,1-3.28,5.15,5.15,0,0,0-1-3.29,3.3,3.3,0,0,0-5.17,0,6,6,0,0,0,0,6.57,3.15,3.15,0,0,0,2.59,1.25"/><path class="cls-1" d="M66.86,44.2l5,14.86h-3l-.93-2.94H62.87L62,59.06h-3L63.6,44.2Zm.24,9.33-1.83-5.78-1.66,5.78Z"/><rect class="cls-1" x="76.11" y="52.57" width="4.31" height="2.89"/><polygon class="cls-1" points="94.23 56.34 94.23 59.06 85.92 59.06 85.92 44.2 94.12 44.2 94.12 46.92 88.73 46.92 88.73 50.04 93.86 50.04 93.86 52.76 88.73 52.76 88.73 56.34 94.23 56.34"/><path class="cls-1" d="M104.25,44.2h2.81v8.44a7.35,7.35,0,0,1-1.46,4.93,6,6,0,0,1-8.34,0,7.24,7.24,0,0,1-1.48-4.89V44.2H98.6v8.54a3.75,3.75,0,0,0,.77,2.49,2.49,2.49,0,0,0,2,.94,2.54,2.54,0,0,0,2.08-1,4.22,4.22,0,0,0,.78-2.72Z"/><polygon class="cls-1" points="117.6 56.34 117.6 59.06 109 59.06 109 44.2 111.81 44.2 111.81 56.34 117.6 56.34"/><path class="cls-1" d="M125.28,44.2l5,14.86h-3l-.93-2.94h-5.06l-.84,2.94h-3L122,44.2Zm.24,9.33-1.83-5.78L122,53.53Z"/><path class="cls-1" d="M131.09,44.2h5a3.28,3.28,0,0,1,2.66,1.25,4.57,4.57,0,0,1,1,3,4,4,0,0,1-1.94,3.64,5.16,5.16,0,0,1,1.62,2.74c.51,1.49,1,2.89,1.48,4.21h-3.09c-.18-.49-.5-1.42-1-2.8a9.48,9.48,0,0,0-1.18-2.65,1.38,1.38,0,0,0-1-.58h-.81v6h-2.81Zm2.81,2.72v3.39h1.49a1.44,1.44,0,0,0,1.12-.45,1.73,1.73,0,0,0,.42-1.25c0-1.13-.53-1.69-1.61-1.69Z"/><path class="cls-1" d="M153,56v3h-7.46v-.42c.69-1.09,1.47-2.49,2.35-4.17a25.9,25.9,0,0,0,1.66-3.59,6.41,6.41,0,0,0,.35-2.06,2.49,2.49,0,0,0-.44-1.5,1.26,1.26,0,0,0-1.06-.63c-.82,0-1.73.61-2.71,1.85V45.42A5,5,0,0,1,148.82,44a3.24,3.24,0,0,1,2.62,1.12,4.65,4.65,0,0,1,1,3.1q0,2.69-3.06,7.8Z"/><path class="cls-1" d="M157.83,44a3.09,3.09,0,0,1,2.8,2,12.6,12.6,0,0,1,1,5.52,13.32,13.32,0,0,1-1,5.66,3,3,0,0,1-2.79,2,3.14,3.14,0,0,1-2.87-2,12.74,12.74,0,0,1-1-5.59A12.5,12.5,0,0,1,155,46a3.14,3.14,0,0,1,2.81-2m0,12.45c.46,0,.78-.36,1-1.08a17.87,17.87,0,0,0,.3-4.05,14.13,14.13,0,0,0-.3-3.51c-.2-.68-.53-1-1-1s-.8.34-1,1a16,16,0,0,0-.32,4,14.26,14.26,0,0,0,.32,3.59c.21.73.56,1.09,1,1.09"/><path class="cls-1" d="M166.46,44a3.09,3.09,0,0,1,2.8,2,12.61,12.61,0,0,1,1,5.52,13.34,13.34,0,0,1-1,5.66,3.07,3.07,0,0,1-2.79,2,3.14,3.14,0,0,1-2.87-2,12.6,12.6,0,0,1-1-5.59,12.5,12.5,0,0,1,1-5.63,3.14,3.14,0,0,1,2.81-2m0,12.45q.67,0,1-1.08a17.87,17.87,0,0,0,.3-4.05,14.13,14.13,0,0,0-.3-3.51c-.2-.68-.54-1-1-1s-.79.34-1,1a16,16,0,0,0-.32,4,14.26,14.26,0,0,0,.32,3.59c.21.73.55,1.09,1,1.09"/><path class="cls-1" d="M173.87,52.66V50a1.39,1.39,0,0,0,1.13-.52,2,2,0,0,0,.42-1.25A1.76,1.76,0,0,0,175,47a1.51,1.51,0,0,0-1.15-.49,3.91,3.91,0,0,0-2.07.72V44.66a5.1,5.1,0,0,1,2.58-.65,3.53,3.53,0,0,1,2.61,1,3.61,3.61,0,0,1,1,2.62,4,4,0,0,1-1.67,3.44,3.9,3.9,0,0,1,2,3.82,4.49,4.49,0,0,1-1.09,3.16,3.76,3.76,0,0,1-2.93,1.19,4.92,4.92,0,0,1-2.76-.84V55.53a3.71,3.71,0,0,0,2.38,1.18,1.64,1.64,0,0,0,1.28-.55,2,2,0,0,0,.49-1.42,2.23,2.23,0,0,0-.47-1.45,1.63,1.63,0,0,0-1.28-.63"/><path class="cls-1" d="M186.89,43a10.05,10.05,0,0,0-1.72,5.84,10.25,10.25,0,0,0,1.72,5.86h-1a7.93,7.93,0,0,1-1.63-2.68,9.08,9.08,0,0,1-.59-3.18,9,9,0,0,1,.6-3.18A7.63,7.63,0,0,1,185.89,43Z"/><path class="cls-1" d="M191.53,50v1.77h-4.35v-.25c.4-.64.85-1.45,1.37-2.43a17.63,17.63,0,0,0,1-2.09,4.08,4.08,0,0,0,.2-1.21,1.47,1.47,0,0,0-.26-.87.73.73,0,0,0-.62-.37c-.48,0-1,.36-1.58,1.08V43.85A2.91,2.91,0,0,1,189.1,43a1.89,1.89,0,0,1,1.53.66,2.64,2.64,0,0,1,.56,1.8A10.17,10.17,0,0,1,189.4,50Z"/><path class="cls-1" d="M191.74,54.73a10.22,10.22,0,0,0,1.72-5.86A10,10,0,0,0,191.74,43h1a7.8,7.8,0,0,1,1.63,2.66,8.94,8.94,0,0,1,.59,3.18,8.75,8.75,0,0,1-.59,3.16,8,8,0,0,1-1.63,2.7Z"/><path class="cls-3" d="M79.83,145v3.25a8.7,8.7,0,0,0-4.48-1.38,4.06,4.06,0,0,0-3.25,1.32A4.92,4.92,0,0,0,71,151.6a4.38,4.38,0,0,0,1.14,3.16,3.92,3.92,0,0,0,3,1.21,4.09,4.09,0,0,0,2-.53v-1.73H75.35V151h4.73v6.07a5,5,0,0,1-2.17,1.44,7.84,7.84,0,0,1-2.88.56,6.72,6.72,0,0,1-5.14-2.14,8.49,8.49,0,0,1,0-11,6.84,6.84,0,0,1,5.21-2.13A9.23,9.23,0,0,1,79.83,145"/><path class="cls-3" d="M84.48,148.83v2.87h0q1.1-3.09,2.58-3.09a2.77,2.77,0,0,1,1.69.92l-.7,2.8a2.8,2.8,0,0,0-1.51-.75c-.59,0-1.09.46-1.49,1.36a8.27,8.27,0,0,0-.61,1.58v4.35H81.93v-10Z"/><path class="cls-3" d="M97.49,156.39v1.76a4.24,4.24,0,0,1-2.39.91,1.29,1.29,0,0,1-1.42-1.13A4.16,4.16,0,0,1,91,159.06a2.09,2.09,0,0,1-1.61-.74,2.5,2.5,0,0,1-.66-1.72,3.16,3.16,0,0,1,.69-2.12q.67-.79,4.13-2.07c0-1.12-.41-1.68-1.41-1.68a3.87,3.87,0,0,0-3,1.68v-2.57a5.63,5.63,0,0,1,3.51-1.22c2.29,0,3.44,1,3.44,3v4.58c0,.47.14.71.42.71a1.93,1.93,0,0,0,1-.57m-3.93,0V154a6.94,6.94,0,0,0-1.76,1,1.48,1.48,0,0,0-.47,1.13,1.14,1.14,0,0,0,.24.75.7.7,0,0,0,.58.32,2,2,0,0,0,1.41-.76"/><path class="cls-3" d="M106.17,144v14.86h-2.55v-.81a3,3,0,0,1-2.25,1,3.24,3.24,0,0,1-2.7-1.49,6.14,6.14,0,0,1-1.09-3.74,6.06,6.06,0,0,1,1.1-3.76,3.41,3.41,0,0,1,2.83-1.45,4,4,0,0,1,2.11.63V144Zm-2.55,12.11v-4.8a2.2,2.2,0,0,0-1.42-.59,1.69,1.69,0,0,0-1.5.83,4.25,4.25,0,0,0-.54,2.33,4.14,4.14,0,0,0,.53,2.22,1.61,1.61,0,0,0,1.42.83,2.05,2.05,0,0,0,1.51-.82"/><path class="cls-3" d="M115.64,155.75v2a5.21,5.21,0,0,1-3.62,1.32,4.38,4.38,0,0,1-3.41-1.42,5.43,5.43,0,0,1-1.28-3.77,5.82,5.82,0,0,1,1.2-3.78,3.79,3.79,0,0,1,3.07-1.48,3.73,3.73,0,0,1,3.06,1.56,6.31,6.31,0,0,1,1.12,4.18H110a3.24,3.24,0,0,0,.79,2.1,2.49,2.49,0,0,0,1.88.74,4.59,4.59,0,0,0,3-1.44M110,152.69h3.52c-.14-1.46-.73-2.19-1.76-2.19s-1.64.73-1.76,2.19"/><path class="cls-3" d="M126.8,144l5.32,14.86h-3.21l-1-2.94h-5.38l-.89,2.94H118.5L123.34,144Zm.25,9.33-1.94-5.77-1.76,5.77Z"/></svg>