<svg id="Warstwa_1" data-name="Warstwa 1" xmlns="http://www.w3.org/2000/svg" viewBox="0 0 200 200"><defs><style>.cls-1{fill:#fff;}.cls-2{fill:#62a3d9;}.cls-3{fill:#04a54b;}</style></defs><title>tab_str_2_04</title><rect class="cls-1" x="0.04" y="102.82" width="199.96" height="97.18"/><rect class="cls-2" width="199.96" height="97.18"/><polygon class="cls-1" points="16.61 44.22 16.61 59.09 13.81 59.09 13.81 53.08 8.22 53.08 8.22 59.09 5.42 59.09 5.42 44.22 8.22 44.22 8.22 50.19 13.81 50.19 13.81 44.22 16.61 44.22"/><path class="cls-1" d="M26.11,56.61v1.76a3.71,3.71,0,0,1-2.23.91,1.22,1.22,0,0,1-1.33-1.13A3.75,3.75,0,0,1,20,59.28a1.88,1.88,0,0,1-1.5-.74,2.62,2.62,0,0,1-.62-1.72,3.37,3.37,0,0,1,.64-2.12c.43-.53,1.71-1.22,3.87-2.07C22.49,51.51,22,51,21.11,51a3.59,3.59,0,0,0-2.8,1.68V50.05a5.12,5.12,0,0,1,3.29-1.22q3.22,0,3.22,3.06v4.58c0,.47.13.7.39.7s.5-.18.9-.56m-3.68,0V54.22a5.82,5.82,0,0,0-1.64,1,1.5,1.5,0,0,0-.45,1.12,1.22,1.22,0,0,0,.23.75.66.66,0,0,0,.54.32,1.77,1.77,0,0,0,1.32-.76"/><path class="cls-1" d="M29,49v1.43a3,3,0,0,1,2.46-1.64,2.45,2.45,0,0,1,2,1,4.54,4.54,0,0,1,.79,2.87v6.39H31.84V53c0-1.35-.39-2-1.18-2-.56,0-1.12.55-1.66,1.66v6.48H26.61V49Z"/><path class="cls-1" d="M43.35,44.22V59.09H41v-.81a2.77,2.77,0,0,1-2.1,1,3,3,0,0,1-2.54-1.49,6.47,6.47,0,0,1-1-3.74,6.35,6.35,0,0,1,1-3.76A3.12,3.12,0,0,1,39,48.83a3.52,3.52,0,0,1,2,.64V44.22ZM41,56.34v-4.8A2,2,0,0,0,39.63,51a1.56,1.56,0,0,0-1.4.83,4.48,4.48,0,0,0-.51,2.33,4.34,4.34,0,0,0,.5,2.22,1.49,1.49,0,0,0,1.33.83A1.88,1.88,0,0,0,41,56.34"/><path class="cls-1" d="M55.12,44a5.62,5.62,0,0,1,4.65,2.3,8.47,8.47,0,0,1,1.77,5.33A8.32,8.32,0,0,1,59.74,57a5.89,5.89,0,0,1-9.27,0,8.93,8.93,0,0,1,0-10.71A5.62,5.62,0,0,1,55.12,44m0,12.17A3.08,3.08,0,0,0,57.68,55a5.21,5.21,0,0,0,1-3.29,5.15,5.15,0,0,0-1-3.28,3.06,3.06,0,0,0-2.56-1.25,3.11,3.11,0,0,0-2.58,1.25,5.14,5.14,0,0,0-1,3.28,5.21,5.21,0,0,0,1,3.29,3.13,3.13,0,0,0,2.58,1.25"/><path class="cls-1" d="M69,44.22l5,14.87H71l-.92-2.94H65l-.84,2.94h-3l4.54-14.87Zm.24,9.34-1.82-5.78-1.65,5.78Z"/><rect class="cls-1" x="78.2" y="52.6" width="4.29" height="2.9"/><polygon class="cls-1" points="96.24 56.37 96.24 59.09 87.96 59.09 87.96 44.22 96.13 44.22 96.13 46.95 90.76 46.95 90.76 50.06 95.88 50.06 95.88 52.79 90.76 52.79 90.76 56.37 96.24 56.37"/><path class="cls-1" d="M106.22,44.22H109v8.44a7.36,7.36,0,0,1-1.45,4.94,5.21,5.21,0,0,1-4.16,1.68,5.16,5.16,0,0,1-4.14-1.7,7.25,7.25,0,0,1-1.48-4.9V44.22h2.81v8.55a3.75,3.75,0,0,0,.77,2.49,2.48,2.48,0,0,0,2,.94,2.53,2.53,0,0,0,2.07-1,4.22,4.22,0,0,0,.78-2.72Z"/><polygon class="cls-1" points="119.51 56.37 119.51 59.09 110.95 59.09 110.95 44.22 113.75 44.22 113.75 56.37 119.51 56.37"/><path class="cls-1" d="M127.15,44.22l5,14.87h-3l-.93-2.94h-5l-.84,2.94h-3l4.54-14.87Zm.24,9.34-1.82-5.78-1.65,5.78Z"/><path class="cls-1" d="M132.94,44.22h5a3.27,3.27,0,0,1,2.65,1.25,4.65,4.65,0,0,1,1,3,4,4,0,0,1-1.93,3.64,5.23,5.23,0,0,1,1.6,2.74c.51,1.49,1,2.89,1.48,4.21h-3.07c-.19-.49-.51-1.42-1-2.8a9.87,9.87,0,0,0-1.17-2.65,1.42,1.42,0,0,0-1-.58h-.81v6h-2.8Zm2.8,2.73v3.38h1.48a1.43,1.43,0,0,0,1.12-.44,1.74,1.74,0,0,0,.42-1.26c0-1.12-.53-1.68-1.6-1.68Z"/><path class="cls-1" d="M154.73,56.06v3h-7.42v-.41c.68-1.1,1.46-2.5,2.34-4.18a27.19,27.19,0,0,0,1.66-3.59,6.71,6.71,0,0,0,.35-2.07,2.58,2.58,0,0,0-.44-1.5,1.28,1.28,0,0,0-1.06-.62c-.82,0-1.72.61-2.7,1.85V45.45A4.93,4.93,0,0,1,150.6,44a3.24,3.24,0,0,1,2.61,1.13,4.67,4.67,0,0,1,.95,3.1q0,2.68-3,7.8Z"/><path class="cls-1" d="M159.57,44a3.09,3.09,0,0,1,2.79,2,12.8,12.8,0,0,1,1,5.53,13.32,13.32,0,0,1-1,5.66,3,3,0,0,1-2.78,2,3.13,3.13,0,0,1-2.85-2,12.77,12.77,0,0,1-1-5.6,12.47,12.47,0,0,1,1-5.62,3.12,3.12,0,0,1,2.8-2m0,12.47c.45,0,.78-.36,1-1.09a17.91,17.91,0,0,0,.3-4.06,14,14,0,0,0-.3-3.5c-.2-.69-.53-1-1-1s-.78.34-1,1a16.14,16.14,0,0,0-.32,4,14.26,14.26,0,0,0,.32,3.59c.22.73.55,1.1,1,1.1"/><rect class="cls-1" x="166.87" y="44.22" width="2.48" height="14.87"/><path class="cls-1" d="M174.68,51.25a3.9,3.9,0,0,1-1.39-3.18,4.44,4.44,0,0,1,.94-2.93,3.33,3.33,0,0,1,5,.08,4.44,4.44,0,0,1,.94,2.87,3.78,3.78,0,0,1-1.37,3.16,4,4,0,0,1,1.68,3.6,4.83,4.83,0,0,1-1,3.21,3.44,3.44,0,0,1-2.76,1.22,3.37,3.37,0,0,1-2.7-1.23,4.78,4.78,0,0,1-1-3.19,3.88,3.88,0,0,1,1.7-3.61m2.09,5.86a1,1,0,0,0,.9-.62,3.54,3.54,0,0,0,.34-1.66,3.84,3.84,0,0,0-.34-1.74,1,1,0,0,0-.92-.64,1,1,0,0,0-.92.62,3.46,3.46,0,0,0-.34,1.67,3.74,3.74,0,0,0,.35,1.73,1.06,1.06,0,0,0,.93.64m0-6.78a.83.83,0,0,0,.75-.57,3.72,3.72,0,0,0,.27-1.57c0-1.32-.35-2-1.06-2a.84.84,0,0,0-.75.54,3.21,3.21,0,0,0-.28,1.49,3.31,3.31,0,0,0,.29,1.53.86.86,0,0,0,.78.56"/><path class="cls-1" d="M188.5,43.05a10.08,10.08,0,0,0-1.71,5.85,10.24,10.24,0,0,0,1.71,5.86h-1a8.09,8.09,0,0,1-1.63-2.68,9.12,9.12,0,0,1-.59-3.18,9,9,0,0,1,.6-3.18,7.68,7.68,0,0,1,1.62-2.67Z"/><path class="cls-1" d="M190.22,48.1V46.57a.79.79,0,0,0,.65-.3,1.12,1.12,0,0,0,.25-.73,1,1,0,0,0-.27-.72.84.84,0,0,0-.66-.28A2.23,2.23,0,0,0,189,45V43.43a2.92,2.92,0,0,1,1.49-.38,2,2,0,0,1,1.52.6,2.11,2.11,0,0,1,.58,1.53,2.32,2.32,0,0,1-1,2,2.27,2.27,0,0,1,1.15,2.23,2.58,2.58,0,0,1-.64,1.84,2.16,2.16,0,0,1-1.69.7,2.78,2.78,0,0,1-1.6-.5V49.77a2.1,2.1,0,0,0,1.38.69.93.93,0,0,0,.74-.32,1.18,1.18,0,0,0,.28-.82,1.29,1.29,0,0,0-.27-.85.94.94,0,0,0-.74-.37"/><path class="cls-1" d="M193.33,54.76a10.3,10.3,0,0,0,1.72-5.86,10.09,10.09,0,0,0-1.72-5.85h1A7.75,7.75,0,0,1,196,45.72a9.12,9.12,0,0,1,.59,3.18,9,9,0,0,1-.59,3.16,8,8,0,0,1-1.63,2.7Z"/><path class="cls-3" d="M79.85,145.12v3.25A8.64,8.64,0,0,0,75.37,147a4.07,4.07,0,0,0-3.25,1.32A5,5,0,0,0,71,151.68a4.45,4.45,0,0,0,1.14,3.17,3.94,3.94,0,0,0,3,1.21,4.26,4.26,0,0,0,2-.53V153.8H75.37v-2.73H80.1v6.08a4.91,4.91,0,0,1-2.17,1.44,8,8,0,0,1-2.87.56A6.75,6.75,0,0,1,69.91,157a7.63,7.63,0,0,1-2-5.45,7.72,7.72,0,0,1,2-5.52,6.85,6.85,0,0,1,5.22-2.13,9.19,9.19,0,0,1,4.72,1.22"/><path class="cls-3" d="M84.51,148.91v2.87h0c.74-2.05,1.6-3.08,2.59-3.08a2.73,2.73,0,0,1,1.68.91l-.7,2.8a2.77,2.77,0,0,0-1.51-.75c-.59,0-1.09.46-1.49,1.36a7.83,7.83,0,0,0-.6,1.59V159H82V148.91Z"/><path class="cls-3" d="M97.51,156.48v1.75a4.16,4.16,0,0,1-2.38.92A1.3,1.3,0,0,1,93.7,158,4.12,4.12,0,0,1,91,159.15a2.07,2.07,0,0,1-1.6-.75,2.49,2.49,0,0,1-.66-1.72,3.13,3.13,0,0,1,.68-2.11q.67-.81,4.13-2.07c.06-1.13-.41-1.69-1.41-1.69a3.84,3.84,0,0,0-3,1.69v-2.58a5.65,5.65,0,0,1,3.51-1.22c2.28,0,3.43,1,3.43,3.05v4.59c0,.47.14.7.42.7a1.89,1.89,0,0,0,1-.56m-3.93,0v-2.44a6.62,6.62,0,0,0-1.75,1,1.47,1.47,0,0,0-.48,1.13,1.2,1.2,0,0,0,.24.75.7.7,0,0,0,.58.31,2,2,0,0,0,1.41-.75"/><path class="cls-3" d="M106.19,144.09V159h-2.55v-.81a3.08,3.08,0,0,1-2.25,1,3.24,3.24,0,0,1-2.7-1.49,6.16,6.16,0,0,1-1.09-3.74,6.08,6.08,0,0,1,1.1-3.76,3.39,3.39,0,0,1,2.83-1.46,4,4,0,0,1,2.11.63v-5.24Zm-2.55,12.11v-4.8a2.2,2.2,0,0,0-1.42-.59,1.68,1.68,0,0,0-1.5.84,4.25,4.25,0,0,0-.54,2.33,4.14,4.14,0,0,0,.53,2.22,1.64,1.64,0,0,0,1.42.83,2,2,0,0,0,1.51-.83"/><path class="cls-3" d="M115.66,155.84v2a5.2,5.2,0,0,1-3.61,1.32,4.39,4.39,0,0,1-3.42-1.42,5.45,5.45,0,0,1-1.28-3.77,5.78,5.78,0,0,1,1.2-3.78,3.76,3.76,0,0,1,3.07-1.48,3.69,3.69,0,0,1,3.06,1.56,6.29,6.29,0,0,1,1.12,4.17H110a3.26,3.26,0,0,0,.79,2.11,2.48,2.48,0,0,0,1.88.74,4.59,4.59,0,0,0,3-1.44M110,152.77h3.51c-.13-1.46-.72-2.19-1.76-2.19s-1.63.73-1.75,2.19"/><path class="cls-3" d="M126.82,144.09,132.14,159h-3.21l-1-2.94h-5.37l-.89,2.94h-3.16l4.84-14.87Zm.25,9.33-1.94-5.77-1.76,5.77Z"/></svg>