<svg id="Warstwa_1" data-name="Warstwa 1" xmlns="http://www.w3.org/2000/svg" viewBox="0 0 200 200"><defs><style>.cls-1{fill:#62a3d9;}.cls-2{fill:#fff;}.cls-3{fill:#04a54b;}</style></defs><title>tab_str_2_05</title><rect class="cls-1" width="199.65" height="97.18"/><polygon class="cls-2" points="18.37 44.22 18.37 59.09 15.39 59.09 15.39 53.08 9.43 53.08 9.43 59.09 6.44 59.09 6.44 44.22 9.43 44.22 9.43 50.19 15.39 50.19 15.39 44.22 18.37 44.22"/><path class="cls-2" d="M20.15,45.78a1.85,1.85,0,0,1,.41-1.23,1.21,1.21,0,0,1,1-.52,1.23,1.23,0,0,1,1,.52A1.9,1.9,0,0,1,23,45.78,2,2,0,0,1,22.54,47a1.26,1.26,0,0,1-1,.52,1.23,1.23,0,0,1-1-.52,1.9,1.9,0,0,1-.41-1.23m2.68,13.31H20.28V49h2.55Z"/><path class="cls-2" d="M27,49v.88a3.1,3.1,0,0,1,2.32-1.09,3.2,3.2,0,0,1,2.66,1.48A6,6,0,0,1,33,54a6.28,6.28,0,0,1-1.09,3.87A3.42,3.42,0,0,1,29,59.28,3.54,3.54,0,0,1,27,58.59V64.1H24.41V49Zm0,2.84v4.63a2.17,2.17,0,0,0,1.48.65,1.64,1.64,0,0,0,1.46-.82,3.94,3.94,0,0,0,.55-2.23,4.21,4.21,0,0,0-.5-2.23,1.57,1.57,0,0,0-1.41-.8,2.36,2.36,0,0,0-1.58.8"/><path class="cls-2" d="M45.14,44a6.11,6.11,0,0,1,5,2.3A8.13,8.13,0,0,1,52,51.66,8,8,0,0,1,50.07,57a6.54,6.54,0,0,1-9.88,0,8.48,8.48,0,0,1,0-10.71,6.11,6.11,0,0,1,5-2.29m0,12.17A3.37,3.37,0,0,0,47.87,55a5,5,0,0,0,1-3.29,4.94,4.94,0,0,0-1-3.28,3.62,3.62,0,0,0-5.47,0,4.89,4.89,0,0,0-1,3.28,5,5,0,0,0,1,3.29,3.39,3.39,0,0,0,2.74,1.25"/><path class="cls-2" d="M59.92,44.22l5.31,14.87H62l-1-2.94H55.68l-.89,2.94H51.63l4.83-14.87Zm.25,9.34-1.94-5.78-1.76,5.78Z"/><rect class="cls-2" x="69.73" y="52.6" width="4.57" height="2.9"/><polygon class="cls-2" points="88.95 56.37 88.95 59.09 80.14 59.09 80.14 44.22 88.84 44.22 88.84 46.95 83.11 46.95 83.11 50.06 88.57 50.06 88.57 52.79 83.11 52.79 83.11 56.37 88.95 56.37"/><path class="cls-2" d="M99.58,44.22h3v8.44A7,7,0,0,1,101,57.6a6.63,6.63,0,0,1-8.84,0,7,7,0,0,1-1.57-4.9V44.22h3v8.55a3.61,3.61,0,0,0,.82,2.49,2.7,2.7,0,0,0,2.14.94,2.79,2.79,0,0,0,2.21-1,4.05,4.05,0,0,0,.82-2.72Z"/><polygon class="cls-2" points="113.75 56.37 113.75 59.09 104.62 59.09 104.62 44.22 107.61 44.22 107.61 56.37 113.75 56.37"/><path class="cls-2" d="M121.9,44.22l5.31,14.87H124l-1-2.94h-5.36l-.89,2.94h-3.16l4.83-14.87Zm.25,9.34-1.94-5.78-1.76,5.78Z"/><path class="cls-2" d="M128.06,44.22h5.35a3.56,3.56,0,0,1,2.82,1.25,4.44,4.44,0,0,1,1.09,3,3.91,3.91,0,0,1-2,3.64A5.15,5.15,0,0,1,137,54.88c.54,1.49,1.07,2.89,1.57,4.21h-3.27c-.2-.49-.54-1.42-1-2.8A9.59,9.59,0,0,0,133,53.64a1.53,1.53,0,0,0-1.11-.58H131v6h-3ZM131,47v3.38h1.58a1.58,1.58,0,0,0,1.19-.44,1.67,1.67,0,0,0,.45-1.26A1.5,1.5,0,0,0,132.55,47Z"/><path class="cls-2" d="M151.28,56.06v3h-7.91v-.41c.73-1.1,1.56-2.5,2.49-4.18a26.79,26.79,0,0,0,1.77-3.59,6.2,6.2,0,0,0,.37-2.07,2.4,2.4,0,0,0-.47-1.5,1.35,1.35,0,0,0-1.12-.62c-.88,0-1.84.61-2.88,1.85V45.45A5.41,5.41,0,0,1,146.88,44a3.57,3.57,0,0,1,2.78,1.13,4.44,4.44,0,0,1,1,3.1q0,2.68-3.24,7.8Z"/><path class="cls-2" d="M156.43,44a3.27,3.27,0,0,1,3,2,12,12,0,0,1,1.07,5.53,12.64,12.64,0,0,1-1,5.66,3.22,3.22,0,0,1-3,2,3.33,3.33,0,0,1-3-2,12,12,0,0,1-1.08-5.6,11.87,11.87,0,0,1,1.1-5.62,3.32,3.32,0,0,1,3-2m0,12.47c.49,0,.83-.36,1-1.09a16.48,16.48,0,0,0,.32-4.06,12.91,12.91,0,0,0-.32-3.5c-.21-.69-.56-1-1.06-1s-.84.34-1.07,1a15.36,15.36,0,0,0-.34,4,13.59,13.59,0,0,0,.34,3.59c.23.73.59,1.1,1.08,1.1"/><path class="cls-2" d="M165.59,44a3.29,3.29,0,0,1,3,2,12,12,0,0,1,1.06,5.53,12.51,12.51,0,0,1-1,5.66,3.21,3.21,0,0,1-3,2,3.35,3.35,0,0,1-3-2,12.13,12.13,0,0,1-1.08-5.6A11.87,11.87,0,0,1,162.6,46a3.33,3.33,0,0,1,3-2m0,12.47c.48,0,.83-.36,1-1.09a16.33,16.33,0,0,0,.33-4.06,13.34,13.34,0,0,0-.32-3.5c-.22-.69-.57-1-1.07-1s-.84.34-1.07,1a15.5,15.5,0,0,0-.33,4,13.69,13.69,0,0,0,.33,3.59c.23.73.59,1.1,1.09,1.1"/><path class="cls-2" d="M177.83,44.22v3H174V50a3.46,3.46,0,0,1,3.08,1.18,5,5,0,0,1,1.15,3.4A4.93,4.93,0,0,1,177.06,58a4.07,4.07,0,0,1-3.16,1.28,4.9,4.9,0,0,1-2.89-.8v-2.7a4.51,4.51,0,0,0,2.54,1,1.77,1.77,0,0,0,1.36-.59,2.16,2.16,0,0,0,.53-1.49,2,2,0,0,0-.65-1.56,2.63,2.63,0,0,0-1.8-.58,5.3,5.3,0,0,0-1.37.19V44.22Z"/><path class="cls-2" d="M187.26,43.05a9.67,9.67,0,0,0-1.82,5.85,9.83,9.83,0,0,0,1.82,5.86h-1a7.86,7.86,0,0,1-1.74-2.68,8.4,8.4,0,0,1,0-6.36,7.47,7.47,0,0,1,1.73-2.67Z"/><path class="cls-2" d="M191.7,43.06v5.26h.46V49.7h-.46v2.13h-1.55V49.7h-2.72V48.32l3.28-5.26Zm-3,5.26h1.49V46Z"/><path class="cls-2" d="M192.41,54.76a9.8,9.8,0,0,0,1.82-5.86,9.6,9.6,0,0,0-1.82-5.85h1.05a7.68,7.68,0,0,1,1.74,2.67,8.73,8.73,0,0,1,.62,3.18,8.39,8.39,0,0,1-.62,3.16,7.75,7.75,0,0,1-1.74,2.7Z"/><rect class="cls-2" x="0.35" y="102.82" width="199.65" height="97.18"/><path class="cls-3" d="M80,145.12v3.25A8.64,8.64,0,0,0,75.57,147a4,4,0,0,0-3.24,1.32,4.94,4.94,0,0,0-1.15,3.37,4.41,4.41,0,0,0,1.15,3.17,3.88,3.88,0,0,0,3,1.21,4.2,4.2,0,0,0,2-.53V153.8H75.57v-2.73h4.72v6.08a5,5,0,0,1-2.16,1.44,8,8,0,0,1-2.88.56A6.73,6.73,0,0,1,70.12,157a7.63,7.63,0,0,1-2-5.45,7.72,7.72,0,0,1,2-5.52,6.82,6.82,0,0,1,5.2-2.13A9.19,9.19,0,0,1,80,145.12"/><path class="cls-3" d="M84.69,148.91v2.87h0c.73-2.05,1.59-3.08,2.57-3.08a2.75,2.75,0,0,1,1.69.91l-.7,2.8a2.77,2.77,0,0,0-1.51-.75c-.59,0-1.08.46-1.49,1.36a7.83,7.83,0,0,0-.6,1.59V159H82.14V148.91Z"/><path class="cls-3" d="M97.67,156.48v1.75a4.16,4.16,0,0,1-2.38.92A1.29,1.29,0,0,1,93.87,158a4.16,4.16,0,0,1-2.67,1.13,2.07,2.07,0,0,1-1.6-.75,2.49,2.49,0,0,1-.66-1.72,3.18,3.18,0,0,1,.68-2.11c.46-.54,1.83-1.23,4.13-2.07,0-1.13-.41-1.69-1.41-1.69a3.84,3.84,0,0,0-3,1.69v-2.58a5.65,5.65,0,0,1,3.51-1.22q3.42,0,3.42,3.05v4.59c0,.47.14.7.42.7a1.89,1.89,0,0,0,1-.56m-3.92,0v-2.44a6.62,6.62,0,0,0-1.75,1,1.47,1.47,0,0,0-.48,1.13,1.2,1.2,0,0,0,.24.75.7.7,0,0,0,.58.31,2,2,0,0,0,1.41-.75"/><path class="cls-3" d="M106.33,144.09V159h-2.54v-.81a3.07,3.07,0,0,1-2.24,1,3.24,3.24,0,0,1-2.7-1.49,6.16,6.16,0,0,1-1.09-3.74,6.08,6.08,0,0,1,1.1-3.76,3.38,3.38,0,0,1,2.82-1.46,4,4,0,0,1,2.11.63v-5.24Zm-2.54,12.11v-4.8a2.2,2.2,0,0,0-1.42-.59,1.69,1.69,0,0,0-1.5.84,4.34,4.34,0,0,0-.53,2.33,4.14,4.14,0,0,0,.53,2.22,1.64,1.64,0,0,0,1.42.83,2,2,0,0,0,1.5-.83"/><path class="cls-3" d="M115.79,155.84v2a5.18,5.18,0,0,1-3.61,1.32,4.38,4.38,0,0,1-3.41-1.42A5.45,5.45,0,0,1,107.5,154a5.84,5.84,0,0,1,1.19-3.78,3.79,3.79,0,0,1,3.07-1.48,3.7,3.7,0,0,1,3.06,1.56,6.41,6.41,0,0,1,1.12,4.17h-5.82a3.31,3.31,0,0,0,.78,2.11,2.5,2.5,0,0,0,1.89.74,4.59,4.59,0,0,0,3-1.44m-5.61-3.07h3.51c-.14-1.46-.72-2.19-1.76-2.19s-1.63.73-1.75,2.19"/><path class="cls-3" d="M126.93,144.09,132.24,159H129l-1-2.94h-5.37l-.88,2.94h-3.17l4.84-14.87Zm.26,9.33-2-5.77-1.75,5.77Z"/></svg>