<svg id="Warstwa_1" data-name="Warstwa 1" xmlns="http://www.w3.org/2000/svg" viewBox="0 0 200 200"><defs><style>.cls-1{fill:#62a3d9;}.cls-2{fill:#fff;}.cls-3{fill:#04a54b;}</style></defs><title>tab_str_2_02</title><rect class="cls-1" width="200" height="97.12"/><path class="cls-2" d="M186.79,43a10.05,10.05,0,0,0-1.72,5.84,10.25,10.25,0,0,0,1.72,5.86h-1a7.8,7.8,0,0,1-1.64-2.68,9.08,9.08,0,0,1-.59-3.18,9,9,0,0,1,.6-3.18A7.65,7.65,0,0,1,185.8,43Z"/><path class="cls-2" d="M190.19,54.73a10.23,10.23,0,0,0,1.73-5.86A10,10,0,0,0,190.19,43h1a7.8,7.8,0,0,1,1.63,2.66,8.94,8.94,0,0,1,.59,3.18,8.75,8.75,0,0,1-.59,3.16,7.81,7.81,0,0,1-1.63,2.7Z"/><polygon class="cls-2" points="18.28 44.2 14.63 51.19 19.57 59.06 16.09 59.06 11.65 52.09 11.65 59.06 8.86 59.06 8.86 44.2 11.65 44.2 11.65 50.89 15.21 44.2 18.28 44.2"/><path class="cls-2" d="M22.31,49v1.42a3,3,0,0,1,2.46-1.63,2.39,2.39,0,0,1,2,1,4.49,4.49,0,0,1,.79,2.86v6.39H25.14V52.94c0-1.35-.39-2-1.17-2-.57,0-1.12.56-1.66,1.66v6.48H19.92V49Z"/><path class="cls-2" d="M36.39,55.94v2A4.68,4.68,0,0,1,33,59.25a4,4,0,0,1-3.19-1.42,5.64,5.64,0,0,1-1.19-3.77,6,6,0,0,1,1.12-3.77,3.45,3.45,0,0,1,2.86-1.49,3.41,3.41,0,0,1,2.86,1.56,6.66,6.66,0,0,1,1.05,4.18H31.09a3.32,3.32,0,0,0,.73,2.1,2.24,2.24,0,0,0,1.76.74,4.18,4.18,0,0,0,2.81-1.44m-5.25-3.06h3.28c-.12-1.46-.67-2.19-1.64-2.19s-1.53.73-1.64,2.19"/><path class="cls-2" d="M45,55.94v2a4.65,4.65,0,0,1-3.37,1.32,3.94,3.94,0,0,1-3.19-1.42,5.65,5.65,0,0,1-1.2-3.77,6,6,0,0,1,1.12-3.77,3.45,3.45,0,0,1,2.87-1.49A3.41,3.41,0,0,1,44,50.36a6.79,6.79,0,0,1,1.05,4.18H39.65a3.32,3.32,0,0,0,.73,2.1,2.26,2.26,0,0,0,1.76.74A4.16,4.16,0,0,0,45,55.94M39.7,52.88H43c-.12-1.46-.67-2.19-1.64-2.19s-1.52.73-1.64,2.19"/><path class="cls-2" d="M56.41,44A5.58,5.58,0,0,1,61,46.3,8.92,8.92,0,0,1,61,57a5.87,5.87,0,0,1-9.25,0A8.4,8.4,0,0,1,50,51.64a8.5,8.5,0,0,1,1.77-5.35A5.61,5.61,0,0,1,56.41,44m0,12.16A3.08,3.08,0,0,0,59,54.92a5.2,5.2,0,0,0,1-3.28,5.15,5.15,0,0,0-1-3.29,3.25,3.25,0,0,0-5.12,0,6,6,0,0,0,0,6.57,3.1,3.1,0,0,0,2.57,1.25"/><path class="cls-2" d="M70.23,44.2l5,14.86h-3l-.92-2.94h-5l-.84,2.94h-3L67,44.2Zm.24,9.33-1.82-5.78L67,53.53Z"/><rect class="cls-2" x="79.42" y="52.57" width="4.28" height="2.89"/><polygon class="cls-2" points="97.41 56.34 97.41 59.06 89.15 59.06 89.15 44.2 97.29 44.2 97.29 46.92 91.94 46.92 91.94 50.04 97.04 50.04 97.04 52.76 91.94 52.76 91.94 56.34 97.41 56.34"/><path class="cls-2" d="M106.64,45.16v2.9a7.58,7.58,0,0,0-3.55-1.33,1.92,1.92,0,0,0-1.2.34,1.06,1.06,0,0,0-.44.88,1.24,1.24,0,0,0,.32.81,5,5,0,0,0,1.56,1,15.61,15.61,0,0,1,2,1.13,4.44,4.44,0,0,1,1.29,1.47,4.78,4.78,0,0,1,.54,2.39A4.53,4.53,0,0,1,106,58a4.16,4.16,0,0,1-3.12,1.22,6.75,6.75,0,0,1-4-1.44v-3.2a10.62,10.62,0,0,0,2,1.46,3.83,3.83,0,0,0,1.84.46c1.09,0,1.64-.46,1.64-1.37a1.4,1.4,0,0,0-.33-.89,5.11,5.11,0,0,0-1.58-1,13.59,13.59,0,0,1-2-1.1,4.37,4.37,0,0,1-1.27-1.46,5,5,0,0,1-.53-2.43,4.24,4.24,0,0,1,1.16-3.09A4.19,4.19,0,0,1,102.85,44a7.58,7.58,0,0,1,3.79,1.15"/><path class="cls-2" d="M118.9,54.53v3.24a7.46,7.46,0,0,1-4.39,1.48,5.83,5.83,0,0,1-4.76-2.18A8.36,8.36,0,0,1,108,51.68a8.22,8.22,0,0,1,1.87-5.44A6,6,0,0,1,114.72,44a6.27,6.27,0,0,1,4,1.31v3.3a6.55,6.55,0,0,0-3.85-1.52A3.69,3.69,0,0,0,112,48.38a4.64,4.64,0,0,0-1.14,3.23A4.84,4.84,0,0,0,112,54.88a3.63,3.63,0,0,0,2.87,1.29,4.58,4.58,0,0,0,1.67-.31,14.48,14.48,0,0,0,2.38-1.33"/><polygon class="cls-2" points="128.92 56.34 128.92 59.06 120.66 59.06 120.66 44.2 128.81 44.2 128.81 46.92 123.45 46.92 123.45 50.04 128.56 50.04 128.56 52.76 123.45 52.76 123.45 56.34 128.92 56.34"/><path class="cls-2" d="M136.5,44a5.56,5.56,0,0,1,4.63,2.29,8.5,8.5,0,0,1,1.77,5.34A8.37,8.37,0,0,1,141.11,57a5.86,5.86,0,0,1-9.24,0,8.35,8.35,0,0,1-1.79-5.36,8.5,8.5,0,0,1,1.77-5.35A5.63,5.63,0,0,1,136.5,44m0,12.16a3.1,3.1,0,0,0,2.56-1.25,6,6,0,0,0,0-6.57,3.26,3.26,0,0,0-5.13,0,5.15,5.15,0,0,0-1,3.29,5.2,5.2,0,0,0,1,3.28,3.11,3.11,0,0,0,2.57,1.25"/><path class="cls-2" d="M155.54,56v3h-7.4v-.42c.68-1.09,1.45-2.49,2.33-4.17a26.74,26.74,0,0,0,1.65-3.59,6.7,6.7,0,0,0,.35-2.06,2.56,2.56,0,0,0-.44-1.5,1.26,1.26,0,0,0-1.05-.63c-.82,0-1.72.61-2.7,1.85V45.42A5,5,0,0,1,151.42,44a3.21,3.21,0,0,1,2.6,1.12,4.71,4.71,0,0,1,.95,3.1q0,2.69-3,7.8Z"/><path class="cls-2" d="M160.36,44a3.07,3.07,0,0,1,2.78,2,12.75,12.75,0,0,1,1,5.52,13.49,13.49,0,0,1-1,5.66,3,3,0,0,1-2.78,2,3.13,3.13,0,0,1-2.84-2,12.75,12.75,0,0,1-1-5.59,12.51,12.51,0,0,1,1-5.63,3.11,3.11,0,0,1,2.79-2m0,12.45c.45,0,.78-.36,1-1.08a17.87,17.87,0,0,0,.3-4.05,14.13,14.13,0,0,0-.3-3.51c-.2-.68-.53-1-1-1s-.78.34-1,1a16,16,0,0,0-.32,4,14.26,14.26,0,0,0,.32,3.59c.21.73.55,1.09,1,1.09"/><rect class="cls-2" x="167.63" y="44.2" width="2.47" height="14.86"/><rect class="cls-2" x="187.98" y="44.87" width="1.39" height="8.33"/><path class="cls-2" d="M178.67,44l-2.59,5.62a2.14,2.14,0,0,1,.74-.13A2.6,2.6,0,0,1,179,50.78a5.82,5.82,0,0,1,.89,3.4,5.93,5.93,0,0,1-1.06,3.62,3.17,3.17,0,0,1-5.33,0,6.46,6.46,0,0,1-1-3.8A14,14,0,0,1,174,48.17L175.92,44Zm-2.46,12.45a1,1,0,0,0,.92-.59,3.18,3.18,0,0,0,.35-1.61,3.11,3.11,0,0,0-.36-1.6,1,1,0,0,0-.93-.61,1,1,0,0,0-.91.61,3.34,3.34,0,0,0-.34,1.66,3.06,3.06,0,0,0,.34,1.58,1,1,0,0,0,.93.56"/><rect class="cls-2" y="102.88" width="200" height="97.12"/><path class="cls-3" d="M130.77,142.56v2.9a8.52,8.52,0,0,0-3.8-1.33,2.13,2.13,0,0,0-1.28.34,1,1,0,0,0-.48.89,1.21,1.21,0,0,0,.34.8,5.6,5.6,0,0,0,1.68,1,16.68,16.68,0,0,1,2.13,1.13,4.53,4.53,0,0,1,1.37,1.47,4.48,4.48,0,0,1,.58,2.39,4.38,4.38,0,0,1-1.26,3.29,4.6,4.6,0,0,1-3.34,1.22,7.5,7.5,0,0,1-4.32-1.44V152a11.12,11.12,0,0,0,2.12,1.46,4.38,4.38,0,0,0,2,.46c1.17,0,1.76-.46,1.76-1.37a1.37,1.37,0,0,0-.35-.89,5.5,5.5,0,0,0-1.7-1,15.7,15.7,0,0,1-2.13-1.1,4.45,4.45,0,0,1-1.35-1.46,4.65,4.65,0,0,1-.57-2.43,4.07,4.07,0,0,1,1.24-3.09,4.67,4.67,0,0,1,3.33-1.17,8.66,8.66,0,0,1,4.06,1.15"/><path class="cls-3" d="M138.26,146.42v2.16h-2.95v4.14a1.89,1.89,0,0,0,.33,1.17,1.07,1.07,0,0,0,.91.43,3.21,3.21,0,0,0,1.71-.58V156a5.12,5.12,0,0,1-2.36.63,2.91,2.91,0,0,1-2.32-1,4.21,4.21,0,0,1-.82-2.81v-4.31H131.6V148l3.39-4.7h.32v3.16Z"/><path class="cls-3" d="M147,153.34v2a5.21,5.21,0,0,1-3.62,1.32,4.35,4.35,0,0,1-3.41-1.42,5.42,5.42,0,0,1-1.28-3.76,5.83,5.83,0,0,1,1.2-3.79,3.8,3.8,0,0,1,3.07-1.47,3.7,3.7,0,0,1,3.06,1.56,6.26,6.26,0,0,1,1.12,4.17h-5.82a3.34,3.34,0,0,0,.78,2.11,2.55,2.55,0,0,0,1.89.73,4.59,4.59,0,0,0,3-1.44m-5.62-3.06h3.51c-.13-1.46-.72-2.19-1.75-2.19s-1.64.73-1.76,2.19"/><path class="cls-3" d="M150.71,146.42v.87a3.11,3.11,0,0,1,2.32-1.08,3.23,3.23,0,0,1,2.67,1.48,5.92,5.92,0,0,1,1.09,3.63,6.28,6.28,0,0,1-1.1,3.87,3.42,3.42,0,0,1-2.89,1.46,3.54,3.54,0,0,1-2.09-.69v5.51h-2.55V146.42Zm0,2.84v4.62a2.17,2.17,0,0,0,1.48.65,1.69,1.69,0,0,0,1.47-.82,4,4,0,0,0,.54-2.23,4.14,4.14,0,0,0-.5-2.23,1.59,1.59,0,0,0-1.41-.8,2.31,2.31,0,0,0-1.58.81"/><rect class="cls-3" x="164.72" y="141.6" width="2.65" height="14.86"/><rect class="cls-3" x="111.7" y="148.23" width="5.45" height="2.28"/><path class="cls-3" d="M40.86,141.6l5.27,14.72H43l-1-2.91H36.65l-.88,2.91H32.63l4.8-14.72Zm.25,9.24-1.93-5.72-1.74,5.72Z"/><rect class="cls-3" x="46.75" y="141.6" width="2.53" height="14.72"/><path class="cls-3" d="M59.07,146.37v2.1H57.92a3.77,3.77,0,0,1,.4,1.65,3.56,3.56,0,0,1-.7,2.14,2.83,2.83,0,0,1-2.06,1.17,4.39,4.39,0,0,0-1.54.35.54.54,0,0,0-.19.42.5.5,0,0,0,.24.43,6.59,6.59,0,0,0,1.87.33A3.07,3.07,0,0,1,58.22,156a3.19,3.19,0,0,1,.65,1.91,3,3,0,0,1-1.1,2.49,5,5,0,0,1-3.15.85,5.4,5.4,0,0,1-3.2-.79,2.47,2.47,0,0,1-1.09-2.1,2.62,2.62,0,0,1,2.14-2.53,1.3,1.3,0,0,1-1-1.29c0-.73.49-1.24,1.47-1.51A2.72,2.72,0,0,1,51.35,152a3.2,3.2,0,0,1-.64-2,3.83,3.83,0,0,1,.92-2.53,3.3,3.3,0,0,1,2.67-1.1Zm-4.34,13.06a2.19,2.19,0,0,0,1.31-.37,1.07,1.07,0,0,0,.5-.89c0-.73-.65-1.09-2-1.09a2.57,2.57,0,0,0-1.4.32,1,1,0,0,0-.51.86c0,.78.69,1.17,2.06,1.17m-.2-11.2a1.27,1.27,0,0,0-1,.52,2,2,0,0,0-.42,1.29,1.94,1.94,0,0,0,.43,1.26,1.3,1.3,0,0,0,1,.53,1.25,1.25,0,0,0,1-.56,2.11,2.11,0,0,0,.43-1.34,1.84,1.84,0,0,0-.41-1.2,1.27,1.27,0,0,0-1-.5"/><path class="cls-3" d="M63.77,146.16a4.27,4.27,0,0,1,3.2,1.37,5.29,5.29,0,0,1,1.32,3.82A5.19,5.19,0,0,1,67,155.16a4.3,4.3,0,0,1-3.18,1.35,4.17,4.17,0,0,1-3.27-1.44,5.48,5.48,0,0,1-1.27-3.74,5.34,5.34,0,0,1,1.3-3.75,4.2,4.2,0,0,1,3.24-1.42m0,8.49c1.21,0,1.81-1.12,1.81-3.39S65,148,63.77,148a1.49,1.49,0,0,0-1.35.86,5,5,0,0,0-.49,2.45c0,2.21.62,3.32,1.84,3.32"/><path class="cls-3" d="M72.05,146.37v2.85h0c.74-2,1.59-3.06,2.56-3.06a2.73,2.73,0,0,1,1.68.91l-.7,2.77a2.79,2.79,0,0,0-1.5-.74q-.87,0-1.47,1.35a7.69,7.69,0,0,0-.6,1.56v4.31H69.53v-9.95Z"/><polygon class="cls-3" points="85.08 146.37 79.7 161.09 77.01 161.09 79.36 154.69 76.23 146.37 78.92 146.37 80.61 151.5 82.43 146.37 85.08 146.37"/><path class="cls-3" d="M91.37,146.37v2.14H88.45v4.1a1.9,1.9,0,0,0,.32,1.16,1.07,1.07,0,0,0,.91.43,3.17,3.17,0,0,0,1.69-.58v2.27a5.15,5.15,0,0,1-2.34.62,2.86,2.86,0,0,1-2.29-.95,4.17,4.17,0,0,1-.82-2.78v-4.27H84.77v-.61l3.36-4.66h.32v3.13Z"/><path class="cls-3" d="M94.72,146.37v1.28a3.71,3.71,0,0,1,2.79-1.49,2.94,2.94,0,0,1,2.9,2.12c1-1.41,2-2.12,3.16-2.12a2.81,2.81,0,0,1,2.26,1,4.09,4.09,0,0,1,.88,2.73v6.39h-2.52v-5.84a2.94,2.94,0,0,0-.4-1.64,1.23,1.23,0,0,0-1.09-.58c-.74,0-1.4.56-2,1.68v6.38H98.19v-5.9a2.61,2.61,0,0,0-.42-1.6,1.33,1.33,0,0,0-1.12-.56c-.66,0-1.3.46-1.93,1.38v6.68H92.2v-9.95Z"/></svg>