<svg id="Warstwa_1" data-name="Warstwa 1" xmlns="http://www.w3.org/2000/svg" viewBox="0 0 200 200"><defs><style>.cls-1{fill:#0759a5;}.cls-2{fill:#fff;}.cls-3{fill:#1d1d1b;}</style></defs><title>tab_str_2_01</title><polygon class="cls-1" points="0 97.12 200 97.12 200 0 0 97.12"/><rect class="cls-2" y="102.88" width="200" height="97.12"/><path class="cls-3" d="M20.9,142.65v2.91a8.52,8.52,0,0,0-3.8-1.33,2.19,2.19,0,0,0-1.28.33,1,1,0,0,0-.48.89,1.26,1.26,0,0,0,.34.81,6.07,6.07,0,0,0,1.68,1,17.18,17.18,0,0,1,2.12,1.12,4.42,4.42,0,0,1,2,3.87,4.35,4.35,0,0,1-1.26,3.28,4.6,4.6,0,0,1-3.34,1.23,7.56,7.56,0,0,1-4.33-1.44v-3.2a11.52,11.52,0,0,0,2.13,1.45,4.35,4.35,0,0,0,2,.46c1.17,0,1.76-.45,1.76-1.37a1.35,1.35,0,0,0-.35-.88,5.3,5.3,0,0,0-1.7-1,16.15,16.15,0,0,1-2.13-1.11,4.41,4.41,0,0,1-1.35-1.45,4.65,4.65,0,0,1-.57-2.43,4,4,0,0,1,1.24-3.09,4.67,4.67,0,0,1,3.33-1.17,8.67,8.67,0,0,1,4.06,1.14"/><path class="cls-3" d="M22.48,143.25a1.92,1.92,0,0,1,.41-1.23,1.23,1.23,0,0,1,2,0,2.05,2.05,0,0,1,0,2.46,1.21,1.21,0,0,1-2,0,1.92,1.92,0,0,1-.41-1.23m2.69,13.3H22.62v-10h2.55Z"/><path class="cls-3" d="M35.08,154.08v1.75a4.19,4.19,0,0,1-2.39.92,1.29,1.29,0,0,1-1.42-1.13,4.16,4.16,0,0,1-2.67,1.13A2.07,2.07,0,0,1,27,156a2.49,2.49,0,0,1-.66-1.72,3.14,3.14,0,0,1,.69-2.11q.68-.79,4.13-2.07c.06-1.12-.41-1.69-1.41-1.69a3.89,3.89,0,0,0-3,1.69v-2.58a5.69,5.69,0,0,1,3.51-1.22q3.43,0,3.44,3.06v4.58c0,.47.14.7.41.7a1.87,1.87,0,0,0,1-.56m-3.93,0v-2.44a7.22,7.22,0,0,0-1.76,1,1.5,1.5,0,0,0-.47,1.13,1.14,1.14,0,0,0,.24.75.7.7,0,0,0,.58.31,2,2,0,0,0,1.41-.75"/><path class="cls-3" d="M38.22,146.51v2.88h0q1.1-3.09,2.58-3.09a2.77,2.77,0,0,1,1.69.92l-.7,2.8a2.8,2.8,0,0,0-1.51-.75c-.59,0-1.09.45-1.49,1.36a8,8,0,0,0-.61,1.58v4.35H35.67V146.51Z"/><path class="cls-3" d="M49.6,153.81v2.27a6.89,6.89,0,0,1-2.74.67,4.42,4.42,0,0,1-3.42-1.42,5.45,5.45,0,0,1-1.27-3.77,5.55,5.55,0,0,1,1.29-3.77,4.17,4.17,0,0,1,3.29-1.49,6.56,6.56,0,0,1,2.73.66v2.35a4,4,0,0,0-2.08-.67,2.33,2.33,0,0,0-1.83.79,3.15,3.15,0,0,0-.68,2.11,3.27,3.27,0,0,0,.67,2.15,2.16,2.16,0,0,0,1.76.81,6,6,0,0,0,2.28-.69"/><polygon class="cls-3" points="50.46 146.51 58.37 146.51 54.22 154.4 58.37 154.4 58.37 156.56 50.06 156.56 54.22 148.67 50.46 148.67 50.46 146.51"/><path class="cls-3" d="M67.68,154.08v1.75a4.17,4.17,0,0,1-2.39.92,1.29,1.29,0,0,1-1.42-1.13,4.16,4.16,0,0,1-2.67,1.13,2.07,2.07,0,0,1-1.61-.75,2.53,2.53,0,0,1-.66-1.72,3.18,3.18,0,0,1,.68-2.11q.69-.79,4.14-2.07c0-1.12-.41-1.69-1.41-1.69a3.85,3.85,0,0,0-3,1.69v-2.58a5.65,5.65,0,0,1,3.51-1.22c2.28,0,3.43,1,3.43,3.06v4.58c0,.47.14.7.42.7a1.89,1.89,0,0,0,1-.56m-3.93,0v-2.44a6.91,6.91,0,0,0-1.75,1,1.47,1.47,0,0,0-.48,1.13,1.2,1.2,0,0,0,.24.75.7.7,0,0,0,.58.31,2,2,0,0,0,1.41-.75"/><path class="cls-3" d="M70.76,146.51v1.43a3.18,3.18,0,0,1,2.63-1.64,2.69,2.69,0,0,1,2.11,1,4.35,4.35,0,0,1,.84,2.87v6.39H73.79v-6.13q0-2-1.26-2c-.6,0-1.19.55-1.77,1.66v6.48H68.2V146.51Z"/><path class="cls-3" d="M93.74,152v3.25A8.5,8.5,0,0,1,89,156.75a6.38,6.38,0,0,1-5.08-2.19,8,8,0,0,1-1.89-5.39,7.86,7.86,0,0,1,2-5.43,6.67,6.67,0,0,1,5.22-2.24,7.14,7.14,0,0,1,4.34,1.31v3.31a7.32,7.32,0,0,0-4.13-1.52,4.14,4.14,0,0,0-3.13,1.27,4.5,4.5,0,0,0-1.21,3.24,4.57,4.57,0,0,0,1.2,3.26,4,4,0,0,0,3.06,1.29,5.38,5.38,0,0,0,1.79-.3A15.83,15.83,0,0,0,93.74,152"/><path class="cls-3" d="M97.89,141.69V148h0a3.05,3.05,0,0,1,2.57-1.68,2.64,2.64,0,0,1,2.13,1,4.38,4.38,0,0,1,.84,2.83v6.41h-2.55v-5.75c0-1.46-.44-2.19-1.31-2.19-.58,0-1.15.51-1.71,1.52v6.42H95.34V141.69Z"/><path class="cls-3" d="M109.2,146.3a4.3,4.3,0,0,1,3.23,1.38,5.38,5.38,0,0,1,1.33,3.86,5.21,5.21,0,0,1-1.35,3.84,4.37,4.37,0,0,1-3.21,1.37,4.2,4.2,0,0,1-3.3-1.46,5.5,5.5,0,0,1-1.28-3.77,5.34,5.34,0,0,1,1.31-3.79,4.25,4.25,0,0,1,3.27-1.43m0,8.57c1.22,0,1.83-1.14,1.83-3.41s-.61-3.28-1.83-3.28a1.52,1.52,0,0,0-1.37.87,5,5,0,0,0-.49,2.47c0,2.24.62,3.35,1.86,3.35"/><path class="cls-3" d="M117.49,146.51v1.43a3.18,3.18,0,0,1,2.63-1.64,2.69,2.69,0,0,1,2.11,1,4.35,4.35,0,0,1,.84,2.87v6.39h-2.55v-6.13q0-2-1.26-2c-.6,0-1.19.55-1.77,1.66v6.48h-2.55V146.51Z"/><path class="cls-3" d="M132.81,141.7v14.86h-2.55v-.81a3.08,3.08,0,0,1-2.25,1,3.24,3.24,0,0,1-2.7-1.49,6.16,6.16,0,0,1-1.09-3.74,6.08,6.08,0,0,1,1.1-3.76,3.42,3.42,0,0,1,2.83-1.46,4,4,0,0,1,2.11.64V141.7Zm-2.55,12.1V149a2.19,2.19,0,0,0-1.43-.58,1.7,1.7,0,0,0-1.49.83,4.25,4.25,0,0,0-.54,2.33,4.14,4.14,0,0,0,.53,2.22,1.64,1.64,0,0,0,1.42.83,2.07,2.07,0,0,0,1.51-.83"/><path class="cls-3" d="M137,146.51v2.88h0c.73-2.06,1.6-3.09,2.58-3.09a2.77,2.77,0,0,1,1.69.92l-.7,2.8a2.8,2.8,0,0,0-1.51-.75c-.59,0-1.09.45-1.49,1.36a7.34,7.34,0,0,0-.61,1.58v4.35h-2.55V146.51Z"/><path class="cls-3" d="M145.46,146.3a4.32,4.32,0,0,1,3.24,1.38,5.38,5.38,0,0,1,1.32,3.86,5.21,5.21,0,0,1-1.35,3.84,4.35,4.35,0,0,1-3.21,1.37,4.18,4.18,0,0,1-3.29-1.46,5.46,5.46,0,0,1-1.29-3.77,5.39,5.39,0,0,1,1.31-3.79,4.27,4.27,0,0,1,3.27-1.43m0,8.57c1.22,0,1.83-1.14,1.83-3.41s-.61-3.28-1.83-3.28a1.52,1.52,0,0,0-1.37.87,5.14,5.14,0,0,0-.49,2.47c0,2.24.62,3.35,1.86,3.35"/><path class="cls-3" d="M151.12,143.25a1.87,1.87,0,0,1,.41-1.23,1.22,1.22,0,0,1,1-.51,1.25,1.25,0,0,1,1,.51,2.05,2.05,0,0,1,0,2.46,1.26,1.26,0,0,1-1,.52,1.23,1.23,0,0,1-1-.52,1.87,1.87,0,0,1-.41-1.23m2.68,13.3h-2.55v-10h2.55Z"/><path class="cls-3" d="M161.26,146.51v2.16h-3v4.14a1.84,1.84,0,0,0,.34,1.18,1.08,1.08,0,0,0,.91.43,3.28,3.28,0,0,0,1.71-.59v2.29a5.16,5.16,0,0,1-2.37.63,2.88,2.88,0,0,1-2.31-1,4.21,4.21,0,0,1-.83-2.81v-4.31H154.6v-.61l3.39-4.71h.31v3.16Z"/><polygon class="cls-3" points="169.94 146.51 164.51 161.38 161.79 161.38 164.17 154.91 161 146.51 163.72 146.51 165.43 151.69 167.26 146.51 169.94 146.51"/><path class="cls-3" d="M173,146.51v1.43a3.21,3.21,0,0,1,2.63-1.64,2.66,2.66,0,0,1,2.11,1,4.35,4.35,0,0,1,.85,2.87v6.39h-2.55v-6.13q0-2-1.26-2c-.61,0-1.2.55-1.78,1.66v6.48h-2.55V146.51Z"/><polygon class="cls-3" points="187.73 146.51 182.3 161.38 179.59 161.38 181.97 154.91 178.8 146.51 181.52 146.51 183.24 151.69 185.06 146.51 187.73 146.51"/></svg>