<svg xmlns="http://www.w3.org/2000/svg" xmlns:xlink="http://www.w3.org/1999/xlink" viewBox="0 0 165 214.89"><defs><style>.cls-1,.cls-5{fill:none;}.cls-2{fill:#004087;}.cls-3{fill:#fff;}.cls-4{fill:url(#Gradient_bez_nazwy_16);}.cls-5{stroke:#c91619;stroke-width:1.17px;stroke-dasharray:5.32 3.09;}.cls-6{fill:#c91619;}.cls-7{fill:#c90c0f;}</style><radialGradient id="Gradient_bez_nazwy_16" cx="-1211.48" cy="-1276.59" r="80.37" gradientTransform="translate(-1194.09 1129.96) rotate(90) scale(0.87 1)" gradientUnits="userSpaceOnUse"><stop offset="0" stop-color="#fff"/><stop offset="1" stop-color="#a8a8a8"/></radialGradient></defs><title>TEMP_BIG</title><g id="Warstwa_2" data-name="Warstwa 2"><rect class="cls-1" x="0.13" y="-1.11" width="165" height="190"/></g><g id="Warstwa_1" data-name="Warstwa 1"><path class="cls-2" d="M82.5,169.18a4.59,4.59,0,0,1-2-.48L2.34,129.16a4.45,4.45,0,0,1-2.47-4V38.8a4.5,4.5,0,0,1,9,0v83.58l75.66,38.29a4.45,4.45,0,0,1,2.24,2.61,4.4,4.4,0,0,1-.26,3.43A4.47,4.47,0,0,1,82.5,169.18Z"/><path class="cls-3" d="M4.37,36.3a2.5,2.5,0,0,1,2.5,2.5v84.81l76.76,38.84a2.5,2.5,0,0,1-1.13,4.73,2.41,2.41,0,0,1-1.13-.27L3.24,127.38a2.51,2.51,0,0,1-1.37-2.23V38.8a2.5,2.5,0,0,1,2.5-2.5m0-4a6.51,6.51,0,0,0-6.5,6.5v86.35A6.46,6.46,0,0,0,1.43,131l78.13,39.53a6.5,6.5,0,1,0,5.87-11.6L10.87,121.15V38.8a6.51,6.51,0,0,0-6.5-6.5Z"/><polygon class="cls-4" points="156.91 117.23 156.91 42.76 82.5 5.53 8.09 42.76 8.09 117.23 82.5 154.46 156.91 117.23"/><polyline class="cls-5" points="4.37 119.09 82.5 158.19 160.63 119.09 160.63 40.9 82.5 1.81 4.37 40.9"/><ellipse class="cls-6" cx="82.5" cy="1.81" rx="1.83" ry="1.59"/><ellipse class="cls-6" cx="160.63" cy="40.71" rx="1.83" ry="1.59"/><ellipse class="cls-6" cx="160.63" cy="119.4" rx="1.83" ry="1.59"/><ellipse class="cls-6" cx="82.5" cy="158.19" rx="1.83" ry="1.59"/><ellipse class="cls-6" cx="4.37" cy="40.83" rx="1.83" ry="1.59"/><path class="cls-2" d="M77.52,62.16l-2.2-16.22h3.42l1.08,9.45L81.19,46h2.67l1.44,9.37,1.1-9.39h3.37L87.59,62.16H84.08l-1.55-9.79-1.46,9.79Z"/><path class="cls-2" d="M15.72,86.18V72.63H13V70h9.51v2.66H19.77V86.18Z"/><path class="cls-2" d="M24.08,86.18V70h8.18v2.44H28.1v4h3.17v2.49H28.1v4.84h4.21v2.42Z"/><path class="cls-2" d="M34.06,86.18,34.37,70h4.32l2,9.43L42.84,70H47l.31,16.21H44.46l-.34-10.79L42,86.18H39.47L37.23,75.31,37,86.18Z"/><path class="cls-2" d="M49.67,86.18V70h6.12a5.75,5.75,0,0,1,2.69.55,3.5,3.5,0,0,1,1.58,1.6,5.8,5.8,0,0,1,.51,2.55,5,5,0,0,1-.69,2.87A3.61,3.61,0,0,1,58,78.92a8.94,8.94,0,0,1-2.68.38H53.7v6.88Zm4-9.39H55a2.16,2.16,0,0,0,1.13-.24,1.15,1.15,0,0,0,.5-.72,4.59,4.59,0,0,0,.13-1.22,5.79,5.79,0,0,0-.1-1.09,1.23,1.23,0,0,0-.49-.75A2,2,0,0,0,55,72.49H53.7Z"/><path class="cls-2" d="M62.32,86.18V70H70.5v2.44H66.35v4h3.16v2.49H66.35v4.84h4.2v2.42Z"/><path class="cls-2" d="M72.37,86.18V70h5a12.46,12.46,0,0,1,3.19.36,3.89,3.89,0,0,1,2.1,1.29,4.1,4.1,0,0,1,.75,2.63A7.93,7.93,0,0,1,83.24,76a3.17,3.17,0,0,1-.66,1.35,3.68,3.68,0,0,1-1.38,1l2.49,7.84H79.53l-2-7.26H76.39v7.26Zm4-9.33h1.12a2.72,2.72,0,0,0,1.33-.27,1.49,1.49,0,0,0,.66-.78,3.46,3.46,0,0,0,.19-1.23A2.66,2.66,0,0,0,79.26,73a1.81,1.81,0,0,0-1.57-.58h-1.3Z"/><path class="cls-2" d="M85,86.18,88.41,70H93l3.4,16.21H92.68l-.61-3.42H89.4l-.63,3.42Zm4.79-5.56h1.93l-1-6.33Z"/><path class="cls-2" d="M98.9,86.18V72.63H96.16V70h9.5v2.66H103V86.18Z"/><path class="cls-2" d="M112.52,86.42a7.13,7.13,0,0,1-3.27-.61A3.33,3.33,0,0,1,107.6,84a7.59,7.59,0,0,1-.48-2.87V70h4V81.7a5.63,5.63,0,0,0,.09,1,1.58,1.58,0,0,0,.39.82,1.27,1.27,0,0,0,.94.32,1.23,1.23,0,0,0,.94-.32,1.48,1.48,0,0,0,.37-.82,6.74,6.74,0,0,0,.08-1V70h4V81.16a7.59,7.59,0,0,1-.48,2.87,3.47,3.47,0,0,1-1.66,1.78A7,7,0,0,1,112.52,86.42Z"/><path class="cls-2" d="M120.47,86.18V70h5a12.46,12.46,0,0,1,3.19.36,3.89,3.89,0,0,1,2.1,1.29,4.1,4.1,0,0,1,.76,2.63,7.93,7.93,0,0,1-.18,1.78,3.07,3.07,0,0,1-.67,1.35,3.68,3.68,0,0,1-1.38,1l2.5,7.84h-4.16l-2-7.26h-1.15v7.26Zm4-9.33h1.13a2.65,2.65,0,0,0,1.32-.27,1.41,1.41,0,0,0,.66-.78,3.44,3.44,0,0,0,.2-1.23,2.73,2.73,0,0,0-.43-1.62,1.84,1.84,0,0,0-1.57-.58h-1.31Z"/><path class="cls-2" d="M133.26,86.18V84l4.44-11.63h-4.24V70h8.2v2l-4.52,11.77h4.56v2.42Z"/><path class="cls-2" d="M143.57,86.18V70h8.18v2.44h-4.16v4h3.17v2.49h-3.17v4.84h4.2v2.42Z"/><path class="cls-2" d="M31,110.21V94h6.11a5.82,5.82,0,0,1,2.7.55,3.52,3.52,0,0,1,1.57,1.6,5.67,5.67,0,0,1,.52,2.56,5,5,0,0,1-.7,2.87,3.52,3.52,0,0,1-1.89,1.37,8.83,8.83,0,0,1-2.67.38H35v6.89Zm4-9.39h1.35a2.12,2.12,0,0,0,1.12-.24,1.13,1.13,0,0,0,.51-.72,5.17,5.17,0,0,0,.12-1.22,5,5,0,0,0-.1-1.09,1.26,1.26,0,0,0-.48-.76,2.09,2.09,0,0,0-1.19-.28H35Z"/><path class="cls-2" d="M49,110.45a6.93,6.93,0,0,1-3.23-.64A3.68,3.68,0,0,1,44.08,108a7.18,7.18,0,0,1-.52-2.87v-6a7.08,7.08,0,0,1,.52-2.87,3.66,3.66,0,0,1,1.71-1.81A6.94,6.94,0,0,1,49,93.77a7.09,7.09,0,0,1,3.27.63A3.68,3.68,0,0,1,54,96.21a7.25,7.25,0,0,1,.52,2.87v6A7.35,7.35,0,0,1,54,108a3.7,3.7,0,0,1-1.72,1.84A7.08,7.08,0,0,1,49,110.45Zm0-2.55a1.27,1.27,0,0,0,.92-.28,1.33,1.33,0,0,0,.39-.72,4.43,4.43,0,0,0,.09-.9V98.2a4.56,4.56,0,0,0-.09-.92,1.42,1.42,0,0,0-.39-.71,1.31,1.31,0,0,0-.92-.28,1.23,1.23,0,0,0-.87.28,1.35,1.35,0,0,0-.39.71,4.56,4.56,0,0,0-.09.92V106a5.29,5.29,0,0,0,.08.9,1.3,1.3,0,0,0,.36.72A1.24,1.24,0,0,0,49,107.9Z"/><path class="cls-2" d="M57,110.21V94h4v6.63l3-6.63H68l-3.37,7.33,3.52,8.89H64.05L61.43,103l-.43.64v6.53Z"/><path class="cls-2" d="M74.48,110.45a7,7,0,0,1-3.24-.64,3.71,3.71,0,0,1-1.7-1.84A7.18,7.18,0,0,1,69,105.1v-6a7.08,7.08,0,0,1,.52-2.87,3.68,3.68,0,0,1,1.7-1.81,7,7,0,0,1,3.24-.63,7.09,7.09,0,0,1,3.27.63,3.73,3.73,0,0,1,1.72,1.81A7.26,7.26,0,0,1,80,99.08v6a7.36,7.36,0,0,1-.51,2.87,3.75,3.75,0,0,1-1.72,1.84A7.08,7.08,0,0,1,74.48,110.45Zm0-2.55a1.15,1.15,0,0,0,1.3-1,4.43,4.43,0,0,0,.09-.9V98.2a4.56,4.56,0,0,0-.09-.92,1.33,1.33,0,0,0-.38-.71,1.31,1.31,0,0,0-.92-.28,1.27,1.27,0,0,0-.88.28,1.41,1.41,0,0,0-.38.71,4.56,4.56,0,0,0-.09.92V106a5.29,5.29,0,0,0,.08.9,1.12,1.12,0,0,0,1.27,1Z"/><path class="cls-2" d="M81.2,110.63v-2.5a7.52,7.52,0,0,0,1-.06,1.75,1.75,0,0,0,.67-.23.92.92,0,0,0,.36-.51,2.51,2.51,0,0,0,.12-.85V94h4v12.65a6,6,0,0,1-.37,2.22,2.57,2.57,0,0,1-1.29,1.33,6.23,6.23,0,0,1-2.59.44Z"/><path class="cls-2" d="M95.31,110.45a7,7,0,0,1-3.24-.64A3.77,3.77,0,0,1,90.36,108a7.36,7.36,0,0,1-.51-2.87v-6a7.26,7.26,0,0,1,.51-2.87,3.75,3.75,0,0,1,1.71-1.81,7,7,0,0,1,3.24-.63,7.15,7.15,0,0,1,3.27.63,3.73,3.73,0,0,1,1.72,1.81,7.26,7.26,0,0,1,.51,2.87v6a7.36,7.36,0,0,1-.51,2.87,3.75,3.75,0,0,1-1.72,1.84A7.14,7.14,0,0,1,95.31,110.45Zm0-2.55a1.28,1.28,0,0,0,.92-.28,1.32,1.32,0,0,0,.38-.72,4.43,4.43,0,0,0,.09-.9V98.2a4.56,4.56,0,0,0-.09-.92,1.41,1.41,0,0,0-.38-.71,1.33,1.33,0,0,0-.92-.28,1.27,1.27,0,0,0-.88.28,1.41,1.41,0,0,0-.38.71,4.56,4.56,0,0,0-.09.92V106a4.43,4.43,0,0,0,.08.9,1.24,1.24,0,0,0,.36.72A1.22,1.22,0,0,0,95.31,107.9Z"/><path class="cls-2" d="M104.72,110.21,102.52,94h3.41l1.08,9.45L108.38,94h2.68l1.44,9.37L113.6,94H117l-2.18,16.22h-3.51l-1.55-9.79-1.46,9.79Z"/><path class="cls-2" d="M118.83,110.21V94H127v2.44h-4.16v4H126v2.48h-3.17v4.84h4.2v2.43Z"/><path class="cls-2" d="M127.82,110.63v-2.5a7.52,7.52,0,0,0,1-.06,1.8,1.8,0,0,0,.68-.23,1,1,0,0,0,.36-.51,2.83,2.83,0,0,0,.11-.85V94h4v12.65a5.79,5.79,0,0,1-.37,2.22,2.57,2.57,0,0,1-1.29,1.33,6.23,6.23,0,0,1-2.59.44Z"/><path class="cls-7" d="M0,53a13,13,0,0,1-6.78-1.56,9.1,9.1,0,0,1-3.87-4.67,17.94,17.94,0,0,1-1.05-6.43v-12a17.81,17.81,0,0,1,1.05-6.44,9,9,0,0,1,3.88-4.6A13.1,13.1,0,0,1,0,15.73a13.29,13.29,0,0,1,6.83,1.53,9.06,9.06,0,0,1,3.9,4.61,17.84,17.84,0,0,1,1.06,6.44v12a18.21,18.21,0,0,1-1.05,6.43,9.12,9.12,0,0,1-3.9,4.67A13.27,13.27,0,0,1,0,53Zm-.2-9.08H.2a1.2,1.2,0,0,0,.11-.35,8.36,8.36,0,0,0,.13-1.43V26.55A8.32,8.32,0,0,0,.31,25.1a1,1,0,0,0-.11-.33H-.2a1,1,0,0,0-.11.33,8.32,8.32,0,0,0-.13,1.45V42.13a9,9,0,0,0,.12,1.48A1.11,1.11,0,0,0-.24,43.91Z"/><path class="cls-3" d="M0,17.73A11.52,11.52,0,0,1,5.77,19,7.08,7.08,0,0,1,8.83,22.6a15.78,15.78,0,0,1,.92,5.71v12A16,16,0,0,1,8.83,46a7.17,7.17,0,0,1-3.06,3.68A11.3,11.3,0,0,1,0,51a11.12,11.12,0,0,1-5.75-1.27,7.23,7.23,0,0,1-3-3.68,16,16,0,0,1-.91-5.71v-12a15.79,15.79,0,0,1,.91-5.71,7.13,7.13,0,0,1,3-3.62A11.33,11.33,0,0,1,0,17.73M0,45.92a2.12,2.12,0,0,0,1.64-.56,2.86,2.86,0,0,0,.68-1.43,10.76,10.76,0,0,0,.16-1.8V26.55a10.62,10.62,0,0,0-.16-1.82,2.83,2.83,0,0,0-.68-1.41A2.12,2.12,0,0,0,0,22.76a2,2,0,0,0-1.56.56,2.83,2.83,0,0,0-.68,1.41,10.62,10.62,0,0,0-.16,1.82V42.13a11.92,11.92,0,0,0,.14,1.8,2.82,2.82,0,0,0,.64,1.43A2.05,2.05,0,0,0,0,45.92M0,13.73a14.88,14.88,0,0,0-7.79,1.82,11,11,0,0,0-4.72,5.6,19.71,19.71,0,0,0-1.19,7.16v12a19.83,19.83,0,0,0,1.18,7.14,11.1,11.1,0,0,0,4.7,5.67A15,15,0,0,0,0,55a15,15,0,0,0,7.86-1.84,11.07,11.07,0,0,0,4.74-5.67,20,20,0,0,0,1.19-7.15v-12a19.77,19.77,0,0,0-1.2-7.16A10.92,10.92,0,0,0,7.8,15.54,15.12,15.12,0,0,0,0,13.73Z"/><path class="cls-7" d="M73.48,169V132.66H86.35a11.39,11.39,0,0,1,5.8,1.37,8.73,8.73,0,0,1,3.62,4.12A14.71,14.71,0,0,1,96.85,144a12.64,12.64,0,0,1-1.54,6.8,8.39,8.39,0,0,1-4.38,3.55,15.8,15.8,0,0,1-5.42.88h-.88V169ZM85,146.28a1.94,1.94,0,0,0,.85-.12.62.62,0,0,0,.09-.25,8.85,8.85,0,0,0,.17-2,10.44,10.44,0,0,0-.14-1.8.47.47,0,0,0-.17-.33h0a2.45,2.45,0,0,0-.84-.1h-.36v4.59Z"/><path class="cls-3" d="M86.35,134.66a9.31,9.31,0,0,1,4.79,1.1A6.66,6.66,0,0,1,93.93,139a12.55,12.55,0,0,1,.92,5.09,10.89,10.89,0,0,1-1.23,5.73,6.44,6.44,0,0,1-3.36,2.74,13.92,13.92,0,0,1-4.75.76H82.63V167H75.48V134.66H86.35m-3.72,13.62H85a3.47,3.47,0,0,0,2-.48,2.29,2.29,0,0,0,.89-1.44,11,11,0,0,0,.22-2.44,11.59,11.59,0,0,0-.18-2.17,2.43,2.43,0,0,0-.86-1.5,3.29,3.29,0,0,0-2.11-.56H82.63v8.59m3.72-17.62H71.48V171H86.63V157.24a17.47,17.47,0,0,0,5-1A10.4,10.4,0,0,0,97,151.9,14.5,14.5,0,0,0,98.85,144a16.67,16.67,0,0,0-1.25-6.69,10.62,10.62,0,0,0-4.44-5,13.26,13.26,0,0,0-6.81-1.65Z"/></g></svg>