<svg id="Warstwa_1" data-name="Warstwa 1" xmlns="http://www.w3.org/2000/svg" xmlns:xlink="http://www.w3.org/1999/xlink" viewBox="0 0 165 166.79"><defs><style>.cls-1,.cls-5{fill:none;}.cls-2{fill:#004087;}.cls-3{fill:#fff;}.cls-4{fill:url(#Gradient_bez_nazwy);}.cls-5{stroke:#c91619;stroke-width:1.17px;stroke-dasharray:5.32 3.09;}.cls-6{fill:#c91619;}</style><radialGradient id="Gradient_bez_nazwy" cx="-152.66" cy="1276.9" r="80.4" gradientTransform="matrix(0, 0.87, 1, 0, -1194.4, 213.88)" gradientUnits="userSpaceOnUse"><stop offset="0" stop-color="#fff"/><stop offset="1" stop-color="#a8a8a8"/></radialGradient></defs><title>temp</title><rect class="cls-1" y="-1.11" width="165" height="190"/><path class="cls-2" d="M82.5,169.18a4.64,4.64,0,0,1-2-.48l-92.6-46.85a4.51,4.51,0,0,1-2-6,4.49,4.49,0,0,1,4-2.47,4.47,4.47,0,0,1,2,.49l90.6,45.77,90.56-45.82a4.5,4.5,0,0,1,4.07,8L84.53,168.7A4.62,4.62,0,0,1,82.5,169.18Z"/><path class="cls-3" d="M-10.09,115.33A2.58,2.58,0,0,1-9,115.6l91.5,46.28L174,115.6a2.47,2.47,0,0,1,1.13-.27,2.5,2.5,0,0,1,1.13,4.73L83.63,166.91a2.5,2.5,0,0,1-2.26,0l-92.59-46.85a2.5,2.5,0,0,1-1.1-3.36,2.51,2.51,0,0,1,2.23-1.37m0-4a6.46,6.46,0,0,0-5.8,3.57A6.51,6.51,0,0,0-13,123.63h0l92.59,46.85a6.54,6.54,0,0,0,5.88,0L178,123.63a6.5,6.5,0,0,0-5.87-11.6L82.5,157.4-7.16,112a6.48,6.48,0,0,0-2.93-.7Z"/><polygon class="cls-4" points="156.95 117.7 156.95 43.23 82.5 6 8.05 43.23 8.05 117.7 82.5 154.93 156.95 117.7"/><polygon class="cls-5" points="160.67 119.56 160.67 41.37 82.5 2.28 4.33 41.37 4.33 119.56 82.5 158.66 160.67 119.56"/><ellipse class="cls-6" cx="82.5" cy="2.28" rx="1.83" ry="1.59"/><ellipse class="cls-6" cx="160.67" cy="41.19" rx="1.83" ry="1.59"/><ellipse class="cls-6" cx="160.67" cy="119.87" rx="1.83" ry="1.59"/><ellipse class="cls-6" cx="82.5" cy="158.66" rx="1.83" ry="1.59"/><ellipse class="cls-6" cx="4.33" cy="119.87" rx="1.83" ry="1.59"/><ellipse class="cls-6" cx="4.33" cy="41.3" rx="1.83" ry="1.59"/><path class="cls-2" d="M76.38,61.82l-1.9-15.7h3l.93,9.15,1.18-9.13h2.3l1.24,9.07,1-9.09h2.91l-1.88,15.7H82L80.7,52.34l-1.26,9.48Z"/><path class="cls-2" d="M23.1,85.06V72H20.73V69.37h8.2V72H26.58V85.06Z"/><path class="cls-2" d="M30.3,85.06V69.37h7.05v2.37H33.77v3.89H36.5V78H33.77v4.69h3.62v2.34Z"/><path class="cls-2" d="M38.9,85.06l.27-15.69h3.72l1.73,9.13,1.86-9.13h3.58l.27,15.69H47.87l-.29-10.44L45.76,85.06H43.57L41.64,74.54,41.4,85.06Z"/><path class="cls-2" d="M52.37,85.06V69.37h5.27A4.6,4.6,0,0,1,60,69.9a3.32,3.32,0,0,1,1.36,1.55,6.31,6.31,0,0,1,.44,2.47,5.27,5.27,0,0,1-.6,2.78A3.1,3.1,0,0,1,59.54,78a6.74,6.74,0,0,1-2.31.37h-1.4v6.66ZM55.83,76H57a1.74,1.74,0,0,0,1-.23,1.13,1.13,0,0,0,.43-.7,6.34,6.34,0,0,0,0-2.24,1.23,1.23,0,0,0-.42-.73,1.58,1.58,0,0,0-1-.27H55.83Z"/><path class="cls-2" d="M63.27,85.06V69.37h7.06v2.37H66.74v3.89h2.73V78H66.74v4.69h3.63v2.34Z"/><path class="cls-2" d="M71.93,85.06V69.37h4.32a9.68,9.68,0,0,1,2.75.35A3.36,3.36,0,0,1,80.82,71a4.33,4.33,0,0,1,.64,2.55,8.88,8.88,0,0,1-.15,1.72,3.12,3.12,0,0,1-.57,1.31,3.24,3.24,0,0,1-1.19.92l2.15,7.59H78.11l-1.72-7h-1v7Zm3.47-9h1a2,2,0,0,0,1.14-.27,1.36,1.36,0,0,0,.57-.75,3.79,3.79,0,0,0,.17-1.19,2.81,2.81,0,0,0-.37-1.57,1.48,1.48,0,0,0-1.35-.56H75.4Z"/><path class="cls-2" d="M82.8,85.06l3-15.69h4l2.92,15.69H89.45l-.53-3.31h-2.3l-.54,3.31Zm4.13-5.38h1.66l-.83-6.12Z"/><path class="cls-2" d="M94.81,85.06V72H92.45V69.37h8.19V72H98.3V85.06Z"/><path class="cls-2" d="M106.55,85.3a5.69,5.69,0,0,1-2.82-.59A3.21,3.21,0,0,1,102.31,83a8.28,8.28,0,0,1-.41-2.78V69.37h3.43V80.72a6.24,6.24,0,0,0,.08,1,1.54,1.54,0,0,0,.34.8,1,1,0,0,0,.8.31,1,1,0,0,0,.82-.31,1.71,1.71,0,0,0,.32-.8,7.77,7.77,0,0,0,.06-1V69.37h3.45V80.2a8.28,8.28,0,0,1-.41,2.78,3.27,3.27,0,0,1-1.43,1.73A5.62,5.62,0,0,1,106.55,85.3Z"/><path class="cls-2" d="M113.41,85.06V69.37h4.32a9.68,9.68,0,0,1,2.75.35A3.3,3.3,0,0,1,122.29,71a4.26,4.26,0,0,1,.65,2.55,8.88,8.88,0,0,1-.15,1.72,3.26,3.26,0,0,1-.58,1.31,3.08,3.08,0,0,1-1.19.92l2.15,7.59h-3.58l-1.72-7h-1v7Zm3.47-9h1a2,2,0,0,0,1.14-.27,1.36,1.36,0,0,0,.57-.75,3.79,3.79,0,0,0,.17-1.19,2.89,2.89,0,0,0-.37-1.57A1.5,1.5,0,0,0,118,71.7h-1.12Z"/><path class="cls-2" d="M124.43,85.06V83l3.84-11.25h-3.66V69.37h7.07v2l-3.9,11.39h3.94v2.34Z"/><path class="cls-2" d="M133.33,85.06V69.37h7v2.37h-3.59v3.89h2.73V78h-2.73v4.69h3.63v2.34Z"/><path class="cls-2" d="M36.25,108.31V92.62h5.27a4.58,4.58,0,0,1,2.32.53A3.27,3.27,0,0,1,45.2,94.7a6.09,6.09,0,0,1,.45,2.47A5.16,5.16,0,0,1,45,100a3.15,3.15,0,0,1-1.62,1.33,7,7,0,0,1-2.31.37H39.72v6.66Zm3.47-9.09h1.16a1.64,1.64,0,0,0,1-.23,1.15,1.15,0,0,0,.44-.7,5.51,5.51,0,0,0,.1-1.18,5.41,5.41,0,0,0-.09-1,1.14,1.14,0,0,0-.41-.73,1.61,1.61,0,0,0-1-.27H39.72Z"/><path class="cls-2" d="M51.81,108.54a5.29,5.29,0,0,1-2.79-.62,3.43,3.43,0,0,1-1.48-1.78,7.89,7.89,0,0,1-.44-2.77V97.54a7.77,7.77,0,0,1,.44-2.77A3.4,3.4,0,0,1,49,93a5.4,5.4,0,0,1,2.79-.61,5.5,5.5,0,0,1,2.81.61,3.37,3.37,0,0,1,1.49,1.75,7.77,7.77,0,0,1,.44,2.77v5.83a7.89,7.89,0,0,1-.44,2.77,3.4,3.4,0,0,1-1.49,1.78A5.4,5.4,0,0,1,51.81,108.54Zm0-2.46a1,1,0,0,0,.79-.27,1.31,1.31,0,0,0,.33-.7,4.94,4.94,0,0,0,.08-.87V96.69a4.88,4.88,0,0,0-.08-.88,1.31,1.31,0,0,0-.33-.69,1,1,0,0,0-.79-.27,1,1,0,0,0-.76.27,1.31,1.31,0,0,0-.33.69,4.88,4.88,0,0,0-.08.88v7.55a6.13,6.13,0,0,0,.07.87,1.37,1.37,0,0,0,.31.7A1,1,0,0,0,51.81,106.08Z"/><path class="cls-2" d="M58.66,108.31V92.62h3.47V99l2.64-6.41h3.39l-2.91,7.09,3,8.6H64.77l-2.27-6.93-.37.62v6.31Z"/><path class="cls-2" d="M73.76,108.54a5.29,5.29,0,0,1-2.79-.62,3.43,3.43,0,0,1-1.48-1.78,7.89,7.89,0,0,1-.44-2.77V97.54a7.77,7.77,0,0,1,.44-2.77A3.4,3.4,0,0,1,71,93a5.4,5.4,0,0,1,2.79-.61,5.5,5.5,0,0,1,2.81.61,3.42,3.42,0,0,1,1.49,1.75,7.77,7.77,0,0,1,.44,2.77v5.83a7.89,7.89,0,0,1-.44,2.77,3.45,3.45,0,0,1-1.49,1.78A5.4,5.4,0,0,1,73.76,108.54Zm0-2.46a1,1,0,0,0,.79-.27,1.31,1.31,0,0,0,.33-.7,4.94,4.94,0,0,0,.08-.87V96.69a4.88,4.88,0,0,0-.08-.88,1.31,1.31,0,0,0-.33-.69,1,1,0,0,0-.79-.27,1,1,0,0,0-.76.27,1.31,1.31,0,0,0-.33.69,4.88,4.88,0,0,0-.08.88v7.55a6.13,6.13,0,0,0,.07.87,1.37,1.37,0,0,0,.31.7A1,1,0,0,0,73.76,106.08Z"/><path class="cls-2" d="M79.55,108.72V106.3a5.66,5.66,0,0,0,.89-.06A1.41,1.41,0,0,0,81,106a1,1,0,0,0,.31-.49,3.05,3.05,0,0,0,.1-.82V92.62h3.46v12.24a6.29,6.29,0,0,1-.31,2.14,2.34,2.34,0,0,1-1.12,1.29,4.7,4.7,0,0,1-2.23.43Z"/><path class="cls-2" d="M91.71,108.54a5.34,5.34,0,0,1-2.79-.62,3.46,3.46,0,0,1-1.47-1.78,7.67,7.67,0,0,1-.44-2.77V97.54a7.56,7.56,0,0,1,.44-2.77A3.43,3.43,0,0,1,88.92,93a5.45,5.45,0,0,1,2.79-.61,5.52,5.52,0,0,1,2.82.61A3.36,3.36,0,0,1,96,94.77a7.55,7.55,0,0,1,.45,2.77v5.83a7.66,7.66,0,0,1-.45,2.77,3.38,3.38,0,0,1-1.48,1.78A5.41,5.41,0,0,1,91.71,108.54Zm0-2.46a1,1,0,0,0,.8-.27,1.31,1.31,0,0,0,.33-.7,4.94,4.94,0,0,0,.07-.87V96.69a4.91,4.91,0,0,0-.07-.88,1.31,1.31,0,0,0-.33-.69,1,1,0,0,0-.8-.27,1,1,0,0,0-.75.27,1.31,1.31,0,0,0-.33.69,4.88,4.88,0,0,0-.08.88v7.55a4.94,4.94,0,0,0,.07.87,1.29,1.29,0,0,0,.31.7A1,1,0,0,0,91.71,106.08Z"/><path class="cls-2" d="M99.83,108.31l-1.9-15.69h2.95l.93,9.14L103,92.64h2.3l1.24,9.06,1-9.08h2.91l-1.88,15.69h-3l-1.34-9.47-1.26,9.47Z"/><path class="cls-2" d="M112,108.31V92.62h7V95h-3.59v3.9h2.74v2.4h-2.74V106h3.63v2.34Z"/><path class="cls-2" d="M119.75,108.72V106.3a5.75,5.75,0,0,0,.89-.06,1.41,1.41,0,0,0,.58-.22,1,1,0,0,0,.31-.49,3.1,3.1,0,0,0,.09-.82V92.62h3.47v12.24a6,6,0,0,1-.32,2.14,2.28,2.28,0,0,1-1.11,1.29,4.7,4.7,0,0,1-2.23.43Z"/></svg>