<svg id="Warstwa_2" data-name="Warstwa 2" xmlns="http://www.w3.org/2000/svg" viewBox="0 0 480 225"><defs><style>.cls-1{fill:#174282;}</style></defs><title>text_reco_PTO</title><path class="cls-1" d="M38.92,83.93H37.24l-3.72-5.4h-.35v5.4H31.79V71.6h2a4.93,4.93,0,0,1,3,.67,3.34,3.34,0,0,1,1.37,2.79A3.22,3.22,0,0,1,35,78.42ZM34,77.31c1.74,0,2.72-.81,2.72-2.25a2,2,0,0,0-.91-1.77A3.33,3.33,0,0,0,34,72.88h-.82v4.43Z"/><path class="cls-1" d="M41.32,80.36A2.46,2.46,0,0,0,43.76,83c1,0,1.63-.42,2.37-1.61l1.11.63a3.79,3.79,0,0,1-3.53,2.18,4,4,0,0,1-.06-8.05c2.2,0,3.66,1.6,3.66,4v.22Zm4.6-1.1a2.28,2.28,0,0,0-2.25-2,2.34,2.34,0,0,0-2.26,2Z"/><path class="cls-1" d="M50.63,79.09l2.78-2.83h1.75l-3.27,3.27,3.9,4.4H54.05L51,80.44l-.34.33v3.16H49.32V70.46h1.31Z"/><path class="cls-1" d="M64.23,80.12a4.06,4.06,0,1,1-8.11-.07,4,4,0,0,1,4.07-4A4,4,0,0,1,64.23,80.12Zm-6.76,0a2.71,2.71,0,1,0,2.7-2.79A2.67,2.67,0,0,0,57.47,80.09Z"/><path class="cls-1" d="M67.56,76.26v.83a2.16,2.16,0,0,1,1.9-1,2.31,2.31,0,0,1,2.11,1.23,2.43,2.43,0,0,1,2.24-1.23,2.4,2.4,0,0,1,2.07,1,3.57,3.57,0,0,1,.42,2v4.86H75V79.27c0-1.4-.41-2-1.39-2S72,78.07,72,79.68v4.25H70.65V79.38c0-1.4-.48-2.1-1.43-2.1a1.58,1.58,0,0,0-1.38.83,3.69,3.69,0,0,0-.28,1.64v4.18H66.25V76.26Z"/><path class="cls-1" d="M79.7,80.36A2.45,2.45,0,0,0,82.14,83c1,0,1.62-.42,2.36-1.61l1.11.63a3.78,3.78,0,0,1-3.53,2.18,4,4,0,0,1,0-8.05c2.2,0,3.66,1.6,3.66,4v.22Zm4.6-1.1a2.29,2.29,0,0,0-2.25-2,2.33,2.33,0,0,0-2.26,2Z"/><path class="cls-1" d="M89,76.26v.93a2.54,2.54,0,0,1,2.22-1.11,2.63,2.63,0,0,1,2.2,1,3.74,3.74,0,0,1,.42,2.05v4.75H92.54V79.4a2.53,2.53,0,0,0-.26-1.49,1.55,1.55,0,0,0-1.37-.63c-1.33,0-1.9.85-1.9,2.82v3.83H87.7V76.26Z"/><path class="cls-1" d="M103.54,70.46V83.93H102.2V82.88a3.16,3.16,0,0,1-2.64,1.27,3.78,3.78,0,0,1-3.68-4.06,3.72,3.72,0,0,1,3.66-4,3.3,3.3,0,0,1,2.68,1.25V70.46Zm-6.31,9.59A2.64,2.64,0,0,0,99.75,83a3,3,0,0,0,1.77-5,2.66,2.66,0,0,0-1.75-.7A2.6,2.6,0,0,0,97.23,80.05Z"/><path class="cls-1" d="M113.22,76.26v7.67H111.9V82.86a3.21,3.21,0,0,1-2.64,1.29,3.78,3.78,0,0,1-3.69-4.08,3.72,3.72,0,0,1,3.66-4,3.23,3.23,0,0,1,2.67,1.27V76.26Zm-6.3,3.79a2.56,2.56,0,1,0,5.08,0,2.55,2.55,0,1,0-5.08,0Z"/><path class="cls-1" d="M121.7,78.55a3,3,0,0,0-2.42-1.25,2.83,2.83,0,0,0,0,5.65,3.07,3.07,0,0,0,2.49-1.33v1.74a4.15,4.15,0,0,1-2.45.79,4,4,0,1,1,0-8.05,4,4,0,0,1,2.39.72Z"/><path class="cls-1" d="M125.41,73.36a.94.94,0,1,1-.94-.94A.94.94,0,0,1,125.41,73.36Zm-.29,14.89H123.8v-12h1.32Z"/><path class="cls-1" d="M134.82,76.26v7.67H133.5V82.86a3.21,3.21,0,0,1-2.64,1.29,3.78,3.78,0,0,1-3.69-4.08,3.72,3.72,0,0,1,3.66-4,3.23,3.23,0,0,1,2.67,1.27V76.26Zm-6.3,3.79a2.56,2.56,0,1,0,5.08,0,2.55,2.55,0,1,0-5.08,0Z"/><path class="cls-1" d="M143.69,83.93H142.3V71.6h2.24a4.34,4.34,0,0,1,3.1.87,3.41,3.41,0,0,1,1.15,2.61,3.55,3.55,0,0,1-1,2.51,4.17,4.17,0,0,1-2.88.94h-1.2Zm1.1-6.65c1.69,0,2.65-.82,2.65-2.22a2.14,2.14,0,0,0-.69-1.63,3,3,0,0,0-2.05-.55h-1v4.4Z"/><path class="cls-1" d="M153.74,83.93h-1.39V72.88h-3V71.6h7.35v1.28h-3Z"/><path class="cls-1" d="M170,77.78a6.41,6.41,0,0,1-6.46,6.37A6.56,6.56,0,0,1,158.8,82a6.27,6.27,0,0,1-1.59-4.29,6.41,6.41,0,0,1,12.82.08ZM158.6,77.7a4.93,4.93,0,0,0,1.57,3.75,5.08,5.08,0,1,0-1.57-3.75Z"/><path class="cls-1" d="M182,74.32a5.17,5.17,0,0,0-3.73-1.62,5.08,5.08,0,0,0-5,5.13,5,5,0,0,0,5,5A5.19,5.19,0,0,0,182,81.25V83a6.3,6.3,0,0,1-3.71,1.2,6.38,6.38,0,1,1,.07-12.75A5.83,5.83,0,0,1,182,72.62Z"/><path class="cls-1" d="M185.46,70.46v6.71a2.59,2.59,0,0,1,2.2-1.07,2.63,2.63,0,0,1,2.2,1.05,3.47,3.47,0,0,1,.44,2v4.75H189V79.27c0-1.4-.46-2-1.59-2a1.69,1.69,0,0,0-1.62.9,4.06,4.06,0,0,0-.32,1.9v3.83h-1.31V70.46Z"/><path class="cls-1" d="M204.64,77.74v.31a6.13,6.13,0,0,1-.64,3.13,6,6,0,0,1-5.2,3,6.38,6.38,0,0,1,.11-12.75,6.22,6.22,0,0,1,3.77,1.26,7.51,7.51,0,0,1,1.43,1.42l-1,.92a4.93,4.93,0,0,0-4.16-2.3,5.08,5.08,0,0,0-.11,10.16,4.6,4.6,0,0,0,3.84-2.11,3.33,3.33,0,0,0,.5-1.73H199.5V77.74Z"/><path class="cls-1" d="M208.43,73.36a.95.95,0,1,1-.94-.94A.95.95,0,0,1,208.43,73.36Zm-.3,10.57h-1.31V76.26h1.31Z"/><path class="cls-1" d="M216.5,74a2.22,2.22,0,0,0-2.12-1.33,1.93,1.93,0,0,0-2,1.9,1.56,1.56,0,0,0,.77,1.33,11.91,11.91,0,0,0,2.13,1c2,.87,2.79,1.85,2.79,3.4a3.81,3.81,0,0,1-3.92,3.79A3.73,3.73,0,0,1,210.33,81l1.33-.37a3.13,3.13,0,0,0,.5,1.26,2.49,2.49,0,0,0,4.49-1.42,2,2,0,0,0-1-1.76,14.13,14.13,0,0,0-2.18-1.07c-1.77-.79-2.49-1.68-2.49-3a3.25,3.25,0,0,1,3.46-3.18,3.49,3.49,0,0,1,3.17,1.92Z"/><path class="cls-1" d="M227.05,82.71v1.22h-7.94l5.56-6.45h-4.53V76.26h7.15l-5.52,6.45Z"/><path class="cls-1" d="M236,81.45l2.4-5.78,2.38,5.78,2.3-5.19h1.47l-3.8,8.21-2.37-5.71L236,84.47l-3.77-8.21h1.48Z"/><path class="cls-1" d="M252.63,83.93h-2.24V77.87h-.89V75.93h.89V73.19h2.24v2.74h1.58v1.94h-1.58Z"/><path class="cls-1" d="M257.25,80.29c.05,1.39.73,2.14,1.95,2.14a2.09,2.09,0,0,0,1.91-1.07l2.07.33a3.94,3.94,0,0,1-3.92,2.5A4,4,0,0,1,255,79.94a4,4,0,0,1,4.2-4.27c2.53,0,4.1,1.64,4.1,4.32v.3Zm3.86-1.42a1.92,1.92,0,0,0-3.79,0Z"/><path class="cls-1" d="M267.19,75.93v1.22a2.5,2.5,0,0,1,2.32-1.48,2.26,2.26,0,0,1,1,.2L270.18,78a2.1,2.1,0,0,0-2.5.3,2.51,2.51,0,0,0-.49,1.83v3.84H265v-8Z"/><path class="cls-1" d="M279.9,75.93v8h-2.24v-1A3.09,3.09,0,0,1,275,84.19a4.27,4.27,0,0,1,0-8.52A3.27,3.27,0,0,1,277.66,77v-1Zm-6.49,4a2.25,2.25,0,0,0,4.49,0,2.25,2.25,0,1,0-4.49,0Z"/><path class="cls-1" d="M282,88.2V75.93h2.24v1a3.09,3.09,0,0,1,2.62-1.29,4.27,4.27,0,0,1,0,8.52,3.3,3.3,0,0,1-2.66-1.29v5.3Zm2-8.28a2.25,2.25,0,1,0,2.25-2.24A2.25,2.25,0,0,0,284,79.92Z"/><path class="cls-1" d="M295,72.55a1.35,1.35,0,1,1-1.35-1.35A1.36,1.36,0,0,1,295,72.55Zm-.24,11.38h-2.23v-8h2.23Z"/><path class="cls-1" d="M299.3,72.55A1.35,1.35,0,1,1,298,71.2,1.36,1.36,0,0,1,299.3,72.55Zm-.24,11.38h-2.24v-8h2.24Z"/><path class="cls-1" d="M303.86,77.09a1.45,1.45,0,1,1-2.9,0,1.46,1.46,0,0,1,1.44-1.44A1.44,1.44,0,0,1,303.86,77.09Zm0,5.62a1.45,1.45,0,1,1-2.9,0,1.46,1.46,0,0,1,1.44-1.44A1.44,1.44,0,0,1,303.86,82.71Z"/><path class="cls-1" d="M35,101v2.53H30.18V101Z"/><path class="cls-1" d="M48.84,104.2v2.53H40.12l4.06-6.08H40.67V98.12h8.57l-4,6.08Z"/><path class="cls-1" d="M60.39,98.12v8.61h-3v-1A3.12,3.12,0,0,1,54.69,107a4.43,4.43,0,0,1-4.35-4.62,4.38,4.38,0,0,1,4.33-4.56A3.44,3.44,0,0,1,57.35,99v-.84Zm-6.88,4.28a2,2,0,0,0,2,2,2,2,0,0,0,0-3.93A2,2,0,0,0,53.51,102.4Z"/><path class="cls-1" d="M65.86,106.73h-3v-6.08h-1V98.12h1V95.54h3v2.58h1.73v2.53H65.86Z"/><path class="cls-1" d="M78.91,102.42c0,2.73-2.14,4.63-5.22,4.63s-5.13-1.93-5.13-4.71c0-2.6,2.2-4.54,5.17-4.54S78.91,99.72,78.91,102.42Zm-7.14,0a2,2,0,1,0,2-2A2,2,0,0,0,71.77,102.38Z"/><path class="cls-1" d="M83.7,101.22l3.19-3.1h4.16l-4.31,4,4.58,4.64H87l-3.34-3.5v3.5h-3V92.81h3Z"/><path class="cls-1" d="M97.13,111V98.12h3v.95a3.11,3.11,0,0,1,2.66-1.23,4.6,4.6,0,0,1,0,9.18,3.46,3.46,0,0,1-2.68-1.13V111Zm3-8.62a2,2,0,0,0,3.93,0,2,2,0,1,0-3.93,0Z"/><path class="cls-1" d="M112,98.12v1.41A3.05,3.05,0,0,1,114.78,98c.16,0,.31,0,.59,0v2.91a2.44,2.44,0,0,0-1.29-.33c-1.42,0-2.13.82-2.13,2.43v3.69h-3V98.12Z"/><path class="cls-1" d="M124.85,104.2v2.53h-8.72l4.07-6.08h-3.51V98.12h8.56l-4,6.08Z"/><path class="cls-1" d="M125.65,98.12h3.54l2.3,4.41,2.24-4.41h3.47L130.29,111h-3.4l2.92-5.47Z"/><path class="cls-1" d="M141.29,98.12v1.09A3.18,3.18,0,0,1,144,97.93a3.23,3.23,0,0,1,2.49.95,2.88,2.88,0,0,1,.8,2.38v5.47h-3v-4.35c0-.87,0-1-.19-1.37a1.32,1.32,0,0,0-1.21-.66,1.72,1.72,0,0,0-1.28.57,1.76,1.76,0,0,0-.32,1.19v4.62h-3V98.12Z"/><path class="cls-1" d="M159.41,102.42c0,2.73-2.14,4.63-5.22,4.63s-5.13-1.93-5.13-4.71c0-2.6,2.21-4.54,5.17-4.54S159.41,99.72,159.41,102.42Zm-7.14,0a2,2,0,1,0,2-2A2,2,0,0,0,152.27,102.38Z"/><path class="cls-1" d="M166.88,100.35a3.61,3.61,0,0,0-1.65-.42c-.53,0-.93.26-.93.61s.23.49,1.37.74c1.69.34,2.5,1.16,2.5,2.54,0,2-1.61,3.23-4.1,3.23a6.54,6.54,0,0,1-3.44-1l1.1-2.14a4.83,4.83,0,0,0,2.44.87c.55,0,1-.28,1-.66s-.27-.57-1.3-.8c-1.82-.38-2.52-1-2.52-2.39,0-1.92,1.46-3.12,3.83-3.12a6.58,6.58,0,0,1,2.78.55Z"/><path class="cls-1" d="M179.73,102.42c0,2.73-2.15,4.63-5.23,4.63s-5.13-1.93-5.13-4.71c0-2.6,2.21-4.54,5.17-4.54S179.73,99.72,179.73,102.42Zm-7.15,0a2,2,0,1,0,2-2A2,2,0,0,0,172.58,102.38Z"/><path class="cls-1" d="M185.52,102.66l2.17-4.54h1.9l2.16,4.68,2.17-4.68h3.38l-4.5,8.61h-2.05L188.6,102l-2,4.71H184.5l-4.43-8.61h3.4Z"/><path class="cls-1" d="M197.3,98.12h3.54l2.29,4.41,2.25-4.41h3.47L201.94,111h-3.4l2.92-5.47Z"/><path class="cls-1" d="M215.94,100.92a2.64,2.64,0,0,0-1.58-.54,2.08,2.08,0,1,0,0,4.15,2.41,2.41,0,0,0,1.58-.57v2.58a5.15,5.15,0,0,1-2.13.48,4.58,4.58,0,1,1,.08-9.16,4.18,4.18,0,0,1,2.05.47Z"/><path class="cls-1" d="M220.71,92.81v6.4a3.18,3.18,0,0,1,2.75-1.28,3.24,3.24,0,0,1,2.49.95,2.88,2.88,0,0,1,.8,2.38v5.47h-3v-4.35c0-.87,0-1-.19-1.37a1.33,1.33,0,0,0-1.22-.66,1.72,1.72,0,0,0-1.27.57,1.76,1.76,0,0,0-.32,1.19v4.62h-3V92.81Z"/><path class="cls-1" d="M35,123.77v2.53H30.18v-2.53Z"/><path class="cls-1" d="M43.82,125.81a1.55,1.55,0,1,0,3.1,0v-4.89h3v5.48c0,2.28-1.6,3.49-4.58,3.49s-4.6-1.21-4.6-3.49v-5.48h3Z"/><path class="cls-1" d="M58.53,123.72a2.63,2.63,0,0,0-1.58-.53,2.07,2.07,0,1,0,0,4.14,2.42,2.42,0,0,0,1.58-.57v2.58a5.15,5.15,0,0,1-2.13.48,4.58,4.58,0,1,1,.08-9.16,4.23,4.23,0,0,1,2.05.47Z"/><path class="cls-1" d="M63.3,115.61V122a3.16,3.16,0,0,1,2.75-1.28,3.26,3.26,0,0,1,2.49,1,2.88,2.88,0,0,1,.8,2.38v5.47h-3v-4.35c0-.87,0-1.05-.19-1.37a1.34,1.34,0,0,0-1.22-.66,1.74,1.74,0,0,0-1.27.57,1.76,1.76,0,0,0-.32,1.19v4.62h-3V115.61Z"/><path class="cls-1" d="M81.12,120.92v8.61h-3v-.95a3.09,3.09,0,0,1-2.66,1.24,4.43,4.43,0,0,1-4.35-4.62,4.38,4.38,0,0,1,4.33-4.56,3.44,3.44,0,0,1,2.68,1.12v-.84Zm-6.88,4.28a2,2,0,0,0,2,2,2,2,0,0,0,0-3.93A2,2,0,0,0,74.24,125.2Z"/><path class="cls-1" d="M93.66,123.15a3.61,3.61,0,0,0-1.66-.42c-.53,0-.93.27-.93.61s.23.49,1.37.74c1.69.34,2.51,1.16,2.51,2.54,0,2-1.62,3.23-4.1,3.23a6.61,6.61,0,0,1-3.44-1l1.1-2.15a4.83,4.83,0,0,0,2.43.87c.55,0,1-.28,1-.66s-.27-.57-1.29-.8c-1.82-.38-2.53-1-2.53-2.39,0-1.92,1.47-3.12,3.84-3.12a6.56,6.56,0,0,1,2.77.55Zm-2.22-3.5-1.41-1,2.39-2.93,1.94,1.39Z"/><path class="cls-1" d="M99.53,120.92v1.41a3,3,0,0,1,2.83-1.54c.15,0,.3,0,.59,0v2.91a2.46,2.46,0,0,0-1.29-.33c-1.43,0-2.13.82-2.13,2.43v3.69h-3v-8.61Z"/><path class="cls-1" d="M114.42,125.22c0,2.73-2.14,4.63-5.22,4.63s-5.13-1.93-5.13-4.71c0-2.6,2.2-4.54,5.17-4.54S114.42,122.52,114.42,125.22Zm-7.14,0a2,2,0,1,0,2-2A2,2,0,0,0,107.28,125.18Z"/><path class="cls-1" d="M125.88,115.61v13.92h-3v-.95a3.08,3.08,0,0,1-2.66,1.24,4.43,4.43,0,0,1-4.35-4.62,4.38,4.38,0,0,1,4.33-4.56,3.44,3.44,0,0,1,2.68,1.12v-6.15ZM119,125.2a2,2,0,0,0,2,2,2,2,0,1,0,0-3.93A2,2,0,0,0,119,125.2Z"/><path class="cls-1" d="M131,124l3.19-3.1h4.16l-4.31,4,4.58,4.64h-4.27L131,126v3.49h-3V115.61h3Z"/><path class="cls-1" d="M149.14,125.22c0,2.73-2.15,4.63-5.23,4.63s-5.13-1.93-5.13-4.71c0-2.6,2.21-4.54,5.17-4.54S149.14,122.52,149.14,125.22Zm-7.15,0a2,2,0,1,0,2-2A2,2,0,0,0,142,125.18Z"/><path class="cls-1" d="M154.93,125.46l2.17-4.54H159l2.16,4.68,2.17-4.68h3.38l-4.5,8.61h-2.05L158,124.82l-2,4.71h-2.05l-4.43-8.61h3.4Z"/><path class="cls-1" d="M170.11,125.79c0,1.29.63,1.94,1.85,1.94a1.53,1.53,0,0,0,1.5-.82h2.92a3.61,3.61,0,0,1-.76,1.52,4.77,4.77,0,0,1-3.66,1.44c-3,0-4.92-1.8-4.92-4.58s1.84-4.61,4.78-4.61,4.7,1.8,4.7,4.8v.31Zm3.58-1.77a1.76,1.76,0,0,0-1.79-1.39,1.62,1.62,0,0,0-1.71,1.39Z"/><path class="cls-1" d="M187.88,128.94c0,1.82-.27,2.66-1.16,3.55a5.16,5.16,0,0,1-3.84,1.39,5,5,0,0,1-3.95-1.52,3,3,0,0,1-.93-1.78h3.42a1.35,1.35,0,0,0,1.44.87,2,2,0,0,0,1.62-.74,2.41,2.41,0,0,0,.36-1.33v-.8a3.55,3.55,0,0,1-2.72,1.12,4.12,4.12,0,0,1-4.22-4.35,4.42,4.42,0,0,1,4.37-4.67,3.07,3.07,0,0,1,2.57,1.14v-.9h3Zm-6.8-3.76a2,2,0,1,0,1.95-1.94A2,2,0,0,0,181.08,125.18Z"/><path class="cls-1" d="M200,125.22c0,2.73-2.15,4.63-5.22,4.63s-5.13-1.93-5.13-4.71c0-2.6,2.2-4.54,5.16-4.54S200,122.52,200,125.22Zm-7.14,0a2,2,0,1,0,1.95-2A2,2,0,0,0,192.84,125.18Z"/><path class="cls-1" d="M35,146.58v2.52H30.18v-2.52Z"/><path class="cls-1" d="M43.82,144.56a3.44,3.44,0,0,1,2.68-1.12A4.39,4.39,0,0,1,50.83,148a4.43,4.43,0,0,1-4.35,4.62,3.17,3.17,0,0,1-2.66-1.24v1h-3V138.41h3ZM43.73,148a2,2,0,1,0,2-2A2,2,0,0,0,43.73,148Z"/><path class="cls-1" d="M56.21,143.82l1.44-1v2.45l-1.44,1v6.12h-3v-4.65l-1.46,1v-2.43l1.46-.95v-6.89h3Z"/><path class="cls-1" d="M68.9,148c0,2.73-2.15,4.63-5.22,4.63s-5.13-1.93-5.13-4.71c0-2.6,2.2-4.54,5.16-4.54S68.9,145.32,68.9,148Zm-7.14,0a2,2,0,1,0,2-2A2,2,0,0,0,61.76,148Z"/><path class="cls-1" d="M73.69,143.73v1.08a3.17,3.17,0,0,1,2.75-1.27,3.21,3.21,0,0,1,2.49,1,2.85,2.85,0,0,1,.8,2.37v5.47h-3V148c0-.87,0-1-.19-1.37a1.33,1.33,0,0,0-1.22-.66,1.53,1.53,0,0,0-1.59,1.76v4.62h-3v-8.6Z"/><path class="cls-1" d="M80.42,143.73H84l2.3,4.4,2.24-4.4H92l-6.92,12.91h-3.4l2.93-5.47Z"/><path class="cls-1" d="M103.48,146a3.61,3.61,0,0,0-1.65-.42c-.53,0-.93.27-.93.61s.22.49,1.36.74c1.7.34,2.51,1.16,2.51,2.54,0,2-1.61,3.23-4.1,3.23a6.61,6.61,0,0,1-3.44-1l1.1-2.15a4.83,4.83,0,0,0,2.43.87c.55,0,.95-.28.95-.66s-.26-.57-1.29-.8c-1.82-.38-2.52-1-2.52-2.39,0-1.92,1.46-3.12,3.83-3.12a6.58,6.58,0,0,1,2.78.55Zm-2.22-3.5-1.41-1,2.4-2.93,1.93,1.39Z"/><path class="cls-1" d="M109.35,152.33h-3V138.41h3Z"/><path class="cls-1" d="M114.46,148.61a1.55,1.55,0,1,0,3.1,0v-4.88h3v5.47c0,2.28-1.6,3.49-4.58,3.49s-4.6-1.21-4.6-3.49v-5.47h3Z"/><path class="cls-1" d="M130.73,149.8v2.53H122l4.06-6.08h-3.51v-2.52h8.56l-4,6.07Z"/><path class="cls-1" d="M142.43,148c0,2.73-2.15,4.63-5.22,4.63s-5.13-1.93-5.13-4.71c0-2.6,2.2-4.54,5.16-4.54S142.43,145.32,142.43,148Zm-7.14,0a2,2,0,1,0,2-2A2,2,0,0,0,135.29,148Z"/><path class="cls-1" d="M148.23,148.27l2.16-4.54h1.9l2.17,4.67,2.16-4.67H160l-4.5,8.6h-2.05l-2.15-4.71-2.05,4.71H147.2l-4.43-8.6h3.4Z"/><path class="cls-1" d="M163.41,148.59c0,1.29.62,1.94,1.84,1.94a1.53,1.53,0,0,0,1.5-.82h2.93a3.61,3.61,0,0,1-.76,1.52,4.8,4.8,0,0,1-3.67,1.44c-3,0-4.92-1.8-4.92-4.58s1.84-4.61,4.79-4.61,4.69,1.8,4.69,4.8v.31Zm3.57-1.77a1.75,1.75,0,0,0-1.79-1.38,1.61,1.61,0,0,0-1.71,1.38Z"/><path class="cls-1" d="M174.86,140.42a1.71,1.71,0,1,1-1.71-1.71A1.7,1.7,0,0,1,174.86,140.42Zm-.19,16.22h-3V143.73h3Z"/><path class="cls-1" d="M184.53,143.73v1.08a3.18,3.18,0,0,1,2.76-1.27,3.22,3.22,0,0,1,2.49,1,2.85,2.85,0,0,1,.8,2.37v5.47h-3V148c0-.87,0-1-.19-1.37a1.34,1.34,0,0,0-1.22-.66,1.74,1.74,0,0,0-1.27.57,1.76,1.76,0,0,0-.33,1.19v4.62h-3v-8.6Z"/><path class="cls-1" d="M202.66,148c0,2.73-2.15,4.63-5.23,4.63s-5.12-1.93-5.12-4.71c0-2.6,2.2-4.54,5.16-4.54S202.66,145.32,202.66,148Zm-7.14,0a2,2,0,1,0,1.95-2A2,2,0,0,0,195.52,148Z"/><path class="cls-1" d="M210.13,146a3.61,3.61,0,0,0-1.66-.42c-.53,0-.93.27-.93.61s.23.49,1.37.74c1.69.34,2.51,1.16,2.51,2.54,0,2-1.62,3.23-4.11,3.23a6.61,6.61,0,0,1-3.43-1l1.1-2.15a4.83,4.83,0,0,0,2.43.87c.55,0,1-.28,1-.66s-.27-.57-1.29-.8c-1.83-.38-2.53-1-2.53-2.39,0-1.92,1.46-3.12,3.84-3.12a6.56,6.56,0,0,1,2.77.55Z"/><path class="cls-1" d="M222.67,143.73v8.6h-3v-1a3.11,3.11,0,0,1-2.66,1.24,4.43,4.43,0,0,1-4.35-4.62,4.39,4.39,0,0,1,4.33-4.56,3.44,3.44,0,0,1,2.68,1.12v-.83ZM215.79,148a2,2,0,1,0,2-1.94A2,2,0,0,0,215.79,148Z"/><path class="cls-1" d="M228.86,138.59a13.65,13.65,0,0,0,0,9.21l-.69.32a14,14,0,0,1,0-9.84Z"/><path class="cls-1" d="M231.45,145.91l1.65-2.31a2,2,0,0,1-.66.1,2.34,2.34,0,0,1-2.31-2.37,2.48,2.48,0,0,1,5,0,2.88,2.88,0,0,1-.59,1.66L232,146.35Zm-.53-4.62a1.69,1.69,0,1,0,1.69-1.67A1.69,1.69,0,0,0,230.92,141.29Z"/><path class="cls-1" d="M236.34,147.8a13.5,13.5,0,0,0,0-9.21l.68-.31a13.9,13.9,0,0,1,0,9.84Z"/></svg>