<svg id="Warstwa_1" data-name="Warstwa 1" xmlns="http://www.w3.org/2000/svg" viewBox="0 0 480 225"><defs><style>.cls-1{fill:#174282;}.cls-2{fill:#cd181c;}</style></defs><title>text_reco_2019</title><path class="cls-1" d="M41,58l1.65-3.71.79.32-1.36,3.79Zm2.41,0,1.66-3.71.8.32L44.5,58.41Z"/><path class="cls-1" d="M49.46,61.59a3.87,3.87,0,0,0,.36,2.11,2.84,2.84,0,0,0,2.33,1.18,2.81,2.81,0,0,0,2.3-1.18,3.87,3.87,0,0,0,.36-2.11V54.85h1.24v7.07a3.91,3.91,0,0,1-.72,2.6,4.11,4.11,0,0,1-6.38,0,3.82,3.82,0,0,1-.73-2.6V54.85h1.24Z"/><path class="cls-1" d="M62.73,69.7V59H63.9v1a2.87,2.87,0,0,1,2.35-1.14,3.38,3.38,0,0,1,3.3,3.63A3.33,3.33,0,0,1,66.29,66a2.9,2.9,0,0,1-2.39-1.16V69.7Zm1.09-7.24a2.28,2.28,0,1,0,2.29-2.55A2.32,2.32,0,0,0,63.82,62.46Z"/><path class="cls-1" d="M77.76,59v6.84H76.59v-1A2.9,2.9,0,0,1,74.23,66a3.38,3.38,0,0,1-3.29-3.65,3.31,3.31,0,0,1,3.26-3.56A2.92,2.92,0,0,1,76.59,60V59Zm-5.62,3.38a2.28,2.28,0,1,0,4.53,0,2.29,2.29,0,0,0-2.27-2.5A2.32,2.32,0,0,0,72.14,62.38Z"/><path class="cls-1" d="M85.32,61a2.66,2.66,0,0,0-2.15-1.12,2.53,2.53,0,0,0,0,5,2.74,2.74,0,0,0,2.22-1.19v1.55a3.69,3.69,0,0,1-2.19.71,3.6,3.6,0,1,1,2.14-6.55Z"/><path class="cls-1" d="M88.62,56.41a.84.84,0,1,1-.84-.84A.85.85,0,0,1,88.62,56.41ZM88.36,69.7H87.19V59h1.17Z"/><path class="cls-1" d="M91.41,62.66A2.18,2.18,0,0,0,93.58,65c.91,0,1.45-.38,2.11-1.44l1,.56a3.38,3.38,0,0,1-3.15,2,3.61,3.61,0,0,1,0-7.19c2,0,3.27,1.44,3.27,3.61v.2Zm4.1-1a2,2,0,0,0-2-1.76,2.07,2.07,0,0,0-2,1.76Z"/><path class="cls-1" d="M99.71,59v.82a2.29,2.29,0,0,1,2-1,2.35,2.35,0,0,1,2,.94A3.24,3.24,0,0,1,104,61.6v4.24h-1.17v-4a2.34,2.34,0,0,0-.23-1.33,1.37,1.37,0,0,0-1.22-.56c-1.18,0-1.7.75-1.7,2.52v3.41H98.54V59Z"/><path class="cls-1" d="M107.44,65.84h-1.17V60.09h-.7V59h.7V56.53h1.17V59h1.22v1.09h-1.22Z"/><path class="cls-1" d="M116.59,62.44A3.62,3.62,0,1,1,113,58.85,3.56,3.56,0,0,1,116.59,62.44Zm-6,0A2.42,2.42,0,1,0,113,59.92,2.39,2.39,0,0,0,110.56,62.41Zm2.32-4.6-.72-.41L113.89,55l1.22.54Z"/><path class="cls-1" d="M120.52,63.63l2.14-5.16,2.12,5.16,2-4.63h1.32l-3.4,7.32-2.11-5.1-2.11,5.1L117.17,59h1.32Z"/><path class="cls-1" d="M139.62,64.75v1.09h-7.09l5-5.75h-4V59h6.38l-4.93,5.75Z"/><path class="cls-1" d="M146.77,65.84h-1.23v-11h2a3.84,3.84,0,0,1,2.77.77,3.06,3.06,0,0,1,1,2.33,3.2,3.2,0,0,1-.91,2.24,3.71,3.71,0,0,1-2.57.84h-1.07Zm1-5.93c1.5,0,2.36-.73,2.36-2a1.91,1.91,0,0,0-.61-1.45,2.62,2.62,0,0,0-1.83-.5h-.91v3.93Z"/><path class="cls-1" d="M163.9,60.35A5.73,5.73,0,0,1,158.13,66a5.85,5.85,0,0,1-4.25-1.93,5.59,5.59,0,0,1-1.42-3.82,5.72,5.72,0,0,1,11.44.06Zm-10.21-.06a4.39,4.39,0,0,0,1.41,3.34,4.53,4.53,0,1,0-1.41-3.34Z"/><path class="cls-1" d="M174.54,57.27a4.6,4.6,0,0,0-3.33-1.45,4.54,4.54,0,0,0-4.43,4.58,4.49,4.49,0,0,0,4.45,4.48,4.61,4.61,0,0,0,3.31-1.43V65A5.6,5.6,0,0,1,171.23,66a5.69,5.69,0,1,1,.07-11.37,5.2,5.2,0,0,1,3.24,1.08Z"/><path class="cls-1" d="M177.66,53.83v6a2.5,2.5,0,0,1,3.92,0,3.07,3.07,0,0,1,.4,1.81v4.24h-1.17V61.69c0-1.26-.41-1.77-1.42-1.77a1.53,1.53,0,0,0-1.45.81,3.7,3.7,0,0,0-.28,1.7v3.41h-1.17v-12Z"/><path class="cls-1" d="M185.77,65.84h-1.24v-11h2a3.86,3.86,0,0,1,2.77.77,3.06,3.06,0,0,1,1,2.33,3.2,3.2,0,0,1-.91,2.24,3.71,3.71,0,0,1-2.57.84h-1.07Zm1-5.93c1.5,0,2.36-.73,2.36-2a2,2,0,0,0-.61-1.45,2.64,2.64,0,0,0-1.83-.5h-.91v3.93Z"/><path class="cls-1" d="M192.21,64.62l-1.64,3.72-.79-.31,1.36-3.81Z"/><path class="cls-1" d="M199.53,63a2.66,2.66,0,0,0,.22,1.28,1.6,1.6,0,0,0,2.65,0,2.69,2.69,0,0,0,.21-1.28V59h1.17v4.12a2.7,2.7,0,0,1-.62,2.06,3,3,0,0,1-4.17,0,2.7,2.7,0,0,1-.63-2.06V59h1.17Z"/><path class="cls-1" d="M211.32,61.52,213.79,59h1.57l-2.92,2.92,3.48,3.92h-1.55l-2.76-3.12-.29.3v2.82h-1.17v-12h1.17Z"/><path class="cls-1" d="M218.26,65.84h-1.17V60.09h-.71V59h.71V56.53h1.17V59h1.22v1.09h-1.22Z"/><path class="cls-1" d="M227.4,62.44a3.62,3.62,0,1,1-3.61-3.59A3.56,3.56,0,0,1,227.4,62.44Zm-6,0a2.42,2.42,0,1,0,2.41-2.49A2.39,2.39,0,0,0,221.37,62.41Zm2.33-4.6L223,57.4,224.7,55l1.22.54Z"/><path class="cls-1" d="M230.37,59v.74c.61-.72.91-.91,1.55-.91a1.87,1.87,0,0,1,1,.3l-.54,1.06a1.12,1.12,0,0,0-.7-.23,1.22,1.22,0,0,0-1.08.62,3.4,3.4,0,0,0-.27,1.65v3.61H229.2V59Z"/><path class="cls-1" d="M233.62,59H235l2.42,4.89L239.6,59h1.34l-5.06,10.7h-1.32l2.21-4.5Z"/><path class="cls-1" d="M247.22,61a2.68,2.68,0,0,0-2.16-1.12,2.44,2.44,0,0,0-2.41,2.52A2.42,2.42,0,0,0,245,65a2.77,2.77,0,0,0,2.23-1.19v1.55a3.7,3.7,0,0,1-2.2.71,3.6,3.6,0,1,1,0-7.19,3.6,3.6,0,0,1,2.13.64Z"/><path class="cls-1" d="M250.23,53.83v6a2.51,2.51,0,0,1,3.93,0,3.08,3.08,0,0,1,.39,1.81v4.24h-1.17V61.69c0-1.26-.41-1.77-1.42-1.77a1.53,1.53,0,0,0-1.45.81,3.84,3.84,0,0,0-.28,1.7v3.41h-1.17v-12Z"/><path class="cls-1" d="M262.08,59v.82a2.3,2.3,0,0,1,2-1,2.35,2.35,0,0,1,2,.94,3.24,3.24,0,0,1,.38,1.83v4.24h-1.17v-4a2.34,2.34,0,0,0-.23-1.33,1.37,1.37,0,0,0-1.22-.56c-1.18,0-1.7.75-1.7,2.52v3.41h-1.16V59Z"/><path class="cls-1" d="M270.08,56.41a.84.84,0,1,1-.84-.84A.85.85,0,0,1,270.08,56.41Zm-.26,9.43h-1.17V59h1.17Z"/><path class="cls-1" d="M272.86,62.66A2.19,2.19,0,0,0,275,65c.91,0,1.45-.38,2.11-1.44l1,.56A3.38,3.38,0,0,1,275,66a3.61,3.61,0,0,1-.05-7.19c2,0,3.26,1.44,3.26,3.61v.2Zm4.11-1a2,2,0,0,0-2-1.76,2.07,2.07,0,0,0-2,1.76Z"/><path class="cls-1" d="M286.92,60.6a1,1,0,0,0-.95-.68.81.81,0,0,0-.83.76c0,.4.24.61,1.11,1a5.65,5.65,0,0,1,1.3.66,1.8,1.8,0,0,1,.76,1.5A2.26,2.26,0,0,1,286,66a2.43,2.43,0,0,1-2.39-1.75l1-.43c.38.83.74,1.11,1.36,1.11a1.08,1.08,0,0,0,1.13-1.09c0-.51-.25-.76-1.11-1.12-1.58-.68-2-1.09-2-2a1.92,1.92,0,0,1,2-1.91,2,2,0,0,1,1.88,1.24Z"/><path class="cls-1" d="M291.16,65.84H290V60.09h-.71V59H290V56.53h1.17V59h1.22v1.09h-1.22Z"/><path class="cls-1" d="M300.31,62.44a3.62,3.62,0,1,1-3.61-3.59A3.57,3.57,0,0,1,300.31,62.44Zm-6,0a2.41,2.41,0,1,0,2.4-2.49A2.39,2.39,0,0,0,294.28,62.41Z"/><path class="cls-1" d="M304.91,60.6a1.07,1.07,0,0,0-1-.68.81.81,0,0,0-.82.76c0,.4.23.61,1.1,1a5.65,5.65,0,0,1,1.3.66,1.78,1.78,0,0,1,.76,1.5A2.26,2.26,0,0,1,304,66a2.44,2.44,0,0,1-2.39-1.75l1-.43c.38.83.74,1.11,1.37,1.11a1.08,1.08,0,0,0,1.12-1.09c0-.51-.25-.76-1.11-1.12-1.58-.68-2-1.09-2-2a1.91,1.91,0,0,1,2-1.91,2,2,0,0,1,1.88,1.24Z"/><path class="cls-1" d="M309,63a2.66,2.66,0,0,0,.22,1.28,1.6,1.6,0,0,0,2.65,0,2.69,2.69,0,0,0,.21-1.28V59h1.17v4.12a2.7,2.7,0,0,1-.62,2.06,3,3,0,0,1-4.17,0,2.7,2.7,0,0,1-.63-2.06V59H309Z"/><path class="cls-1" d="M316.94,56.41a.84.84,0,1,1-.84-.84A.85.85,0,0,1,316.94,56.41Zm-.26,13.29H315.5V59h1.18Z"/><path class="cls-1" d="M319.72,62.66A2.19,2.19,0,0,0,321.9,65c.91,0,1.45-.38,2.11-1.44l1,.56a3.39,3.39,0,0,1-3.15,2,3.61,3.61,0,0,1-.05-7.19c2,0,3.26,1.44,3.26,3.61v.2Zm4.11-1a2,2,0,0,0-2-1.76,2.07,2.07,0,0,0-2,1.76Z"/><path class="cls-1" d="M44,84.58a1.06,1.06,0,0,0-1-.67.8.8,0,0,0-.82.75c0,.4.23.61,1.1,1a5.15,5.15,0,0,1,1.3.65,1.79,1.79,0,0,1,.76,1.5A2.25,2.25,0,0,1,43,90a2.43,2.43,0,0,1-2.39-1.75l1-.43c.38.83.74,1.11,1.37,1.11a1.08,1.08,0,0,0,1.12-1.09c0-.51-.25-.76-1.11-1.12-1.58-.68-2-1.09-2-2a1.91,1.91,0,0,1,2-1.92A2,2,0,0,1,45,84.07Z"/><path class="cls-1" d="M48.39,80.4a.84.84,0,1,1-.84-.85A.85.85,0,0,1,48.39,80.4Zm-.27,9.42H47V83h1.17Z"/><path class="cls-1" d="M55.57,92.56a1.67,1.67,0,0,1-.87.23,1.39,1.39,0,0,1-1.45-1.35c0-.53.25-.91,1-1.54a3.11,3.11,0,0,1-.86.12,3.6,3.6,0,0,1-.1-7.19c2,0,3.26,1.44,3.26,3.61v.2H51.17A2.19,2.19,0,0,0,53.35,89c.9,0,1.45-.38,2.11-1.44l1,.56a6,6,0,0,1-1.17,1.45,3,3,0,0,0-.74.85,1.79,1.79,0,0,0-.32.87.66.66,0,0,0,.64.64,1.74,1.74,0,0,0,.86-.23Zm-.29-6.91a2,2,0,0,0-2-1.76,2.07,2.07,0,0,0-2,1.76Z"/><path class="cls-1" d="M63.6,85.5,66.07,83h1.57L64.72,85.9l3.48,3.92H66.65L63.9,86.71l-.3.29v2.82H62.43v-12H63.6Z"/><path class="cls-1" d="M75.75,86.43a3.62,3.62,0,1,1-7.24-.07,3.62,3.62,0,0,1,7.24.07Zm-6,0a2.41,2.41,0,1,0,2.4-2.48A2.39,2.39,0,0,0,69.72,86.39Z"/><path class="cls-1" d="M78.72,83v.74c.61-.72.9-.9,1.54-.9a1.85,1.85,0,0,1,1,.29l-.54,1.06a1.17,1.17,0,0,0-.69-.23,1.26,1.26,0,0,0-1.09.62,3.56,3.56,0,0,0-.26,1.65v3.61H77.55V83Z"/><path class="cls-1" d="M84,89.82H82.85V84.07h-.71V83h.71V80.51H84V83h1.22v1.09H84Z"/><path class="cls-1" d="M85.94,83h1.35l2.42,4.9L91.92,83h1.33l-5.06,10.7H86.88l2.2-4.5Z"/><path class="cls-1" d="M95.68,85.5,98.15,83h1.56L96.8,85.9l3.47,3.92H98.72L96,86.71l-.29.29v2.82H94.51v-12h1.17Z"/><path class="cls-1" d="M107.82,86.43a3.62,3.62,0,1,1-3.61-3.6A3.56,3.56,0,0,1,107.82,86.43Zm-6,0a2.42,2.42,0,1,0,2.41-2.48A2.39,2.39,0,0,0,101.79,86.39Z"/><path class="cls-1" d="M112.42,84.58a1,1,0,0,0-1-.67.8.8,0,0,0-.83.75c0,.4.23.61,1.11,1a5.34,5.34,0,0,1,1.3.65,1.82,1.82,0,0,1,.76,1.5A2.26,2.26,0,0,1,111.47,90a2.42,2.42,0,0,1-2.39-1.75l1-.43c.37.83.74,1.11,1.36,1.11a1.07,1.07,0,0,0,1.12-1.09c0-.51-.24-.76-1.1-1.12-1.58-.68-2-1.09-2-2a1.92,1.92,0,0,1,2-1.92,2,2,0,0,1,1.87,1.24Z"/><path class="cls-1" d="M116.66,89.82h-1.17V84.07h-.71V83h.71V80.51h1.17V83h1.22v1.09h-1.22Z"/><path class="cls-1" d="M119.86,86.64A2.18,2.18,0,0,0,122,89c.91,0,1.45-.38,2.11-1.44l1,.56A3.38,3.38,0,0,1,122,90a3.61,3.61,0,0,1,0-7.19c2,0,3.27,1.44,3.27,3.61v.2Zm4.1-1a2,2,0,0,0-2-1.76,2.07,2.07,0,0,0-2,1.76Z"/><path class="cls-1" d="M128.16,83v.74c.61-.72.91-.9,1.55-.9a1.85,1.85,0,0,1,1,.29l-.54,1.06a1.18,1.18,0,0,0-.7-.23,1.24,1.24,0,0,0-1.08.62,3.53,3.53,0,0,0-.27,1.65v3.61H127V83Z"/><path class="cls-1" d="M138.38,86.43a3.62,3.62,0,1,1-3.61-3.6A3.56,3.56,0,0,1,138.38,86.43Zm-6,0a2.42,2.42,0,1,0,2.41-2.48A2.39,2.39,0,0,0,132.35,86.39Z"/><path class="cls-1" d="M141.61,80.4a.84.84,0,1,1-.84-.85A.85.85,0,0,1,141.61,80.4Zm-.26,9.42h-1.17V83h1.17Z"/><path class="cls-1" d="M150,77.81v12h-1.19v-.94A2.82,2.82,0,0,1,146.46,90a3.37,3.37,0,0,1-3.28-3.63,3.31,3.31,0,0,1,3.26-3.56A3,3,0,0,1,148.83,84V77.81Zm-5.62,8.55A2.35,2.35,0,0,0,146.62,89a2.29,2.29,0,0,0,2.28-2.56,2.34,2.34,0,0,0-.69-1.86,2.39,2.39,0,0,0-1.57-.62A2.32,2.32,0,0,0,144.38,86.36Z"/><path class="cls-1" d="M159,86.43a3.62,3.62,0,1,1-7.23-.07,3.62,3.62,0,0,1,7.23.07Zm-6,0a2.42,2.42,0,1,0,2.41-2.48A2.39,2.39,0,0,0,153,86.39Zm2.33-4.59-.73-.42L156.33,79l1.22.54Z"/><path class="cls-1" d="M162.94,87.61l2.14-5.15,2.13,5.15,2-4.63h1.32l-3.39,7.32-2.11-5.09L163,90.3,159.6,83h1.31Z"/><path class="cls-1" d="M172.7,88.6l-1.65,3.73-.79-.32,1.37-3.8Z"/><path class="cls-1" d="M180,83v.74c.61-.72.9-.9,1.55-.9a1.82,1.82,0,0,1,1,.29l-.54,1.06a1.15,1.15,0,0,0-.69-.23,1.26,1.26,0,0,0-1.09.62,3.56,3.56,0,0,0-.26,1.65v3.61h-1.17V83Z"/><path class="cls-1" d="M184.29,86.64A2.18,2.18,0,0,0,186.46,89c.91,0,1.45-.38,2.11-1.44l1,.56a3.38,3.38,0,0,1-3.15,2,3.61,3.61,0,0,1,0-7.19c2,0,3.27,1.44,3.27,3.61v.2Zm4.1-1a2,2,0,0,0-2-1.76,2.07,2.07,0,0,0-2,1.76Z"/><path class="cls-1" d="M197.82,89.67a4.06,4.06,0,0,1-.66,2.69,3.3,3.3,0,0,1-2.72,1.27,3.08,3.08,0,0,1-3.33-3.13h1.15a2.35,2.35,0,0,0,.33,1.15,2.21,2.21,0,0,0,1.87.91c1.43,0,2.19-.93,2.19-2.69v-1A3.15,3.15,0,0,1,194.22,90a3.61,3.61,0,0,1,.07-7.18A2.92,2.92,0,0,1,196.65,84V83h1.17Zm-5.64-3.26a2.29,2.29,0,0,0,2.23,2.52,2.54,2.54,0,1,0-2.23-2.52Z"/><path class="cls-1" d="M201.25,87a2.76,2.76,0,0,0,.21,1.29,1.49,1.49,0,0,0,1.34.69,1.47,1.47,0,0,0,1.31-.69,2.74,2.74,0,0,0,.22-1.29V83h1.17V87.1a2.69,2.69,0,0,1-.63,2.06,3,3,0,0,1-4.17,0,2.68,2.68,0,0,1-.62-2.06V83h1.17Z"/><path class="cls-1" d="M208.91,89.82h-1.17v-12h1.17Z"/><path class="cls-1" d="M217.55,83v6.84h-1.17v-.95A2.89,2.89,0,0,1,214,90a3.38,3.38,0,0,1-3.3-3.64A3.32,3.32,0,0,1,214,82.82,2.91,2.91,0,0,1,216.38,84V83Zm-5.62,3.38a2.28,2.28,0,1,0,4.53,0,2.3,2.3,0,0,0-2.27-2.5A2.32,2.32,0,0,0,211.93,86.36Z"/><path class="cls-1" d="M221,83v.74c.61-.72.91-.9,1.55-.9a1.85,1.85,0,0,1,1,.29L223,84.17a1.13,1.13,0,0,0-.69-.23,1.27,1.27,0,0,0-1.09.62,3.56,3.56,0,0,0-.26,1.65v3.61h-1.17V83Z"/><path class="cls-1" d="M225.94,83v.83a2.25,2.25,0,0,1,2-1,2.34,2.34,0,0,1,2,.94,3.34,3.34,0,0,1,.37,1.83v4.23h-1.17v-4a2.26,2.26,0,0,0-.23-1.33,1.36,1.36,0,0,0-1.22-.56c-1.18,0-1.69.76-1.69,2.52v3.41h-1.17V83Z"/><path class="cls-1" d="M233.29,86.64A2.19,2.19,0,0,0,235.46,89c.91,0,1.46-.38,2.11-1.44l1,.56a3.38,3.38,0,0,1-3.14,2,3.6,3.6,0,0,1,0-7.19c2,0,3.26,1.44,3.26,3.61v.2Zm4.1-1a2,2,0,0,0-2-1.76,2.07,2.07,0,0,0-2,1.76Z"/><path class="cls-1" d="M246.94,89.82H244.3V77.74h2.64Z"/><path class="cls-1" d="M251.11,86.57c0,1.13.54,1.69,1.6,1.69a1.34,1.34,0,0,0,1.3-.71h2.54a3.2,3.2,0,0,1-.66,1.32,4.16,4.16,0,0,1-3.18,1.25c-2.59,0-4.27-1.57-4.27-4a4.11,4.11,0,0,1,8.22.16v.26Zm3.1-1.53a1.52,1.52,0,0,0-1.55-1.2,1.39,1.39,0,0,0-1.48,1.2Z"/><path class="cls-1" d="M263.8,84.78a2.26,2.26,0,0,0-1.37-.46,1.8,1.8,0,1,0,0,3.59,2.12,2.12,0,0,0,1.37-.49v2.24a4.38,4.38,0,0,1-1.84.41,4,4,0,1,1,.06-7.94,3.59,3.59,0,0,1,1.78.41Z"/><path class="cls-1" d="M272.29,87.63v2.19h-7.56l3.52-5.27H265.2V82.36h7.44l-3.5,5.27Z"/><path class="cls-1" d="M276.18,86.57c0,1.13.54,1.69,1.6,1.69a1.34,1.34,0,0,0,1.3-.71h2.54a3.2,3.2,0,0,1-.66,1.32,4.16,4.16,0,0,1-3.18,1.25c-2.59,0-4.27-1.57-4.27-4a4.11,4.11,0,0,1,8.22.16v.26Zm3.1-1.53a1.52,1.52,0,0,0-1.55-1.2,1.39,1.39,0,0,0-1.48,1.2Z"/><path class="cls-1" d="M285.87,82.36v.94a2.75,2.75,0,0,1,2.39-1.11,2.81,2.81,0,0,1,2.16.83,2.47,2.47,0,0,1,.69,2.06v4.74h-2.64V86.05c0-.76,0-.91-.16-1.19a1.14,1.14,0,0,0-1.05-.58,1.52,1.52,0,0,0-1.11.5,1.54,1.54,0,0,0-.28,1v4h-2.64V82.36Z"/><path class="cls-1" d="M295.71,79.49A1.48,1.48,0,1,1,294.23,78,1.47,1.47,0,0,1,295.71,79.49Zm-.16,10.33h-2.64V82.36h2.64Z"/><path class="cls-1" d="M299.72,86.57c0,1.13.54,1.69,1.6,1.69a1.34,1.34,0,0,0,1.3-.71h2.54a3.33,3.33,0,0,1-.66,1.32,4.16,4.16,0,0,1-3.18,1.25c-2.59,0-4.27-1.57-4.27-4a4.11,4.11,0,0,1,8.22.16v.26Zm3.1-1.53a1.52,1.52,0,0,0-1.55-1.2,1.4,1.4,0,0,0-1.49,1.2Z"/><path class="cls-1" d="M313.53,82.36v.92a3.12,3.12,0,0,1,2.42-1,2.69,2.69,0,0,1,2.52,1.38,2.87,2.87,0,0,1,2.54-1.4,2.57,2.57,0,0,1,2.11,1,3.06,3.06,0,0,1,.41,1.75v4.84H320.9V86.13a2.42,2.42,0,0,0-.15-1.19,1,1,0,0,0-1-.66,1.25,1.25,0,0,0-1.09.7,2.59,2.59,0,0,0-.18,1.15v3.69h-2.63V86.13a2.86,2.86,0,0,0-.12-1.19,1.13,1.13,0,0,0-1-.71,1.26,1.26,0,0,0-1,.63,2.86,2.86,0,0,0-.18,1.27v3.69h-2.64V82.36Z"/><path class="cls-1" d="M328,86.59a1.34,1.34,0,1,0,2.68,0V82.36h2.64V87.1c0,2-1.39,3-4,3s-4-1-4-3V82.36H328Z"/><path class="cls-1" d="M337.74,85l2.77-2.68h3.61l-3.74,3.44,4,4h-3.71l-2.9-3v3h-2.63V77.74h2.63Z"/><path class="cls-1" d="M353.5,86.08c0,2.37-1.86,4-4.53,4s-4.45-1.68-4.45-4.09c0-2.25,1.91-3.93,4.48-3.93S353.5,83.74,353.5,86.08Zm-6.2,0a1.71,1.71,0,1,0,3.41,0A1.7,1.7,0,0,0,349,84.35,1.72,1.72,0,0,0,347.3,86.05Z"/><path class="cls-1" d="M357.65,89.82H355V77.74h2.63Z"/><path class="cls-1" d="M362.25,79.49A1.48,1.48,0,1,1,360.77,78,1.47,1.47,0,0,1,362.25,79.49Zm-.16,10.33h-2.64V82.36h2.64Z"/><path class="cls-1" d="M366.83,89.82H364.2V84.55h-.88V82.36h.88V80.11h2.63v2.25h1.5v2.19h-1.5Z"/><path class="cls-1" d="M368.91,82.36H372l2,3.82,1.95-3.82h3l-6,11.2H370l2.54-4.74Z"/><path class="cls-1" d="M382.48,85l2.77-2.68h3.6l-3.74,3.44,4,4h-3.7l-2.9-3v3h-2.64V77.74h2.64Z"/><path class="cls-1" d="M398,82.36v7.46h-2.64V89a2.68,2.68,0,0,1-2.3,1.07,3.85,3.85,0,0,1-3.78-4,3.8,3.8,0,0,1,3.76-4,3,3,0,0,1,2.32,1v-.72Zm-6,3.7a1.72,1.72,0,0,0,1.72,1.73,1.71,1.71,0,1,0,0-3.41A1.72,1.72,0,0,0,392,86.06Z"/><path class="cls-1" d="M402.4,82.36v.92a3.14,3.14,0,0,1,2.43-1,2.71,2.71,0,0,1,2.52,1.38,2.85,2.85,0,0,1,2.54-1.4,2.59,2.59,0,0,1,2.11,1,3.06,3.06,0,0,1,.41,1.75v4.84h-2.64V86.13a2.42,2.42,0,0,0-.15-1.19,1,1,0,0,0-.95-.66,1.24,1.24,0,0,0-1.09.7,2.59,2.59,0,0,0-.18,1.15v3.69h-2.64V86.13a3.14,3.14,0,0,0-.11-1.19,1.14,1.14,0,0,0-1-.71,1.24,1.24,0,0,0-1,.63,2.69,2.69,0,0,0-.19,1.27v3.69h-2.63V82.36Z"/><path class="cls-1" d="M417,79.49A1.48,1.48,0,1,1,415.54,78,1.46,1.46,0,0,1,417,79.49Zm-.16,10.33h-2.64V82.36h2.64Z"/><path class="cls-1" d="M42.35,113.8H41.19v-5.75h-.71V107h.71v-2.48h1.16V107h1.22v1.08H42.35Z"/><path class="cls-1" d="M51.16,107v6.83H50v-1A2.9,2.9,0,0,1,47.63,114a3.37,3.37,0,0,1-3.3-3.64,3.32,3.32,0,0,1,3.27-3.56A2.93,2.93,0,0,1,50,107.94v-1Zm-5.62,3.37a2.35,2.35,0,0,0,2.24,2.59,2.55,2.55,0,1,0-2.24-2.59Z"/><path class="cls-1" d="M54.57,109.49,57,107h1.57l-2.92,2.91,3.48,3.92H57.62l-2.75-3.11-.3.3v2.81H53.4v-12h1.17Z"/><path class="cls-1" d="M61.77,104.38a.84.84,0,1,1-.84-.84A.85.85,0,0,1,61.77,104.38Zm-.26,9.42H60.34V107h1.17Z"/><path class="cls-1" d="M64.94,107v.74a1.91,1.91,0,0,1,1.69-.91,2.06,2.06,0,0,1,1.88,1.11,2.16,2.16,0,0,1,2-1.11,2.14,2.14,0,0,1,1.84.92,3.09,3.09,0,0,1,.38,1.75v4.33H71.56v-4.15c0-1.25-.36-1.78-1.23-1.78s-1.47.71-1.47,2.14v3.79H67.69v-4c0-1.25-.43-1.88-1.27-1.88a1.43,1.43,0,0,0-1.24.74,3.46,3.46,0,0,0-.24,1.47v3.72H63.77V107Z"/><path class="cls-1" d="M76.41,104.38a.84.84,0,1,1-.84-.84A.85.85,0,0,1,76.41,104.38Zm-.27,9.42H75V107h1.17Z"/><path class="cls-1" d="M84,104.38a.84.84,0,1,1-1.68,0,.83.83,0,0,1,.84-.82A.85.85,0,0,1,84,104.38Zm-.27,13.28H82.52V107h1.17Z"/><path class="cls-1" d="M92.35,107v6.83H91.18v-1A2.9,2.9,0,0,1,88.82,114a3.37,3.37,0,0,1-3.3-3.64,3.32,3.32,0,0,1,3.27-3.56,2.93,2.93,0,0,1,2.39,1.14v-1Zm-5.62,3.37A2.35,2.35,0,0,0,89,112.93a2.55,2.55,0,1,0-2.24-2.59Z"/><path class="cls-1" d="M95.76,109.49,98.23,107H99.8l-2.92,2.91,3.48,3.92H98.81l-2.75-3.11-.3.3v2.81H94.59v-12h1.17Z"/><path class="cls-1" d="M106.44,110.62a2.18,2.18,0,0,0,2.17,2.31c.91,0,1.45-.38,2.11-1.43l1,.56a3.39,3.39,0,0,1-3.15,1.94,3.6,3.6,0,0,1,0-7.18c2,0,3.26,1.43,3.26,3.61v.19Zm4.1-1a2,2,0,0,0-2-1.77,2.07,2.07,0,0,0-2,1.77Z"/><path class="cls-1" d="M114.75,107v.74c.61-.73.9-.91,1.55-.91a1.86,1.86,0,0,1,1,.3l-.54,1.05a1.17,1.17,0,0,0-.69-.23,1.25,1.25,0,0,0-1.09.63,3.53,3.53,0,0,0-.26,1.65v3.6h-1.17V107Z"/><path class="cls-1" d="M124.62,101.79v12h-1.19v-.93a2.83,2.83,0,0,1-2.35,1.13,3.36,3.36,0,0,1-3.28-3.62,3.31,3.31,0,0,1,3.26-3.56,3,3,0,0,1,2.39,1.12v-6.15ZM119,110.34a2.35,2.35,0,0,0,2.24,2.59,2.28,2.28,0,0,0,2.27-2.55,2.33,2.33,0,0,0-.69-1.87,2.37,2.37,0,0,0-1.56-.62A2.32,2.32,0,0,0,119,110.34Z"/><path class="cls-1" d="M133.65,110.41a3.62,3.62,0,1,1-7.23-.07,3.62,3.62,0,0,1,7.23.07Zm-6,0a2.42,2.42,0,1,0,2.41-2.49A2.38,2.38,0,0,0,127.62,110.38Z"/><path class="cls-1" d="M138.25,108.56a1,1,0,0,0-1-.67.8.8,0,0,0-.82.76c0,.39.23.61,1.1,1a5.79,5.79,0,0,1,1.31.66,1.78,1.78,0,0,1,.75,1.5,2.25,2.25,0,0,1-2.34,2.22,2.44,2.44,0,0,1-2.39-1.74l1-.43c.38.82.74,1.1,1.37,1.1a1.08,1.08,0,0,0,1.12-1.09c0-.51-.25-.75-1.1-1.12-1.58-.67-2-1.08-2-2a1.91,1.91,0,0,1,2-1.91,2,2,0,0,1,1.88,1.23Z"/><path class="cls-1" d="M142.49,113.8h-1.17v-5.75h-.71V107h.71v-2.48h1.17V107h1.22v1.08h-1.22Z"/><path class="cls-1" d="M145.67,110.62a2.18,2.18,0,0,0,2.17,2.31c.91,0,1.45-.38,2.11-1.43l1,.56a3.39,3.39,0,0,1-3.15,1.94,3.6,3.6,0,0,1,0-7.18c2,0,3.27,1.43,3.27,3.61v.19Zm4.1-1a2,2,0,0,0-2-1.77,2.07,2.07,0,0,0-2,1.77Z"/><path class="cls-1" d="M154.24,104.38a.84.84,0,1,1-.84-.84A.85.85,0,0,1,154.24,104.38ZM154,113.8H152.8V107H154Z"/><path class="cls-1" d="M157.4,107v.82a2.27,2.27,0,0,1,2-1,2.34,2.34,0,0,1,2,.94,3.24,3.24,0,0,1,.38,1.83v4.23h-1.17v-4a2.36,2.36,0,0,0-.23-1.34,1.39,1.39,0,0,0-1.22-.56c-1.19,0-1.7.76-1.7,2.52v3.41h-1.17V107Z"/><path class="cls-1" d="M170.36,107v6.83h-1.17v-1a2.89,2.89,0,0,1-2.36,1.15,3.37,3.37,0,0,1-3.29-3.64,3.31,3.31,0,0,1,3.26-3.56,2.92,2.92,0,0,1,2.39,1.14v-1Zm-5.62,3.37a2.35,2.35,0,0,0,2.24,2.59,2.55,2.55,0,1,0-2.24-2.59Z"/><path class="cls-1" d="M174.31,112.58l-1.64,3.73-.79-.31,1.36-3.81Z"/><path class="cls-2" d="M182.9,109l2.77-2.69h3.61l-3.74,3.44,4,4H185.8l-2.9-3v3h-2.63V101.73h2.63Z"/><path class="cls-2" d="M198.39,106.34v7.46h-2.63V113a2.69,2.69,0,0,1-2.31,1.07,4,4,0,0,1,0-8,3,3,0,0,1,2.33,1v-.72Zm-6,3.71a1.71,1.71,0,1,0,3.41,0,1.71,1.71,0,0,0-3.41,0Z"/><path class="cls-2" d="M202.83,106.34v1.22a2.65,2.65,0,0,1,2.46-1.34c.13,0,.26,0,.51,0v2.52a2.1,2.1,0,0,0-1.12-.28c-1.24,0-1.85.71-1.85,2.11v3.19h-2.64v-7.46Z"/><path class="cls-2" d="M209.6,107.06a3,3,0,0,1,2.33-1,4,4,0,0,1,0,8A2.74,2.74,0,0,1,209.6,113v.82H207V101.73h2.63Zm-.08,3a1.71,1.71,0,0,0,3.41,0,1.71,1.71,0,1,0-3.41,0Z"/><path class="cls-2" d="M225.87,110.06c0,2.38-1.86,4-4.53,4s-4.45-1.68-4.45-4.08,1.91-3.94,4.48-3.94S225.87,107.72,225.87,110.06Zm-6.19,0a1.71,1.71,0,1,0,1.69-1.7A1.71,1.71,0,0,0,219.68,110Z"/><path class="cls-2" d="M233,108.76a2.3,2.3,0,0,0-1.37-.46,1.8,1.8,0,1,0,0,3.59,2.14,2.14,0,0,0,1.37-.49v2.24a4.46,4.46,0,0,1-1.85.41,4,4,0,1,1,.07-7.94,3.62,3.62,0,0,1,1.78.41Z"/><path class="cls-2" d="M233.62,106.34h3.07l2,3.82,1.94-3.82h3l-6,11.21h-2.95l2.54-4.75Z"/><path class="cls-2" d="M249.23,108.27a3.16,3.16,0,0,0-1.44-.36c-.46,0-.8.23-.8.52s.19.43,1.18.65c1.47.29,2.18,1,2.18,2.2,0,1.7-1.4,2.8-3.56,2.8a5.75,5.75,0,0,1-3-.85l.95-1.86a4.16,4.16,0,0,0,2.11.75c.48,0,.83-.24.83-.57s-.24-.5-1.12-.7c-1.59-.32-2.2-.9-2.2-2.07,0-1.67,1.27-2.7,3.33-2.7a5.82,5.82,0,0,1,2.41.47Z"/><path class="cls-2" d="M254.8,113.8h-2.64v-5.27h-.87v-2.19h.87V104.1h2.64v2.24h1.5v2.19h-1.5Z"/><path class="cls-2" d="M259.79,110.56c0,1.12.55,1.68,1.6,1.68a1.31,1.31,0,0,0,1.3-.71h2.54a3,3,0,0,1-.66,1.32,4.13,4.13,0,0,1-3.18,1.25c-2.58,0-4.27-1.56-4.27-4a4.12,4.12,0,0,1,8.23.16v.27Zm3.1-1.53a1.51,1.51,0,0,0-1.55-1.21,1.4,1.4,0,0,0-1.48,1.21Z"/><path class="cls-2" d="M269.65,103.47a1.49,1.49,0,1,1-1.48-1.48A1.48,1.48,0,0,1,269.65,103.47Zm-.16,10.33h-2.64v-7.46h2.64Z"/><path class="cls-2" d="M273.92,106.34v.94a2.76,2.76,0,0,1,2.39-1.11,2.81,2.81,0,0,1,2.16.83,2.49,2.49,0,0,1,.69,2.06v4.74h-2.64V110c0-.76,0-.91-.16-1.19a1.17,1.17,0,0,0-1.06-.57,1.53,1.53,0,0,0-1.1.49,1.57,1.57,0,0,0-.28,1v4h-2.64v-7.46Z"/><path class="cls-2" d="M289.38,106.34v7.46h-2.64V113a2.68,2.68,0,0,1-2.3,1.07,4,4,0,0,1,0-8,3,3,0,0,1,2.32,1v-.72Zm-6,3.71a1.72,1.72,0,0,0,1.72,1.73,1.71,1.71,0,1,0-1.72-1.73Z"/><path class="cls-1" d="M297,104.38a.84.84,0,1,1-.84-.84A.85.85,0,0,1,297,104.38Zm-.27,9.42h-1.17V107h1.17Z"/><path class="cls-1" d="M303.38,102.35l8.55,9v-8.52h1.24V114.3l-8.56-9v8.47h-1.23Z"/><path class="cls-1" d="M317.57,109.77v1h-3v-1Z"/><path class="cls-1" d="M325.08,107v6.83h-1.17v-1a2.88,2.88,0,0,1-2.35,1.15,3.37,3.37,0,0,1-3.3-3.64,3.31,3.31,0,0,1,3.26-3.56,2.91,2.91,0,0,1,2.39,1.14v-1Zm-5.62,3.37a2.35,2.35,0,0,0,2.25,2.59,2.55,2.55,0,1,0-2.25-2.59Z"/><path class="cls-1" d="M332.65,109a2.68,2.68,0,0,0-2.16-1.12,2.52,2.52,0,0,0,0,5,2.74,2.74,0,0,0,2.23-1.19v1.55a3.69,3.69,0,0,1-2.19.71,3.59,3.59,0,1,1,0-7.18,3.6,3.6,0,0,1,2.13.64Z"/><path class="cls-1" d="M335.29,110.62a2.18,2.18,0,0,0,2.17,2.31c.91,0,1.45-.38,2.11-1.43l1,.56a3.39,3.39,0,0,1-3.15,1.94,3.6,3.6,0,0,1-.05-7.18c2,0,3.27,1.43,3.27,3.61v.19Zm4.1-1a2,2,0,0,0-2-1.77,2.07,2.07,0,0,0-2,1.77Z"/><path class="cls-1" d="M343.63,113.8h-1.17v-5.75h-.71V107h.71v-2.48h1.17V107h1.22v1.08h-1.22Z"/><path class="cls-1" d="M345.56,107h1.35l2.42,4.89,2.21-4.89h1.33l-5.06,10.69H346.5l2.2-4.5Z"/><path class="cls-1" d="M355.3,113.8h-1.17v-12h1.17Z"/><path class="cls-1" d="M364.33,110.41a3.62,3.62,0,1,1-7.24-.07,3.62,3.62,0,0,1,7.24.07Zm-6,0a2.41,2.41,0,1,0,2.4-2.49A2.38,2.38,0,0,0,358.3,110.38Z"/><path class="cls-1" d="M371.45,109a2.68,2.68,0,0,0-2.16-1.12,2.52,2.52,0,0,0,0,5,2.74,2.74,0,0,0,2.23-1.19v1.55a3.69,3.69,0,0,1-2.19.71,3.59,3.59,0,1,1,0-7.18,3.6,3.6,0,0,1,2.13.64Z"/><path class="cls-1" d="M372.31,107h1.35l2.42,4.89,2.21-4.89h1.33l-5.06,10.69h-1.31l2.2-4.5Z"/><path class="cls-1" d="M383.51,108.56a1,1,0,0,0-.95-.67.8.8,0,0,0-.83.76c0,.39.23.61,1.11,1a5.65,5.65,0,0,1,1.3.66,1.79,1.79,0,0,1,.76,1.5,2.25,2.25,0,0,1-2.34,2.22,2.42,2.42,0,0,1-2.39-1.74l1-.43c.38.82.74,1.1,1.36,1.1a1.08,1.08,0,0,0,1.13-1.09c0-.51-.25-.75-1.11-1.12-1.58-.67-2-1.08-2-2a1.91,1.91,0,0,1,2-1.91,2,2,0,0,1,1.88,1.23Z"/><path class="cls-1" d="M387.75,113.8h-1.17v-5.75h-.71V107h.71v-2.48h1.17V107H389v1.08h-1.22Z"/><path class="cls-1" d="M390.93,110.62a2.19,2.19,0,0,0,2.18,2.31c.9,0,1.45-.38,2.11-1.43l1,.56a3.38,3.38,0,0,1-3.14,1.94,3.6,3.6,0,0,1-.05-7.18c2,0,3.26,1.43,3.26,3.61v.19Zm4.1-1a2,2,0,0,0-2-1.77,2.08,2.08,0,0,0-2,1.77Z"/><path class="cls-1" d="M399.5,104.38a.84.84,0,1,1-.84-.84A.85.85,0,0,1,399.5,104.38Zm-.26,9.42h-1.17V107h1.17Z"/><path class="cls-1" d="M402.67,107v.82a2.25,2.25,0,0,1,2-1,2.34,2.34,0,0,1,2,.94,3.34,3.34,0,0,1,.37,1.83v4.23h-1.17v-4a2.36,2.36,0,0,0-.23-1.34,1.39,1.39,0,0,0-1.22-.56c-1.18,0-1.69.76-1.69,2.52v3.41H401.5V107Z"/><path class="cls-1" d="M415.62,107v6.83h-1.17v-1a2.89,2.89,0,0,1-2.36,1.15,3.37,3.37,0,0,1-3.29-3.64,3.31,3.31,0,0,1,3.26-3.56,2.91,2.91,0,0,1,2.39,1.14v-1ZM410,110.34a2.35,2.35,0,0,0,2.24,2.59,2.55,2.55,0,1,0-2.24-2.59Z"/><path class="cls-1" d="M42.35,131v.74a2,2,0,0,1,1.7-.91,2.06,2.06,0,0,1,1.88,1.11,2.16,2.16,0,0,1,2-1.11,2.12,2.12,0,0,1,1.84.93,3.12,3.12,0,0,1,.38,1.74v4.34H49v-4.16c0-1.25-.36-1.78-1.24-1.78s-1.46.71-1.46,2.15v3.79H45.11v-4.06c0-1.25-.43-1.88-1.27-1.88a1.43,1.43,0,0,0-1.24.74,3.44,3.44,0,0,0-.25,1.47v3.73H41.19V131Z"/><path class="cls-1" d="M59.18,134.39a3.62,3.62,0,1,1-7.23-.06,3.62,3.62,0,0,1,7.23.06Zm-6,0a2.42,2.42,0,1,0,2.41-2.49A2.38,2.38,0,0,0,53.15,134.36Z"/><path class="cls-1" d="M67.08,136.7v1.09H60L65,132h-4V131h6.37l-4.92,5.75Zm-2.28-8.13a.83.83,0,0,1-.84.84.84.84,0,1,1,.84-.84Z"/><path class="cls-1" d="M69.29,134.61a2.18,2.18,0,0,0,2.17,2.3c.91,0,1.45-.38,2.11-1.43l1,.56A3.39,3.39,0,0,1,71.41,138a3.6,3.6,0,0,1,0-7.18c2,0,3.27,1.43,3.27,3.61v.2Zm4.1-1a2,2,0,0,0-2-1.77,2.07,2.07,0,0,0-2,1.77Z"/><path class="cls-1" d="M87.3,135.59v2.2H79.74l3.53-5.28h-3v-2.19h7.43l-3.49,5.27Z"/><path class="cls-1" d="M91.54,130.32v.92a3.14,3.14,0,0,1,2.42-1,2.68,2.68,0,0,1,2.52,1.38,2.87,2.87,0,0,1,2.54-1.4,2.56,2.56,0,0,1,2.11,1,3.06,3.06,0,0,1,.41,1.75v4.85H98.91v-3.7a2.39,2.39,0,0,0-.15-1.18,1,1,0,0,0-1-.66,1.26,1.26,0,0,0-1.09.69,2.59,2.59,0,0,0-.18,1.15v3.7H93.9v-3.7a2.77,2.77,0,0,0-.12-1.18,1.13,1.13,0,0,0-1-.71,1.26,1.26,0,0,0-1,.63,2.84,2.84,0,0,0-.18,1.26v3.7H88.9v-7.47Z"/><path class="cls-1" d="M106,130.32v.94a2.74,2.74,0,0,1,2.38-1.1,2.78,2.78,0,0,1,2.16.82,2.49,2.49,0,0,1,.7,2.06v4.75H108.6V134c0-.76,0-.9-.17-1.18a1.14,1.14,0,0,0-1.05-.58,1.51,1.51,0,0,0-1.1.49,1.57,1.57,0,0,0-.28,1v4h-2.64v-7.47Z"/><path class="cls-1" d="M115.84,127.45a1.49,1.49,0,1,1-1.49-1.48A1.48,1.48,0,0,1,115.84,127.45Zm-.17,10.34H113v-7.47h2.64Z"/><path class="cls-1" d="M119.84,134.54c0,1.12.54,1.68,1.6,1.68a1.32,1.32,0,0,0,1.3-.71h2.54a3.08,3.08,0,0,1-.66,1.32,4.16,4.16,0,0,1-3.18,1.25c-2.59,0-4.27-1.56-4.27-4a3.79,3.79,0,0,1,4.15-4c2.54,0,4.07,1.56,4.07,4.17v.26Zm3.1-1.53a1.52,1.52,0,0,0-1.55-1.21,1.4,1.4,0,0,0-1.48,1.21Z"/><path class="cls-1" d="M129.76,127.45a1.48,1.48,0,1,1-1.48-1.48A1.48,1.48,0,0,1,129.76,127.45Zm-.16,14.08H127V130.32h2.64Z"/><path class="cls-1" d="M136.36,132.25a3.19,3.19,0,0,0-1.44-.36c-.46,0-.81.23-.81.52s.2.43,1.19.65c1.47.29,2.18,1,2.18,2.2,0,1.7-1.4,2.81-3.56,2.81a5.73,5.73,0,0,1-3-.86l1-1.86a4.19,4.19,0,0,0,2.11.76c.48,0,.82-.25.82-.58s-.23-.5-1.12-.69c-1.58-.33-2.19-.91-2.19-2.08,0-1.66,1.27-2.7,3.33-2.7a5.68,5.68,0,0,1,2.41.48Z"/><path class="cls-1" d="M145.8,135.59v2.2h-7.56l3.52-5.28h-3v-2.19h7.44l-3.5,5.27Z"/><path class="cls-1" d="M146.49,130.32h3.07l2,3.82,1.95-3.82h3l-6,11.21h-2.95l2.54-4.75Z"/><path class="cls-1" d="M163.06,132.74a2.3,2.3,0,0,0-1.37-.46,1.8,1.8,0,1,0,0,3.6,2.09,2.09,0,0,0,1.37-.5v2.24a4.43,4.43,0,0,1-1.85.41,4,4,0,1,1,.07-7.94,3.73,3.73,0,0,1,1.78.41Zm-2.19-3.52-1.22-.91,2.07-2.54L163.4,127Z"/><path class="cls-1" d="M171.48,127.45A1.49,1.49,0,1,1,170,126,1.48,1.48,0,0,1,171.48,127.45Zm-.16,10.34h-2.64v-7.47h2.64Z"/><path class="cls-1" d="M175.75,137.79h-2.64V125.71h2.64Z"/><path class="cls-1" d="M186.23,134c0,2.38-1.86,4-4.53,4s-4.45-1.68-4.45-4.09c0-2.26,1.91-3.94,4.48-3.94S186.23,131.71,186.23,134ZM180,134a1.71,1.71,0,1,0,1.69-1.7A1.71,1.71,0,0,0,180,134Z"/><path class="cls-1" d="M192.71,132.25a3.12,3.12,0,0,0-1.43-.36c-.47,0-.81.23-.81.52s.2.43,1.19.65c1.46.29,2.17,1,2.17,2.2,0,1.7-1.4,2.81-3.56,2.81a5.67,5.67,0,0,1-3-.86l1-1.86a4.22,4.22,0,0,0,2.11.76c.48,0,.83-.25.83-.58s-.23-.5-1.12-.69c-1.59-.33-2.19-.91-2.19-2.08,0-1.66,1.26-2.7,3.32-2.7a5.65,5.65,0,0,1,2.41.48Zm-1.93-3-1.22-.91,2.08-2.54,1.68,1.21Z"/><path class="cls-1" d="M200.8,132.74a2.25,2.25,0,0,0-1.36-.46,1.8,1.8,0,1,0,0,3.6,2,2,0,0,0,1.36-.5v2.24A4.38,4.38,0,0,1,199,138a4,4,0,1,1,.06-7.94,3.68,3.68,0,0,1,1.78.41Zm-2.19-3.52-1.22-.91,2.08-2.54,1.68,1.21Z"/><path class="cls-1" d="M213.41,135.59v2.2h-7.56l3.53-5.28h-3v-2.19h7.43l-3.5,5.27Z"/><path class="cls-1" d="M223.43,130.32v7.47H220.8V137a2.71,2.71,0,0,1-2.31,1.07,4,4,0,0,1,0-8,3,3,0,0,1,2.33,1v-.73Zm-6,3.71a1.71,1.71,0,1,0,3.41,0,1.71,1.71,0,0,0-3.41,0Z"/><path class="cls-1" d="M233.92,134c0,2.38-1.87,4-4.54,4s-4.45-1.68-4.45-4.09c0-2.26,1.92-3.94,4.49-3.94S233.92,131.71,233.92,134Zm-6.2,0a1.71,1.71,0,1,0,1.7-1.7A1.71,1.71,0,0,0,227.72,134Z"/><path class="cls-1" d="M240.4,132.25a3.19,3.19,0,0,0-1.44-.36c-.46,0-.81.23-.81.52s.2.43,1.19.65c1.47.29,2.18,1,2.18,2.2,0,1.7-1.4,2.81-3.56,2.81a5.73,5.73,0,0,1-3-.86l1-1.86a4.19,4.19,0,0,0,2.11.76c.48,0,.82-.25.82-.58s-.23-.5-1.12-.69c-1.58-.33-2.19-.91-2.19-2.08,0-1.66,1.27-2.7,3.33-2.7a5.68,5.68,0,0,1,2.41.48Z"/><path class="cls-1" d="M246,137.79h-2.64v-5.28h-.87v-2.19h.87v-2.24H246v2.24h1.5v2.19H246Z"/><path class="cls-1" d="M251.09,130.32v1.22a2.64,2.64,0,0,1,2.46-1.33l.51,0v2.52a2.19,2.19,0,0,0-1.12-.28c-1.24,0-1.85.71-1.85,2.11v3.2h-2.63v-7.47Z"/><path class="cls-1" d="M262.28,135.59v2.2h-7.56l3.53-5.28H255.2v-2.19h7.43l-3.49,5.27Z"/><path class="cls-1" d="M266.17,134.54c0,1.12.55,1.68,1.6,1.68a1.31,1.31,0,0,0,1.3-.71h2.54a3,3,0,0,1-.66,1.32,4.13,4.13,0,0,1-3.18,1.25c-2.58,0-4.27-1.56-4.27-4s1.6-4,4.16-4,4.07,1.56,4.07,4.17v.26Zm3.1-1.53a1.52,1.52,0,0,0-1.55-1.21,1.4,1.4,0,0,0-1.48,1.21Z"/><path class="cls-1" d="M275.87,130.32v.94a2.74,2.74,0,0,1,2.38-1.1,2.78,2.78,0,0,1,2.16.82,2.49,2.49,0,0,1,.7,2.06v4.75h-2.64V134c0-.76,0-.9-.17-1.18a1.14,1.14,0,0,0-1.05-.58,1.51,1.51,0,0,0-1.1.49,1.57,1.57,0,0,0-.28,1v4h-2.64v-7.47Zm1.18-1.1-1.22-.91,2.08-2.54,1.68,1.21Z"/><path class="cls-1" d="M294.06,134.39a3.62,3.62,0,1,1-7.23-.06,3.62,3.62,0,0,1,7.23.06Zm-6,0a2.42,2.42,0,1,0,2.41-2.49A2.38,2.38,0,0,0,288,134.36Z"/><path class="cls-1" d="M297,131v.74c.61-.73.91-.91,1.55-.91a1.87,1.87,0,0,1,1,.3l-.55,1a1.13,1.13,0,0,0-.69-.23,1.26,1.26,0,0,0-1.09.63,3.53,3.53,0,0,0-.26,1.65v3.61h-1.17V131Z"/><path class="cls-1" d="M306.9,131v6.84h-1.17v-1a2.88,2.88,0,0,1-2.35,1.15,3.37,3.37,0,0,1-3.3-3.64,3.31,3.31,0,0,1,3.26-3.56,2.91,2.91,0,0,1,2.39,1.14v-1Zm-5.62,3.38a2.34,2.34,0,0,0,2.24,2.58,2.55,2.55,0,1,0-2.24-2.58Z"/><path class="cls-1" d="M315.24,136.7v1.09h-7.08l5-5.75h-4V131h6.38l-4.93,5.75Z"/><path class="cls-1" d="M320.63,141.53V130.32h2.64v.82a2.69,2.69,0,0,1,2.31-1.07,3.84,3.84,0,0,1,3.77,4,3.8,3.8,0,0,1-3.76,3.95,3,3,0,0,1-2.32-1v4.47Zm2.56-7.49a1.71,1.71,0,1,0,1.69-1.69A1.72,1.72,0,0,0,323.19,134Z"/><path class="cls-1" d="M339.54,134c0,2.38-1.87,4-4.53,4s-4.45-1.68-4.45-4.09c0-2.26,1.91-3.94,4.48-3.94S339.54,131.71,339.54,134Zm-6.2,0a1.71,1.71,0,1,0,1.7-1.7A1.71,1.71,0,0,0,333.34,134Z"/><path class="cls-1" d="M341.05,141.53V130.32h2.64v.82a2.69,2.69,0,0,1,2.31-1.07,3.84,3.84,0,0,1,3.77,4A3.8,3.8,0,0,1,346,138a3,3,0,0,1-2.32-1v4.47Zm2.56-7.49a1.71,1.71,0,1,0,1.7-1.69A1.72,1.72,0,0,0,343.61,134Z"/><path class="cls-1" d="M353.91,130.32v1.22a2.64,2.64,0,0,1,2.46-1.33l.51,0v2.52a2.19,2.19,0,0,0-1.12-.28c-1.24,0-1.85.71-1.85,2.11v3.2h-2.64v-7.47Z"/><path class="cls-1" d="M366.57,130.32v7.47h-2.64V137a2.68,2.68,0,0,1-2.31,1.07,4,4,0,0,1,0-8,3,3,0,0,1,2.32,1v-.73Zm-6,3.71a1.72,1.72,0,0,0,1.72,1.73,1.71,1.71,0,0,0,0-3.41A1.71,1.71,0,0,0,360.6,134Z"/><path class="cls-1" d="M372.31,134.26l1.87-3.94h1.65l1.88,4.06,1.88-4.06h2.93l-3.9,7.47h-1.78L375,133.7l-1.78,4.09h-1.78l-3.84-7.47h2.95Z"/><path class="cls-1" d="M386.23,127.45a1.48,1.48,0,1,1-1.48-1.48A1.48,1.48,0,0,1,386.23,127.45Zm-.16,10.34h-2.64v-7.47h2.64Z"/><path class="cls-1" d="M393.5,132.74a2.26,2.26,0,0,0-1.37-.46,1.8,1.8,0,1,0,0,3.6,2.06,2.06,0,0,0,1.37-.5v2.24a4.38,4.38,0,0,1-1.84.41,4,4,0,1,1,.06-7.94,3.68,3.68,0,0,1,1.78.41Zm-2.19-3.52-1.22-.91,2.08-2.54,1.68,1.21Z"/><path class="cls-1" d="M404.08,132.25a3.12,3.12,0,0,0-1.43-.36c-.46,0-.81.23-.81.52s.2.43,1.19.65c1.47.29,2.18,1,2.18,2.2,0,1.7-1.41,2.81-3.56,2.81a5.7,5.7,0,0,1-3-.86l1-1.86a4.19,4.19,0,0,0,2.11.76c.48,0,.82-.25.82-.58s-.23-.5-1.12-.69c-1.58-.33-2.19-.91-2.19-2.08,0-1.66,1.27-2.7,3.33-2.7a5.63,5.63,0,0,1,2.4.48Z"/><path class="cls-1" d="M409.66,137.79H407v-5.28h-.87v-2.19H407v-2.24h2.64v2.24h1.5v2.19h-1.5Z"/><path class="cls-1" d="M420.73,130.32v7.47h-2.64V137a2.68,2.68,0,0,1-2.3,1.07,4,4,0,0,1,0-8,3,3,0,0,1,2.32,1v-.73Zm-6,3.71a1.72,1.72,0,0,0,1.72,1.73,1.71,1.71,0,1,0-1.72-1.73Z"/><path class="cls-1" d="M425.17,130.32v.94a3.18,3.18,0,0,1,4.54-.28,2.49,2.49,0,0,1,.7,2.06v4.75h-2.64V134c0-.76,0-.9-.16-1.18a1.17,1.17,0,0,0-1.06-.58,1.51,1.51,0,0,0-1.1.49,1.57,1.57,0,0,0-.28,1v4h-2.64v-7.47Z"/><path class="cls-1" d="M48,159.58v2.19H40.39l3.53-5.27H40.87v-2.19H48.3l-3.49,5.27Z"/><path class="cls-1" d="M58,149.69v12.08H55.34V161A2.68,2.68,0,0,1,53,162a3.85,3.85,0,0,1-3.78-4A3.8,3.8,0,0,1,53,154.06a3,3,0,0,1,2.32,1v-5.34ZM52,158a1.72,1.72,0,0,0,1.72,1.73,1.71,1.71,0,0,0,0-3.41A1.72,1.72,0,0,0,52,158Z"/><path class="cls-1" d="M62.41,154.31v1.21a2.66,2.66,0,0,1,2.46-1.33l.51,0v2.52a2.17,2.17,0,0,0-1.12-.28c-1.24,0-1.85.71-1.85,2.11v3.2H59.78v-7.46Z"/><path class="cls-1" d="M75.34,158c0,2.37-1.87,4-4.54,4s-4.45-1.68-4.45-4.09c0-2.25,1.92-3.93,4.49-3.93S75.34,155.69,75.34,158Zm-6.2,0a1.71,1.71,0,1,0,1.7-1.7A1.72,1.72,0,0,0,69.14,158Z"/><path class="cls-1" d="M80.38,158.24l1.88-3.93h1.65l1.88,4.05,1.87-4.05H90.6l-3.91,7.46H84.91l-1.86-4.09-1.78,4.09H79.49l-3.84-7.46H78.6Z"/><path class="cls-1" d="M94.31,151.44A1.49,1.49,0,1,1,92.83,150,1.47,1.47,0,0,1,94.31,151.44Zm-.17,10.33H91.51v-7.46h2.63Z"/><path class="cls-1" d="M104.36,154.31v7.46h-2.64V161a2.68,2.68,0,0,1-2.3,1.07,4,4,0,0,1,0-8,3,3,0,0,1,2.32,1v-.72Zm-6,3.7a1.71,1.71,0,1,0,1.69-1.68A1.71,1.71,0,0,0,98.4,158Z"/><path class="cls-1" d="M107.92,161.11a.82.82,0,0,1-.8.83.82.82,0,0,1,0-1.64A.82.82,0,0,1,107.92,161.11Z"/><path class="cls-1" d="M112.36,150.63l-1.65,3.71-.79-.31,1.37-3.8Zm2.42,0-1.66,3.71-.8-.31,1.37-3.8Z"/><path class="cls-1" d="M117.92,149.48a11.93,11.93,0,0,0,0,8.22l-.62.28a11.33,11.33,0,0,1-.8-4.39,11.2,11.2,0,0,1,.8-4.38Z"/><path class="cls-1" d="M120.22,156l1.47-2.06a1.79,1.79,0,0,1-.58.09,2.08,2.08,0,0,1-2.06-2.12,2.21,2.21,0,0,1,4.42,0,2.55,2.55,0,0,1-.53,1.48l-2.19,3Zm-.47-4.12a1.51,1.51,0,1,0,1.51-1.49A1.51,1.51,0,0,0,119.75,151.89Z"/><path class="cls-1" d="M124.58,157.7a12.09,12.09,0,0,0,0-8.22l.61-.27a11,11,0,0,1,.81,4.38,11.13,11.13,0,0,1-.81,4.39Z"/></svg>