<svg xmlns="http://www.w3.org/2000/svg" viewBox="0 0 480 225"><defs><style>.cls-1{fill:#cd181c;}.cls-2{fill:#174282;}</style></defs><title>text_reco_2016</title><g id="Warstwa_2" data-name="Warstwa 2"><path class="cls-1" d="M58.17,162H61.5l-4.11,4.92,4.5,5.46h-3.5l-3.5-4.49v4.49h-2.7V162h2.7v4.28Z"/><path class="cls-1" d="M70.24,165.3v7H67.75v-.77a2.54,2.54,0,0,1-2.18,1A3.63,3.63,0,0,1,62,168.8a3.59,3.59,0,0,1,3.55-3.73,2.82,2.82,0,0,1,2.2.92v-.69Zm-5.64,3.5a1.62,1.62,0,0,0,1.62,1.64,1.61,1.61,0,1,0-1.62-1.64Z"/><path class="cls-1" d="M74.43,165.3v1.16a2.49,2.49,0,0,1,2.32-1.27l.48,0v2.38a2,2,0,0,0-1.06-.27c-1.17,0-1.74.67-1.74,2v3H71.94v-7Z"/><path class="cls-1" d="M80.83,166a2.8,2.8,0,0,1,2.19-.92,3.59,3.59,0,0,1,3.55,3.73A3.63,3.63,0,0,1,83,172.59a2.59,2.59,0,0,1-2.17-1v.77H78.34V161h2.49Zm-.08,2.83a1.61,1.61,0,1,0,1.62-1.6A1.62,1.62,0,0,0,80.75,168.82Z"/><path class="cls-1" d="M96.19,168.82c0,2.24-1.76,3.8-4.28,3.8a3.87,3.87,0,0,1-4.2-3.86c0-2.13,1.8-3.72,4.23-3.72S96.19,166.61,96.19,168.82Zm-5.85,0a1.61,1.61,0,1,0,1.6-1.6A1.62,1.62,0,0,0,90.34,168.79Z"/><path class="cls-1" d="M103,167.59a2.17,2.17,0,0,0-1.29-.43,1.7,1.7,0,1,0,0,3.39,2,2,0,0,0,1.29-.47v2.12a4.26,4.26,0,0,1-1.74.39,3.76,3.76,0,1,1,.06-7.51,3.44,3.44,0,0,1,1.68.39Z"/><path class="cls-1" d="M103.51,165.3h2.9l1.88,3.61,1.84-3.61H113l-5.66,10.59h-2.79l2.4-4.49Z"/><path class="cls-1" d="M118.25,167.12a3,3,0,0,0-1.35-.34c-.44,0-.76.22-.76.5s.18.4,1.12.61c1.38.28,2,1,2,2.08,0,1.61-1.32,2.65-3.36,2.65a5.46,5.46,0,0,1-2.82-.81l.91-1.76a3.88,3.88,0,0,0,2,.72c.45,0,.78-.24.78-.55s-.22-.47-1.06-.65c-1.5-.31-2.07-.86-2.07-2,0-1.58,1.2-2.56,3.14-2.56a5.3,5.3,0,0,1,2.27.46Z"/><path class="cls-1" d="M123.52,172.35H121v-5h-.83V165.3H121v-2.11h2.49v2.11h1.41v2.07h-1.41Z"/><path class="cls-1" d="M128.22,169.29c0,1.06.51,1.59,1.51,1.59a1.26,1.26,0,0,0,1.23-.67h2.4a3,3,0,0,1-.63,1.24,3.9,3.9,0,0,1-3,1.18c-2.44,0-4-1.47-4-3.75a3.88,3.88,0,0,1,7.76.16v.25Zm2.93-1.45a1.45,1.45,0,0,0-1.47-1.14,1.32,1.32,0,0,0-1.4,1.14Z"/><path class="cls-1" d="M137.53,162.59a1.4,1.4,0,1,1-1.4-1.4A1.4,1.4,0,0,1,137.53,162.59Zm-.16,9.76h-2.49v-7h2.49Z"/><path class="cls-1" d="M141.56,165.3v.89a2.6,2.6,0,0,1,2.26-1,2.65,2.65,0,0,1,2,.78,2.33,2.33,0,0,1,.65,1.94v4.48H144v-3.56c0-.72,0-.86-.15-1.12a1.11,1.11,0,0,0-1-.55,1.41,1.41,0,0,0-1,.47,1.45,1.45,0,0,0-.27,1v3.78h-2.49v-7Z"/><path class="cls-1" d="M156.16,165.3v7h-2.49v-.77a2.53,2.53,0,0,1-2.17,1,3.63,3.63,0,0,1-3.57-3.79,3.59,3.59,0,0,1,3.55-3.73,2.8,2.8,0,0,1,2.19.92v-.69Zm-5.63,3.5a1.62,1.62,0,0,0,1.62,1.64,1.61,1.61,0,1,0-1.62-1.64Z"/><path class="cls-2" d="M162,176V165.89h1.1v.92a2.75,2.75,0,0,1,2.23-1.07,3.18,3.18,0,0,1,3.11,3.42,3.15,3.15,0,0,1-3.08,3.38,2.75,2.75,0,0,1-2.26-1.09V176Zm1-6.84a2.15,2.15,0,1,0,4.28,0,2.16,2.16,0,1,0-4.28,0Z"/><path class="cls-2" d="M176.56,169.15a3.42,3.42,0,1,1-3.41-3.4A3.36,3.36,0,0,1,176.56,169.15Zm-5.7,0a2.28,2.28,0,1,0,2.28-2.35A2.25,2.25,0,0,0,170.86,169.12Z"/><path class="cls-2" d="M180.25,170.27l2-4.87,2,4.87,1.93-4.38h1.25l-3.21,6.91-2-4.8-2,4.8-3.18-6.91h1.25Z"/><path class="cls-2" d="M194.84,169.15a3.42,3.42,0,1,1-3.41-3.4A3.37,3.37,0,0,1,194.84,169.15Zm-5.7,0a2.28,2.28,0,1,0,2.28-2.35A2.25,2.25,0,0,0,189.14,169.12Z"/><path class="cls-2" d="M202.58,161v11.34h-1.12v-.88a2.69,2.69,0,0,1-2.23,1.07,3.19,3.19,0,0,1-3.1-3.42,3.14,3.14,0,0,1,3.08-3.37,2.81,2.81,0,0,1,2.26,1.06V161Zm-5.31,8.07a2.23,2.23,0,0,0,2.12,2.45,2.16,2.16,0,0,0,2.14-2.41,2.14,2.14,0,1,0-4.26,0Z"/><path class="cls-2" d="M205.8,169.66a2.64,2.64,0,0,0,.2,1.22,1.54,1.54,0,0,0,2.51,0,2.64,2.64,0,0,0,.2-1.22v-3.77h1.11v3.9a2.57,2.57,0,0,1-.59,1.94,2.65,2.65,0,0,1-2,.81,2.62,2.62,0,0,1-2-.81,2.53,2.53,0,0,1-.59-1.94v-3.9h1.1Z"/><path class="cls-2" d="M213.27,163.45a.79.79,0,1,1-.79-.79A.79.79,0,0,1,213.27,163.45ZM213,176h-1.11V165.89H213Z"/><path class="cls-2" d="M215.91,169.35a2.06,2.06,0,0,0,2.05,2.18c.86,0,1.37-.36,2-1.36l.94.53a3.21,3.21,0,0,1-3,1.84,3.4,3.4,0,0,1,0-6.79c1.85,0,3.08,1.36,3.08,3.41v.19Zm3.87-.93a1.93,1.93,0,0,0-1.9-1.67,2,2,0,0,0-1.9,1.67Z"/><path class="cls-2" d="M224.27,171.2l-1.56,3.52-.75-.3,1.29-3.59Z"/><path class="cls-2" d="M235.83,171.33v1h-6.69l4.69-5.43H230v-1h6l-4.66,5.44Zm-2.14-7.68a.8.8,0,1,1-.8-.79A.8.8,0,0,1,233.69,163.65Z"/><path class="cls-2" d="M237.92,169.35a2.07,2.07,0,0,0,2.05,2.18c.86,0,1.37-.36,2-1.36l.93.53a3.19,3.19,0,0,1-3,1.84,3.4,3.4,0,0,1-.05-6.79c1.85,0,3.08,1.36,3.08,3.41v.19Zm3.88-.93a1.93,1.93,0,0,0-1.9-1.67,2,2,0,0,0-1.9,1.67Z"/><path class="cls-2" d="M251.2,167.4a1,1,0,0,0-.9-.63.76.76,0,0,0-.78.71c0,.38.22.58,1,.92a5.1,5.1,0,0,1,1.23.62,1.7,1.7,0,0,1,.72,1.42,2.13,2.13,0,0,1-2.21,2.1,2.29,2.29,0,0,1-2.26-1.65l1-.4c.36.77.7,1,1.29,1a1,1,0,0,0,1.06-1c0-.48-.23-.71-1-1.06-1.49-.64-1.87-1-1.87-1.88a1.81,1.81,0,0,1,1.89-1.81,1.89,1.89,0,0,1,1.77,1.17Zm-.9-2.63-.69-.39,1.64-2.24,1.15.52Z"/><path class="cls-2" d="M255.11,172.35H254V161h1.11Z"/><path class="cls-2" d="M258.33,169.66a2.49,2.49,0,0,0,.21,1.22,1.53,1.53,0,0,0,2.5,0,2.64,2.64,0,0,0,.2-1.22v-3.77h1.11v3.9a2.57,2.57,0,0,1-.59,1.94,2.8,2.8,0,0,1-3.94,0,2.53,2.53,0,0,1-.59-1.94v-3.9h1.1Z"/><path class="cls-2" d="M270.23,171.33v1h-6.7l4.69-5.43H264.4v-1h6l-4.66,5.44Z"/><path class="cls-2" d="M276.88,163.45a.8.8,0,1,1-.8-.79A.8.8,0,0,1,276.88,163.45ZM276.63,176h-1.11V165.89h1.11Z"/><path class="cls-2" d="M279.51,169.35a2.06,2.06,0,0,0,2.05,2.18c.86,0,1.37-.36,2-1.36l.94.53a3.21,3.21,0,0,1-3,1.84,3.4,3.4,0,0,1,0-6.79c1.85,0,3.08,1.36,3.08,3.41v.19Zm3.87-.93a1.93,1.93,0,0,0-1.9-1.67,2,2,0,0,0-1.9,1.67Z"/><path class="cls-2" d="M288.89,167.4a1,1,0,0,0-.9-.63.76.76,0,0,0-.78.71c0,.38.22.58,1.05.92a5.31,5.31,0,0,1,1.23.62,1.72,1.72,0,0,1,.71,1.42,2.13,2.13,0,0,1-2.21,2.1,2.29,2.29,0,0,1-2.25-1.65l1-.4c.35.77.7,1,1.29,1a1,1,0,0,0,1.06-1c0-.48-.24-.71-1.05-1.06-1.49-.64-1.86-1-1.86-1.88a1.8,1.8,0,0,1,1.88-1.81,1.88,1.88,0,0,1,1.77,1.17Z"/><path class="cls-2" d="M292.88,172.35h-1.1v-5.43h-.67v-1h.67v-2.33h1.1v2.33H294v1h-1.15Z"/><path class="cls-2" d="M300.1,165.89v.7a1.85,1.85,0,0,1,1.61-.85,1.94,1.94,0,0,1,1.77,1,2.06,2.06,0,0,1,1.89-1,2,2,0,0,1,1.74.87,2.93,2.93,0,0,1,.36,1.65v4.09h-1.11v-3.92c0-1.18-.34-1.68-1.17-1.68s-1.38.67-1.38,2v3.58H302.7v-3.83c0-1.18-.4-1.77-1.19-1.77a1.34,1.34,0,0,0-1.17.7,3.1,3.1,0,0,0-.24,1.39v3.51H299v-6.46Z"/><path class="cls-2" d="M310.69,165.89v.78a2.15,2.15,0,0,1,1.87-.93,2.2,2.2,0,0,1,1.85.89,3.06,3.06,0,0,1,.36,1.72v4h-1.11v-3.81a2.23,2.23,0,0,0-.21-1.26,1.32,1.32,0,0,0-1.16-.53c-1.12,0-1.6.72-1.6,2.38v3.22h-1.1v-6.46Z"/><path class="cls-2" d="M318.24,163.45a.79.79,0,1,1-1.58,0,.79.79,0,0,1,.79-.78A.8.8,0,0,1,318.24,163.45Zm-.25,8.9h-1.1v-6.46H318Z"/><path class="cls-2" d="M320.88,169.35a2.06,2.06,0,0,0,2.05,2.18c.86,0,1.37-.36,2-1.36l.94.53a3.21,3.21,0,0,1-3,1.84,3.4,3.4,0,0,1,0-6.79c1.85,0,3.08,1.36,3.08,3.41v.19Zm3.87-.93a1.93,1.93,0,0,0-1.9-1.67,2,2,0,0,0-1.9,1.67Z"/><path class="cls-2" d="M329,163.45a.8.8,0,1,1-.79-.79A.8.8,0,0,1,329,163.45ZM328.72,176h-1.1V165.89h1.1Z"/><path class="cls-2" d="M335.85,172.35h-1.1V161h1.1Z"/><path class="cls-2" d="M338.72,169.35a2.06,2.06,0,0,0,2,2.18c.86,0,1.37-.36,2-1.36l.94.53a3.21,3.21,0,0,1-3,1.84,3.4,3.4,0,0,1,0-6.79c1.85,0,3.08,1.36,3.08,3.41v.19Zm3.87-.93a1.93,1.93,0,0,0-1.9-1.67,2,2,0,0,0-1.9,1.67Z"/><path class="cls-2" d="M345.46,176V165.89h1.1v.92a2.75,2.75,0,0,1,2.23-1.07,3.18,3.18,0,0,1,3.11,3.42,3.15,3.15,0,0,1-3.08,3.38,2.75,2.75,0,0,1-2.26-1.09V176Zm1-6.84a2.15,2.15,0,1,0,4.28,0,2.16,2.16,0,1,0-4.28,0Z"/><path class="cls-2" d="M354.72,168.28l2.34-2.39h1.48l-2.76,2.76,3.28,3.7H357.6l-2.6-2.94-.28.28v2.66h-1.1V161h1.1Z"/><path class="cls-2" d="M361.53,163.45a.8.8,0,1,1-.8-.79A.8.8,0,0,1,361.53,163.45Zm-.25,8.9h-1.11v-6.46h1.11Z"/><path class="cls-2" d="M368.66,163.45a.8.8,0,1,1-.8-.79A.8.8,0,0,1,368.66,163.45Zm-.25,8.9H367.3v-6.46h1.11Z"/><path class="cls-2" d="M375.54,165.89v.7c.57-.68.85-.85,1.46-.85a1.73,1.73,0,0,1,1,.28l-.51,1a1.09,1.09,0,0,0-.66-.21,1.15,1.15,0,0,0-1,.59,3.34,3.34,0,0,0-.25,1.56v3.4h-1.11v-6.46Z"/><path class="cls-2" d="M384.92,171.33v1h-6.69l4.69-5.43H379.1v-1h6l-4.66,5.44Z"/><path class="cls-2" d="M392.37,165.89v6.46h-1.11v-.9a2.71,2.71,0,0,1-2.22,1.09,3.2,3.2,0,0,1-3.12-3.44,3.14,3.14,0,0,1,3.08-3.36,2.76,2.76,0,0,1,2.26,1.07v-.92Zm-5.31,3.19a2.23,2.23,0,0,0,2.12,2.45,2.2,2.2,0,0,0,2.16-2.41,2.15,2.15,0,1,0-4.28,0Z"/><path class="cls-2" d="M400.53,161v11.34H399.4v-.88a2.65,2.65,0,0,1-2.22,1.07,3.18,3.18,0,0,1-3.1-3.42,3.14,3.14,0,0,1,3.08-3.37,2.81,2.81,0,0,1,2.26,1.06V161Zm-5.31,8.07a2.22,2.22,0,0,0,2.11,2.45,2.16,2.16,0,0,0,2.15-2.41,2.14,2.14,0,1,0-4.26,0Z"/><path class="cls-2" d="M405.29,167.4a1,1,0,0,0-.9-.63.76.76,0,0,0-.78.71c0,.38.22.58,1,.92a5.1,5.1,0,0,1,1.23.62,1.7,1.7,0,0,1,.72,1.42,2.13,2.13,0,0,1-2.21,2.1,2.29,2.29,0,0,1-2.26-1.65l1-.4c.36.77.7,1,1.29,1a1,1,0,0,0,1.06-1c0-.48-.23-.71-1-1.06-1.5-.64-1.87-1-1.87-1.88a1.81,1.81,0,0,1,1.88-1.81,1.89,1.89,0,0,1,1.78,1.17Z"/><path class="cls-2" d="M413.85,171.33v1h-6.69l4.68-5.43H408v-1h6l-4.65,5.44Z"/><path class="cls-2" d="M414.32,165.89h1.28l2.29,4.63,2.08-4.63h1.26L416.45,176h-1.24l2.08-4.25Z"/><path class="cls-2" d="M423.24,171.2l-1.55,3.52-.75-.3,1.29-3.59Z"/><path class="cls-2" d="M57.19,190.48a2.51,2.51,0,0,0-2-1.06,2.38,2.38,0,0,0,0,4.76,2.6,2.6,0,0,0,2.1-1.12v1.46a3.52,3.52,0,0,1-2.07.67,3.39,3.39,0,1,1,0-6.78,3.41,3.41,0,0,1,2,.6Z"/><path class="cls-2" d="M65.35,191.8a3.42,3.42,0,1,1-3.41-3.39A3.37,3.37,0,0,1,65.35,191.8Zm-5.7,0a2.28,2.28,0,1,0,2.27-2.35A2.25,2.25,0,0,0,59.65,191.77Z"/><path class="cls-2" d="M72,192.31a2.58,2.58,0,0,0,.21,1.22,1.53,1.53,0,0,0,2.5,0,2.58,2.58,0,0,0,.21-1.22v-3.76h1.1v3.89a2.5,2.5,0,0,1-.59,1.94,2.8,2.8,0,0,1-3.94,0,2.54,2.54,0,0,1-.59-1.94v-3.89H72Z"/><path class="cls-2" d="M80.28,187.71v1.18l-1,.75V195H78.18v-4.86l-1,.73V189.7l1-.73v-5.31h1.11v4.79Z"/><path class="cls-2" d="M87.44,188.55V195h-1.1v-.91a2.74,2.74,0,0,1-2.23,1.09A3.18,3.18,0,0,1,81,191.75a3.13,3.13,0,0,1,3.08-3.36,2.78,2.78,0,0,1,2.26,1.07v-.91Zm-5.31,3.19a2.22,2.22,0,0,0,2.12,2.44,2.2,2.2,0,0,0,2.16-2.41,2.17,2.17,0,0,0-2.14-2.37A2.2,2.2,0,0,0,82.13,191.74Z"/><path class="cls-2" d="M90.67,195H89.56v-5.44h-.67v-1h.67v-2.34h1.11v2.34h1.15v1H90.67Z"/><path class="cls-2" d="M95.12,192.92l2-4.87,2,4.87,1.93-4.37h1.24l-3.2,6.91-2-4.81-2,4.81L92,188.55H93.2Z"/><path class="cls-2" d="M104.87,186.1a.8.8,0,1,1-.8-.79A.8.8,0,0,1,104.87,186.1Zm-.25,8.91h-1.11v-6.46h1.11Z"/><path class="cls-2" d="M112.79,188.55V195h-1.11v-.91a2.71,2.71,0,0,1-2.22,1.09,3.19,3.19,0,0,1-3.12-3.44,3.14,3.14,0,0,1,3.09-3.36,2.76,2.76,0,0,1,2.25,1.07v-.91Zm-5.31,3.19a2.16,2.16,0,1,0,4.28,0,2.18,2.18,0,0,0-2.15-2.37A2.2,2.2,0,0,0,107.48,191.74Z"/><path class="cls-2" d="M120.15,186.1a.79.79,0,1,1-.79-.79A.79.79,0,0,1,120.15,186.1Zm-.24,12.55H118.8v-10.1h1.11Z"/><path class="cls-2" d="M122.79,192a2.05,2.05,0,0,0,2,2.18c.86,0,1.37-.36,2-1.35l.94.53a3.21,3.21,0,0,1-3,1.83,3.4,3.4,0,0,1,0-6.78c1.85,0,3.08,1.35,3.08,3.41V192Zm3.87-.93a1.94,1.94,0,0,0-1.9-1.67,2,2,0,0,0-1.9,1.67Z"/><path class="cls-2" d="M135.57,194.87a3.77,3.77,0,0,1-.63,2.53,3.08,3.08,0,0,1-2.56,1.2,2.91,2.91,0,0,1-3.15-3h1.09a2.24,2.24,0,0,0,.31,1.09,2.07,2.07,0,0,0,1.76.86c1.36,0,2.07-.87,2.07-2.54v-1a2.93,2.93,0,0,1-2.29,1.08,3.41,3.41,0,0,1,.07-6.79,2.74,2.74,0,0,1,2.22,1.07v-.91h1.11Zm-5.33-3.09a2.17,2.17,0,0,0,2.1,2.39,2.4,2.4,0,1,0-2.1-2.39Z"/><path class="cls-2" d="M144.11,191.8a3.42,3.42,0,1,1-6.83-.06,3.4,3.4,0,0,1,3.43-3.33A3.36,3.36,0,0,1,144.11,191.8Zm-5.69,0a2.28,2.28,0,1,0,2.27-2.35A2.25,2.25,0,0,0,138.42,191.77Z"/><path class="cls-2" d="M156.12,191.8a3.42,3.42,0,1,1-3.41-3.39A3.37,3.37,0,0,1,156.12,191.8Zm-5.7,0a2.28,2.28,0,1,0,2.27-2.35A2.25,2.25,0,0,0,150.42,191.77Z"/><path class="cls-2" d="M163.86,183.66V195h-1.12v-.89a2.69,2.69,0,0,1-2.23,1.07,3.18,3.18,0,0,1-3.1-3.42,3.13,3.13,0,0,1,3.08-3.36,2.8,2.8,0,0,1,2.26,1.05v-5.8Zm-5.31,8.08a2.22,2.22,0,0,0,2.12,2.44,2.15,2.15,0,0,0,2.14-2.41,2.18,2.18,0,0,0-.65-1.76,2.25,2.25,0,0,0-1.48-.59A2.19,2.19,0,0,0,158.55,191.74Z"/><path class="cls-2" d="M167.08,190.93l2.34-2.38h1.47l-2.75,2.75,3.28,3.71H170l-2.6-2.95-.28.28V195H166V183.66h1.1Z"/><path class="cls-2" d="M173.63,188.55v.7c.58-.69.86-.86,1.47-.86a1.73,1.73,0,0,1,1,.28l-.52,1a1.1,1.1,0,0,0-.65-.22,1.18,1.18,0,0,0-1,.59,3.34,3.34,0,0,0-.25,1.56V195h-1.1v-6.46Z"/><path class="cls-2" d="M183,194v1h-6.7l4.69-5.44h-3.81v-1h6L178.55,194Z"/><path class="cls-2" d="M185.51,195h-1.1v-5.44h-.67v-1h.67v-2.34h1.1v2.34h1.16v1h-1.16Z"/><path class="cls-2" d="M188.85,192.31a2.61,2.61,0,0,0,.2,1.22,1.4,1.4,0,0,0,1.26.65,1.38,1.38,0,0,0,1.24-.65,2.58,2.58,0,0,0,.21-1.22v-3.76h1.1v3.89a2.5,2.5,0,0,1-.59,1.94,2.8,2.8,0,0,1-3.94,0,2.54,2.54,0,0,1-.59-1.94v-3.89h1.11Z"/><path class="cls-2" d="M197.63,190.06a1,1,0,0,0-.91-.64.75.75,0,0,0-.77.71c0,.38.21.58,1,.92a5.76,5.76,0,0,1,1.23.62,1.69,1.69,0,0,1,.71,1.42,2.13,2.13,0,0,1-2.21,2.1,2.29,2.29,0,0,1-2.25-1.65l1-.4c.36.78.7,1,1.29,1a1,1,0,0,0,1.06-1c0-.48-.24-.71-1.05-1.05-1.49-.64-1.86-1-1.86-1.89a1.8,1.8,0,0,1,1.88-1.8,1.87,1.87,0,0,1,1.77,1.16Z"/><path class="cls-2" d="M206.19,194v1H199.5l4.68-5.44h-3.81v-1h6L201.74,194Z"/><path class="cls-2" d="M213.63,188.55V195h-1.1v-.91a2.74,2.74,0,0,1-2.23,1.09,3.18,3.18,0,0,1-3.11-3.44,3.13,3.13,0,0,1,3.08-3.36,2.78,2.78,0,0,1,2.26,1.07v-.91Zm-5.31,3.19a2.22,2.22,0,0,0,2.12,2.44,2.2,2.2,0,0,0,2.16-2.41,2.17,2.17,0,0,0-2.14-2.37A2.2,2.2,0,0,0,208.32,191.74Z"/><path class="cls-2" d="M216.86,188.55v.78a2.12,2.12,0,0,1,1.86-.94,2.21,2.21,0,0,1,1.86.89,3.2,3.2,0,0,1,.35,1.73v4h-1.1v-3.82a2.23,2.23,0,0,0-.22-1.26,1.32,1.32,0,0,0-1.15-.53c-1.12,0-1.6.72-1.6,2.38V195h-1.11v-6.46Z"/><path class="cls-2" d="M224.41,186.1a.8.8,0,1,1-.8-.79A.8.8,0,0,1,224.41,186.1Zm-.25,8.91h-1.11v-6.46h1.11Z"/><path class="cls-2" d="M227,192a2.05,2.05,0,0,0,2.05,2.18c.86,0,1.37-.36,2-1.35l.94.53a3.21,3.21,0,0,1-3,1.83,3.4,3.4,0,0,1,0-6.78c1.85,0,3.08,1.35,3.08,3.41V192Zm3.87-.93a1.91,1.91,0,0,0-3.79,0Z"/><path class="cls-2" d="M235.26,194.38a.77.77,0,1,1-1.54,0,.77.77,0,0,1,.76-.76A.76.76,0,0,1,235.26,194.38Z"/><path class="cls-2" d="M54.49,25.39h3.33l-4.11,4.92,4.5,5.46H54.7l-3.5-4.5v4.5H48.51V25.39H51.2v4.28Z"/><path class="cls-2" d="M66.57,28.72v7.05H64.08V35a2.55,2.55,0,0,1-2.18,1,3.63,3.63,0,0,1-3.57-3.79,3.59,3.59,0,0,1,3.55-3.73,2.83,2.83,0,0,1,2.2.92v-.69Zm-5.64,3.5a1.62,1.62,0,0,0,1.62,1.64,1.61,1.61,0,1,0-1.62-1.64Z"/><path class="cls-2" d="M70.2,28.72v1.15a2.49,2.49,0,0,1,2.31-1.26l.49,0V31a2.05,2.05,0,0,0-1.06-.26c-1.17,0-1.74.67-1.74,2v3H67.71V28.72Z"/><path class="cls-2" d="M76,29.41a2.8,2.8,0,0,1,2.19-.92,3.59,3.59,0,0,1,3.55,3.73A3.63,3.63,0,0,1,78.21,36,2.57,2.57,0,0,1,76,35v.78h-2.5V24.36H76ZM76,32.24a1.61,1.61,0,1,0,1.62-1.6A1.62,1.62,0,0,0,76,32.24Z"/><path class="cls-2" d="M90.84,32.24c0,2.24-1.76,3.8-4.28,3.8s-4.2-1.59-4.2-3.86,1.8-3.72,4.23-3.72S90.84,30,90.84,32.24Zm-5.85,0a1.61,1.61,0,1,0,1.6-1.61A1.62,1.62,0,0,0,85,32.21Z"/><path class="cls-2" d="M97,31a2.18,2.18,0,0,0-1.29-.44,1.7,1.7,0,1,0,0,3.4A2,2,0,0,0,97,33.5v2.12a4.27,4.27,0,0,1-1.75.39,3.76,3.76,0,1,1,.07-7.51,3.44,3.44,0,0,1,1.68.39Z"/><path class="cls-2" d="M97,28.72h2.89l1.89,3.61,1.83-3.61h2.85l-5.66,10.59H98.05l2.4-4.49Z"/><path class="cls-2" d="M111.49,30.54a3.07,3.07,0,0,0-1.36-.34c-.43,0-.76.22-.76.5s.19.4,1.12.61c1.38.28,2.05.94,2.05,2.08,0,1.6-1.32,2.65-3.36,2.65a5.46,5.46,0,0,1-2.82-.81l.91-1.76a4,4,0,0,0,2,.71c.45,0,.78-.23.78-.54s-.22-.47-1.06-.65c-1.49-.32-2.07-.86-2.07-2,0-1.57,1.2-2.55,3.14-2.55a5.53,5.53,0,0,1,2.28.45Z"/><path class="cls-2" d="M116,35.77h-2.49v-5h-.82V28.72h.82V26.6H116v2.12h1.42v2.07H116Z"/><path class="cls-2" d="M120.06,32.71c0,1,.52,1.58,1.51,1.58a1.24,1.24,0,0,0,1.23-.67h2.4a2.93,2.93,0,0,1-.62,1.25,3.92,3.92,0,0,1-3,1.18c-2.44,0-4-1.48-4-3.75a3.89,3.89,0,0,1,7.77.16v.25ZM123,31.26a1.44,1.44,0,0,0-1.46-1.14,1.32,1.32,0,0,0-1.4,1.14Z"/><path class="cls-2" d="M128.81,26a1.4,1.4,0,1,1-1.4-1.4A1.41,1.41,0,0,1,128.81,26Zm-.15,9.76h-2.49V28.72h2.49Z"/><path class="cls-2" d="M132.29,28.72v.89a2.59,2.59,0,0,1,2.25-1,2.64,2.64,0,0,1,2,.77,2.36,2.36,0,0,1,.66,1.95v4.48h-2.49V32.21c0-.72,0-.86-.16-1.12a1.1,1.1,0,0,0-1-.55,1.43,1.43,0,0,0-1,.47,1.45,1.45,0,0,0-.26,1v3.78H129.8V28.72Z"/><path class="cls-2" d="M146.33,28.72v7.05h-2.49V35a2.55,2.55,0,0,1-2.18,1,3.63,3.63,0,0,1-3.57-3.79,3.59,3.59,0,0,1,3.55-3.73,2.82,2.82,0,0,1,2.2.92v-.69Zm-5.64,3.5a1.62,1.62,0,1,0,3.23,0,1.62,1.62,0,0,0-3.23,0Z"/><path class="cls-2" d="M157,24.43V35.77h-1.12v-.89A2.65,2.65,0,0,1,153.7,36a3.18,3.18,0,0,1-3.1-3.43,3.14,3.14,0,0,1,3.08-3.36,2.81,2.81,0,0,1,2.26,1.06v-5.8Zm-5.31,8.07A2.23,2.23,0,0,0,153.85,35,2.17,2.17,0,0,0,156,32.53a2.15,2.15,0,0,0-.66-1.75,2.17,2.17,0,0,0-1.47-.6A2.2,2.2,0,0,0,151.73,32.5Z"/><path class="cls-2" d="M164.36,34.74v1h-6.69l4.68-5.43h-3.81v-1h6l-4.65,5.43Z"/><path class="cls-2" d="M166.56,26.87a.8.8,0,1,1-.8-.79A.79.79,0,0,1,166.56,26.87Zm-.25,8.9H165.2V29.31h1.11Z"/><path class="cls-2" d="M173.92,29.31v6.46h-1.11v-.9A2.71,2.71,0,0,1,170.59,36a3.2,3.2,0,0,1-3.12-3.44,3.13,3.13,0,0,1,3.09-3.36,2.73,2.73,0,0,1,2.25,1.07v-.92Zm-5.31,3.19a2.16,2.16,0,1,0,4.28,0,2.17,2.17,0,0,0-2.15-2.36A2.2,2.2,0,0,0,168.61,32.5Z"/><path class="cls-2" d="M177.58,28.47v1.19l-1,.74v5.37h-1.1V30.92l-1,.73V30.46l1-.73v-5.3h1.1v4.79Z"/><path class="cls-2" d="M184.18,29.31v6.46h-1.11v-.9A2.71,2.71,0,0,1,180.85,36a3.2,3.2,0,0,1-3.12-3.44,3.13,3.13,0,0,1,3.09-3.36,2.73,2.73,0,0,1,2.25,1.07v-.92Zm-5.31,3.19a2.16,2.16,0,1,0,4.28,0A2.17,2.17,0,0,0,181,30.17,2.2,2.2,0,0,0,178.87,32.5Z"/><path class="cls-2" d="M192.48,32.44l1.77-3.72h1.56l1.77,3.83,1.78-3.83h2.77l-3.69,7.05h-1.68L195,31.91l-1.68,3.86h-1.68L188,28.72h2.79Z"/><path class="cls-2" d="M204.67,32.71c0,1,.51,1.58,1.51,1.58a1.25,1.25,0,0,0,1.23-.67h2.4a2.93,2.93,0,0,1-.63,1.25,3.9,3.9,0,0,1-3,1.18c-2.44,0-4-1.48-4-3.75a3.89,3.89,0,0,1,7.77.16v.25Zm2.93-1.45a1.45,1.45,0,0,0-1.47-1.14,1.33,1.33,0,0,0-1.4,1.14Z"/><path class="cls-2" d="M214.38,32.44l1.78-3.72h1.55l1.78,3.83,1.77-3.83H224l-3.69,7.05h-1.68l-1.75-3.86-1.69,3.86h-1.68l-3.62-7.05h2.78Z"/><path class="cls-2" d="M226.83,28.72v.89a2.57,2.57,0,0,1,2.25-1,2.64,2.64,0,0,1,2,.77,2.36,2.36,0,0,1,.65,1.95v4.48h-2.49V32.21c0-.72,0-.86-.15-1.12a1.1,1.1,0,0,0-1-.55,1.43,1.43,0,0,0-1,.47,1.45,1.45,0,0,0-.26,1v3.78h-2.5V28.72Z"/><path class="cls-2" d="M240.87,28.72v7.05c-.64.41-.89.72-.89,1.08a.61.61,0,0,0,.61.59,1.49,1.49,0,0,0,.78-.28L241,38.5a2.23,2.23,0,0,1-1.11.28,1.32,1.32,0,0,1-1.38-1.25,2.11,2.11,0,0,1,1.18-1.76h-1.35V35a2.55,2.55,0,0,1-2.18,1,3.63,3.63,0,0,1-3.57-3.79,3.59,3.59,0,0,1,3.55-3.73,2.83,2.83,0,0,1,2.2.92v-.69Zm-5.64,3.5a1.61,1.61,0,1,0,1.61-1.58A1.62,1.62,0,0,0,235.23,32.22Z"/><path class="cls-2" d="M244.79,35.77H242.3v-5h-.82V28.72h.82V26.6h2.49v2.12h1.42v2.07h-1.42Z"/><path class="cls-2" d="M249.07,28.72v1.15a2.51,2.51,0,0,1,2.32-1.26l.49,0V31a2.05,2.05,0,0,0-1.06-.26c-1.17,0-1.75.67-1.75,2v3h-2.49V28.72Z"/><path class="cls-2" d="M259,33.7v2.07h-7.14l3.33-5h-2.88V28.72h7l-3.3,5Z"/><path class="cls-2" d="M262.46,31.26l2.62-2.54h3.41L265,32l3.75,3.8h-3.5l-2.74-2.86v2.86H260V24.36h2.49Z"/><path class="cls-2" d="M277.22,32.24c0,2.24-1.76,3.8-4.28,3.8a3.87,3.87,0,0,1-4.2-3.86c0-2.14,1.8-3.72,4.23-3.72S277.22,30,277.22,32.24Zm-5.85,0A1.61,1.61,0,1,0,273,30.6,1.62,1.62,0,0,0,271.37,32.21Z"/><path class="cls-2" d="M280.59,28.72v.87a3,3,0,0,1,2.28-1,2.57,2.57,0,0,1,2.39,1.31,2.69,2.69,0,0,1,2.39-1.32,2.39,2.39,0,0,1,2,.95A2.82,2.82,0,0,1,290,31.2v4.57h-2.49V32.29a2.17,2.17,0,0,0-.14-1.12,1,1,0,0,0-.9-.63,1.19,1.19,0,0,0-1,.66,2.49,2.49,0,0,0-.17,1.09v3.48h-2.49V32.29a2.55,2.55,0,0,0-.11-1.12,1.06,1.06,0,0,0-1-.67,1.18,1.18,0,0,0-1,.59,2.6,2.6,0,0,0-.17,1.2v3.48H278.1V28.72Z"/><path class="cls-2" d="M299.39,32.24c0,2.24-1.76,3.8-4.28,3.8a3.87,3.87,0,0,1-4.2-3.86c0-2.14,1.8-3.72,4.23-3.72S299.39,30,299.39,32.24Zm-5.85,0a1.61,1.61,0,1,0,1.6-1.61A1.62,1.62,0,0,0,293.54,32.21Zm1.51-4.53-1.15-.86,2-2.39,1.59,1.13Z"/><path class="cls-2" d="M302.76,28.72v1.15a2.5,2.5,0,0,1,2.32-1.26l.48,0V31a2.05,2.05,0,0,0-1.06-.26c-1.17,0-1.74.67-1.74,2v3h-2.49V28.72Z"/><path class="cls-2" d="M308.6,31.26l2.61-2.54h3.41L311.09,32l3.75,3.8h-3.5l-2.74-2.86v2.86h-2.49V24.36h2.49Z"/><path class="cls-2" d="M323.36,32.24c0,2.24-1.76,3.8-4.28,3.8s-4.21-1.59-4.21-3.86,1.81-3.72,4.24-3.72S323.36,30,323.36,32.24Zm-5.86,0a1.61,1.61,0,1,0,3.22,0,1.6,1.6,0,0,0-1.61-1.62A1.63,1.63,0,0,0,317.5,32.21Z"/><path class="cls-2" d="M327.84,32.44l1.78-3.72h1.55L333,32.55l1.77-3.83h2.77l-3.69,7.05h-1.68l-1.76-3.86-1.68,3.86H327l-3.63-7.05h2.79Z"/><path class="cls-2" d="M346,32.24c0,2.24-1.75,3.8-4.28,3.8a3.87,3.87,0,0,1-4.2-3.86c0-2.14,1.81-3.72,4.24-3.72S346,30,346,32.24Zm-5.85,0a1.61,1.61,0,1,0,3.22,0,1.6,1.6,0,0,0-1.61-1.62A1.63,1.63,0,0,0,340.14,32.21Z"/><path class="cls-2" d="M54.52,48v6.46H53.41v-.91a2.71,2.71,0,0,1-2.22,1.09,3.2,3.2,0,0,1-3.12-3.44,3.14,3.14,0,0,1,3.08-3.36,2.76,2.76,0,0,1,2.26,1.07V48Zm-5.31,3.19a2.16,2.16,0,1,0,4.28,0,2.18,2.18,0,0,0-2.15-2.37A2.2,2.2,0,0,0,49.21,51.19Z"/><path class="cls-2" d="M57.18,50.38,59.51,48H61l-2.75,2.75,3.28,3.71H60.06l-2.6-3-.28.28v2.67h-1.1V43.11h1.1Z"/><path class="cls-2" d="M63.17,54.46h-1.1V49H61.4V48h.67V45.66h1.1V48h1.16v1H63.17Z"/><path class="cls-2" d="M63.91,48h1.27l2.29,4.62L69.56,48h1.26L66,58.1H64.79l2.09-4.25Z"/><path class="cls-2" d="M73.67,52.37l2-4.87,2,4.87L79.63,48h1.24l-3.2,6.91-2-4.81-2,4.81L70.51,48h1.24Z"/><path class="cls-2" d="M82.6,51.76A2.58,2.58,0,0,0,82.81,53a1.53,1.53,0,0,0,2.5,0,2.58,2.58,0,0,0,.21-1.22V48h1.1v3.89A2.54,2.54,0,0,1,86,53.83a2.8,2.8,0,0,1-3.94,0,2.54,2.54,0,0,1-.59-1.94V48h1.1Z"/><path class="cls-2" d="M89.53,45.55a.79.79,0,1,1-.79-.79A.79.79,0,0,1,89.53,45.55ZM89.28,58.1h-1.1V48h1.1Z"/><path class="cls-2" d="M96.9,54.46c-.77.54-1.11,1-1.11,1.37a.58.58,0,0,0,.59.57,1.67,1.67,0,0,0,.8-.22L97,57a1.69,1.69,0,0,1-.83.22A1.29,1.29,0,0,1,94.86,56c0-.55.39-1.06,1.16-1.57h-.23v-.91a2.71,2.71,0,0,1-2.22,1.09,3.2,3.2,0,0,1-3.12-3.44,3.14,3.14,0,0,1,3.08-3.36,2.76,2.76,0,0,1,2.26,1.07V48H96.9Zm-5.31-3.27a2.16,2.16,0,1,0,4.28,0,2.18,2.18,0,0,0-2.15-2.37A2.2,2.2,0,0,0,91.59,51.19Z"/><path class="cls-2" d="M103.48,49.93a2.51,2.51,0,0,0-2-1.06,2.38,2.38,0,0,0,0,4.76,2.6,2.6,0,0,0,2.1-1.12V54a3.48,3.48,0,0,1-2.07.67,3.39,3.39,0,1,1,0-6.78,3.41,3.41,0,0,1,2,.6Z"/><path class="cls-2" d="M109.1,54.46H108V49h-.67V48H108V45.66h1.1V48h1.16v1H109.1Z"/><path class="cls-2" d="M111.88,48v.7c.57-.69.85-.86,1.46-.86a1.73,1.73,0,0,1,1,.28l-.51,1a1.12,1.12,0,0,0-.66-.22,1.18,1.18,0,0,0-1,.59,3.37,3.37,0,0,0-.24,1.56v3.41h-1.11V48Z"/><path class="cls-2" d="M120.84,48v6.46h-1.1v-.91a2.74,2.74,0,0,1-2.23,1.09,3.19,3.19,0,0,1-3.11-3.44,3.14,3.14,0,0,1,3.08-3.36,2.78,2.78,0,0,1,2.26,1.07V48Zm-5.31,3.19a2.22,2.22,0,0,0,2.12,2.44,2.2,2.2,0,0,0,2.16-2.41,2.17,2.17,0,0,0-2.14-2.37A2.2,2.2,0,0,0,115.53,51.19Z"/><path class="cls-2" d="M123.51,48v.77a2.14,2.14,0,0,1,1.86-.93,2.21,2.21,0,0,1,1.86.89,3.2,3.2,0,0,1,.35,1.73v4h-1.1V50.64a2.23,2.23,0,0,0-.22-1.26,1.29,1.29,0,0,0-1.15-.53c-1.12,0-1.6.72-1.6,2.38v3.23H122.4V48Z"/><path class="cls-2" d="M131.79,49.51a1,1,0,0,0-.9-.64.75.75,0,0,0-.78.71c0,.38.22.58,1,.92a5.76,5.76,0,0,1,1.23.62,1.7,1.7,0,0,1,.72,1.42,2.13,2.13,0,0,1-2.21,2.1A2.29,2.29,0,0,1,128.63,53l1-.4c.36.78.7,1,1.29,1a1,1,0,0,0,1.06-1c0-.48-.23-.71-1-1.06-1.5-.63-1.87-1-1.87-1.88a1.8,1.8,0,0,1,1.88-1.8A1.88,1.88,0,0,1,132.71,49Z"/><path class="cls-2" d="M135.14,54.46H134V49h-.61V48H134V45.24a2.65,2.65,0,0,1,.37-1.63,1.92,1.92,0,0,1,1.56-.69,2.41,2.41,0,0,1,.81.14v1.12A2,2,0,0,0,136,44c-.7,0-.88.31-.88,1.48V48h1.63v1h-1.63Z"/><path class="cls-2" d="M137.94,51.45A2.07,2.07,0,0,0,140,53.63c.86,0,1.37-.36,2-1.35l.93.53a3.2,3.2,0,0,1-3,1.83,3.14,3.14,0,0,1-3.18-3.37,3.13,3.13,0,0,1,3.13-3.41c1.85,0,3.08,1.35,3.08,3.41v.18Zm3.87-.93a1.93,1.93,0,0,0-1.89-1.67,2,2,0,0,0-1.9,1.67Z"/><path class="cls-2" d="M145.22,48v.7c.58-.69.86-.86,1.47-.86a1.73,1.73,0,0,1,1,.28l-.51,1a1.12,1.12,0,0,0-.66-.22,1.18,1.18,0,0,0-1,.59,3.34,3.34,0,0,0-.25,1.56v3.41h-1.1V48Z"/><path class="cls-2" d="M154.19,48v6.46h-1.1v-.91a2.74,2.74,0,0,1-2.23,1.09,3.19,3.19,0,0,1-3.11-3.44,3.13,3.13,0,0,1,3.08-3.36,2.78,2.78,0,0,1,2.26,1.07V48Zm-5.31,3.19A2.22,2.22,0,0,0,151,53.63a2.2,2.2,0,0,0,2.16-2.41A2.17,2.17,0,0,0,151,48.85,2.2,2.2,0,0,0,148.88,51.19Z"/><path class="cls-2" d="M161.51,53.43v1h-6.69L159.5,49h-3.81V48h6l-4.65,5.43Z"/><path class="cls-2" d="M167.25,57a1.6,1.6,0,0,1-.82.22A1.3,1.3,0,0,1,165.06,56c0-.5.23-.86.9-1.45a2.66,2.66,0,0,1-.81.11,3.4,3.4,0,0,1-.09-6.78c1.85,0,3.08,1.35,3.08,3.41v.18h-5a2.07,2.07,0,0,0,2.05,2.18c.86,0,1.37-.36,2-1.35l.93.53A6,6,0,0,1,167,54.18a3.18,3.18,0,0,0-.7.79,1.77,1.77,0,0,0-.29.82.62.62,0,0,0,.6.61,1.65,1.65,0,0,0,.81-.22ZM167,50.52a1.93,1.93,0,0,0-1.89-1.67,2,2,0,0,0-1.9,1.67Z"/><path class="cls-2" d="M175.26,49.51a1,1,0,0,0-.9-.64.75.75,0,0,0-.78.71c0,.38.21.58,1,.92a5.76,5.76,0,0,1,1.23.62,1.7,1.7,0,0,1,.72,1.42,2.13,2.13,0,0,1-2.21,2.1A2.29,2.29,0,0,1,172.1,53l1-.4c.36.78.7,1,1.29,1a1,1,0,0,0,1.06-1c0-.48-.23-.71-1-1.06-1.5-.63-1.87-1-1.87-1.88a1.8,1.8,0,0,1,1.88-1.8A1.88,1.88,0,0,1,176.18,49Z"/><path class="cls-2" d="M178.85,45.55a.79.79,0,1,1-.79-.79A.79.79,0,0,1,178.85,45.55Zm-.24,8.91H177.5V48h1.11Z"/><path class="cls-2" d="M186.22,48v6.46h-1.11v-.91a2.71,2.71,0,0,1-2.22,1.09,3.2,3.2,0,0,1-3.12-3.44,3.14,3.14,0,0,1,3.09-3.36,2.76,2.76,0,0,1,2.25,1.07V48Zm-5.31,3.19a2.16,2.16,0,1,0,4.28,0A2.18,2.18,0,0,0,183,48.85,2.2,2.2,0,0,0,180.91,51.19Z"/><path class="cls-2" d="M188.88,54.46h-1.1V43.11h1.1Z"/><path class="cls-2" d="M189.5,48h1.28l2.29,4.62L195.15,48h1.27l-4.78,10.1h-1.25l2.09-4.25Z"/><path class="cls-2" d="M198.14,54.46H197V43.11h1.1Z"/><path class="cls-2" d="M206.11,51.25a3.42,3.42,0,1,1-6.83-.06,3.4,3.4,0,0,1,3.43-3.33A3.36,3.36,0,0,1,206.11,51.25Zm-5.69,0a2.28,2.28,0,1,0,2.27-2.35A2.25,2.25,0,0,0,200.42,51.22Z"/><path class="cls-2" d="M209.48,52.37l2-4.87,2,4.87L215.44,48h1.24l-3.2,6.91-2-4.81-2,4.81L206.32,48h1.24Z"/><path class="cls-2" d="M223.35,54.46c-.76.54-1.11,1-1.11,1.37a.58.58,0,0,0,.6.57,1.67,1.67,0,0,0,.79-.22l-.14.86a1.66,1.66,0,0,1-.83.22A1.3,1.3,0,0,1,221.31,56c0-.55.39-1.06,1.17-1.57h-.24v-.91A2.71,2.71,0,0,1,220,54.64a3.19,3.19,0,0,1-3.11-3.44A3.13,3.13,0,0,1,220,47.84a2.74,2.74,0,0,1,2.25,1.07V48h1.11ZM218,51.19a2.16,2.16,0,1,0,4.28,0,2.18,2.18,0,0,0-2.15-2.37A2.2,2.2,0,0,0,218,51.19Z"/><path class="cls-2" d="M226.53,53.3,225,56.82l-.75-.29,1.29-3.6Z"/><path class="cls-2" d="M236.24,49.93a2.51,2.51,0,0,0-2-1.06,2.38,2.38,0,0,0,0,4.76,2.6,2.6,0,0,0,2.1-1.12V54a3.52,3.52,0,0,1-2.07.67,3.39,3.39,0,1,1,0-6.78,3.41,3.41,0,0,1,2,.6Z"/><path class="cls-2" d="M243.84,51.25a3.42,3.42,0,0,1-6.84-.06,3.4,3.4,0,0,1,3.43-3.33A3.37,3.37,0,0,1,243.84,51.25Zm-5.7,0a2.28,2.28,0,1,0,2.27-2.35A2.25,2.25,0,0,0,238.14,51.22Z"/><path class="cls-2" d="M248.31,58.1V48h1.1v.91a2.75,2.75,0,0,1,2.23-1.07,3.18,3.18,0,0,1,3.11,3.43,3.14,3.14,0,0,1-3.08,3.37,2.73,2.73,0,0,1-2.26-1.09V58.1Zm1-6.83a2.15,2.15,0,1,0,4.28,0,2.16,2.16,0,1,0-4.28,0Z"/><path class="cls-2" d="M262.32,51.25a3.42,3.42,0,1,1-3.41-3.39A3.37,3.37,0,0,1,262.32,51.25Zm-5.7,0a2.28,2.28,0,1,0,2.27-2.35A2.25,2.25,0,0,0,256.62,51.22Z"/><path class="cls-2" d="M265.68,52.37l2-4.87,2,4.87L271.64,48h1.25l-3.21,6.91-2-4.81-2,4.81L262.52,48h1.25Z"/><path class="cls-2" d="M279.93,51.25a3.42,3.42,0,0,1-6.84-.06,3.4,3.4,0,0,1,3.43-3.33A3.37,3.37,0,0,1,279.93,51.25Zm-5.7,0a2.28,2.28,0,1,0,2.27-2.35A2.25,2.25,0,0,0,274.23,51.22Z"/><path class="cls-2" d="M287.1,43.11V54.46H286v-.89a2.65,2.65,0,0,1-2.22,1.07,3.18,3.18,0,0,1-3.1-3.42,3.13,3.13,0,0,1,3.08-3.36,2.8,2.8,0,0,1,2.26,1v-5.8Zm-5.3,8.08a2.21,2.21,0,0,0,2.11,2.44,2.16,2.16,0,0,0,2.15-2.41,2.18,2.18,0,0,0-.65-1.76,2.25,2.25,0,0,0-1.48-.59A2.19,2.19,0,0,0,281.8,51.19Z"/><path class="cls-2" d="M289.77,51.76A2.61,2.61,0,0,0,290,53a1.54,1.54,0,0,0,2.51,0,2.61,2.61,0,0,0,.2-1.22V48h1.1v3.89a2.5,2.5,0,0,1-.59,1.94,2.57,2.57,0,0,1-2,.81,2.6,2.6,0,0,1-2-.81,2.54,2.54,0,0,1-.59-1.94V48h1.11Z"/><path class="cls-2" d="M296.7,45.55a.8.8,0,1,1-.8-.79A.8.8,0,0,1,296.7,45.55Zm-.25,12.55h-1.11V48h1.11Z"/><path class="cls-2" d="M298.77,51.45a2.07,2.07,0,0,0,2.05,2.18c.86,0,1.37-.36,2-1.35l.93.53a3.2,3.2,0,0,1-3,1.83,3.14,3.14,0,0,1-3.18-3.37,3.13,3.13,0,0,1,3.13-3.41c1.85,0,3.08,1.35,3.08,3.41v.18Zm3.87-.93a1.93,1.93,0,0,0-1.89-1.67,2,2,0,0,0-1.9,1.67Z"/><path class="cls-2" d="M310.51,52.37l2-4.87,2,4.87L316.47,48h1.24l-3.2,6.91-2-4.81-2,4.81L307.35,48h1.24Z"/><path class="cls-2" d="M324.1,53.43v1h-6.69L322.09,49h-3.81V48h6l-4.65,5.43Z"/><path class="cls-2" d="M326.05,48v.7c.57-.69.85-.86,1.46-.86a1.73,1.73,0,0,1,1,.28l-.51,1a1.1,1.1,0,0,0-.66-.22,1.18,1.18,0,0,0-1,.59,3.37,3.37,0,0,0-.24,1.56v3.41h-1.11V48Z"/><path class="cls-2" d="M335.39,51.25A3.42,3.42,0,1,1,332,47.86,3.37,3.37,0,0,1,335.39,51.25Zm-5.7,0A2.28,2.28,0,1,0,332,48.87,2.25,2.25,0,0,0,329.69,51.22Z"/><path class="cls-2" d="M339.17,49.51a1,1,0,0,0-.9-.64.76.76,0,0,0-.78.71c0,.38.22.58,1,.92a5.51,5.51,0,0,1,1.23.62,1.7,1.7,0,0,1,.72,1.42,2.13,2.13,0,0,1-2.21,2.1A2.29,2.29,0,0,1,336,53l1-.4c.36.78.7,1,1.29,1a1,1,0,0,0,1.06-1c0-.48-.23-.71-1-1.06-1.5-.63-1.87-1-1.87-1.88a1.8,1.8,0,0,1,1.88-1.8A1.88,1.88,0,0,1,340.09,49Z"/><path class="cls-2" d="M342.52,54.46h-1.11V49h-.67V48h.67V45.66h1.11V48h1.15v1h-1.15Z"/><path class="cls-2" d="M350.16,49.51a1,1,0,0,0-.9-.64.76.76,0,0,0-.78.71c0,.38.22.58,1,.92a5.28,5.28,0,0,1,1.23.62,1.7,1.7,0,0,1,.72,1.42,2.13,2.13,0,0,1-2.21,2.1A2.3,2.3,0,0,1,347,53l1-.4c.36.78.7,1,1.3,1a1,1,0,0,0,1.05-1c0-.48-.23-.71-1-1.06-1.49-.63-1.87-1-1.87-1.88a1.8,1.8,0,0,1,1.89-1.8A1.87,1.87,0,0,1,351.08,49Z"/><path class="cls-2" d="M351.47,48h1.28L355,52.62,357.12,48h1.26L353.6,58.1h-1.24l2.08-4.25Z"/><path class="cls-2" d="M360.11,48v.77a2.15,2.15,0,0,1,1.87-.93,2.2,2.2,0,0,1,1.85.89,3.1,3.1,0,0,1,.36,1.73v4h-1.11V50.64a2.25,2.25,0,0,0-.21-1.26,1.32,1.32,0,0,0-1.16-.53c-1.12,0-1.6.72-1.6,2.38v3.23H359V48Z"/><path class="cls-2" d="M366.85,54.46h-1.1V49h-.67V48h.67V45.66h1.1V48H368v1h-1.15Z"/><path class="cls-2" d="M369.27,51.45a2.06,2.06,0,0,0,2.05,2.18c.86,0,1.37-.36,2-1.35l.94.53a3.21,3.21,0,0,1-3,1.83,3.13,3.13,0,0,1-3.17-3.37,3.13,3.13,0,0,1,3.13-3.41c1.85,0,3.08,1.35,3.08,3.41v.18Zm3.87-.93a1.94,1.94,0,0,0-1.9-1.67,2,2,0,0,0-1.9,1.67Z"/><path class="cls-2" d="M381.21,53.43v1h-6.7L379.2,49h-3.81V48h6l-4.66,5.43Z"/><path class="cls-2" d="M381.12,48h1.27l2.29,4.62L386.77,48H388l-4.78,10.1H382l2.09-4.25Z"/><path class="cls-2" d="M49.58,69.06l2.34-2.38H53.4l-2.76,2.76,3.28,3.7H52.46l-2.6-2.94-.28.28v2.66h-1.1V61.79h1.1Z"/><path class="cls-2" d="M56.7,71.05l2-4.87,2,4.87,1.93-4.37H63.9l-3.2,6.91-2-4.81-2,4.81-3.17-6.91h1.24Z"/><path class="cls-2" d="M70.57,66.68v6.46H69.46v-.9a2.73,2.73,0,0,1-2.22,1.09,3.2,3.2,0,0,1-3.12-3.44,3.14,3.14,0,0,1,3.09-3.37,2.73,2.73,0,0,1,2.25,1.08v-.92Zm-5.31,3.19a2.16,2.16,0,1,0,4.28,0,2.17,2.17,0,0,0-2.15-2.36A2.2,2.2,0,0,0,65.26,69.87Z"/><path class="cls-2" d="M74.77,68.19a1,1,0,0,0-.9-.64.76.76,0,0,0-.78.72c0,.37.22.57,1,.92a4.9,4.9,0,0,1,1.23.62,1.67,1.67,0,0,1,.72,1.41,2.13,2.13,0,0,1-2.21,2.11,2.3,2.3,0,0,1-2.26-1.65l1-.41c.36.78.7,1,1.3,1a1,1,0,0,0,1-1c0-.49-.23-.72-1-1.06-1.49-.64-1.87-1-1.87-1.88a1.81,1.81,0,0,1,1.89-1.81,1.86,1.86,0,0,1,1.77,1.17Zm-.9-2.63-.69-.39,1.64-2.24,1.15.51Z"/><path class="cls-2" d="M78.12,66.68v.78A2.14,2.14,0,0,1,80,66.52a2.22,2.22,0,0,1,1.85.89,3.12,3.12,0,0,1,.36,1.73v4H81.09V69.33a2.21,2.21,0,0,0-.21-1.26,1.32,1.32,0,0,0-1.16-.53c-1.12,0-1.6.71-1.6,2.38v3.22H77V66.68Z"/><path class="cls-2" d="M82.82,66.68H84.1l2.29,4.62,2.08-4.62h1.26L85,76.78H83.71l2.09-4.25Z"/><path class="cls-2" d="M95.39,68.61a2.53,2.53,0,0,0-2-1.06,2.3,2.3,0,0,0-2.28,2.38,2.27,2.27,0,0,0,2.26,2.38,2.57,2.57,0,0,0,2.1-1.12v1.47a3.55,3.55,0,0,1-2.07.67,3.4,3.4,0,1,1,2-6.18Z"/><path class="cls-2" d="M97.67,61.79v5.65a2.37,2.37,0,0,1,3.71,0,2.93,2.93,0,0,1,.37,1.71v4h-1.1V69.22c0-1.19-.39-1.67-1.34-1.67a1.43,1.43,0,0,0-1.37.76,3.48,3.48,0,0,0-.27,1.61v3.22h-1.1V61.79Z"/><path class="cls-2" d="M106.64,76.78V66.68h1.11v.92A2.7,2.7,0,0,1,110,66.52,3.19,3.19,0,0,1,113.09,70,3.15,3.15,0,0,1,110,73.33a2.75,2.75,0,0,1-2.25-1.09v4.54Zm1-6.83A2.15,2.15,0,1,0,112,70a2.16,2.16,0,1,0-4.28,0Z"/><path class="cls-2" d="M120.65,69.93a3.42,3.42,0,1,1-3.4-3.39A3.36,3.36,0,0,1,120.65,69.93Zm-5.69,0a2.28,2.28,0,1,0,2.27-2.35A2.25,2.25,0,0,0,115,69.9Z"/><path class="cls-2" d="M122.9,73.14h-1.11V61.79h1.11Z"/><path class="cls-2" d="M125.81,64.24a.8.8,0,1,1-.8-.8A.8.8,0,0,1,125.81,64.24Zm-.25,8.9h-1.11V66.68h1.11Z"/><path class="cls-2" d="M133.17,66.68v6.46h-1.1v-.9a2.77,2.77,0,0,1-2.23,1.09,3.19,3.19,0,0,1-3.11-3.44,3.14,3.14,0,0,1,3.08-3.37,2.76,2.76,0,0,1,2.26,1.08v-.92Zm-5.31,3.19A2.22,2.22,0,0,0,130,72.31a2.19,2.19,0,0,0,2.16-2.41A2.17,2.17,0,0,0,130,67.54,2.2,2.2,0,0,0,127.86,69.87Z"/><path class="cls-2" d="M135.83,66.68v.78a2.15,2.15,0,0,1,1.87-.94,2.21,2.21,0,0,1,1.85.89,3.12,3.12,0,0,1,.36,1.73v4h-1.1V69.33a2.19,2.19,0,0,0-.22-1.26,1.29,1.29,0,0,0-1.15-.53c-1.12,0-1.61.71-1.61,2.38v3.22h-1.1V66.68Z"/><path class="cls-2" d="M142.83,64.24a.8.8,0,1,1-.8-.8A.8.8,0,0,1,142.83,64.24Zm-.25,8.9h-1.11V66.68h1.11Z"/><path class="cls-2" d="M150.56,69.93a3.42,3.42,0,1,1-3.41-3.39A3.36,3.36,0,0,1,150.56,69.93Zm-5.69,0a2.28,2.28,0,1,0,2.27-2.35A2.25,2.25,0,0,0,144.87,69.9Z"/><path class="cls-2" d="M152.8,66.68v.78a2.15,2.15,0,0,1,1.87-.94,2.21,2.21,0,0,1,1.85.89,3.12,3.12,0,0,1,.36,1.73v4h-1.1V69.33a2.19,2.19,0,0,0-.22-1.26,1.29,1.29,0,0,0-1.15-.53c-1.12,0-1.61.71-1.61,2.38v3.22h-1.1V66.68Z"/><path class="cls-2" d="M164.85,69.93a3.42,3.42,0,1,1-3.4-3.39A3.36,3.36,0,0,1,164.85,69.93Zm-5.69,0a2.28,2.28,0,1,0,2.27-2.35A2.25,2.25,0,0,0,159.16,69.9Z"/><path class="cls-2" d="M168.22,71.05l2-4.87,2,4.87,1.93-4.37h1.24l-3.2,6.91-2-4.81-2,4.81-3.17-6.91h1.24Z"/><path class="cls-2" d="M175.12,66.68h1.27l2.29,4.62,2.09-4.62H182l-4.78,10.1H176l2.09-4.25Z"/><path class="cls-2" d="M187.68,68.61a2.52,2.52,0,0,0-2-1.06,2.38,2.38,0,0,0,0,4.76,2.57,2.57,0,0,0,2.1-1.12v1.47a3.54,3.54,0,0,1-2.06.67,3.4,3.4,0,1,1,2-6.18Z"/><path class="cls-2" d="M190,61.79v5.65a2.36,2.36,0,0,1,3.7,0,2.85,2.85,0,0,1,.38,1.71v4h-1.11V69.22c0-1.19-.39-1.67-1.34-1.67a1.44,1.44,0,0,0-1.37.76,3.64,3.64,0,0,0-.26,1.61v3.22h-1.11V61.79Z"/><path class="cls-2" d="M201.58,68.19a1,1,0,0,0-.9-.64.76.76,0,0,0-.78.72c0,.37.22.57,1,.92a4.9,4.9,0,0,1,1.23.62,1.67,1.67,0,0,1,.72,1.41,2.13,2.13,0,0,1-2.21,2.11,2.3,2.3,0,0,1-2.26-1.65l1-.41c.36.78.7,1,1.3,1a1,1,0,0,0,1.05-1c0-.49-.23-.72-1-1.06-1.49-.64-1.87-1-1.87-1.88a1.81,1.81,0,0,1,1.89-1.81,1.86,1.86,0,0,1,1.77,1.17Z"/><path class="cls-2" d="M205.18,64.24a.8.8,0,1,1-.79-.8A.8.8,0,0,1,205.18,64.24Zm-.25,8.9h-1.1V66.68h1.1Z"/><path class="cls-2" d="M212.54,66.68v6.46h-1.1v-.9a2.77,2.77,0,0,1-2.23,1.09,3.19,3.19,0,0,1-3.11-3.44,3.14,3.14,0,0,1,3.08-3.37,2.76,2.76,0,0,1,2.26,1.08v-.92Zm-5.31,3.19a2.22,2.22,0,0,0,2.12,2.44,2.19,2.19,0,0,0,2.16-2.41,2.17,2.17,0,0,0-2.14-2.36A2.2,2.2,0,0,0,207.23,69.87Z"/><path class="cls-2" d="M215.21,73.14H214.1V61.79h1.11Z"/><path class="cls-2" d="M223.17,69.93a3.42,3.42,0,1,1-6.83-.06,3.4,3.4,0,0,1,3.43-3.33A3.36,3.36,0,0,1,223.17,69.93Zm-5.69,0a2.28,2.28,0,1,0,2.27-2.35A2.25,2.25,0,0,0,217.48,69.9Z"/><path class="cls-2" d="M225.42,66.68v.7a1.82,1.82,0,0,1,1.6-.86,2,2,0,0,1,1.78,1,2,2,0,0,1,1.88-1,2,2,0,0,1,1.74.88,2.93,2.93,0,0,1,.36,1.65v4.09h-1.11V69.22c0-1.19-.34-1.68-1.16-1.68s-1.39.67-1.39,2v3.58H228V69.31c0-1.18-.41-1.77-1.2-1.77a1.35,1.35,0,0,0-1.17.7,3.24,3.24,0,0,0-.23,1.38v3.52h-1.11V66.68Z"/><path class="cls-2" d="M235.44,70.45a2.57,2.57,0,0,0,.21,1.21,1.53,1.53,0,0,0,2.5,0,2.57,2.57,0,0,0,.21-1.21V66.68h1.1v3.89a2.58,2.58,0,0,1-.59,2,2.8,2.8,0,0,1-3.94,0,2.58,2.58,0,0,1-.59-2V66.68h1.1Z"/><path class="cls-2" d="M246.05,68.61a2.52,2.52,0,0,0-2-1.06,2.38,2.38,0,0,0,0,4.76,2.57,2.57,0,0,0,2.1-1.12v1.47a3.55,3.55,0,0,1-2.07.67,3.4,3.4,0,1,1,2-6.18Z"/><path class="cls-2" d="M246.3,66.68h1.27l2.29,4.62L252,66.68h1.26l-4.78,10.1h-1.25l2.09-4.25Z"/><path class="cls-2" d="M254.94,66.68v.78a2.14,2.14,0,0,1,1.87-.94,2.23,2.23,0,0,1,1.85.89,3.12,3.12,0,0,1,.36,1.73v4h-1.11V69.33a2.19,2.19,0,0,0-.22-1.26,1.29,1.29,0,0,0-1.15-.53c-1.12,0-1.6.71-1.6,2.38v3.22h-1.11V66.68Z"/><path class="cls-2" d="M266.13,71.05l2-4.87,2,4.87,1.93-4.37h1.25l-3.21,6.91-2-4.81-2,4.81L263,66.68h1.25Z"/><path class="cls-2" d="M279.94,68.19a1,1,0,0,0-.9-.64.76.76,0,0,0-.78.72c0,.37.22.57,1,.92a4.9,4.9,0,0,1,1.23.62,1.67,1.67,0,0,1,.72,1.41A2.13,2.13,0,0,1,279,73.33a2.29,2.29,0,0,1-2.26-1.65l1-.41c.36.78.7,1,1.29,1a1,1,0,0,0,1.06-1c0-.49-.23-.72-1-1.06-1.49-.64-1.87-1-1.87-1.88a1.81,1.81,0,0,1,1.89-1.81,1.86,1.86,0,0,1,1.77,1.17Z"/><path class="cls-2" d="M283.29,73.14h-1.1V67.71h-.67v-1h.67V64.35h1.1v2.33h1.15v1h-1.15Z"/><path class="cls-2" d="M291.37,69.93A3.42,3.42,0,1,1,288,66.54,3.36,3.36,0,0,1,291.37,69.93Zm-5.7,0A2.28,2.28,0,1,0,288,67.55,2.25,2.25,0,0,0,285.67,69.9Z"/><path class="cls-2" d="M295.15,68.19a1,1,0,0,0-.9-.64.76.76,0,0,0-.78.72c0,.37.22.57,1,.92a5.31,5.31,0,0,1,1.23.62,1.69,1.69,0,0,1,.71,1.41,2.13,2.13,0,0,1-2.21,2.11A2.3,2.3,0,0,1,292,71.68l1-.41c.36.78.7,1,1.3,1a1,1,0,0,0,1.05-1c0-.49-.23-.72-1-1.06-1.49-.64-1.87-1-1.87-1.88a1.81,1.81,0,0,1,1.89-1.81,1.86,1.86,0,0,1,1.77,1.17Z"/><path class="cls-2" d="M298.5,70.45a2.59,2.59,0,0,0,.2,1.21,1.54,1.54,0,0,0,2.51,0,2.59,2.59,0,0,0,.2-1.21V66.68h1.11v3.89a2.58,2.58,0,0,1-.59,2,2.65,2.65,0,0,1-2,.81,2.62,2.62,0,0,1-2-.81,2.54,2.54,0,0,1-.59-2V66.68h1.1Z"/><path class="cls-2" d="M305.18,66.68v.78a2.14,2.14,0,0,1,1.87-.94,2.22,2.22,0,0,1,1.85.89,3.12,3.12,0,0,1,.36,1.73v4h-1.11V69.33a2.21,2.21,0,0,0-.21-1.26,1.32,1.32,0,0,0-1.16-.53c-1.12,0-1.6.71-1.6,2.38v3.22h-1.1V66.68Z"/><path class="cls-2" d="M311.92,69.06l2.34-2.38h1.48L313,69.44l3.28,3.7H314.8l-2.6-2.94-.28.28v2.66h-1.1V61.79h1.1Z"/><path class="cls-2" d="M317.92,70.45a2.59,2.59,0,0,0,.2,1.21,1.38,1.38,0,0,0,1.26.65,1.36,1.36,0,0,0,1.24-.65,2.57,2.57,0,0,0,.21-1.21V66.68h1.1v3.89a2.54,2.54,0,0,1-.59,2,2.8,2.8,0,0,1-3.94,0,2.58,2.58,0,0,1-.59-2V66.68h1.11Z"/><path class="cls-2" d="M332.86,61.79V73.14h-1.12v-.89a2.68,2.68,0,0,1-2.22,1.08,3.18,3.18,0,0,1-3.1-3.43,3.14,3.14,0,0,1,3.08-3.36,2.81,2.81,0,0,1,2.26,1.06V61.79Zm-5.31,8.08a2.22,2.22,0,0,0,2.12,2.44,2.16,2.16,0,0,0,2.15-2.41,2.21,2.21,0,0,0-.65-1.76,2.25,2.25,0,0,0-1.48-.59A2.19,2.19,0,0,0,327.55,69.87Z"/><path class="cls-2" d="M340.83,69.93a3.42,3.42,0,1,1-3.41-3.39A3.36,3.36,0,0,1,340.83,69.93Zm-5.69,0a2.28,2.28,0,1,0,2.27-2.35A2.25,2.25,0,0,0,335.14,69.9Z"/><path class="cls-2" d="M346.41,73.14H345.3V67.71h-.6v-1h.6V63.93a2.61,2.61,0,0,1,.38-1.64,1.91,1.91,0,0,1,1.55-.68,2.41,2.41,0,0,1,.81.14v1.12a1.8,1.8,0,0,0-.74-.16c-.7,0-.89.31-.89,1.48v2.49H348v1h-1.63Z"/><path class="cls-2" d="M349.57,70.45a2.59,2.59,0,0,0,.2,1.21,1.54,1.54,0,0,0,2.51,0,2.59,2.59,0,0,0,.2-1.21V66.68h1.1v3.89a2.54,2.54,0,0,1-.59,2,2.61,2.61,0,0,1-2,.81,2.64,2.64,0,0,1-2-.81,2.58,2.58,0,0,1-.59-2V66.68h1.11Z"/><path class="cls-2" d="M356.25,69.06l2.33-2.38h1.48l-2.75,2.76,3.28,3.7h-1.46l-2.6-2.94-.28.28v2.66h-1.11V61.79h1.11Z"/><path class="cls-2" d="M367.55,69.93a3.42,3.42,0,1,1-3.41-3.39A3.36,3.36,0,0,1,367.55,69.93Zm-5.7,0a2.28,2.28,0,1,0,2.28-2.35A2.25,2.25,0,0,0,361.85,69.9Z"/><path class="cls-2" d="M369.79,66.68v.7a1.84,1.84,0,0,1,1.61-.86,2,2,0,0,1,1.77,1,2.19,2.19,0,0,1,3.63-.17,2.93,2.93,0,0,1,.36,1.65v4.09h-1.11V69.22c0-1.19-.34-1.68-1.17-1.68s-1.38.67-1.38,2v3.58h-1.11V69.31q0-1.77-1.2-1.77a1.33,1.33,0,0,0-1.16.7,3.08,3.08,0,0,0-.24,1.38v3.52h-1.1V66.68Z"/><path class="cls-2" d="M379.82,70.45a2.59,2.59,0,0,0,.2,1.21,1.54,1.54,0,0,0,2.51,0,2.59,2.59,0,0,0,.2-1.21V66.68h1.1v3.89a2.54,2.54,0,0,1-.59,2,2.79,2.79,0,0,1-3.93,0,2.54,2.54,0,0,1-.6-2V66.68h1.11Z"/><path class="cls-2" d="M390.42,68.61a2.51,2.51,0,0,0-2-1.06,2.3,2.3,0,0,0-2.27,2.38,2.27,2.27,0,0,0,2.26,2.38,2.57,2.57,0,0,0,2.1-1.12v1.47a3.57,3.57,0,0,1-2.07.67,3.4,3.4,0,1,1,2-6.18Z"/><path class="cls-2" d="M390.67,66.68H392l2.29,4.62,2.08-4.62h1.26l-4.78,10.1h-1.24l2.09-4.25Z"/><path class="cls-2" d="M399.31,66.68v.78a2.14,2.14,0,0,1,1.87-.94,2.22,2.22,0,0,1,1.85.89,3.12,3.12,0,0,1,.36,1.73v4h-1.1V69.33a2.19,2.19,0,0,0-.22-1.26,1.29,1.29,0,0,0-1.15-.53c-1.13,0-1.61.71-1.61,2.38v3.22h-1.1V66.68Z"/><path class="cls-2" d="M406.43,72.52a.77.77,0,1,1-1.54,0,.77.77,0,1,1,1.54,0Z"/><path class="cls-2" d="M48.77,81.44h2.14a5.45,5.45,0,0,1,3.81,1.2,5.09,5.09,0,0,1,1.79,4,5,5,0,0,1-1.82,4,5.38,5.38,0,0,1-3.8,1.2H48.77ZM51,90.75a4.31,4.31,0,0,0,3-1,4.06,4.06,0,0,0,1.42-3.16,4.1,4.1,0,0,0-1.4-3.18,4.38,4.38,0,0,0-3-.94h-1v8.23Z"/><path class="cls-2" d="M63.53,90.8v1H56.84l4.68-5.43H57.71v-1h6L59.08,90.8Z"/><path class="cls-2" d="M65.73,82.92a.8.8,0,1,1-.8-.79A.79.79,0,0,1,65.73,82.92Zm-.25,8.9H64.37V85.36h1.11Z"/><path class="cls-2" d="M72,94.41a1.59,1.59,0,0,1-.82.21,1.3,1.3,0,0,1-1.37-1.27c0-.5.23-.86.9-1.45a3,3,0,0,1-.81.11,3.4,3.4,0,0,1-.09-6.79c1.85,0,3.08,1.36,3.08,3.41v.19h-5a2.07,2.07,0,0,0,2,2.18c.86,0,1.37-.36,2-1.36l.94.53a5.58,5.58,0,0,1-1.11,1.37,3.34,3.34,0,0,0-.7.8,1.73,1.73,0,0,0-.29.82.62.62,0,0,0,.61.61,1.64,1.64,0,0,0,.8-.22Zm-.28-6.52a1.92,1.92,0,0,0-1.89-1.67,2,2,0,0,0-1.9,1.67Z"/><path class="cls-2" d="M75.08,87.75l2.34-2.39H78.9l-2.76,2.76,3.29,3.7H78l-2.59-2.94-.29.28v2.66H74V80.48h1.1Z"/><path class="cls-2" d="M81.33,82.92a.8.8,0,1,1-.8-.79A.79.79,0,0,1,81.33,82.92Zm-.25,8.9H80V85.36h1.11Z"/><path class="cls-2" d="M87.09,91.82H86V86.39h-.67v-1H86V83h1.11v2.33h1.15v1H87.09Z"/><path class="cls-2" d="M89.5,88.82A2.07,2.07,0,0,0,91.56,91c.85,0,1.37-.36,2-1.36l.93.53a3.19,3.19,0,0,1-3,1.84,3.4,3.4,0,0,1-.05-6.79c1.86,0,3.09,1.36,3.09,3.41v.19Zm3.88-.93a1.93,1.93,0,0,0-1.9-1.67,2,2,0,0,0-1.9,1.67Z"/><path class="cls-2" d="M96.79,85.36v.7a1.83,1.83,0,0,1,1.6-.85,2,2,0,0,1,1.78,1,2,2,0,0,1,1.88-1,2,2,0,0,1,1.74.87,2.93,2.93,0,0,1,.36,1.65v4.09h-1.1V87.9c0-1.18-.35-1.68-1.17-1.68s-1.39.67-1.39,2v3.58h-1.1V88c0-1.18-.41-1.77-1.2-1.77a1.35,1.35,0,0,0-1.17.7,3.26,3.26,0,0,0-.23,1.39v3.51H95.68V85.36Z"/><path class="cls-2" d="M106.82,89.13a2.56,2.56,0,0,0,.2,1.21,1.39,1.39,0,0,0,1.26.66,1.37,1.37,0,0,0,1.24-.66,2.54,2.54,0,0,0,.21-1.21V85.36h1.1v3.89a2.54,2.54,0,0,1-.59,2,2.8,2.8,0,0,1-3.94,0,2.58,2.58,0,0,1-.59-2V85.36h1.11Z"/><path class="cls-2" d="M115.72,95.46V85.36h1.11v.92a2.69,2.69,0,0,1,2.22-1.07,3.19,3.19,0,0,1,3.12,3.42A3.15,3.15,0,0,1,119.08,92a2.75,2.75,0,0,1-2.25-1.09v4.54Zm1-6.83a2.15,2.15,0,1,0,4.28,0,2.16,2.16,0,1,0-4.28,0Z"/><path class="cls-2" d="M124.43,85.36v.7c.57-.68.85-.85,1.46-.85a1.73,1.73,0,0,1,1,.28l-.51,1a1.09,1.09,0,0,0-.66-.21,1.18,1.18,0,0,0-1,.59,3.34,3.34,0,0,0-.24,1.55v3.41h-1.11V85.36Z"/><path class="cls-2" d="M133.77,88.62a3.42,3.42,0,1,1-3.41-3.4A3.37,3.37,0,0,1,133.77,88.62Zm-5.7,0a2.28,2.28,0,1,0,2.27-2.35A2.25,2.25,0,0,0,128.07,88.59Z"/><path class="cls-2" d="M140.94,80.48V91.82h-1.12v-.88A2.67,2.67,0,0,1,137.6,92a3.18,3.18,0,0,1-3.1-3.42,3.14,3.14,0,0,1,3.08-3.37,2.81,2.81,0,0,1,2.26,1.06v-5.8Zm-5.3,8.07A2.22,2.22,0,0,0,137.75,91a2.51,2.51,0,0,0,1.5-4.17,2.14,2.14,0,0,0-3.61,1.72Z"/><path class="cls-2" d="M143.61,89.13a2.56,2.56,0,0,0,.2,1.21,1.39,1.39,0,0,0,1.26.66,1.37,1.37,0,0,0,1.24-.66,2.42,2.42,0,0,0,.21-1.21V85.36h1.1v3.89a2.54,2.54,0,0,1-.59,2,2.8,2.8,0,0,1-3.94,0,2.58,2.58,0,0,1-.59-2V85.36h1.11Z"/><path class="cls-2" d="M150.29,87.75l2.33-2.39h1.48l-2.76,2.76,3.29,3.7h-1.46l-2.6-2.94-.28.28v2.66h-1.11V80.48h1.11Z"/><path class="cls-2" d="M161.59,88.62a3.42,3.42,0,1,1-6.84-.07,3.42,3.42,0,0,1,6.84.07Zm-5.7,0a2.28,2.28,0,1,0,2.27-2.35A2.25,2.25,0,0,0,155.89,88.59Z"/><path class="cls-2" d="M165,89.74l2-4.87,2,4.87,1.93-4.38h1.25L169,92.27l-2-4.81-2,4.81-3.18-6.91H163Z"/><path class="cls-2" d="M178.82,85.36v6.46h-1.1v-.9A2.74,2.74,0,0,1,175.49,92a3.19,3.19,0,0,1-3.11-3.44,3.13,3.13,0,0,1,3.08-3.36,2.75,2.75,0,0,1,2.26,1.07v-.92Zm-5.3,3.19a2.16,2.16,0,1,0,4.28,0,2.15,2.15,0,1,0-4.28,0Z"/><path class="cls-2" d="M181.49,85.36v.78a2.14,2.14,0,0,1,1.86-.93,2.21,2.21,0,0,1,1.86.89,3.07,3.07,0,0,1,.35,1.72v4h-1.1V88a2.19,2.19,0,0,0-.22-1.26,1.29,1.29,0,0,0-1.15-.53c-1.12,0-1.6.72-1.6,2.38v3.22h-1.11V85.36Z"/><path class="cls-2" d="M186.19,85.36h1.27L189.75,90l2.09-4.63h1.26l-4.78,10.1h-1.24l2.08-4.24Z"/><path class="cls-2" d="M201.54,86.59a3.07,3.07,0,0,0-1.36-.34c-.43,0-.76.22-.76.5s.19.4,1.12.61c1.39.28,2.06,1,2.06,2.08,0,1.6-1.33,2.65-3.36,2.65a5.43,5.43,0,0,1-2.82-.81l.9-1.76a3.91,3.91,0,0,0,2,.72c.45,0,.78-.24.78-.55s-.22-.47-1.06-.65c-1.49-.31-2.07-.86-2.07-2,0-1.58,1.2-2.56,3.15-2.56a5.51,5.51,0,0,1,2.27.45Zm-1.82-2.86-1.15-.86,2-2.39,1.58,1.13Z"/><path class="cls-2" d="M205.79,91.82H203.3V80.41h2.49Z"/><path class="cls-2" d="M209.42,88.77a1.27,1.27,0,1,0,2.53,0v-4h2.49v4.48c0,1.87-1.3,2.87-3.75,2.87s-3.76-1-3.76-2.87V84.77h2.49Z"/><path class="cls-2" d="M222.18,89.75v2.07H215l3.33-5h-2.88V84.77h7l-3.3,5Z"/><path class="cls-2" d="M229.11,82.06a1.4,1.4,0,1,1-1.4-1.4A1.41,1.41,0,0,1,229.11,82.06ZM229,95.36h-2.49V84.77H229Z"/><path class="cls-2" d="M232.34,88.76c0,1,.51,1.58,1.5,1.58a1.26,1.26,0,0,0,1.24-.67h2.39a2.93,2.93,0,0,1-.62,1.25,3.91,3.91,0,0,1-3,1.18c-2.44,0-4-1.48-4-3.75a3.89,3.89,0,0,1,7.77.16v.25Zm2.92-1.45a1.43,1.43,0,0,0-1.46-1.14,1.32,1.32,0,0,0-1.4,1.14Z"/><path class="cls-2" d="M243.12,86.59a3,3,0,0,0-1.35-.34c-.44,0-.76.22-.76.5s.18.4,1.12.61c1.38.28,2.05,1,2.05,2.08,0,1.6-1.32,2.65-3.36,2.65a5.46,5.46,0,0,1-2.82-.81l.91-1.76a3.88,3.88,0,0,0,2,.72c.45,0,.78-.24.78-.55s-.22-.47-1.06-.65c-1.5-.31-2.07-.86-2.07-2,0-1.58,1.2-2.56,3.14-2.56A5.45,5.45,0,0,1,244,85Z"/><path class="cls-2" d="M247.67,91.82h-2.49v-5h-.82V84.77h.82V82.66h2.49v2.11h1.42v2.07h-1.42Z"/><path class="cls-2" d="M255.28,84.77v.87a3,3,0,0,1,2.29-1A2.55,2.55,0,0,1,260,86a2.7,2.7,0,0,1,2.4-1.32,2.42,2.42,0,0,1,2,.95,2.82,2.82,0,0,1,.39,1.65v4.57h-2.49V88.34a2.17,2.17,0,0,0-.14-1.12,1,1,0,0,0-.9-.63,1.19,1.19,0,0,0-1,.66,2.49,2.49,0,0,0-.17,1.09v3.48h-2.49V88.34a2.73,2.73,0,0,0-.11-1.12,1.06,1.06,0,0,0-1-.67,1.18,1.18,0,0,0-1,.59,2.56,2.56,0,0,0-.18,1.2v3.48h-2.49v-7Z"/><path class="cls-2" d="M268.38,84.77v.89a2.59,2.59,0,0,1,2.25-1,2.63,2.63,0,0,1,2,.78,2.34,2.34,0,0,1,.66,1.94v4.48h-2.49V88.26c0-.72,0-.86-.16-1.12a1.09,1.09,0,0,0-1-.55,1.43,1.43,0,0,0-1,.47,1.51,1.51,0,0,0-.26,1v3.78h-2.49v-7Z"/><path class="cls-2" d="M277.11,82.06a1.4,1.4,0,1,1-1.4-1.4A1.4,1.4,0,0,1,277.11,82.06ZM277,91.82h-2.49v-7H277Z"/><path class="cls-2" d="M280.34,88.76c0,1,.51,1.58,1.51,1.58a1.26,1.26,0,0,0,1.23-.67h2.39a2.82,2.82,0,0,1-.62,1.25,3.9,3.9,0,0,1-3,1.18c-2.45,0-4-1.48-4-3.75a3.88,3.88,0,0,1,7.76.16v.25Zm2.92-1.45a1.43,1.43,0,0,0-1.46-1.14,1.32,1.32,0,0,0-1.4,1.14Z"/><path class="cls-2" d="M289.09,82.06a1.41,1.41,0,1,1-1.4-1.4A1.41,1.41,0,0,1,289.09,82.06Zm-.16,13.3h-2.49V84.77h2.49Z"/><path class="cls-2" d="M295.89,91.82H293.4V80.41h2.49Z"/><path class="cls-2" d="M299.27,88.76c0,1,.51,1.58,1.51,1.58a1.25,1.25,0,0,0,1.23-.67h2.4a2.93,2.93,0,0,1-.63,1.25,3.9,3.9,0,0,1-3,1.18c-2.45,0-4-1.48-4-3.75a3.88,3.88,0,0,1,7.76.16v.25Zm2.93-1.45a1.45,1.45,0,0,0-1.47-1.14,1.33,1.33,0,0,0-1.4,1.14Z"/><path class="cls-2" d="M305.37,95.36V84.77h2.49v.78a2.54,2.54,0,0,1,2.18-1,3.77,3.77,0,0,1,0,7.52,2.82,2.82,0,0,1-2.2-.92v4.22Zm2.42-7.07a1.61,1.61,0,1,0,1.6-1.6A1.62,1.62,0,0,0,307.79,88.29Z"/><path class="cls-2" d="M317,87.31l2.61-2.54H323L319.45,88l3.75,3.8h-3.5L317,89v2.86h-2.49V80.41H317Z"/><path class="cls-2" d="M326.16,82.06a1.4,1.4,0,1,1-1.4-1.4A1.41,1.41,0,0,1,326.16,82.06ZM326,91.82h-2.49v-7H326Z"/><path class="cls-2" d="M333.12,82.06a1.4,1.4,0,1,1-1.4-1.4A1.41,1.41,0,0,1,333.12,82.06ZM333,91.82h-2.49v-7H333Z"/><path class="cls-2" d="M339.92,84.77v1.15a2.51,2.51,0,0,1,2.32-1.26l.48,0v2.39a1.94,1.94,0,0,0-1.05-.27c-1.17,0-1.75.67-1.75,2v3h-2.49v-7Z"/><path class="cls-2" d="M349.87,89.75v2.07h-7.14l3.33-5h-2.88V84.77h7l-3.3,5Z"/><path class="cls-2" d="M358.77,84.77v7h-2.49V91a2.52,2.52,0,0,1-2.18,1,3.63,3.63,0,0,1-3.56-3.79,3.59,3.59,0,0,1,3.55-3.73,2.8,2.8,0,0,1,2.19.92v-.69Zm-5.63,3.5a1.62,1.62,0,0,0,1.62,1.64,1.61,1.61,0,1,0-1.62-1.64Z"/><path class="cls-2" d="M367.87,80.41V91.82h-2.49V91a2.53,2.53,0,0,1-2.18,1,3.63,3.63,0,0,1-3.57-3.79,3.59,3.59,0,0,1,3.55-3.73,2.83,2.83,0,0,1,2.2.92v-5Zm-5.64,7.86a1.62,1.62,0,0,0,1.62,1.64,1.61,1.61,0,1,0-1.62-1.64Z"/><path class="cls-2" d="M373.69,86.59a3.06,3.06,0,0,0-1.35-.34c-.44,0-.77.22-.77.5s.19.4,1.13.61c1.38.28,2.05,1,2.05,2.08,0,1.6-1.32,2.65-3.36,2.65a5.46,5.46,0,0,1-2.82-.81l.9-1.76a3.94,3.94,0,0,0,2,.72c.45,0,.77-.24.77-.55s-.21-.47-1.05-.65c-1.5-.31-2.07-.86-2.07-2,0-1.58,1.19-2.56,3.14-2.56a5.48,5.48,0,0,1,2.27.45Z"/><path class="cls-2" d="M382.05,89.75v2.07h-7.14l3.33-5h-2.88V84.77h7l-3.3,5Z"/><path class="cls-2" d="M382.15,84.77H385l1.88,3.61,1.84-3.61h2.85l-5.67,10.59h-2.78l2.39-4.49Z"/><path class="cls-2" d="M53.6,105.74a2.17,2.17,0,0,0-1.29-.43,1.7,1.7,0,1,0,0,3.39,2,2,0,0,0,1.29-.47v2.12a4.11,4.11,0,0,1-1.75.39,3.75,3.75,0,1,1,.07-7.5,3.44,3.44,0,0,1,1.68.39Z"/><path class="cls-2" d="M62.66,107c0,2.24-1.76,3.8-4.28,3.8s-4.2-1.59-4.2-3.86,1.8-3.72,4.23-3.72S62.66,104.76,62.66,107Zm-5.85,0a1.61,1.61,0,1,0,1.6-1.6A1.62,1.62,0,0,0,56.81,106.94Z"/><path class="cls-2" d="M69.36,107.46a1.27,1.27,0,1,0,2.53,0v-4h2.49v4.48c0,1.87-1.3,2.86-3.75,2.86s-3.76-1-3.76-2.86v-4.48h2.49Z"/><path class="cls-2" d="M78.51,103.53l1.18-.82v2l-1.18.77v5H76v-3.82l-1.2.83v-2l1.2-.78V99.1h2.49Z"/><path class="cls-2" d="M88.1,103.46v7.05H85.61v-.78a2.54,2.54,0,0,1-2.18,1,3.77,3.77,0,0,1,0-7.52,2.82,2.82,0,0,1,2.2.92v-.68ZM82.46,107a1.62,1.62,0,0,0,1.62,1.63,1.61,1.61,0,1,0,0-3.22A1.62,1.62,0,0,0,82.46,107Z"/><path class="cls-2" d="M92,110.51H89.53v-5h-.82v-2.07h.82v-2.12H92v2.12h1.42v2.07H92Z"/><path class="cls-2" d="M97.43,107.18l1.77-3.72h1.56l1.77,3.82,1.77-3.82h2.78l-3.69,7.05h-1.68L100,106.65l-1.68,3.86H96.58L93,103.46h2.79Z"/><path class="cls-2" d="M110,100.75a1.4,1.4,0,1,1-1.4-1.4A1.39,1.39,0,0,1,110,100.75Zm-.15,9.76h-2.49v-7.05h2.49Z"/><path class="cls-2" d="M119,103.46v7.05h-2.49v-.78a2.54,2.54,0,0,1-2.18,1,3.77,3.77,0,0,1,0-7.52,2.82,2.82,0,0,1,2.2.92v-.68Zm-5.64,3.5a1.62,1.62,0,0,0,1.62,1.63,1.61,1.61,0,0,0,0-3.22A1.62,1.62,0,0,0,113.32,107Z"/><path class="cls-2" d="M126.08,100.75a1.41,1.41,0,1,1-1.41-1.4A1.4,1.4,0,0,1,126.08,100.75ZM125.92,114h-2.49V103.46h2.49Z"/><path class="cls-2" d="M129.3,107.44c0,1.06.51,1.59,1.51,1.59a1.25,1.25,0,0,0,1.23-.67h2.39a2.83,2.83,0,0,1-.62,1.24,3.91,3.91,0,0,1-3,1.19c-2.45,0-4-1.48-4-3.75a3.88,3.88,0,0,1,7.76.15v.25Zm2.92-1.45a1.42,1.42,0,0,0-1.46-1.13,1.32,1.32,0,0,0-1.4,1.13Z"/><path class="cls-2" d="M143.29,110a3.45,3.45,0,0,1-.95,2.91,4.18,4.18,0,0,1-3.14,1.14,4.13,4.13,0,0,1-3.24-1.24,2.56,2.56,0,0,1-.76-1.47H138a1.11,1.11,0,0,0,1.18.72,1.61,1.61,0,0,0,1.33-.61,2,2,0,0,0,.29-1.09v-.65a2.92,2.92,0,0,1-2.22.92,3.37,3.37,0,0,1-3.46-3.57,3.63,3.63,0,0,1,3.58-3.83,2.52,2.52,0,0,1,2.1.94v-.73h2.49Zm-5.57-3.08a1.61,1.61,0,1,0,1.61-1.59A1.61,1.61,0,0,0,137.72,106.94Z"/><path class="cls-2" d="M152.65,107c0,2.24-1.76,3.8-4.28,3.8a3.87,3.87,0,0,1-4.2-3.86c0-2.13,1.8-3.72,4.23-3.72S152.65,104.76,152.65,107Zm-5.85,0a1.61,1.61,0,1,0,1.6-1.6A1.62,1.62,0,0,0,146.8,106.94Z"/><path class="cls-2" d="M165.06,107c0,2.24-1.76,3.8-4.28,3.8a3.87,3.87,0,0,1-4.2-3.86c0-2.13,1.8-3.72,4.23-3.72S165.06,104.76,165.06,107Zm-5.85,0a1.61,1.61,0,1,0,1.6-1.6A1.62,1.62,0,0,0,159.21,106.94Z"/><path class="cls-2" d="M173.89,99.1v11.41H171.4v-.78a2.54,2.54,0,0,1-2.18,1,3.77,3.77,0,0,1,0-7.52,2.82,2.82,0,0,1,2.2.92v-5ZM168.25,107a1.62,1.62,0,0,0,1.62,1.63,1.61,1.61,0,1,0,0-3.22A1.62,1.62,0,0,0,168.25,107Z"/><path class="cls-2" d="M177.52,106l2.61-2.53h3.41L180,106.71l3.75,3.8h-3.5l-2.74-2.87v2.87H175V99.1h2.49Z"/><path class="cls-2" d="M186.56,103.46v1.15a2.5,2.5,0,0,1,2.32-1.26l.49,0v2.38a2.07,2.07,0,0,0-1.06-.27c-1.17,0-1.75.67-1.75,2v3h-2.49v-7.05Z"/><path class="cls-2" d="M196.51,108.44v2.07h-7.14l3.33-5h-2.88v-2.07h7l-3.3,5Z"/><path class="cls-2" d="M200.25,110.51h-2.49v-5h-.83v-2.07h.83v-2.12h2.49v2.12h1.42v2.07h-1.42Z"/><path class="cls-2" d="M204.53,107.46a1.27,1.27,0,1,0,2.54,0v-4h2.49v4.48c0,1.87-1.31,2.86-3.75,2.86s-3.77-1-3.77-2.86v-4.48h2.49Z"/><path class="cls-2" d="M215.38,105.28a2.92,2.92,0,0,0-1.35-.35c-.44,0-.77.22-.77.5s.19.41,1.13.61c1.38.28,2.05.95,2.05,2.08,0,1.61-1.32,2.65-3.36,2.65a5.36,5.36,0,0,1-2.82-.81l.9-1.76a3.94,3.94,0,0,0,2,.72c.45,0,.77-.23.77-.55s-.21-.46-1.05-.65c-1.5-.31-2.07-.86-2.07-2,0-1.57,1.19-2.55,3.14-2.55a5.33,5.33,0,0,1,2.27.45Z"/><path class="cls-2" d="M223.74,108.44v2.07H216.6l3.33-5h-2.88v-2.07h7l-3.3,5Z"/><path class="cls-2" d="M232.65,103.46v7.05h-2.49v-.78a2.54,2.54,0,0,1-2.18,1,3.77,3.77,0,0,1,0-7.52,2.83,2.83,0,0,1,2.2.92v-.68ZM227,107a1.62,1.62,0,0,0,1.62,1.63,1.61,1.61,0,0,0,0-3.22A1.62,1.62,0,0,0,227,107Z"/><path class="cls-2" d="M236.28,103.46v.88a2.59,2.59,0,0,1,2.25-1,2.65,2.65,0,0,1,2,.78,2.35,2.35,0,0,1,.66,1.94v4.49h-2.49v-3.57c0-.71,0-.85-.16-1.12a1.09,1.09,0,0,0-1-.54,1.42,1.42,0,0,0-1,.46,1.47,1.47,0,0,0-.26,1v3.79h-2.49v-7.05Z"/><path class="cls-2" d="M245,100.75a1.4,1.4,0,1,1-1.4-1.4A1.39,1.39,0,0,1,245,100.75Zm-.15,9.76h-2.49v-7.05h2.49Z"/><path class="cls-2" d="M248.23,107.44c0,1.06.52,1.59,1.51,1.59a1.25,1.25,0,0,0,1.23-.67h2.4a2.94,2.94,0,0,1-.62,1.24,3.93,3.93,0,0,1-3,1.19c-2.44,0-4-1.48-4-3.75a3.89,3.89,0,0,1,7.77.15v.25Zm2.93-1.45a1.43,1.43,0,0,0-1.46-1.13,1.32,1.32,0,0,0-1.4,1.13Z"/><path class="cls-2" d="M258.9,98.93a11.41,11.41,0,0,0,0,7.76l-.58.27a11.83,11.83,0,0,1,0-8.29Z"/><path class="cls-2" d="M260.08,100.84a1.7,1.7,0,0,1,3.4,0,1.54,1.54,0,0,1-.77,1.33,1.56,1.56,0,0,1,.88,1.46,1.76,1.76,0,0,1-1.81,1.79,1.77,1.77,0,0,1-1.85-1.77,1.56,1.56,0,0,1,.9-1.48A1.5,1.5,0,0,1,260.08,100.84Zm.51,2.77a1.17,1.17,0,1,0,2.34,0,1.17,1.17,0,0,0-2.34,0Zm.14-2.78a1.05,1.05,0,1,0,1-1A1.05,1.05,0,0,0,260.73,100.83Z"/><path class="cls-2" d="M264.55,106.69a11.41,11.41,0,0,0,0-7.76l.57-.26a11.68,11.68,0,0,1,0,8.29Z"/><path class="cls-2" d="M268.85,109.88a.76.76,0,0,1-.76.78.77.77,0,1,1,0-1.54A.76.76,0,0,1,268.85,109.88Z"/></g></svg>