<svg xmlns="http://www.w3.org/2000/svg" viewBox="0 0 480 225"><defs><style>.cls-1{fill:#174282;}</style></defs><title>text_reco_PTP</title><g id="Warstwa_2" data-name="Warstwa 2"><path class="cls-1" d="M33.5,106.22H29.39l-3.14-4.88v4.88H23V93.52h5.11a3.92,3.92,0,0,1,3.12,1.13,4.08,4.08,0,0,1,1.09,2.79,3.77,3.77,0,0,1-1.16,2.82,3.31,3.31,0,0,1-1.62.76Zm-6.64-7a2.29,2.29,0,0,0,1.4-.34,1.66,1.66,0,0,0,.63-1.24,1.64,1.64,0,0,0-.63-1.23,2.29,2.29,0,0,0-1.4-.34h-.61v3.15Z"/><path class="cls-1" d="M38.18,96.32v2.11h3.71v2.8H38.18v2.19H42.1v2.8H34.89V93.52H42.1v2.8Z"/><path class="cls-1" d="M51.5,93.52h4.07l-5,6,5.5,6.68H51.77l-4.28-5.5v5.5H44.2V93.52h3.29v5.24Z"/><path class="cls-1" d="M68.4,95.27a6.79,6.79,0,0,1-.55,9.8,7,7,0,0,1-4.7,1.6,6.78,6.78,0,0,1-4.59-11.93,7.27,7.27,0,0,1,4.65-1.6A6.85,6.85,0,0,1,68.4,95.27Zm-8.77,4.59a3.58,3.58,0,1,0,3.58-3.52A3.57,3.57,0,0,0,59.63,99.86Z"/><path class="cls-1" d="M73.9,93.52h3.26l2.57,6.78,2.72-6.78h3.29l1.9,12.7H84.35l-.93-7.31-3.07,7.31H79l-2.93-7.31L75,106.22H71.75Z"/><path class="cls-1" d="M93,96.32v2.11h3.71v2.8H93v2.19H97v2.8H89.74V93.52H97v2.8Z"/><path class="cls-1" d="M99.05,93.52h3.29l6.07,7.77V93.52h3.29v12.7h-3.29l-6.07-7.77v7.77H99.05Z"/><path class="cls-1" d="M114.37,93.52h4.87a6.35,6.35,0,0,1,0,12.7h-4.87Zm4,9.9a3.24,3.24,0,0,0,2.7-1.07,3.8,3.8,0,0,0,0-5,3.27,3.27,0,0,0-2.7-1.07h-.76v7.1Z"/><path class="cls-1" d="M130.26,104l-.88,2.21H125.9l4.87-12.7h3.6l4.77,12.7h-3.52l-.81-2.21Zm2.3-6.57-1.39,4.06h2.74Z"/><path class="cls-1" d="M149.33,97.84a3.58,3.58,0,0,0-2.86-1.39,3.33,3.33,0,0,0-3.4,3.51,3.12,3.12,0,0,0,1.12,2.56,3.55,3.55,0,0,0,2.28.84,3.76,3.76,0,0,0,2.86-1.33v3.9a8.14,8.14,0,0,1-3,.63,7.16,7.16,0,0,1-5.08-2.21,6.28,6.28,0,0,1-1.68-4.38,6.67,6.67,0,0,1,6.72-6.71,7.54,7.54,0,0,1,3,.64Z"/><path class="cls-1" d="M157.93,102.3a3.71,3.71,0,0,1-1,2.93,4.25,4.25,0,0,1-3.16,1.33,3.73,3.73,0,0,1-3.31-1.89l2.15-2.18c.1.74.51,1.23,1.08,1.23s.94-.49.94-1.46l0-.72v-8h3.29Z"/><path class="cls-1" d="M163.73,104l-.87,2.21h-3.48l4.87-12.7h3.59l4.78,12.7H169.1l-.82-2.21ZM166,97.44l-1.39,4.06h2.74Z"/><path class="cls-1" d="M26.25,129.05H23V116.36h5.23a4,4,0,0,1,4.41,4.21,4.58,4.58,0,0,1-1,3.08,4.06,4.06,0,0,1-3.27,1.18H26.25Zm1.08-6.86c1.26,0,1.83-.5,1.83-1.58s-.59-1.6-1.81-1.6h-1.1v3.18Z"/><path class="cls-1" d="M46,118.11a6.68,6.68,0,0,1,1.83,4.65,6.76,6.76,0,0,1-2.38,5.15,7.07,7.07,0,0,1-4.7,1.6,6.78,6.78,0,0,1-4.59-11.93,7.27,7.27,0,0,1,4.65-1.6A6.85,6.85,0,0,1,46,118.11Zm-8.77,4.59a3.58,3.58,0,1,0,3.58-3.52A3.56,3.56,0,0,0,37.23,122.7Z"/><path class="cls-1" d="M53.22,126.26h4v2.79H49.92V116.36h3.3Z"/><path class="cls-1" d="M65.89,119.66a3.36,3.36,0,0,0-2.17-.86c-.8,0-1.41.47-1.41,1.1a.84.84,0,0,0,.31.63c.38.3.49.36,2,.8,2.2.65,3.12,1.67,3.12,3.56a4.13,4.13,0,0,1-1.3,3.29,5.58,5.58,0,0,1-3.67,1.2,7.86,7.86,0,0,1-4.4-1.43l1.41-2.66a4.45,4.45,0,0,0,2.91,1.29c1,0,1.6-.49,1.6-1.24s-.44-1-2-1.46a6.43,6.43,0,0,1-2.41-1,3.07,3.07,0,0,1-1-2.51,4.08,4.08,0,0,1,4.32-4.28,8.73,8.73,0,0,1,4,1Z"/><path class="cls-1" d="M77.16,116.36h4.07l-5,6,5.5,6.67H77.42l-4.28-5.49v5.49H69.85V116.36h3.29v5.24Z"/><path class="cls-1" d="M86.52,129.05H83.23V116.36h3.29Z"/><path class="cls-1" d="M92.54,119.16v2.11h3.71v2.8H92.54v2.19h3.92v2.79H89.24V116.36h7.22v2.8Z"/><path class="cls-1" d="M111.32,122a9.29,9.29,0,0,1-.67,3.91,6,6,0,0,1-5.84,3.59A6.43,6.43,0,0,1,98,122.78a6.51,6.51,0,0,1,6.88-6.82,5.83,5.83,0,0,1,5.71,3.58l-3.14,1.29a2.78,2.78,0,0,0-2.72-2c-1.88,0-3.29,1.69-3.29,4a4.55,4.55,0,0,0,1.14,3.09,2.92,2.92,0,0,0,2.25.91,2.64,2.64,0,0,0,2.15-.93,2.59,2.59,0,0,0,.45-1.28h-2.7V122Z"/><path class="cls-1" d="M125.12,118.11a6.8,6.8,0,0,1-.56,9.8,7,7,0,0,1-4.69,1.6,6.78,6.78,0,0,1-4.59-11.93,7.25,7.25,0,0,1,4.64-1.6A6.87,6.87,0,0,1,125.12,118.11Zm-8.78,4.59a3.58,3.58,0,1,0,3.58-3.52A3.56,3.56,0,0,0,116.34,122.7Z"/><path class="cls-1" d="M138.69,129.05H135.4v-9.89h-2.69v-2.8h8.72v2.8h-2.74Z"/><path class="cls-1" d="M154.58,118.11a6.68,6.68,0,0,1,1.83,4.65,6.76,6.76,0,0,1-2.38,5.15,7.07,7.07,0,0,1-4.7,1.6,6.78,6.78,0,0,1-4.59-11.93,7.25,7.25,0,0,1,4.64-1.6A6.85,6.85,0,0,1,154.58,118.11Zm-8.77,4.59a3.58,3.58,0,1,0,3.57-3.52A3.56,3.56,0,0,0,145.81,122.7Z"/><path class="cls-1" d="M162.88,124.56l2.68-8.2h2.63l2.49,8.2,2.4-8.2h3.44l-4.05,12.69H169.1l-2.3-7.34-2.44,7.34H161l-3.78-12.69h3.44Z"/><path class="cls-1" d="M181.07,126.85l-.87,2.2h-3.48l4.87-12.69h3.59L190,129.05h-3.52l-.82-2.2Zm2.31-6.57L182,124.34h2.74Z"/><path class="cls-1" d="M202,129.05h-4.11l-3.14-4.87v4.87h-3.3V116.36h5.12a3.92,3.92,0,0,1,3.12,1.13,4.08,4.08,0,0,1,1.09,2.79,3.77,3.77,0,0,1-1.16,2.82,3.31,3.31,0,0,1-1.62.76Zm-6.65-7a2.3,2.3,0,0,0,1.41-.34,1.66,1.66,0,0,0,.63-1.24,1.64,1.64,0,0,0-.63-1.23,2.3,2.3,0,0,0-1.41-.35h-.6v3.16Z"/><path class="cls-1" d="M213.26,126.26v2.79H202.39l6-9.89h-5v-2.8h10.5l-6,9.9Z"/><path class="cls-1" d="M214,116.36h3.94l2.4,3.47,2.3-3.47h4L221.86,123v6.08h-3.29V123Z"/><path class="cls-1" d="M234.74,119.66a3.36,3.36,0,0,0-2.17-.86c-.79,0-1.4.47-1.4,1.1a.83.83,0,0,0,.3.63c.38.3.49.36,2,.8,2.21.65,3.12,1.67,3.12,3.56a4.15,4.15,0,0,1-1.29,3.29,5.63,5.63,0,0,1-3.68,1.2,7.8,7.8,0,0,1-4.39-1.43l1.41-2.66a4.43,4.43,0,0,0,2.91,1.29c1,0,1.6-.49,1.6-1.24s-.44-1-2-1.46a6.51,6.51,0,0,1-2.42-1,3.07,3.07,0,0,1-1-2.51,4.08,4.08,0,0,1,4.32-4.28,8.8,8.8,0,0,1,4,1Z"/><path class="cls-1" d="M243.48,129.05h-3.29v-9.89H237.5v-2.8h8.72v2.8h-2.74Z"/><path class="cls-1" d="M252,124.56l2.69-8.2h2.62l2.5,8.2,2.39-8.2h3.45l-4.06,12.69h-3.36L256,121.71l-2.43,7.34h-3.35l-3.79-12.69h3.45Z"/><path class="cls-1" d="M270.24,126.85l-.88,2.2h-3.48l4.87-12.69h3.6l4.78,12.69h-3.52l-.82-2.2Zm2.3-6.57-1.39,4.06h2.74Z"/><path class="cls-1" d="M288.76,129.05h-3.29V116.36h5.23a4,4,0,0,1,4.41,4.21,4.58,4.58,0,0,1-1,3.08,4.06,4.06,0,0,1-3.27,1.18h-2.05Zm1.08-6.86c1.26,0,1.83-.5,1.83-1.58s-.59-1.6-1.81-1.6h-1.1v3.18Z"/><path class="cls-1" d="M300.22,119.16v2.11h3.71v2.8h-3.71v2.19h3.91v2.79h-7.21V116.36h7.21v2.8Z"/><path class="cls-1" d="M306.29,116.36h4.87a6.35,6.35,0,0,1,0,12.69h-4.87Zm4,9.9a3.27,3.27,0,0,0,2.7-1.07,3.8,3.8,0,0,0,0-5,3.24,3.24,0,0,0-2.7-1.07h-.76v7.1Z"/><path class="cls-1" d="M322.86,129.05h-3.29V116.36h3.29Z"/><path class="cls-1" d="M328.74,126.85l-.87,2.2h-3.48l4.87-12.69h3.59l4.78,12.69h-3.52l-.82-2.2Zm2.31-6.57-1.39,4.06h2.74Z"/><path class="cls-1" d="M343.93,129.05h-3.29v-9.89H338v-2.8h8.71v2.8h-2.74Z"/><path class="cls-1" d="M358.72,129.05h-4.11l-3.14-4.87v4.87h-3.29V116.36h5.11a4,4,0,0,1,3.13,1.13,4.12,4.12,0,0,1,1.08,2.79,3.77,3.77,0,0,1-1.16,2.82,3.31,3.31,0,0,1-1.62.76Zm-6.64-7a2.32,2.32,0,0,0,1.41-.34,1.65,1.65,0,0,0,.62-1.24,1.63,1.63,0,0,0-.62-1.23,2.32,2.32,0,0,0-1.41-.35h-.61v3.16Z"/><path class="cls-1" d="M358.61,116.36h3.93l2.4,3.47,2.31-3.47h4L366.48,123v6.08h-3.29V123Z"/><path class="cls-1" d="M381.54,120.68a3.56,3.56,0,0,0-2.86-1.39,3.33,3.33,0,0,0-3.4,3.5,3.12,3.12,0,0,0,1.12,2.57,3.57,3.57,0,0,0,2.28.84,3.76,3.76,0,0,0,2.86-1.33v3.9a8.14,8.14,0,0,1-3,.63,7.16,7.16,0,0,1-5.08-2.21,6.28,6.28,0,0,1-1.68-4.38,6.67,6.67,0,0,1,6.72-6.71,7.54,7.54,0,0,1,3,.64Z"/><path class="cls-1" d="M393.47,126.26v2.79H382.61l6-9.89h-5v-2.8h10.51l-6,9.9Z"/><path class="cls-1" d="M395.76,116.36h3.29l6.07,7.77v-7.77h3.29v12.69h-3.29l-6.07-7.76v7.76h-3.29Z"/><path class="cls-1" d="M414.43,119.16v2.11h3.71v2.8h-3.71v2.19h3.92v2.79h-7.22V116.36h7.22v2.8Z"/><path class="cls-1" d="M433.21,122a9.29,9.29,0,0,1-.67,3.91,6,6,0,0,1-5.84,3.59,6.43,6.43,0,0,1-6.77-6.73,6.52,6.52,0,0,1,6.89-6.82,5.82,5.82,0,0,1,5.7,3.58l-3.14,1.29a2.78,2.78,0,0,0-2.72-2c-1.88,0-3.29,1.69-3.29,4a4.55,4.55,0,0,0,1.14,3.09,3,3,0,0,0,2.25.91,2.64,2.64,0,0,0,2.15-.93,2.59,2.59,0,0,0,.46-1.28h-2.71V122Z"/><path class="cls-1" d="M447,118.11a6.67,6.67,0,0,1,1.82,4.65,6.75,6.75,0,0,1-2.37,5.15,7.07,7.07,0,0,1-4.7,1.6,6.78,6.78,0,0,1-4.59-11.93,7.25,7.25,0,0,1,4.64-1.6A6.85,6.85,0,0,1,447,118.11Zm-8.77,4.59a3.58,3.58,0,1,0,3.57-3.52A3.56,3.56,0,0,0,438.24,122.7Z"/><path class="cls-1" d="M452.21,114.91a13.95,13.95,0,0,0,0,9.48l-.71.32a14.37,14.37,0,0,1,0-10.12Z"/><path class="cls-1" d="M454.66,116.08l.43-.76h1.62v7.4h-.83v-6.64Z"/><path class="cls-1" d="M461,116.08l.44-.76H463v7.4h-.83v-6.64Z"/><path class="cls-1" d="M466.3,124.39a13.95,13.95,0,0,0,0-9.48l.7-.32a14.23,14.23,0,0,1,0,10.12Z"/></g></svg>