<?xml version="1.0" encoding="utf-8"?>
<!-- Generator: Adobe Illustrator 23.1.1, SVG Export Plug-In . SVG Version: 6.00 Build 0)  -->
<svg version="1.1" id="Warstwa_1" xmlns="http://www.w3.org/2000/svg" xmlns:xlink="http://www.w3.org/1999/xlink" x="0px" y="0px"
	 viewBox="0 0 450 250" style="enable-background:new 0 0 450 250;" xml:space="preserve">
<style type="text/css">
	.st0{fill:none;stroke:#174282;stroke-width:4;stroke-linecap:round;stroke-linejoin:round;}
	.st1{fill:none;stroke:#C90C0F;stroke-width:4;stroke-linecap:round;stroke-linejoin:round;stroke-dasharray:5.39;}
	.st2{fill:none;stroke:#7F7F7F;stroke-miterlimit:10;}
	.st3{fill:#7F7F7F;}
	.st4{fill:none;stroke:#7F7F7F;stroke-width:0.5;stroke-miterlimit:10;}
	.st5{enable-background:new    ;}
	.st6{fill:#174282;}
</style>
<title>wykres</title>
<g id="Warstwa_3">
	<path class="st0" d="M55.6,216.1c0,0-27.6-210.1,385.9-137.5"/>
</g>
<g id="Warstwa_4">
	<path class="st1" d="M55.6,216.6c0,0-3-82.2,109.7-106.7c57.5-12.5,147.7,21.7,278.4,24.3"/>
</g>
<g>
	<polyline class="st2" points="53.5,40.5 53.5,217.9 440,217.9 	"/>
	<polygon class="st3" points="48.5,42 53.5,33.4 58.5,42 	"/>
	<line class="st4" x1="48.2" y1="170.4" x2="53.1" y2="170.4"/>
	<line class="st4" x1="48.2" y1="150.2" x2="53.1" y2="150.2"/>
	<line class="st4" x1="48.2" y1="103.9" x2="53.1" y2="103.9"/>
	<line class="st4" x1="48.2" y1="86.7" x2="53.1" y2="86.7"/>
	<line class="st4" x1="48.2" y1="69.6" x2="53.1" y2="69.6"/>
	<line class="st4" x1="48.2" y1="52.4" x2="53.1" y2="52.4"/>
	<g class="st5">
		<path class="st6" d="M39.5,17.9c-0.3-0.1-0.5-0.2-0.7-0.4l0.2-0.3c0.2,0.2,0.4,0.3,0.6,0.4c0.3,0.1,0.5,0.1,0.8,0.1
			c0.4,0,0.7-0.1,0.8-0.2s0.3-0.3,0.3-0.5c0-0.2-0.1-0.3-0.2-0.4c-0.1-0.1-0.2-0.2-0.4-0.2c-0.1-0.1-0.4-0.1-0.6-0.2
			c-0.3-0.1-0.6-0.2-0.8-0.2s-0.3-0.2-0.5-0.3S39,15.2,39,14.9c0-0.2,0.1-0.4,0.2-0.6c0.1-0.2,0.3-0.3,0.5-0.4
			c0.2-0.1,0.5-0.2,0.9-0.2c0.2,0,0.5,0,0.7,0.1c0.2,0.1,0.4,0.2,0.6,0.3l-0.1,0.4c-0.2-0.1-0.4-0.2-0.6-0.3
			c-0.2-0.1-0.4-0.1-0.6-0.1c-0.4,0-0.6,0.1-0.8,0.2c-0.2,0.1-0.3,0.3-0.3,0.5c0,0.2,0.1,0.3,0.2,0.4c0.1,0.1,0.2,0.2,0.4,0.2
			s0.4,0.1,0.6,0.2c0.3,0.1,0.6,0.2,0.7,0.2s0.4,0.2,0.5,0.3c0.1,0.1,0.2,0.4,0.2,0.6c0,0.2-0.1,0.4-0.2,0.6
			c-0.1,0.2-0.3,0.3-0.5,0.4C41.1,18,40.8,18,40.4,18C40.1,18,39.8,18,39.5,17.9z"/>
		<path class="st6" d="M43.7,14.2h-1.5v-0.4h3.4v0.4h-1.5V18h-0.4V14.2z"/>
		<path class="st6" d="M49.3,17.6V18h-3v-4.2h2.9v0.4h-2.4v1.5H49V16h-2.2v1.6H49.3z M48.4,19.2c-0.1-0.1-0.2-0.2-0.2-0.4
			c0-0.4,0.3-0.7,0.8-0.9l0.2,0.2c-0.5,0.2-0.7,0.5-0.7,0.7c0,0.1,0,0.2,0.1,0.2C48.8,19,48.8,19,49,19c0.2,0,0.3,0,0.4-0.1l0.1,0.2
			c-0.1,0.1-0.3,0.1-0.5,0.1C48.7,19.3,48.6,19.3,48.4,19.2z"/>
		<path class="st6" d="M53.4,17.6V18h-3.4v-0.3l2.8-3.5H50v-0.4h3.3v0.3l-2.8,3.5H53.4z M51.5,13.2c-0.1-0.1-0.1-0.1-0.1-0.2
			s0-0.1,0.1-0.2c0.1-0.1,0.1-0.1,0.2-0.1c0.1,0,0.1,0,0.2,0.1c0.1,0.1,0.1,0.1,0.1,0.2s0,0.1-0.1,0.2c-0.1,0.1-0.1,0.1-0.2,0.1
			C51.6,13.3,51.5,13.3,51.5,13.2z"/>
		<path class="st6" d="M57.2,17.6V18h-3v-4.2h2.9v0.4h-2.4v1.5h2.2V16h-2.2v1.6H57.2z"/>
		<path class="st6" d="M61.8,13.8V18h-0.4l-2.7-3.4V18h-0.4v-4.2h0.4l2.7,3.4v-3.4H61.8z"/>
		<path class="st6" d="M63.1,13.8h0.4V18h-0.4V13.8z"/>
		<path class="st6" d="M67.9,17.6V18h-3v-4.2h2.9v0.4h-2.4v1.5h2.2V16h-2.2v1.6H67.9z"/>
	</g>
	<g class="st5">
		<path class="st6" d="M45.5,21v4.2h-0.4v-3.4l-1.6,2.8h-0.2l-1.6-2.8v3.3h-0.4V21h0.4l1.8,3.1l1.8-3.1H45.5z"/>
		<path class="st6" d="M47.6,24.9c-0.3-0.2-0.6-0.4-0.8-0.8c-0.2-0.3-0.3-0.7-0.3-1.1c0-0.4,0.1-0.8,0.3-1.1
			c0.2-0.3,0.5-0.6,0.8-0.8c0.3-0.2,0.7-0.3,1.1-0.3c0.3,0,0.6,0.1,0.9,0.2c0.3,0.1,0.5,0.3,0.7,0.5L50,21.8
			c-0.3-0.3-0.7-0.5-1.2-0.5c-0.3,0-0.6,0.1-0.9,0.2c-0.3,0.2-0.5,0.4-0.6,0.6C47,22.5,47,22.8,47,23.1s0.1,0.6,0.2,0.9
			s0.4,0.5,0.6,0.6s0.6,0.2,0.9,0.2c0.5,0,0.9-0.2,1.2-0.5l0.3,0.3c-0.2,0.2-0.4,0.4-0.7,0.5c-0.3,0.1-0.6,0.2-0.9,0.2
			C48.3,25.2,47.9,25.1,47.6,24.9z"/>
		<path class="st6" d="M54.1,23.1h0.4v1.6c-0.2,0.2-0.4,0.3-0.7,0.4c-0.3,0.1-0.6,0.1-0.8,0.1c-0.4,0-0.8-0.1-1.1-0.3
			c-0.3-0.2-0.6-0.4-0.8-0.8s-0.3-0.7-0.3-1.1c0-0.4,0.1-0.8,0.3-1.1c0.2-0.3,0.5-0.6,0.8-0.8S52.6,21,53,21c0.3,0,0.6,0.1,0.9,0.2
			s0.5,0.3,0.7,0.5l-0.3,0.3c-0.3-0.3-0.8-0.5-1.3-0.5c-0.3,0-0.6,0.1-0.9,0.2c-0.3,0.2-0.5,0.4-0.6,0.6c-0.2,0.3-0.2,0.6-0.2,0.9
			s0.1,0.6,0.2,0.9c0.2,0.3,0.4,0.5,0.6,0.6s0.6,0.2,0.9,0.2c0.4,0,0.8-0.1,1.1-0.3V23.1z"/>
		<path class="st6" d="M56.9,20.1h0.4l-2,5.7h-0.4L56.9,20.1z"/>
		<path class="st6" d="M62.1,21v4.2h-0.4v-3.4l-1.6,2.8h-0.2l-1.6-2.8v3.3h-0.4V21h0.4l1.8,3.1l1.8-3.1H62.1z"/>
		<path class="st6" d="M63.5,21h0.4v3.8h2.4v0.4h-2.8V21z"/>
	</g>
	<g class="st5">
		<path class="st6" d="M36.8,53.5c0,0.5-0.2,0.9-0.5,1.2c-0.4,0.3-0.9,0.5-1.5,0.5c-0.5,0-1-0.1-1.4-0.2l0.1-0.6
			c0.3,0.2,0.7,0.3,1.2,0.3c0.5,0,0.9-0.1,1.1-0.3c0.3-0.2,0.4-0.5,0.4-0.8c0-0.3-0.1-0.6-0.4-0.8c-0.3-0.2-0.6-0.3-1.1-0.3h-0.6
			v-0.5l0.6,0c0.4,0,0.8-0.1,1-0.3c0.2-0.2,0.4-0.4,0.4-0.8c0-0.3-0.1-0.5-0.3-0.7c-0.2-0.2-0.5-0.3-0.9-0.3c-0.4,0-0.8,0.1-1.2,0.3
			l0-0.5c0.5-0.2,0.9-0.2,1.3-0.2c0.6,0,1,0.1,1.3,0.4c0.3,0.3,0.5,0.6,0.5,1c0,0.3-0.1,0.6-0.3,0.8s-0.5,0.4-0.9,0.4
			c0.4,0.1,0.7,0.2,0.9,0.4C36.7,52.8,36.8,53.1,36.8,53.5z"/>
		<path class="st6" d="M41.5,52.3c0,0.9-0.2,1.7-0.5,2.1c-0.3,0.5-0.8,0.7-1.3,0.7c-0.6,0-1-0.2-1.3-0.7c-0.3-0.5-0.5-1.2-0.5-2.1
			c0-0.9,0.2-1.7,0.5-2.1c0.3-0.5,0.8-0.7,1.3-0.7c0.6,0,1,0.2,1.3,0.7C41.4,50.6,41.5,51.3,41.5,52.3z M41,52.3
			c0-1.6-0.4-2.4-1.3-2.4c-0.8,0-1.2,0.8-1.2,2.4c0,1.6,0.4,2.4,1.2,2.4C40.6,54.7,41,53.9,41,52.3z"/>
	</g>
	<g class="st5">
		<path class="st6" d="M36.8,71.9h-3.3v-0.5c0.9-1,1.5-1.7,1.9-2.2c0.4-0.6,0.7-1.1,0.7-1.5c0-0.3-0.1-0.5-0.3-0.7
			c-0.2-0.2-0.4-0.3-0.8-0.3c-0.4,0-0.9,0.1-1.2,0.4l-0.1-0.5c0.5-0.2,1-0.4,1.4-0.4c0.5,0,0.8,0.1,1.1,0.4c0.3,0.3,0.4,0.6,0.4,1
			c0,0.5-0.2,1-0.7,1.6c-0.3,0.5-1,1.2-1.9,2.1h2.7V71.9z"/>
		<path class="st6" d="M41.5,69.1c0,0.9-0.2,1.7-0.5,2.1c-0.3,0.5-0.8,0.7-1.3,0.7c-0.6,0-1-0.2-1.3-0.7c-0.3-0.5-0.5-1.2-0.5-2.1
			c0-0.9,0.2-1.7,0.5-2.1c0.3-0.5,0.8-0.7,1.3-0.7c0.6,0,1,0.2,1.3,0.7C41.4,67.5,41.5,68.2,41.5,69.1z M41,69.1
			c0-1.6-0.4-2.4-1.3-2.4c-0.8,0-1.2,0.8-1.2,2.4c0,1.6,0.4,2.4,1.2,2.4C40.6,71.5,41,70.7,41,69.1z"/>
	</g>
	<g class="st5">
		<path class="st6" d="M35.6,88.8h-0.5v-5l-0.9,0.8L34,84.3l1.2-1.1h0.4V88.8z"/>
		<path class="st6" d="M41.5,86c0,0.9-0.2,1.7-0.5,2.1c-0.3,0.5-0.8,0.7-1.3,0.7c-0.6,0-1-0.2-1.3-0.7c-0.3-0.5-0.5-1.2-0.5-2.1
			c0-0.9,0.2-1.7,0.5-2.1c0.3-0.5,0.8-0.7,1.3-0.7c0.6,0,1,0.2,1.3,0.7C41.4,84.3,41.5,85,41.5,86z M41,86c0-1.6-0.4-2.4-1.3-2.4
			c-0.8,0-1.2,0.8-1.2,2.4c0,1.6,0.4,2.4,1.2,2.4C40.6,88.4,41,87.6,41,86z"/>
	</g>
	<g class="st5">
		<path class="st6" d="M41.4,103.8c0,0.6-0.2,1-0.6,1.3c-0.4,0.3-0.9,0.5-1.5,0.5c-0.4,0-0.8-0.1-1.2-0.2l0-0.6
			c0.3,0.2,0.7,0.3,1.2,0.3c0.4,0,0.8-0.1,1.1-0.4c0.3-0.3,0.4-0.6,0.4-1c0-0.4-0.1-0.7-0.4-0.9c-0.2-0.2-0.6-0.3-1-0.3
			c-0.3,0-0.7,0.1-1.2,0.2l0-2.8h2.9v0.4h-2.3l0,1.8c0.3-0.1,0.6-0.1,0.8-0.1c0.6,0,1,0.1,1.4,0.4C41.3,102.9,41.4,103.3,41.4,103.8
			z"/>
	</g>
	<g class="st5">
		<path class="st6" d="M40.1,152.6h-0.5v-5l-0.9,0.8l-0.3-0.3l1.2-1.1h0.4V152.6z"/>
	</g>
	<g class="st5">
		<path class="st6" d="M34.8,170.2c0,0.9-0.2,1.7-0.5,2.1c-0.3,0.5-0.8,0.7-1.3,0.7c-0.6,0-1-0.2-1.3-0.7c-0.3-0.5-0.5-1.2-0.5-2.1
			c0-0.9,0.2-1.7,0.5-2.1c0.3-0.5,0.8-0.7,1.3-0.7c0.6,0,1,0.2,1.3,0.7C34.7,168.6,34.8,169.3,34.8,170.2z M34.3,170.2
			c0-1.6-0.4-2.4-1.3-2.4c-0.8,0-1.2,0.8-1.2,2.4c0,1.6,0.4,2.4,1.2,2.4C33.8,172.6,34.3,171.8,34.3,170.2z"/>
		<path class="st6" d="M36.7,173H36v-0.7h0.6V173z"/>
		<path class="st6" d="M41.4,171.2c0,0.6-0.2,1-0.6,1.3c-0.4,0.3-0.9,0.5-1.5,0.5c-0.4,0-0.8-0.1-1.2-0.2l0-0.6
			c0.3,0.2,0.7,0.3,1.2,0.3c0.4,0,0.8-0.1,1.1-0.4c0.3-0.3,0.4-0.6,0.4-1c0-0.4-0.1-0.7-0.4-0.9c-0.2-0.2-0.6-0.3-1-0.3
			c-0.3,0-0.7,0.1-1.2,0.2l0-2.8h2.9v0.4h-2.3l0,1.8c0.3-0.1,0.6-0.1,0.8-0.1c0.6,0,1,0.1,1.4,0.4C41.3,170.3,41.4,170.7,41.4,171.2
			z"/>
	</g>
	<g class="st5">
		<path class="st6" d="M34.8,217.4c0,0.9-0.2,1.7-0.5,2.1c-0.3,0.5-0.8,0.7-1.3,0.7c-0.6,0-1-0.2-1.3-0.7c-0.3-0.5-0.5-1.2-0.5-2.1
			c0-0.9,0.2-1.7,0.5-2.1c0.3-0.5,0.8-0.7,1.3-0.7c0.6,0,1,0.2,1.3,0.7C34.7,215.8,34.8,216.5,34.8,217.4z M34.3,217.4
			c0-1.6-0.4-2.4-1.3-2.4c-0.8,0-1.2,0.8-1.2,2.4c0,1.6,0.4,2.4,1.2,2.4C33.8,219.9,34.3,219.1,34.3,217.4z"/>
		<path class="st6" d="M36.7,220.2H36v-0.7h0.6V220.2z"/>
		<path class="st6" d="M40.1,220.2h-0.5v-5l-0.9,0.8l-0.3-0.3l1.2-1.1h0.4V220.2z"/>
	</g>
	<g class="st5">
		<path class="st6" d="M55.6,230.9c0,1.2-0.2,2.1-0.6,2.7c-0.4,0.6-0.9,0.9-1.7,0.9s-1.3-0.3-1.7-0.9s-0.6-1.5-0.6-2.7
			c0-1.2,0.2-2.1,0.6-2.7c0.4-0.6,0.9-0.9,1.7-0.9s1.3,0.3,1.7,0.9C55.4,228.9,55.6,229.8,55.6,230.9z M54.9,230.9c0-2-0.5-3-1.6-3
			c-1,0-1.6,1-1.6,3c0,2,0.5,3,1.6,3C54.4,234,54.9,233,54.9,230.9z"/>
	</g>
	<g class="st5">
		<path class="st6" d="M151.1,234.4h-0.6v-6.2l-1.1,1l-0.4-0.4l1.5-1.3h0.6V234.4z"/>
	</g>
	<g class="st5">
		<path class="st6" d="M247.1,235.1h-6.9v-1.9c1.5-1.2,2.5-2.1,3.2-2.9c0.7-0.8,1.1-1.5,1.1-2c0-0.4-0.1-0.7-0.4-0.9s-0.6-0.4-1-0.4
			c-0.7,0-1.6,0.2-2.5,0.7l-0.1-2c1.1-0.4,2.1-0.6,3.2-0.6c1,0,1.8,0.3,2.4,0.8s0.9,1.2,0.9,2.1c0,1.4-1.2,3.2-3.7,5.2h3.9V235.1z"
			/>
		<path class="st6" d="M257.1,235.1h-2.6v-4.1h-3v4.1h-2.6v-9.7h2.6v3.7h3v-3.7h2.6V235.1z"/>
	</g>
	<line class="st4" x1="150.8" y1="222.1" x2="150.8" y2="218"/>
	<line class="st4" x1="248.8" y1="222.1" x2="248.8" y2="218"/>
</g>
</svg>
